<svg width="512" xmlns="http://www.w3.org/2000/svg" height="512" id="screenshot-22361c87-7e56-8068-8006-8e3078f84ee3" viewBox="0 0 512 512" xmlns:xlink="http://www.w3.org/1999/xlink" fill="none" version="1.1"><g id="shape-22361c87-7e56-8068-8006-8e3078f84ee3"><defs><clipPath id="frame-clip-22361c87-7e56-8068-8006-8e3078f84ee3-render-1" class="frame-clip frame-clip-def"><rect rx="0" ry="0" x="0" y="0" width="512" height="512" transform="matrix(1.000000, 0.000000, 0.000000, 1.000000, 0.000000, 0.000000)"/></clipPath></defs><g class="frame-container-wrapper"><g class="frame-container-blur"><g class="frame-container-shadows"><g clip-path="url(#frame-clip-22361c87-7e56-8068-8006-8e3078f84ee3-render-1)" fill="none"><g class="fills" id="fills-22361c87-7e56-8068-8006-8e3078f84ee3"><rect rx="0" ry="0" x="0" y="0" width="512" height="512" transform="matrix(1.000000, 0.000000, 0.000000, 1.000000, 0.000000, 0.000000)" class="frame-background"/></g><g class="frame-children"><g id="shape-22361c87-7e56-8068-8006-8e3078f84ee4" style="display: none;"><defs><pattern patternUnits="userSpaceOnUse" x="0" y="2.7284841053187847e-12" width="512" height="512" id="fill-0-render-2"><g><image id="fill-image-render-2-0" href="http://localhost:6080/assets/by-file-media-id/cec80257-5021-8137-8005-eab74f8eb224" preserveAspectRatio="none" width="512" height="512" opacity="1"/></g></pattern></defs><g class="fills" id="fills-22361c87-7e56-8068-8006-8e3078f84ee4"><rect rx="0" ry="0" x="0" y="2.7284841053187847e-12" transform="matrix(1.000000, 0.000000, 0.000000, -1.000000, 0.000000, 512.000000)" width="512" height="512" fill="url(#fill-0-render-2)"/></g></g><g id="shape-22361c87-7e56-8068-8006-8e8ec2ae31f7"><defs><filter id="filter-render-3" x="-0.08411214953271028" y="-0.08411214953271028" width="1.1682242990654206" height="1.2172897196261683" filterUnits="objectBoundingBox" color-interpolation-filters="sRGB"><feFlood flood-opacity="0" result="BackgroundImageFix"/><feColorMatrix in="SourceAlpha" type="matrix" values="0 0 0 0 0 0 0 0 0 0 0 0 0 0 0 0 0 0 127 0"/><feOffset dx="0" dy="7"/><feGaussianBlur stdDeviation="3.5"/><feColorMatrix type="matrix" values="0 0 0 0 0 0 0 0 0 0 0 0 0 0 0 0 0 0 0.2 0"/><feBlend mode="normal" in2="BackgroundImageFix" result="filter_22361c87-7e56-8068-8006-8e8ece63adda"/><feBlend mode="normal" in="SourceGraphic" in2="filter_22361c87-7e56-8068-8006-8e8ece63adda" result="shape"/></filter><filter id="filter-shadow-render-3" x="-0.08411214953271028" y="-0.08411214953271028" width="1.1682242990654206" height="1.2172897196261683" filterUnits="objectBoundingBox" color-interpolation-filters="sRGB"><feFlood flood-opacity="0" result="BackgroundImageFix"/><feColorMatrix in="SourceAlpha" type="matrix" values="0 0 0 0 0 0 0 0 0 0 0 0 0 0 0 0 0 0 127 0"/><feOffset dx="0" dy="7"/><feGaussianBlur stdDeviation="3.5"/><feColorMatrix type="matrix" values="0 0 0 0 0 0 0 0 0 0 0 0 0 0 0 0 0 0 0.2 0"/><feBlend mode="normal" in2="BackgroundImageFix" result="filter_22361c87-7e56-8068-8006-8e8ece63adda"/><feBlend mode="normal" in="SourceGraphic" in2="filter_22361c87-7e56-8068-8006-8e8ece63adda" result="shape"/></filter></defs><g class="fills" id="fills-22361c87-7e56-8068-8006-8e8ec2ae31f7"><rect width="428" height="428" x="42" transform="matrix(1.000000, 0.000000, 0.000000, 1.000000, 0.000000, 0.000000)" style="fill: rgb(255, 255, 255); fill-opacity: 1;" ry="90" rx="90" filter="url(#filter-render-3)" y="42"/></g></g><g id="shape-22361c87-7e56-8068-8006-8e8ea8b97ff1" rx="0" ry="0"><g clip-path="url(#render-4-22361c87-7e56-8068-8006-8e8e2b7252ef-clip)"><g mask="url(#render-4-22361c87-7e56-8068-8006-8e8e2b7252ef-mask)"><defs><filter id="render-4-22361c87-7e56-8068-8006-8e8e2b7252ef-filter"><feFlood flood-color="white" result="FloodResult"/><feComposite in="FloodResult" in2="SourceGraphic" operator="in" result="comp"/></filter><clipPath id="render-4-22361c87-7e56-8068-8006-8e8e2b7252ef-clip" class="mask-clip-path"><polyline points="42,42 470,42 470,470 42,470"/></clipPath><mask width="428" maskUnits="userSpaceOnUse" height="428" class="mask-shape" x="42" id="render-4-22361c87-7e56-8068-8006-8e8e2b7252ef-mask" data-old-y="42" data-old-width="428" data-old-x="42" y="42" data-old-height="428"><g filter="url(#render-4-22361c87-7e56-8068-8006-8e8e2b7252ef-filter)"><g id="shape-22361c87-7e56-8068-8006-8e8e2b7252ef"><g class="fills" id="fills-22361c87-7e56-8068-8006-8e8e2b7252ef"><rect rx="90" ry="90" x="42" y="42" transform="matrix(1.000000, 0.000000, 0.000000, 1.000000, 0.000000, 0.000000)" width="428" height="428" style="fill: rgb(177, 178, 181); fill-opacity: 1;"/></g></g></g></mask></defs><g id="shape-22361c87-7e56-8068-8006-8e8e7199c075" rx="0" ry="0"><g id="shape-22361c87-7e56-8068-8006-8e309aa3d889" style="opacity: 0.5;"><defs><radialGradient id="fill-color-gradient-render-7-0" cx="0.5" cy="0.5" r="0.5" gradientTransform="matrix(-1.000000, 0.000000, -0.000000, -1.000000, 1.000000, 1.000000)"><stop offset="0" stop-color="#d63384" stop-opacity="0.5"/><stop offset="1" stop-color="#d63384" stop-opacity="0"/></radialGradient><pattern patternUnits="userSpaceOnUse" x="-198" y="157" width="508" height="508" id="fill-0-render-7"><g><rect width="508" height="508" style="fill: url(&quot;#fill-color-gradient-render-7-0&quot;);"/></g></pattern></defs><g class="fills" id="fills-22361c87-7e56-8068-8006-8e309aa3d889"><ellipse cx="56" cy="411" rx="254" ry="254" transform="matrix(1.000000, 0.000000, 0.000000, 1.000000, 0.000000, 0.000000)" fill="url(#fill-0-render-7)"/></g></g><g id="shape-22361c87-7e56-8068-8006-8e30c610b45d" style="opacity: 0.5;"><defs><radialGradient id="fill-color-gradient-render-8-0" cx="0.5" cy="0.5" r="0.5" gradientTransform="matrix(-1.000000, 0.000000, -0.000000, -1.000000, 1.000000, 1.000000)"><stop offset="0" stop-color="#712cf9" stop-opacity="0.5"/><stop offset="1" stop-color="#712cf9" stop-opacity="0"/></radialGradient><pattern patternUnits="userSpaceOnUse" x="210" y="157" width="508" height="508" id="fill-0-render-8"><g><rect width="508" height="508" style="fill: url(&quot;#fill-color-gradient-render-8-0&quot;);"/></g></pattern></defs><g class="fills" id="fills-22361c87-7e56-8068-8006-8e30c610b45d"><ellipse cx="464" cy="411" rx="254" ry="254" transform="matrix(1.000000, 0.000000, 0.000000, 1.000000, 0.000000, 0.000000)" fill="url(#fill-0-render-8)"/></g></g><g id="shape-22361c87-7e56-8068-8006-8e30cc636155" style="opacity: 0.5;"><defs><radialGradient id="fill-color-gradient-render-9-0" cx="0.5" cy="0.5" r="0.5" gradientTransform="matrix(-1.000000, 0.000000, -0.000000, -1.000000, 1.000000, 1.000000)"><stop offset="0" stop-color="#ffe484" stop-opacity="0.5"/><stop offset="1" stop-color="#ffe484" stop-opacity="0"/></radialGradient><pattern patternUnits="userSpaceOnUse" x="210" y="-220" width="508" height="508" id="fill-0-render-9"><g><rect width="508" height="508" style="fill: url(&quot;#fill-color-gradient-render-9-0&quot;);"/></g></pattern></defs><g class="fills" id="fills-22361c87-7e56-8068-8006-8e30cc636155"><ellipse cx="464" cy="34" rx="254" ry="254" transform="matrix(1.000000, 0.000000, 0.000000, 1.000000, 0.000000, 0.000000)" fill="url(#fill-0-render-9)"/></g></g><g id="shape-22361c87-7e56-8068-8006-8e30d7b2bfc3" style="opacity: 0.5;"><defs><radialGradient id="fill-color-gradient-render-10-0" cx="0.5" cy="0.5" r="0.5" gradientTransform="matrix(-1.000000, 0.000000, -0.000000, -1.000000, 1.000000, 1.000000)"><stop offset="0" stop-color="#0d6efd" stop-opacity="0.5"/><stop offset="1" stop-color="#0d6efd" stop-opacity="0"/></radialGradient><pattern patternUnits="userSpaceOnUse" x="-183" y="-220" width="508" height="508" id="fill-0-render-10"><g><rect width="508" height="508" style="fill: url(&quot;#fill-color-gradient-render-10-0&quot;);"/></g></pattern></defs><g class="fills" id="fills-22361c87-7e56-8068-8006-8e30d7b2bfc3"><ellipse cx="71" cy="34" rx="254" ry="254" transform="matrix(1.000000, 0.000000, 0.000000, 1.000000, 0.000000, 0.000000)" fill="url(#fill-0-render-10)"/></g></g></g></g></g></g><g id="shape-22361c87-7e56-8068-8006-8e3078f84ee5" xml:space="preserve" rx="0" ry="0" style="fill: rgb(0, 0, 0);"><g id="shape-22361c87-7e56-8068-8006-8e3078f84ee6" style="display: none;"><g class="fills" id="fills-22361c87-7e56-8068-8006-8e3078f84ee6"><rect width="276" height="290" x="117" transform="matrix(1.000000, 0.000000, 0.000000, 1.000000, 0.000000, 0.000000)" style="fill: none;" ry="0" fill="none" rx="0" y="111"/></g></g><g id="shape-22361c87-7e56-8068-8006-8e3078f84ee7"><g class="fills" id="fills-22361c87-7e56-8068-8006-8e3078f84ee7"><rect rx="0" ry="0" x="133.2562116040956" y="120.798828125" transform="matrix(1.000000, 0.000000, 0.000000, 1.000000, 0.000000, 0.000000)" width="256.0300341296929" height="253.32755533854152" style="paint-order: markers stroke; fill: rgb(247, 147, 26); fill-opacity: 1;"/></g><g id="strokes-22a60b49-443a-8073-8006-9474abe6afb8-22361c87-7e56-8068-8006-8e3078f84ee7" class="strokes" style="paint-order: markers stroke;"><g class="stroke-shape"><rect rx="0" ry="0" x="133.2562116040956" y="120.798828125" transform="matrix(1.000000, 0.000000, 0.000000, 1.000000, 0.000000, 0.000000)" width="256.0300341296929" height="253.32755533854152" style="fill: none; stroke-width: 1.00157; stroke: rgb(0, 65, 14); stroke-opacity: 1;"/></g></g></g><g id="shape-22361c87-7e56-8068-8006-8e3078f84ee8"><g class="fills" id="fills-22361c87-7e56-8068-8006-8e3078f84ee8"><path d="M149.02734375,111L371.169677734375,111C377.1512451171875,111,382.6146240234375,113.454345703125,386.571044921875,117.419189453125L386.594482421875,117.44287109375C390.5509033203125,121.40771484375,393,126.883056640625,393,132.87744140625L393,358.9443359375C393,364.938720703125,390.5509033203125,370.4140625,386.594482421875,374.37890625L386.571044921875,374.402587890625C382.6146240234375,378.367431640625,377.1512451171875,380.82177734375,371.169677734375,380.82177734375L349.9515380859375,380.82177734375L341.191162109375,400.976318359375L316.652587890625,400.976318359375L307.46826171875,380.82177734375L218.6396484375,380.82177734375L209.879150390625,400.976318359375L185.340576171875,400.976318359375L176.1563720703125,380.82177734375L149.02734375,380.82177734375C143.0457763671875,380.82177734375,137.582275390625,378.367431640625,133.6259765625,374.402587890625L133.6024169921875,374.37890625C129.6461181640625,370.4140625,127.1968994140625,364.938720703125,127.1968994140625,358.9443359375L127.1968994140625,339.238037109375L122.4163818359375,339.238037109375C119.4490966796875,339.238037109375,117,336.807373046875,117,333.81005859375L117,264.236572265625C117,261.262939453125,119.425537109375,258.808349609375,122.4163818359375,258.808349609375L127.1968994140625,258.808349609375L127.1968994140625,227.396484375L122.4163818359375,227.396484375C119.4490966796875,227.396484375,117,224.965576171875,117,221.968505859375L117,152.371337890625C117,149.397705078125,119.425537109375,146.943115234375,122.4163818359375,146.943115234375L127.1968994140625,146.943115234375L127.1968994140625,132.87744140625C127.1968994140625,126.883056640625,129.6461181640625,121.40771484375,133.6024169921875,117.44287109375L133.6259765625,117.419189453125C137.582275390625,113.454345703125,143.0457763671875,111,149.02734375,111ZM137.53515625,258.808349609375L142.7396240234375,258.808349609375C145.706787109375,258.808349609375,148.156005859375,261.2392578125,148.156005859375,264.236572265625L148.156005859375,333.833740234375C148.156005859375,336.807373046875,145.7303466796875,339.26171875,142.7396240234375,339.26171875L137.53515625,339.26171875L137.53515625,358.968017578125C137.53515625,362.13037109375,138.830322265625,365.009521484375,140.879150390625,367.08642578125L140.9027099609375,367.110107421875C142.97509765625,369.186767578125,145.84814453125,370.461181640625,149.0037841796875,370.461181640625L371.1461181640625,370.461181640625C374.3017578125,370.461181640625,377.1748046875,369.163330078125,379.2470703125,367.110107421875L379.2706298828125,367.08642578125C381.343017578125,365.009521484375,382.6146240234375,362.13037109375,382.6146240234375,358.968017578125L382.6146240234375,132.87744140625C382.6146240234375,129.715087890625,381.3194580078125,126.835693359375,379.2706298828125,124.759033203125L379.2470703125,124.7353515625C377.1748046875,122.658447265625,374.3017578125,121.384033203125,371.1461181640625,121.384033203125L149.02734375,121.384033203125C145.8717041015625,121.384033203125,142.9986572265625,122.68212890625,140.92626953125,124.7353515625L140.9027099609375,124.759033203125C138.830322265625,126.835693359375,137.5587158203125,129.715087890625,137.5587158203125,132.87744140625L137.5587158203125,146.943115234375L142.76318359375,146.943115234375C145.7303466796875,146.943115234375,148.1795654296875,149.3740234375,148.1795654296875,152.371337890625L148.1795654296875,221.968505859375C148.1795654296875,224.942138671875,145.75390625,227.396484375,142.76318359375,227.396484375L137.53515625,227.396484375Z" style="fill: rgb(0, 0, 0); fill-opacity: 1;"/></g></g><g id="shape-22361c87-7e56-8068-8006-8e3078f84ee9"><g class="fills" id="fills-22361c87-7e56-8068-8006-8e3078f84ee9"><path d="M346.1064453125,223.283203125C349.7274169921875,199.02685546875,331.298583984375,185.9873046875,306.099853515625,177.28857421875L314.27392578125,144.430419921875L294.3160400390625,139.44580078125L286.35791015625,171.438232421875C281.111328125,170.1279296875,275.7225341796875,168.891845703125,270.3677978515625,167.6669921875L278.3828125,135.4638671875L258.436279296875,130.4794921875L250.2564697265625,163.326171875C245.9136962890625,162.3349609375,241.650390625,161.355224609375,237.5120849609375,160.323974609375L237.5347900390625,160.2216796875L210.010986328125,153.33447265625L204.7017822265625,174.69677734375C204.7017822265625,174.69677734375,219.5096435546875,178.09765625,219.1968994140625,178.308349609375C227.2801513671875,180.330810546875,228.740966796875,185.691162109375,228.49658203125,189.94091796875L219.185546875,227.37353515625C219.74267578125,227.515869140625,220.464599609375,227.720947265625,221.2603759765625,228.0400390625C220.5953369140625,227.874755859375,219.884765625,227.6923828125,219.1514892578125,227.515869140625L206.1002197265625,279.953369140625C205.1112060546875,282.414306640625,202.6043701171875,286.105712890625,196.9541015625,284.704345703125C197.153076171875,284.994873046875,182.4476318359375,281.07568359375,182.4476318359375,281.07568359375L172.5396728515625,303.970458984375L198.5115966796875,310.458740234375C203.3433837890625,311.672119140625,208.078369140625,312.942626953125,212.7396240234375,314.138916015625L204.480224609375,347.373046875L224.415283203125,352.357666015625L232.5950927734375,319.4765625C238.040771484375,320.957763671875,243.3272705078125,322.324951171875,248.5,323.6123046875L240.3486328125,356.339599609375L260.306396484375,361.323974609375L268.5657958984375,328.152587890625C302.59814453125,334.60693359375,328.189208984375,332.00341796875,338.9610595703125,301.15625C347.64111328125,276.31884765625,338.529052734375,261.991943359375,320.623291015625,252.6494140625C333.6632080078125,249.635986328125,343.48583984375,241.039794921875,346.1064453125,223.283203125ZM300.50634765625,287.364501953125C294.3388671875,312.201904296875,252.60986328125,298.77490234375,239.0810546875,295.408203125L250.04052734375,251.37890625C263.5693359375,254.7626953125,306.952392578125,261.4619140625,300.50634765625,287.364501953125ZM306.6795654296875,222.92431640625C301.0521240234375,245.51708984375,266.320556640625,234.03857421875,255.0540771484375,231.224365234375L264.9903564453125,191.291015625C276.2568359375,194.10498046875,312.5401611328125,199.357421875,306.6795654296875,222.92431640625Z" style="stroke-width: 2.41379; fill: rgb(255, 255, 255); fill-opacity: 1;"/></g></g></g></g></g></g></g></g></g></svg>