<?xml version="1.0" encoding="UTF-8" standalone="no"?>
<svg
   version="1.1"
   id="Layer_1"
   x="0px"
   y="0px"
   viewBox="0 0 209.07673 208.8471"
   xml:space="preserve"
   sodipodi:docname="add-person.svg"
   width="209.07672"
   height="208.84711"
   inkscape:version="1.2.2 (b0a8486541, 2022-12-01)"
   xmlns:inkscape="http://www.inkscape.org/namespaces/inkscape"
   xmlns:sodipodi="http://sodipodi.sourceforge.net/DTD/sodipodi-0.dtd"
   xmlns="http://www.w3.org/2000/svg"
   xmlns:svg="http://www.w3.org/2000/svg"><defs
     id="defs11" /><sodipodi:namedview
     id="namedview9"
     pagecolor="#ffffff"
     bordercolor="#000000"
     borderopacity="0.25"
     inkscape:showpageshadow="2"
     inkscape:pageopacity="0.0"
     inkscape:pagecheckerboard="0"
     inkscape:deskcolor="#d1d1d1"
     showgrid="false"
     inkscape:zoom="1.7027673"
     inkscape:cx="-16.150181"
     inkscape:cy="-26.721208"
     inkscape:window-width="1920"
     inkscape:window-height="1008"
     inkscape:window-x="0"
     inkscape:window-y="0"
     inkscape:window-maximized="1"
     inkscape:current-layer="Layer_1" /><style
     type="text/css"
     id="style2">.st0{fill-rule:evenodd;clip-rule:evenodd;}</style><g
     id="g6"
     transform="matrix(1.0480707,0,0,1.0480707,80.300279,-0.00917046)"><path
       class="st0"
       d="M 0,121.42 V 101.79 C 10.5,97.12 42.65,88.23 44.16,75.38 44.5,72.48 37.66,61.42 36.09,56.12 32.73,50.77 31.53,42.27 35.2,36.62 c 1.46,-2.25 0.84,-10.44 0.84,-13.53 0,-30.77 53.92,-30.78 53.92,0 0,3.89 -0.9,11.04 1.22,14.1 3.54,5.12 1.71,14.19 -1.27,18.93 -1.91,5.57 -9.18,16.11 -8.56,19.26 2.31,11.74 32.13,19.63 41.52,23.8 v 22.23 z"
       id="path4" /></g><path
     d="m 56.572999,90.835107 c 0,-0.655 0.132,-1.283 0.37,-1.859 0.249,-0.6 0.61,-1.137 1.056,-1.583 0.88,-0.881 2.098,-1.426 3.441,-1.426 0.658,0 1.287,0.132 1.863,0.371 0.012,0.005 0.023,0.011 0.037,0.017 0.584,0.248 1.107,0.603 1.543,1.039 0.881,0.88 1.426,2.098 1.426,3.442 0,0.03 -0.002,0.06 -0.006,0.089 V 142.54511 H 117.922 c 0.029,-0.003 0.061,-0.006 0.09,-0.006 0.656,0 1.285,0.132 1.861,0.371 0.014,0.005 0.025,0.011 0.037,0.017 0.584,0.248 1.107,0.603 1.543,1.039 0.881,0.88 1.428,2.098 1.428,3.441 0,0.654 -0.133,1.283 -0.371,1.859 -0.248,0.6 -0.609,1.137 -1.057,1.583 -0.445,0.445 -0.98,0.806 -1.58,1.055 v 0.001 c -0.576,0.238 -1.205,0.37 -1.861,0.37 -0.029,0 -0.061,-0.002 -0.09,-0.006 l -51.619001,10e-4 v 51.619 c 0.004,0.029 0.006,0.06 0.006,0.09 0,0.656 -0.133,1.286 -0.371,1.861 -0.006,0.014 -0.012,0.025 -0.018,0.037 -0.248,0.584 -0.602,1.107 -1.037,1.543 -0.883,0.882 -2.1,1.427 -3.443,1.427 -0.654,0 -1.283,-0.132 -1.859,-0.371 -0.6,-0.248 -1.137,-0.609 -1.583,-1.056 -0.445,-0.444 -0.806,-0.98 -1.055,-1.58 h -10e-4 c -0.239,-0.575 -0.371,-1.205 -0.371,-1.861 0,-0.03 0.002,-0.061 0.006,-0.09 v -51.619 H 4.958 c -0.029,0.004 -0.059,0.006 -0.09,0.006 -0.654,0 -1.283,-0.132 -1.859,-0.371 -0.6,-0.248 -1.137,-0.609 -1.583,-1.056 -0.445,-0.445 -0.806,-0.98 -1.055,-1.58 v 0 c -0.239,-0.576 -0.371,-1.205 -0.371,-1.862 0,-0.655 0.132,-1.283 0.371,-1.859 0.249,-0.6 0.61,-1.137 1.056,-1.583 0.881,-0.881 2.098,-1.426 3.442,-1.426 0.031,0 0.061,0.002 0.09,0.006 H 56.578999 V 90.925107 c -0.004,-0.03 -0.006,-0.06 -0.006,-0.09 z"
     id="path304" /></svg>
