<svg width="30" height="30" viewBox="0 0 30 30" fill="currentColor" xmlns="http://www.w3.org/2000/svg">
<path d="M25 6C25 5.44772 24.5523 5 24 5H12C11.4477 5 11 5.44772 11 6V18C11 18.5523 11.4477 19 12 19H24C24.5523 19 25 18.5523 25 18V6ZM27 18C27 19.6569 25.6569 21 24 21H12C10.3431 21 9 19.6569 9 18V6C9 4.34315 10.3431 3 12 3H24C25.6569 3 27 4.34315 27 6V18Z" fill="currentColor"/>
<path d="M3 24V12C3 10.3437 4.34372 9 6 9H7.5V11H6C5.44828 11 5 11.4483 5 12V24C5 24.5517 5.44828 25 6 25H18C18.5517 25 19 24.5517 19 24V22.6201H21V24C21 25.6563 19.6563 27 18 27H6C4.34372 27 3 25.6563 3 24Z" fill="currentColor"/>
</svg>
