<svg width="30" height="30" viewBox="0 0 30 30" fill="currentColor" xmlns="http://www.w3.org/2000/svg">
<path d="M13.5 5C18.1944 5 22 8.80558 22 13.5C22 15.4868 21.316 17.3125 20.1738 18.7598L24.707 23.293L24.7754 23.3691C25.0957 23.7619 25.0731 24.3409 24.707 24.707C24.3409 25.0731 23.7619 25.0957 23.3691 24.7754L23.293 24.707L18.7598 20.1738C17.3125 21.316 15.4868 22 13.5 22C8.80558 22 5 18.1944 5 13.5C5 8.80558 8.80558 5 13.5 5ZM13.5 7C9.91015 7 7 9.91015 7 13.5C7 17.0899 9.91015 20 13.5 20C17.0899 20 20 17.0899 20 13.5C20 9.91015 17.0899 7 13.5 7Z" fill="currentColor"/>
</svg>
