<svg width="32" height="32" viewBox="0 0 32 32" fill="currentColor" xmlns="http://www.w3.org/2000/svg">
<path d="M6.5 9.06692C7.24086 9.06692 8.01077 9.26874 8.61035 9.70755C9.22618 10.1584 9.64253 10.849 9.64258 11.7427V13.1675C9.64253 14.1502 9.30512 14.7889 8.90625 15.1831C8.76642 15.3213 8.62505 15.4233 8.5 15.4976V16.2134C8.54196 16.2413 8.61989 16.2832 8.75879 16.3355C8.92818 16.3992 9.12359 16.4581 9.37207 16.5376C9.61032 16.6139 9.88043 16.7044 10.1553 16.8208C10.2787 16.8731 10.4041 16.9321 10.5303 16.9976C10.4098 17.0357 10.2821 17.0769 10.1455 17.1206C9.70017 17.2633 9.19473 17.4336 8.68066 17.6538C7.64945 18.0957 6.52813 18.764 5.6748 19.9195C5.41912 20.2658 5.19505 20.6475 5.00488 21.0669H0.5V20.5083C0.5001 19.4154 0.77543 18.5995 1.23633 17.9898C1.69347 17.3852 2.29424 17.0354 2.84668 16.8042C3.12213 16.689 3.39322 16.6006 3.63184 16.5259C3.88079 16.448 4.07553 16.3911 4.24512 16.3286C4.38094 16.2787 4.45799 16.2384 4.5 16.2115V15.4976C4.37495 15.4233 4.23358 15.3213 4.09375 15.1831C3.69488 14.7889 3.35747 14.1502 3.35742 13.1675V11.7427C3.35747 10.849 3.77382 10.1584 4.38965 9.70755C4.98923 9.26874 5.75914 9.06692 6.5 9.06692ZM25.5 9.06692C26.2409 9.06692 27.0108 9.26874 27.6104 9.70755C28.2262 10.1584 28.6425 10.849 28.6426 11.7427V13.1675C28.6425 14.1502 28.3051 14.7889 27.9062 15.1831C27.7664 15.3213 27.6251 15.4233 27.5 15.4976V16.2134C27.542 16.2413 27.6199 16.2832 27.7588 16.3355C27.9282 16.3992 28.1236 16.4581 28.3721 16.5376C28.6103 16.6139 28.8804 16.7044 29.1553 16.8208C29.7063 17.0542 30.3061 17.4039 30.7627 18.0054C31.2236 18.6127 31.4999 19.424 31.5 20.5083V21.0669H25.9824C25.7946 20.6596 25.5748 20.2878 25.3242 19.9497C24.4719 18.7999 23.353 18.1302 22.3242 17.6841C21.8901 17.4959 21.4612 17.3461 21.0703 17.2154C21.3271 17.0446 21.5916 16.911 21.8467 16.8042C22.1221 16.689 22.3932 16.6006 22.6318 16.5259C22.8808 16.448 23.0755 16.3911 23.2451 16.3286C23.3809 16.2787 23.458 16.2384 23.5 16.2115V15.4976C23.3749 15.4233 23.2336 15.3213 23.0938 15.1831C22.6949 14.7889 22.3575 14.1502 22.3574 13.1675V11.7427C22.3575 10.849 22.7738 10.1584 23.3896 9.70755C23.9892 9.26874 24.7591 9.06692 25.5 9.06692Z" fill="currentColor"/>
<path d="M19.2333 9.98021C19.2332 8.99051 18.8106 8.28635 18.1604 7.79896C17.4797 7.28878 16.5168 7 15.5 7C14.4832 7 13.5203 7.28878 12.8396 7.79896C12.1894 8.28635 11.7668 8.99051 11.7667 9.98021V12.7042C11.7668 14.0622 12.2032 14.7305 12.525 15.0563C12.6975 15.2307 12.8658 15.3353 12.9813 15.3938C13.0388 15.4228 13.0822 15.44 13.1042 15.4479C13.1098 15.45 13.1142 15.4513 13.1167 15.4521L13.9 15.65V16.6396C13.9 17.2773 13.601 17.7665 13.2073 18.1042C12.8562 18.4052 12.4188 18.5979 12.0427 18.7396C11.6594 18.884 11.2058 19.0217 10.7958 19.1531C10.3666 19.2907 9.93856 19.4351 9.5198 19.6146C8.68458 19.9725 7.93826 20.4464 7.39167 21.1865C6.97312 21.7532 6.62874 22.5374 6.4948 23.6667H24.5042C24.3695 22.5572 24.0264 21.7835 23.6094 21.2208C23.0618 20.4822 22.3137 20.005 21.476 19.6417C21.0561 19.4596 20.6269 19.3117 20.1969 19.1708C19.7859 19.0362 19.3337 18.8958 18.95 18.7479C18.5735 18.6028 18.1378 18.406 17.7885 18.1031C17.3982 17.7646 17.1 17.2762 17.1 16.6396V15.65L17.8823 15.4521C17.8846 15.4513 17.8894 15.4502 17.8958 15.4479C17.9178 15.44 17.9613 15.4228 18.0188 15.3938C18.1343 15.3353 18.3026 15.2307 18.475 15.0563C18.7968 14.7305 19.2332 14.0622 19.2333 12.7042V9.98021ZM13.1156 15.4521L13.1125 15.451C13.1105 15.4505 13.1081 15.4497 13.1052 15.449L13.1 15.4479H13.099L13.1156 15.4521ZM17.9 15.4479L17.8948 15.449C17.8919 15.4497 17.8895 15.4505 17.8875 15.451L17.8833 15.4521L17.901 15.4479H17.9Z" fill="currentColor"/>
</svg>
