<svg width="32" height="32" viewBox="0 0 32 32" fill="currentColor" xmlns="http://www.w3.org/2000/svg">
<path d="M6.5 12V6.5H12.5C13.0523 6.5 13.5 6.94772 13.5 7.5C13.5 8.05228 13.0523 8.5 12.5 8.5H8.5V12C8.5 12.5523 8.05228 13 7.5 13C6.94772 13 6.5 12.5523 6.5 12Z" fill="currentColor"/>
<path d="M25.5 20L25.5 25.5L19.5 25.5C18.9477 25.5 18.5 25.0523 18.5 24.5C18.5 23.9477 18.9477 23.5 19.5 23.5L23.5 23.5L23.5 20C23.5 19.4477 23.9477 19 24.5 19C25.0523 19 25.5 19.4477 25.5 20Z" fill="currentColor"/>
<path d="M20 6.5L25.5 6.5L25.5 12.5C25.5 13.0523 25.0523 13.5 24.5 13.5C23.9477 13.5 23.5 13.0523 23.5 12.5L23.5 8.5L20 8.5C19.4477 8.5 19 8.05228 19 7.5C19 6.94771 19.4477 6.5 20 6.5Z" fill="currentColor"/>
<path d="M12 25.5L6.5 25.5L6.5 19.5C6.5 18.9477 6.94772 18.5 7.5 18.5C8.05229 18.5 8.5 18.9477 8.5 19.5L8.5 23.5L12 23.5C12.5523 23.5 13 23.9477 13 24.5C13 25.0523 12.5523 25.5 12 25.5Z" fill="currentColor"/>
</svg>
