<svg width="30" height="30" viewBox="0 0 30 30" fill="currentColor" xmlns="http://www.w3.org/2000/svg">
<path d="M24.8252 5.01564C25.1439 4.95898 25.474 5.05999 25.707 5.29298C25.94 5.52597 26.041 5.85608 25.9844 6.17482L25.9512 6.30958L19.7549 25.3096C19.6278 25.6994 19.2754 25.9725 18.8662 25.9981C18.4572 26.0234 18.0739 25.7966 17.8994 25.4258L14.5947 18.4043C14.4696 18.1385 14.468 17.8308 14.5898 17.5635L17.0898 12.085C17.3191 11.5826 17.9127 11.3608 18.415 11.5899C18.9174 11.8191 19.1393 12.4127 18.9102 12.9151L16.6016 17.9717L18.6348 22.292L23.4385 7.56056L8.70703 12.3643L13.4473 14.5947L13.5381 14.6436C13.9723 14.9047 14.1471 15.4574 13.9268 15.9258C13.7062 16.3944 13.1686 16.6119 12.6904 16.4434L12.5957 16.4053L5.57422 13.1006C5.20337 12.9261 4.9766 12.5428 5.00195 12.1338C5.02748 11.7246 5.30064 11.3722 5.69043 11.2451L24.6904 5.04884L24.8252 5.01564Z" fill="currentColor"/>
</svg>
