<svg width="30" height="30" viewBox="0 0 30 30" fill="currentColor" xmlns="http://www.w3.org/2000/svg">
<path d="M14.8946 6.50663C16.7999 6.43793 18.7503 6.90538 20.2549 7.91972C21.5496 8.79247 22.5165 10.0824 22.7842 11.7361C24.2182 11.9366 25.3698 12.6039 26.1788 13.5633C27.1378 14.7008 27.566 16.1862 27.4923 17.6365C27.4183 19.0907 26.8374 20.5628 25.712 21.6756C24.575 22.7997 22.94 23.4998 20.8721 23.4998H7.99909C6.20344 23.4998 4.78666 22.8925 3.83014 21.8826C2.88479 20.8844 2.4639 19.5714 2.50202 18.2928C2.57147 15.969 4.17228 13.6374 7.04694 13.2137C7.26231 11.1649 8.18833 9.569 9.52155 8.44901C11.025 7.18618 12.9865 6.57545 14.8946 6.50663ZM14.9669 8.50468C13.4093 8.56085 11.9045 9.05992 10.8087 9.98026C9.7387 10.879 8.99909 12.2259 8.99909 14.1463V15.1463H7.99909C5.72446 15.1463 4.55016 16.7446 4.50202 18.3523C4.47788 19.1621 4.74435 19.9385 5.28229 20.5066C5.8092 21.063 6.67232 21.4998 7.99909 21.4998H20.8721C22.4662 21.4998 23.579 20.972 24.3057 20.2537C25.044 19.5237 25.4432 18.5377 25.4942 17.5349C25.5453 16.5286 25.2439 15.5573 24.6495 14.8523C24.0715 14.1669 23.1676 13.6718 21.8624 13.6717H20.8624V12.6717C20.8623 11.3317 20.2063 10.2989 19.1368 9.57792C18.0423 8.84014 16.5271 8.44847 14.9669 8.50468Z" fill="currentColor"/>
</svg>
