<svg width="30" height="30" viewBox="0 0 30 30" fill="currentColor" xmlns="http://www.w3.org/2000/svg">
<path d="M13.6191 7.9873L13.0107 8.16211C12.5066 8.30702 12.0237 8.50489 11.5703 8.75293L11.0195 9.05469L8.55859 7.2959L7.32031 8.5332L9.05371 11.0127L8.75195 11.5586C8.49827 12.017 8.29687 12.5024 8.14941 13.0088L7.97363 13.6123L5 14.1064V15.8574L7.9707 16.3848L8.14453 16.9824C8.29086 17.4861 8.49263 17.9721 8.74707 18.4336L9.05078 18.9854L7.2959 21.4395L8.5332 22.6777L11.0137 20.9414L11.5596 21.2402C11.9042 21.4293 12.2621 21.5898 12.6309 21.7188L13.0029 21.8369L13.6084 22.0117L13.7129 22.6338L14.1074 25H15.8564L16.3887 22.0029L16.9834 21.8281C17.4856 21.6809 17.9668 21.4798 18.418 21.2285L18.9658 20.9229L21.4668 22.6777L22.7031 21.4404L20.9199 18.9648L21.2246 18.4111C21.4722 17.9613 21.6696 17.4827 21.8135 16.9854L21.9863 16.3857L25 15.8564V14.1074L21.9873 13.6162L21.8115 13.0098C21.667 12.5124 21.4692 12.0354 21.2207 11.584L20.9199 11.0381L22.6777 8.53516L21.4404 7.29883L18.9697 9.0752L18.416 8.76953C17.9595 8.51717 17.4779 8.31609 16.9785 8.1709L16.3809 7.99707L15.8555 5H14.1064L13.6191 7.9873ZM17.3477 15C17.3477 13.7033 16.2967 12.6523 15 12.6523C13.7033 12.6523 12.6523 13.7033 12.6523 15C12.6523 16.2967 13.7033 17.3477 15 17.3477C16.2967 17.3477 17.3477 16.2967 17.3477 15ZM27 16.2949C27 17.0104 26.487 17.6258 25.7764 17.75L25.7773 17.751L23.5342 18.1445C23.453 18.3658 23.363 18.5835 23.2646 18.7979L24.585 20.6309L24.6592 20.7441C24.9992 21.3193 24.9109 22.0595 24.4307 22.54L24.4316 22.541L22.5723 24.4014L22.5703 24.4043C22.0955 24.8762 21.3655 24.9696 20.79 24.6387L20.6768 24.5664L18.8203 23.2637C18.5998 23.3665 18.3751 23.4601 18.1465 23.5449L17.75 25.7793C17.625 26.489 17.0079 27 16.2939 27H13.6641C12.9466 27 12.3253 26.4828 12.207 25.7656L11.8379 23.5557C11.6094 23.4716 11.3848 23.3784 11.1641 23.2764L9.32422 24.5645L9.3252 24.5654C8.77258 24.955 8.03462 24.9156 7.52734 24.4922L7.42871 24.4023L5.56641 22.5391C5.0576 22.0271 4.99291 21.2218 5.41309 20.6348L6.70703 18.8232C6.6036 18.5998 6.50974 18.3725 6.4248 18.1416L4.2207 17.751C3.5111 17.6259 3 17.0088 3 16.2949V13.665C3 12.9888 3.45809 12.4023 4.10547 12.2344L4.2373 12.2061L6.43164 11.8408C6.51702 11.6094 6.6119 11.3819 6.71582 11.1582L5.43164 9.32129C5.01856 8.73181 5.09162 7.93378 5.59668 7.42871L7.45898 5.56738L7.55762 5.47754C8.03387 5.08214 8.7095 5.02461 9.24707 5.33887L9.36035 5.41113L9.36133 5.41211L11.1826 6.71387C11.3992 6.61473 11.6196 6.5243 11.8438 6.44238L12.2041 4.24023V4.23828L12.2324 4.10742C12.3997 3.46084 12.9851 3 13.6641 3H16.2939C16.969 3 17.5501 3.45467 17.7217 4.09375L17.75 4.22363L18.1396 6.45215C18.3656 6.53554 18.5881 6.62732 18.8066 6.72852L20.6289 5.41992L20.7432 5.34473C21.283 5.02347 21.9638 5.08314 22.4404 5.47852L22.5391 5.56836L24.4033 7.43164L24.4922 7.53027C24.913 8.0366 24.9542 8.77143 24.5674 9.32422L24.5664 9.32617L23.2568 11.1885C23.3555 11.4022 23.4456 11.6197 23.5273 11.8408L25.7559 12.2051C26.4731 12.3196 27.001 12.9386 27 13.665V16.2949ZM19.3477 15C19.3477 17.4013 17.4013 19.3477 15 19.3477C12.5987 19.3477 10.6523 17.4013 10.6523 15C10.6523 12.5987 12.5987 10.6523 15 10.6523C17.4013 10.6523 19.3477 12.5987 19.3477 15Z" fill="currentColor"/>
</svg>
