<svg width="30" height="30" viewBox="0 0 30 30" fill="currentColor" xmlns="http://www.w3.org/2000/svg">
<path d="M25.7051 8.52344L26 8.81738V24C26 25.6563 24.6563 27 23 27H21.6748C21.1226 26.9999 20.6748 26.5522 20.6748 26C20.6748 25.4478 21.1226 25.0001 21.6748 25H23C23.5517 25 24 24.5517 24 24V9.64844L23.8506 9.5H21.0713C20.2043 9.5 19.5 8.79571 19.5 7.92871V5.17285L19.3252 5H11C10.4483 5 10 5.44828 10 6V17C10 17.5523 9.55228 18 9 18C8.44772 18 8 17.5523 8 17V6C8 4.34372 9.34372 3 11 3H20.1494L25.7051 8.52344Z" fill="currentColor"/>
<path d="M20.1281 22.3986C20.2194 22.3986 20.304 22.417 20.3819 22.4537C20.4631 22.4904 20.5341 22.5418 20.5951 22.608C20.656 22.6741 20.7033 22.7512 20.7372 22.8394C20.771 22.9238 20.788 23.0157 20.788 23.1148C20.788 23.214 20.771 23.3077 20.7372 23.3958C20.7033 23.4803 20.656 23.5556 20.5951 23.6217C20.5341 23.6842 20.4631 23.7338 20.3819 23.7705C20.304 23.8072 20.2194 23.8256 20.1281 23.8256H17.8336L17.8286 26.1286C17.8286 26.2792 17.8032 26.4206 17.7524 26.5529C17.705 26.6814 17.6374 26.7953 17.5494 26.8945C17.4648 26.99 17.3649 27.0653 17.2499 27.1204C17.1382 27.1755 17.0164 27.203 16.8844 27.203C16.7524 27.203 16.6289 27.1755 16.5138 27.1204C16.4022 27.0653 16.304 26.99 16.2194 26.8945C16.1348 26.7953 16.0671 26.6814 16.0164 26.5529C15.969 26.4206 15.9453 26.2792 15.9453 26.1286V20.2223C15.9453 20.046 15.9775 19.8935 16.0418 19.765C16.1061 19.6364 16.1924 19.5317 16.3006 19.4509C16.4089 19.3665 16.5358 19.304 16.6814 19.2636C16.8269 19.2232 16.9792 19.203 17.1382 19.203H20.2854C20.3768 19.203 20.4614 19.2232 20.5392 19.2636C20.6204 19.3003 20.6915 19.3518 20.7524 19.4179C20.8133 19.4803 20.8607 19.5556 20.8946 19.6438C20.9284 19.7319 20.9453 19.8256 20.9453 19.9248C20.9453 20.0239 20.9284 20.1176 20.8946 20.2058C20.8607 20.2902 20.8133 20.3655 20.7524 20.4317C20.6915 20.4941 20.6204 20.5437 20.5392 20.5804C20.4614 20.6171 20.3768 20.6355 20.2854 20.6355H17.8336V22.3986H20.1281Z" fill="currentColor"/>
<path d="M8.91065 27.203C8.72075 27.203 8.56249 27.1626 8.43589 27.0818C8.31281 27.001 8.21434 26.8945 8.14049 26.7622C8.06664 26.63 8.01565 26.4812 7.98751 26.316C7.95938 26.147 7.94531 25.9744 7.94531 25.798V20.619C7.94531 20.3729 7.96817 20.1598 8.01389 19.9799C8.05961 19.7999 8.13521 19.653 8.24072 19.5391C8.34622 19.4252 8.48337 19.3407 8.65217 19.2856C8.82449 19.2306 9.03549 19.203 9.28518 19.203H10.5934C12.0317 19.203 13.1166 19.5354 13.8481 20.2002C14.5796 20.8614 14.9453 21.8807 14.9453 23.2581C14.9453 23.9303 14.8451 24.5143 14.6446 25.0102C14.4442 25.506 14.1593 25.9174 13.7901 26.2443C13.4243 26.5676 12.983 26.8081 12.466 26.9661C11.9491 27.124 11.3759 27.203 10.7464 27.203H8.91065ZM9.87598 25.9688H10.5987C10.9996 25.9688 11.3442 25.9211 11.6326 25.8256C11.9209 25.7301 12.1583 25.5666 12.3447 25.3352C12.5346 25.1038 12.6735 24.8173 12.7614 24.4757C12.8529 24.1305 12.8986 23.7081 12.8986 23.2085C12.8986 22.2792 12.714 21.5868 12.3447 21.1314C11.9755 20.6759 11.4093 20.4482 10.6461 20.4482H9.87598V25.9688Z" fill="currentColor"/>
<path d="M2.81937 26.1294C2.81937 26.2799 2.79418 26.4212 2.7438 26.5533C2.69342 26.6818 2.62457 26.7956 2.53725 26.8947C2.45329 26.9901 2.35421 27.0654 2.24002 27.1204C2.12919 27.1755 2.00828 27.203 1.8773 27.203C1.74632 27.203 1.62373 27.1755 1.50954 27.1204C1.39871 27.0654 1.30132 26.9901 1.21735 26.8947C1.13339 26.7956 1.06622 26.6818 1.01584 26.5533C0.968822 26.4212 0.945312 26.2799 0.945312 26.1294V20.7171C0.945312 20.5079 0.957067 20.3115 0.980577 20.128C1.00745 19.9408 1.06118 19.7793 1.14179 19.6435C1.22575 19.5077 1.34666 19.4012 1.50451 19.3241C1.66572 19.2434 1.88234 19.203 2.15438 19.203H3.97302C4.35925 19.203 4.73037 19.2397 5.08637 19.3131C5.44573 19.3865 5.76311 19.5168 6.03851 19.704C6.31391 19.8876 6.53389 20.139 6.69846 20.4583C6.86303 20.7777 6.94531 21.1814 6.94531 21.6696C6.94531 22.0917 6.8731 22.4588 6.72869 22.7708C6.58763 23.0791 6.38612 23.3361 6.12415 23.5416C5.86555 23.7472 5.55321 23.9013 5.18713 24.0041C4.82105 24.1032 4.41635 24.1528 3.97302 24.1528H2.81937V26.1294ZM3.66572 22.925C3.88066 22.925 4.07713 22.9048 4.25514 22.8644C4.43314 22.824 4.58427 22.7579 4.70854 22.6662C4.83616 22.5707 4.93524 22.4459 5.00577 22.2918C5.07629 22.1376 5.11156 21.9302 5.11156 21.6696C5.11156 21.4127 5.07797 21.2108 5.0108 21.064C4.94363 20.9135 4.84959 20.7924 4.72869 20.7006C4.61114 20.6088 4.4684 20.5428 4.30048 20.5024C4.13591 20.462 3.95287 20.4418 3.75136 20.4418H2.81937V22.925H3.66572Z" fill="currentColor"/>
</svg>
