<svg width="32" height="32" viewBox="0 0 32 32" fill="currentColor" xmlns="http://www.w3.org/2000/svg">
<path d="M28.4344 16.097C28.7665 16.5126 28.7423 17.1185 28.3631 17.5071L23.3846 22.6038C22.9728 23.0247 22.297 23.0329 21.8758 22.6214C21.4545 22.2097 21.4476 21.5339 21.8592 21.1126L25.2996 17.5911L15.1551 17.5911C14.5663 17.5909 14.0888 17.1136 14.0887 16.5247C14.0887 15.9357 14.5662 15.4585 15.1551 15.4583L24.8357 15.4583L21.8592 12.4124C21.448 11.9912 21.4552 11.3162 21.8758 10.9046C22.297 10.4931 22.9729 10.5003 23.3846 10.9212L28.3631 16.0169L28.4344 16.097Z" fill="currentColor"/>
<circle cx="13.5" cy="8.5" r="3.5" fill="currentColor"/>
<circle cx="6" cy="9" r="2" fill="currentColor"/>
<circle cx="13" cy="24" r="2" fill="currentColor"/>
<circle cx="7.5" cy="17.5" r="4.5" fill="currentColor"/>
</svg>
