<svg width="30" height="30" viewBox="0 0 30 30" fill="currentColor" xmlns="http://www.w3.org/2000/svg">
<path d="M25 11C25 7.96528 22.5347 5.5 19.5 5.5C16.4653 5.5 14 7.96528 14 11C14 11.6661 14.1181 12.3018 14.334 12.8896L14.5557 13.4941L5.5 22.418V24.5H7.5V22H10V19.5H12.5V17H15.5732L16.2471 16.2969L16.7236 15.7979L17.3594 16.0674C18.0158 16.3458 18.7383 16.5 19.5 16.5C22.5347 16.5 25 14.0347 25 11ZM27 11C27 15.1393 23.6393 18.5 19.5 18.5C18.7129 18.5 17.9531 18.3776 17.2383 18.1514L16.7227 18.6914L16.4268 19H14.5V21.5H12V24H9.5V26.5H3.5V21.5811L12.2568 12.9512C12.0889 12.3279 12 11.6737 12 11C12 6.86072 15.3607 3.5 19.5 3.5C23.6393 3.5 27 6.86072 27 11Z" fill="currentColor"/>
<path d="M20.75 11.5C21.7165 11.5 22.5 10.7165 22.5 9.75C22.5 8.7835 21.7165 8 20.75 8C19.7835 8 19 8.7835 19 9.75C19 10.7165 19.7835 11.5 20.75 11.5Z" fill="currentColor"/>
</svg>
