<svg width="30" height="30" viewBox="0 0 30 30" fill="currentColor" xmlns="http://www.w3.org/2000/svg">
<path d="M4 23V19C4 18.4477 4.44772 18 5 18C5.55228 18 6 18.4477 6 19V23H24V19C24 18.4477 24.4477 18 25 18C25.5523 18 26 18.4477 26 19V23C26 24.1043 25.1043 25 24 25H6C4.89572 25 4 24.1043 4 23Z" fill="currentColor"/>
<path d="M14.1536 5.21783C14.5433 4.90647 15.1116 4.92935 15.4758 5.28522L20.2532 9.95221C20.6478 10.3382 20.6555 10.9714 20.2698 11.3663C19.8839 11.7612 19.2507 11.7677 18.8557 11.3819L15.554 8.15631V17.6671C15.5538 18.2192 15.1062 18.6671 14.554 18.6671C14.0018 18.667 13.5541 18.2192 13.554 17.6671V8.59186L10.6995 11.3819C10.3046 11.7677 9.6714 11.7608 9.2854 11.3663C8.89959 10.9714 8.9064 10.3382 9.30103 9.95221L14.0784 5.28522L14.1536 5.21783Z" fill="currentColor"/>
</svg>
