<?xml version="1.0" encoding="UTF-8" standalone="no"?>
<svg
   width="25.5"
   height="30"
   viewBox="0 0 25.5 30"
   fill="currentColor"
   version="1.1"
   id="svg4"
   sodipodi:docname="bi--person-no-margin.svg"
   inkscape:version="1.2.2 (b0a8486541, 2022-12-01)"
   xmlns:inkscape="http://www.inkscape.org/namespaces/inkscape"
   xmlns:sodipodi="http://sodipodi.sourceforge.net/DTD/sodipodi-0.dtd"
   xmlns="http://www.w3.org/2000/svg"
   xmlns:svg="http://www.w3.org/2000/svg">
  <defs
     id="defs8" />
  <sodipodi:namedview
     id="namedview6"
     pagecolor="#ffffff"
     bordercolor="#000000"
     borderopacity="0.25"
     inkscape:showpageshadow="2"
     inkscape:pageopacity="0.0"
     inkscape:pagecheckerboard="0"
     inkscape:deskcolor="#d1d1d1"
     showgrid="false"
     showguides="true"
     inkscape:zoom="10.052701"
     inkscape:cx="12.036566"
     inkscape:cy="12.882109"
     inkscape:window-width="1280"
     inkscape:window-height="662"
     inkscape:window-x="385"
     inkscape:window-y="100"
     inkscape:window-maximized="0"
     inkscape:current-layer="svg4">
    <sodipodi:guide
       position="4.4314185,22.754982"
       orientation="1,0"
       id="guide845"
       inkscape:locked="false" />
  </sodipodi:namedview>
  <path
     d="m 14.052358,9.2937 c -10e-5,-0.92784 -0.3963,-1.58799 -1.0059,-2.04492 -0.6381,-0.47829 -1.5408,-0.74902 -2.4941,-0.74902 -0.9532991,0 -1.8559991,0.27073 -2.4940991,0.74902 -0.6096,0.45693 -1.0058,1.11708 -1.0059,2.04492 v 2.5537 c 1e-4,1.2732 0.4092,1.8997 0.7109,2.2051 0.1617,0.1636 0.3195,0.2616 0.4278,0.3164 0.0539,0.0273 0.0946,0.0433 0.1152,0.0508 0.0053,0.0019 0.0094,0.0031 0.0117,0.0039 l 0.7344,0.1855 v 2.8028 c 0,0.5978 -0.2803,1.0565 -0.6494,1.373 -0.3291,0.2822 -0.7392,0.4628 -1.0918,0.5957 -0.3594,0.1354 -0.7846,0.2645 -1.169,0.3877 -0.4024,0.129 -0.80365,0.2644 -1.19625,0.4326 -0.78301,0.3356 -1.48268,0.7799 -1.99511,1.4737 -0.39239,0.5313 -0.71525,1.2665 -0.84082,2.3252 H 18.993758 c -0.1263,-1.0402 -0.4479,-1.7655 -0.8389,-2.293 -0.5133,-0.6924 -1.2146,-1.1399 -2,-1.4805 -0.3937,-0.1707 -0.7961,-0.3093 -1.1992,-0.4414 -0.3853,-0.1262 -0.8093,-0.2579 -1.1689,-0.3965 -0.353,-0.136 -0.7614,-0.3206 -1.0889,-0.6045 -0.366,-0.3173 -0.6455,-0.7752 -0.6455,-1.372 v -2.8028 l 0.7334,-0.1855 c 0.0022,-7e-4 0.0066,-0.0017 0.0127,-0.0039 0.0206,-0.0075 0.0613,-0.0235 0.1152,-0.0508 0.1083,-0.0548 0.2661,-0.1528 0.4278,-0.3164 0.3017,-0.3054 0.7108,-0.9319 0.7109,-2.2051 z m -5.7353991,5.1299 c -8e-4,-3e-4 -0.0017,-7e-4 -0.0029,-0.001 -0.0018,-5e-4 -0.0041,-0.0012 -0.0068,-0.0019 -0.0014,-4e-4 -0.0033,-6e-4 -0.0049,-10e-4 h -10e-4 z m 4.4853991,-0.0039 c -0.0016,4e-4 -0.0035,6e-4 -0.0049,10e-4 -0.0027,7e-4 -0.005,0.0014 -0.0068,0.0019 -0.0016,4e-4 -0.0029,7e-4 -0.0039,0.001 l 0.0166,-0.0039 z m 3.25,-2.5723 c -1e-4,1.761 -0.5909,2.9049 -1.2891,3.6113 -0.2447,0.2476 -0.4921,0.4294 -0.7109,0.5625 v 1.2832 c 0.0734,0.05 0.21,0.1241 0.4531,0.2178 0.2965,0.1143 0.6384,0.2198 1.0733,0.3623 0.417,0.1367 0.89,0.2983 1.3711,0.5069 0.9645,0.4182 2.0133,1.046 2.8125,2.124 0.8066,1.0882 1.29,2.5412 1.29,4.4844 v 1 H 0.05235917 v -1 c 4e-5,-1.9586 0.48238,-3.4202 1.28905973,-4.5127 0.80001,-1.0834 1.85059,-1.7098 2.81739,-2.1241 0.48218,-0.2066 0.95633,-0.3661 1.37402,-0.5 0.43573,-0.1396 0.77643,-0.2416 1.07323,-0.3535 0.2377,-0.0895 0.3728,-0.1607 0.4463,-0.209 v -1.2793 c -0.2188,-0.1331 -0.4662,-0.3149 -0.7109,-0.5625 -0.6982,-0.7064 -1.28901,-1.8503 -1.2891,-3.6113 V 9.2937 c 9e-5,-1.60124 0.7289,-2.83779 1.8066,-3.64551 1.0494,-0.78643 2.3967,-1.14843 3.6933991,-1.14843 1.2967,0 2.644,0.362 3.6934,1.14843 1.0777,0.80772 1.8065,2.04427 1.8066,3.64551 z"
     fill="currentColor"
     id="path2" />
</svg>
