<svg xmlns="http://www.w3.org/2000/svg" width="16" height="16" viewBox="0 0 16 16"><path fill="currentColor" fill-rule="evenodd" d="M14 4.5V14a2 2 0 0 1-2 2v-1a1 1 0 0 0 1-1V4.5h-2A1.5 1.5 0 0 1 9.5 3V1H4a1 1 0 0 0-1 1v9H2V2a2 2 0 0 1 2-2h5.5zM0 14.841a1.13 1.13 0 0 0 .401.823q.194.162.478.252q.285.091.665.091q.507 0 .858-.158q.355-.158.54-.44a1.17 1.17 0 0 0 .187-.656q0-.336-.135-.56a1 1 0 0 0-.375-.357a2 2 0 0 0-.565-.21l-.621-.144a1 1 0 0 1-.405-.176a.37.37 0 0 1-.143-.299q0-.234.184-.384q.187-.152.513-.152q.214 0 .37.068a.6.6 0 0 1 .245.181a.56.56 0 0 1 .12.258h.75a1.1 1.1 0 0 0-.199-.566a1.2 1.2 0 0 0-.5-.41a1.8 1.8 0 0 0-.78-.152q-.44 0-.776.15q-.337.149-.528.421q-.19.273-.19.639q0 .302.123.524t.351.367q.229.143.54.213l.618.144q.31.073.462.193a.39.39 0 0 1 .153.326a.5.5 0 0 1-.085.29a.56.56 0 0 1-.256.193q-.167.07-.413.07q-.176 0-.32-.04a.8.8 0 0 1-.248-.115a.58.58 0 0 1-.255-.384zm4.575 1.09h.952l1.327-3.999h-.879l-.887 3.138H5.05l-.897-3.138h-.917zm5.483-3.293q.114.228.14.492h-.776a.8.8 0 0 0-.096-.249a.7.7 0 0 0-.17-.19a.7.7 0 0 0-.237-.126a1 1 0 0 0-.3-.044q-.427 0-.664.302q-.235.3-.235.85v.497q0 .352.097.616a.9.9 0 0 0 .305.413a.87.87 0 0 0 .518.146a1 1 0 0 0 .457-.097a.67.67 0 0 0 .273-.263q.09-.164.09-.364v-.254h-.823v-.59h1.576v.798q0 .29-.096.55a1.3 1.3 0 0 1-.293.457a1.4 1.4 0 0 1-.495.314q-.296.111-.698.111a2 2 0 0 1-.752-.132a1.45 1.45 0 0 1-.534-.377a1.6 1.6 0 0 1-.319-.58a2.5 2.5 0 0 1-.105-.745v-.507q0-.54.199-.949q.202-.406.583-.633q.383-.228.926-.228q.357 0 .635.1q.282.1.48.275q.2.176.314.407"/></svg>