<svg width="30" height="30" viewBox="0 0 30 30" fill="currentColor" xmlns="http://www.w3.org/2000/svg">
<path d="M12 6V12H6V6H12ZM8 10H10V8H8V10Z" fill="currentColor"/>
<path d="M24 6V12H18V6H24ZM20 10H22V8H20V10Z" fill="currentColor"/>
<path d="M12 18V24H6V18H12ZM8 22H10V20H8V22Z" fill="currentColor"/>
<path d="M8 14V16H6V14H8Z" fill="currentColor"/>
<path d="M12 14V16H10V14H12Z" fill="currentColor"/>
<path d="M16 14V16H14V14H16Z" fill="currentColor"/>
<path d="M16 18V20H14V18H16Z" fill="currentColor"/>
<path d="M16 22V24H14V22H16Z" fill="currentColor"/>
<path d="M16 10V12H14V10H16Z" fill="currentColor"/>
<path d="M16 6V8H14V6H16Z" fill="currentColor"/>
<path d="M20 14V16H18V14H20Z" fill="currentColor"/>
<path d="M24 14V16H22V14H24Z" fill="currentColor"/>
<path d="M20 18V20H18V18H20Z" fill="currentColor"/>
<path d="M24 18V20H22V18H24Z" fill="currentColor"/>
<path d="M20 22V24H18V22H20Z" fill="currentColor"/>
<path d="M24 22V24H22V22H24Z" fill="currentColor"/>
</svg>
