<svg width="30" height="30" viewBox="0 0 30 30" fill="currentColor" xmlns="http://www.w3.org/2000/svg">
<path d="M25.7051 8.52344L26 8.81738V24C26 25.6563 24.6563 27 23 27H21.6748C21.1226 26.9999 20.6748 26.5522 20.6748 26C20.6748 25.4478 21.1226 25.0001 21.6748 25H23C23.5517 25 24 24.5517 24 24V9.64844L23.8506 9.5H21.0713C20.2043 9.5 19.5 8.79571 19.5 7.92871V5.17285L19.3252 5H11C10.4483 5 10 5.44828 10 6V16.8896C10 17.4419 9.55228 17.8896 9 17.8896C8.44772 17.8896 8 17.4419 8 16.8896V6C8 4.34372 9.34372 3 11 3H20.1494L25.7051 8.52344Z" fill="currentColor"/>
<path d="M17.7608 25.8466H17.7879L19.427 20.2378C19.4702 20.0835 19.5298 19.9513 19.6055 19.8411C19.6812 19.7272 19.7642 19.6336 19.8543 19.5601C19.9481 19.4866 20.0455 19.4315 20.1464 19.3948C20.251 19.3581 20.3538 19.3397 20.4548 19.3397C20.5594 19.3397 20.6586 19.3599 20.7523 19.4003C20.8497 19.4371 20.9344 19.4922 21.0066 19.5656C21.0823 19.6391 21.1418 19.7309 21.1851 19.8411C21.2284 19.9513 21.25 20.078 21.25 20.2213C21.25 20.3866 21.2211 20.5629 21.1634 20.7502L19.757 25.1744C19.6379 25.5454 19.5225 25.8668 19.4107 26.1386C19.3025 26.4068 19.1763 26.6308 19.0321 26.8108C18.8878 26.9908 18.7147 27.1248 18.5128 27.213C18.3108 27.2975 18.0601 27.3397 17.7608 27.3397C17.4867 27.3397 17.2559 27.3085 17.0684 27.2461C16.8809 27.1836 16.715 27.0753 16.5707 26.921C16.4301 26.7667 16.302 26.561 16.1866 26.3039C16.0712 26.0468 15.9504 25.7236 15.8242 25.3342L14.3149 20.6786C14.2897 20.6051 14.2716 20.5353 14.2608 20.4692C14.2536 20.4031 14.25 20.3388 14.25 20.2764C14.25 20.1331 14.2734 20.0046 14.3203 19.8907C14.3708 19.7768 14.4375 19.6795 14.5205 19.5987C14.6034 19.5142 14.6972 19.4499 14.8018 19.4058C14.9064 19.3618 15.0164 19.3397 15.1318 19.3397C15.2291 19.3397 15.3265 19.3581 15.4239 19.3948C15.5249 19.4279 15.6186 19.4811 15.7052 19.5546C15.7953 19.6281 15.8765 19.7236 15.9486 19.8411C16.0207 19.955 16.0802 20.0927 16.1271 20.2543L17.7608 25.8466Z" fill="currentColor"/>
<path d="M9.10037 21.512C9.10037 21.6803 9.15357 21.8223 9.25998 21.938C9.36638 22.0537 9.50436 22.1537 9.67394 22.2378C9.84684 22.322 10.0414 22.3956 10.2575 22.4587C10.4736 22.5218 10.6914 22.5867 10.9108 22.6533C11.2633 22.7655 11.5825 22.8848 11.8685 23.011C12.1577 23.1372 12.4038 23.288 12.6066 23.4633C12.8128 23.6386 12.9707 23.8473 13.0804 24.0892C13.1935 24.3277 13.25 24.6152 13.25 24.9518C13.25 25.32 13.1802 25.6514 13.0405 25.9459C12.9042 26.2404 12.7064 26.4912 12.447 26.698C12.1877 26.9049 11.8734 27.0627 11.5044 27.1714C11.1386 27.2836 10.7263 27.3397 10.2675 27.3397C10.0314 27.3397 9.79364 27.3239 9.55424 27.2924C9.31484 27.2643 9.08375 27.2223 8.86097 27.1662C8.6382 27.11 8.42872 27.0417 8.23254 26.961C8.03637 26.8804 7.86513 26.7892 7.71883 26.6875C7.57253 26.5858 7.45781 26.4754 7.37469 26.3562C7.29156 26.2334 7.25 26.1037 7.25 25.9669C7.25 25.8793 7.26663 25.7934 7.29988 25.7092C7.33645 25.6251 7.38134 25.5497 7.43454 25.483C7.49106 25.4129 7.55258 25.3568 7.61908 25.3147C7.6889 25.2727 7.75707 25.2516 7.82357 25.2516C7.88342 25.2516 7.9416 25.2621 7.99813 25.2832C8.05466 25.3042 8.11118 25.3305 8.16771 25.3621C8.22756 25.3901 8.28741 25.4217 8.34726 25.4568C8.41043 25.4918 8.47693 25.5234 8.54676 25.5514C8.77618 25.6601 9.03387 25.7583 9.31983 25.846C9.60578 25.9336 9.90503 25.9775 10.2176 25.9775C10.3872 25.9775 10.5468 25.9617 10.6964 25.9301C10.8493 25.8951 10.9823 25.8442 11.0954 25.7776C11.2118 25.7075 11.3032 25.618 11.3697 25.5093C11.4362 25.4006 11.4695 25.2692 11.4695 25.1149C11.4695 24.9992 11.4495 24.8957 11.4096 24.8045C11.3697 24.7134 11.3148 24.6345 11.245 24.5679C11.1752 24.4977 11.0937 24.4381 11.0006 24.389C10.9075 24.3364 10.8094 24.2909 10.7064 24.2523L10.4819 24.1681C10.4387 24.1541 10.3971 24.1401 10.3572 24.126C10.3173 24.1085 10.2741 24.0927 10.2276 24.0787L9.9682 23.9998C9.91168 23.9858 9.86347 23.9735 9.82357 23.963C9.78367 23.949 9.74709 23.9367 9.71384 23.9262C9.68392 23.9122 9.65399 23.8999 9.62406 23.8894C9.59414 23.8753 9.55923 23.8613 9.51933 23.8473L9.0505 23.6737C8.74792 23.558 8.48857 23.437 8.27244 23.3108C8.05632 23.1846 7.88009 23.0425 7.74377 22.8848C7.60744 22.727 7.50603 22.5481 7.43953 22.3483C7.37635 22.1449 7.34476 21.91 7.34476 21.6435C7.34476 21.2928 7.41293 20.9755 7.54925 20.6915C7.6889 20.4074 7.88674 20.1655 8.14277 19.9656C8.40212 19.7658 8.71467 19.6115 9.08042 19.5028C9.4495 19.3941 9.86347 19.3397 10.3223 19.3397C10.4886 19.3397 10.6698 19.352 10.866 19.3765C11.0621 19.3976 11.2583 19.4309 11.4545 19.4765C11.6507 19.5221 11.8385 19.5817 12.0181 19.6553C12.201 19.7254 12.3622 19.8096 12.5019 19.9078C12.6415 20.0024 12.7529 20.1111 12.836 20.2339C12.9225 20.3566 12.9657 20.4933 12.9657 20.6441C12.9657 20.7318 12.9491 20.8124 12.9158 20.8861C12.8859 20.9597 12.8443 21.0228 12.7911 21.0754C12.7379 21.128 12.6748 21.1701 12.6016 21.2017C12.5318 21.2297 12.4586 21.2437 12.3822 21.2437C12.2824 21.2437 12.191 21.2209 12.1079 21.1754C11.9516 21.0912 11.8053 21.0193 11.669 20.9597C11.536 20.9001 11.403 20.851 11.27 20.8124C11.1369 20.7739 10.999 20.7458 10.856 20.7283C10.7163 20.7107 10.5617 20.702 10.3921 20.702C10.2325 20.702 10.0746 20.7178 9.91833 20.7493C9.76538 20.7774 9.62739 20.8247 9.50436 20.8913C9.38466 20.9544 9.28658 21.0369 9.2101 21.1385C9.13695 21.2402 9.10037 21.3647 9.10037 21.512Z" fill="currentColor"/>
<path d="M0.25 23.4002C0.25 22.762 0.336601 22.1922 0.509804 21.6908C0.686275 21.1859 0.931373 20.7598 1.2451 20.4127C1.55882 20.0656 1.93137 19.8008 2.36275 19.6185C2.79739 19.4326 3.27288 19.3397 3.78922 19.3397C4.19771 19.3397 4.55229 19.3678 4.85294 19.4239C5.15686 19.4765 5.4085 19.5501 5.60784 19.6448C5.80719 19.7395 5.95588 19.8517 6.05392 19.9814C6.15196 20.1111 6.20098 20.2514 6.20098 20.4022C6.20098 20.5039 6.18137 20.5933 6.14216 20.6704C6.10294 20.7441 6.05065 20.8054 5.98529 20.8545C5.9232 20.9036 5.85294 20.9404 5.77451 20.965C5.69608 20.986 5.61765 20.9965 5.53922 20.9965C5.49346 20.9965 5.44771 20.9965 5.40196 20.9965C5.35621 20.993 5.31209 20.9843 5.26961 20.9702C5.14542 20.9352 5.02614 20.9019 4.91177 20.8703C4.80065 20.8352 4.68954 20.8054 4.57843 20.7809C4.47059 20.7563 4.36111 20.737 4.25 20.723C4.14216 20.7055 4.02941 20.6967 3.91176 20.6967C3.66667 20.6967 3.43464 20.737 3.21569 20.8177C3 20.8948 2.81209 21.0333 2.65196 21.2332C2.49183 21.4331 2.36438 21.7048 2.26961 22.0485C2.1781 22.3886 2.13235 22.8234 2.13235 23.3529C2.13235 23.7596 2.16993 24.126 2.2451 24.4521C2.32026 24.7747 2.43137 25.05 2.57843 25.2779C2.72876 25.5023 2.91503 25.6759 3.13725 25.7986C3.36275 25.9179 3.62418 25.9775 3.92157 25.9775C4.04248 25.9775 4.1683 25.9634 4.29902 25.9354C4.42974 25.9073 4.56373 25.8723 4.70098 25.8302C4.83824 25.7846 4.97712 25.7338 5.11765 25.6777C5.26144 25.6216 5.40359 25.5655 5.54412 25.5093C5.5866 25.4953 5.63889 25.4883 5.70098 25.4883C5.78268 25.4883 5.85621 25.5058 5.92157 25.5409C5.9902 25.5725 6.04902 25.6163 6.09804 25.6724C6.14706 25.7285 6.18464 25.7951 6.21078 25.8723C6.23693 25.9459 6.25 26.0248 6.25 26.109C6.25 26.2457 6.20752 26.3719 6.12255 26.4877C6.04085 26.5999 5.93137 26.7015 5.79412 26.7927C5.65686 26.8839 5.49837 26.9645 5.31863 27.0347C5.14216 27.1013 4.95915 27.1574 4.76961 27.203C4.58007 27.2486 4.39052 27.2819 4.20098 27.3029C4.01471 27.3274 3.8415 27.3397 3.68137 27.3397C3.19771 27.3397 2.74673 27.2538 2.32843 27.082C1.91013 26.9067 1.54739 26.6525 1.2402 26.3193C0.933007 25.9827 0.691176 25.5707 0.514706 25.0833C0.338235 24.5924 0.25 24.0314 0.25 23.4002Z" fill="currentColor"/>
</svg>
