<svg width="30" height="30" viewBox="0 0 30 30" fill="currentColor" xmlns="http://www.w3.org/2000/svg">
<path d="M11.25 9C11.25 10.243 10.243 11.25 9 11.25C7.757 11.25 6.75 10.243 6.75 9C6.75 7.757 7.757 6.75 9 6.75C10.243 6.75 11.25 7.757 11.25 9ZM23.25 9C23.25 10.243 22.243 11.25 21 11.25C19.757 11.25 18.75 10.243 18.75 9C18.75 7.757 19.757 6.75 21 6.75C22.243 6.75 23.25 7.757 23.25 9ZM23.25 21C23.25 22.243 22.243 23.25 21 23.25C19.757 23.25 18.75 22.243 18.75 21C18.75 19.757 19.757 18.75 21 18.75C22.243 18.75 23.25 19.757 23.25 21ZM11.25 21C11.25 22.243 10.243 23.25 9 23.25C7.757 23.25 6.75 22.243 6.75 21C6.75 19.757 7.757 18.75 9 18.75C10.243 18.75 11.25 19.757 11.25 21ZM17.25 15C17.25 16.243 16.243 17.25 15 17.25C13.757 17.25 12.75 16.243 12.75 15C12.75 13.757 13.757 12.75 15 12.75C16.243 12.75 17.25 13.757 17.25 15Z" fill="currentColor"/>
<path d="M25 8C25 6.34315 23.6569 5 22 5H8C6.34315 5 5 6.34315 5 8V22C5 23.6569 6.34315 25 8 25H22C23.6569 25 25 23.6569 25 22V8ZM27 22C27 24.7614 24.7614 27 22 27H8C5.23858 27 3 24.7614 3 22V8C3 5.23858 5.23858 3 8 3H22C24.7614 3 27 5.23858 27 8V22Z" fill="currentColor"/>
</svg>
