<svg width="30" height="30" viewBox="0 0 30 30" fill="currentColor" xmlns="http://www.w3.org/2000/svg">
<path d="M17.5 10.8474V8.2937C17.4999 7.36586 17.1037 6.70571 16.4941 6.24878C15.856 5.77049 14.9533 5.49976 14 5.49976C13.0467 5.49976 12.144 5.77049 11.5059 6.24878C10.8963 6.70571 10.5001 7.36586 10.5 8.2937V10.8474C10.5001 12.1206 10.9092 12.7471 11.2109 13.0525C11.3726 13.2161 11.5304 13.3141 11.6387 13.3689C11.6926 13.3962 11.7333 13.4122 11.7539 13.4197C11.7592 13.4216 11.7633 13.4228 11.7656 13.4236L12.5 13.6091V16.4119C12.5 17.0097 12.2197 17.4684 11.8506 17.7849C11.5215 18.0671 11.1114 18.2477 10.7588 18.3806C10.3994 18.516 9.97422 18.6451 9.58984 18.7683C9.18744 18.8973 8.78615 19.0327 8.39355 19.2009C7.61054 19.5365 6.91087 19.9808 6.39844 20.6746C6.00605 21.2059 5.68319 21.9411 5.55762 22.9998H16.1416L16.2432 23.0056C16.7475 23.0567 17.1415 23.482 17.1416 23.9998C17.1416 24.5177 16.7476 24.9439 16.2432 24.9949L16.1416 24.9998H3.5V23.9998C3.50004 22.0412 3.98238 20.5796 4.78906 19.4871C5.58907 18.4037 6.63965 17.7773 7.60645 17.363C8.08863 17.1564 8.56278 16.9969 8.98047 16.863C9.41617 16.7234 9.75692 16.6214 10.0537 16.5095C10.2914 16.42 10.4265 16.3488 10.5 16.3005V15.0212C10.2812 14.8881 10.0338 14.7063 9.78906 14.4587C9.09088 13.7523 8.50009 12.6084 8.5 10.8474V8.2937C8.50009 6.69246 9.22894 5.45591 10.3066 4.64819C11.356 3.86176 12.7033 3.49976 14 3.49976C15.2967 3.49976 16.644 3.86176 17.6934 4.64819C18.7711 5.45591 19.4999 6.69246 19.5 8.2937V10.8474C19.4999 12.6084 18.9091 13.7523 18.2109 14.4587C17.9662 14.7063 17.7188 14.8881 17.5 15.0212V16.3044C17.5685 16.3509 17.6952 16.4213 17.9199 16.5095C18.2013 16.62 18.5315 16.7237 18.9502 16.8601C19.2523 16.9586 19.5868 17.0694 19.9326 17.2019L20.2812 17.3416L20.373 17.3865C20.8183 17.6288 21.0167 18.1736 20.8164 18.6511C20.616 19.1284 20.0883 19.3684 19.6035 19.2205L19.5068 19.1863L19.2148 19.0691C18.9219 18.9569 18.6267 18.8578 18.3311 18.7615C17.9528 18.6382 17.5413 18.5094 17.1885 18.3708C16.8435 18.2353 16.4451 18.05 16.125 17.7654C15.7675 17.4475 15.5 16.9949 15.5 16.4119V13.6091L16.2334 13.4236C16.2356 13.4229 16.24 13.4219 16.2461 13.4197C16.2667 13.4122 16.3074 13.3962 16.3613 13.3689C16.4696 13.3141 16.6274 13.2161 16.7891 13.0525C17.0908 12.7471 17.4999 12.1206 17.5 10.8474ZM11.7646 13.4236C11.7638 13.4233 11.7629 13.4229 11.7617 13.4226C11.7599 13.4221 11.7576 13.4214 11.7549 13.4207C11.7535 13.4203 11.7516 13.4201 11.75 13.4197H11.749L11.7646 13.4236ZM16.25 13.4197C16.2484 13.4201 16.2465 13.4203 16.2451 13.4207C16.2424 13.4214 16.2401 13.4221 16.2383 13.4226C16.2367 13.423 16.2354 13.4233 16.2344 13.4236L16.251 13.4197H16.25Z" fill="currentColor"/>
<path d="M23.3281 19.0088C23.8804 19.0088 24.3281 19.4565 24.3281 20.0088V23.0088H27.3281L27.4307 23.0137C27.9348 23.065 28.3281 23.4911 28.3281 24.0088C28.328 24.5263 27.9347 24.9526 27.4307 25.0039L27.3281 25.0088H24.3281V28.0088L24.3232 28.1113C24.2718 28.6153 23.8457 29.0088 23.3281 29.0088C22.8107 29.0086 22.3844 28.6152 22.333 28.1113L22.3281 28.0088V25.0088H19.3281C18.7761 25.0086 18.3283 24.5608 18.3281 24.0088C18.3281 23.4566 18.776 23.009 19.3281 23.0088H22.3281V20.0088C22.3281 19.4566 22.776 19.009 23.3281 19.0088Z" fill="currentColor"/>
</svg>
