<svg width="30" height="30" viewBox="0 0 30 30" fill="currentColor" xmlns="http://www.w3.org/2000/svg">
<path d="M18.5 9.2937C18.4999 8.36586 18.1037 7.70571 17.4941 7.24878C16.856 6.77049 15.9533 6.49976 15 6.49976C14.0467 6.49976 13.144 6.77049 12.5059 7.24878C11.8963 7.70571 11.5001 8.36586 11.5 9.2937V11.8474C11.5001 13.1206 11.9092 13.7471 12.2109 14.0525C12.3726 14.2161 12.5304 14.3141 12.6387 14.3689C12.6926 14.3962 12.7333 14.4122 12.7539 14.4197C12.7592 14.4216 12.7633 14.4228 12.7656 14.4236L13.5 14.6091V17.4119C13.5 18.0097 13.2197 18.4684 12.8506 18.7849C12.5215 19.0671 12.1114 19.2477 11.7588 19.3806C11.3994 19.516 10.9742 19.6451 10.5898 19.7683C10.1874 19.8973 9.78615 20.0327 9.39355 20.2009C8.61054 20.5365 7.91087 20.9808 7.39844 21.6746C7.00605 22.2059 6.68319 22.9411 6.55762 23.9998H23.4414C23.3151 22.9596 22.9935 22.2343 22.6025 21.7068C22.0892 21.0144 21.3879 20.5669 20.6025 20.2263C20.2088 20.0556 19.8064 19.917 19.4033 19.7849C19.018 19.6587 18.594 19.527 18.2344 19.3884C17.8814 19.2524 17.473 19.0678 17.1455 18.7839C16.7795 18.4666 16.5 18.0087 16.5 17.4119V14.6091L17.2334 14.4236C17.2356 14.4229 17.24 14.4219 17.2461 14.4197C17.2667 14.4122 17.3074 14.3962 17.3613 14.3689C17.4696 14.3141 17.6274 14.2161 17.7891 14.0525C18.0908 13.7471 18.4999 13.1206 18.5 11.8474V9.2937ZM12.7646 14.4236C12.7638 14.4233 12.7629 14.4229 12.7617 14.4226C12.7599 14.4221 12.7576 14.4214 12.7549 14.4207C12.7535 14.4203 12.7516 14.4201 12.75 14.4197H12.749L12.7646 14.4236ZM17.25 14.4197C17.2484 14.4201 17.2465 14.4203 17.2451 14.4207C17.2424 14.4214 17.2401 14.4221 17.2383 14.4226C17.2367 14.423 17.2354 14.4233 17.2344 14.4236L17.251 14.4197H17.25ZM20.5 11.8474C20.4999 13.6084 19.9091 14.7523 19.2109 15.4587C18.9662 15.7063 18.7188 15.8881 18.5 16.0212V17.3044C18.5734 17.3544 18.71 17.4285 18.9531 17.5222C19.2496 17.6365 19.5915 17.742 20.0264 17.8845C20.4434 18.0212 20.9164 18.1828 21.3975 18.3914C22.362 18.8096 23.4108 19.4374 24.21 20.5154C25.0166 21.6036 25.5 23.0566 25.5 24.9998V25.9998H4.5V24.9998C4.50004 23.0412 4.98238 21.5796 5.78906 20.4871C6.58907 19.4037 7.63965 18.7773 8.60645 18.363C9.08863 18.1564 9.56278 17.9969 9.98047 17.863C10.4162 17.7234 10.7569 17.6214 11.0537 17.5095C11.2914 17.42 11.4265 17.3488 11.5 17.3005V16.0212C11.2812 15.8881 11.0338 15.7063 10.7891 15.4587C10.0909 14.7523 9.50009 13.6084 9.5 11.8474V9.2937C9.50009 7.69246 10.2289 6.45591 11.3066 5.64819C12.356 4.86176 13.7033 4.49976 15 4.49976C16.2967 4.49976 17.644 4.86176 18.6934 5.64819C19.7711 6.45591 20.4999 7.69246 20.5 9.2937V11.8474Z" fill="currentColor"/>
</svg>
