<svg width="30" height="30" viewBox="0 0 30 30" fill="currentColor" xmlns="http://www.w3.org/2000/svg">
<path d="M15.127 3.5C15.254 3.5 15.3733 3.56202 15.4443 3.66602L17.7803 7.08496C17.8582 7.19892 17.8658 7.34585 17.7988 7.4668C17.7328 7.5878 17.6039 7.66406 17.4629 7.66406H16.127V16.4385C16.5632 16.0057 17.0312 15.7246 17.4834 15.5049C17.678 15.4103 17.8728 15.3256 18.0371 15.2529C18.2088 15.177 18.3531 15.1112 18.4873 15.042C18.748 14.9075 18.9325 14.7761 19.0811 14.6025C19.2357 14.4218 19.4039 14.1313 19.5283 13.6133H19.4287C18.8767 13.6131 18.4289 13.1653 18.4287 12.6133V10.1514C18.4287 9.59918 18.8766 9.15152 19.4287 9.15137H22C22.5523 9.15137 23 9.59908 23 10.1514V12.6133C22.9998 13.1654 22.5522 13.6133 22 13.6133H21.5674C21.3983 14.6057 21.0807 15.3424 20.6006 15.9033C20.2256 16.3414 19.7991 16.6161 19.4053 16.8193C19.2122 16.9189 19.0176 17.006 18.8457 17.082C18.6665 17.1613 18.5118 17.2287 18.3574 17.3037C17.8085 17.5704 17.316 17.9008 16.9131 18.7998C16.6641 19.3556 16.4443 20.1427 16.3008 21.2793C17.4013 21.728 18.1748 22.7885 18.1748 24.0254C18.1746 25.6683 16.8102 27 15.127 27C13.4437 27 12.0793 25.6682 12.0791 24.0254C12.0791 22.8434 12.7865 21.8246 13.8096 21.3447C13.6906 20.896 13.5521 20.5748 13.4062 20.3418C13.0745 19.8119 12.6647 19.6259 11.999 19.3896C11.3562 19.1615 10.3428 18.8628 9.60742 17.8623C9.11113 17.1871 8.78999 16.2715 8.63965 15.0088C7.69216 14.7365 7.00005 13.883 7 12.8701C7 11.638 8.02361 10.6387 9.28613 10.6387C10.5486 10.6387 11.5723 11.638 11.5723 12.8701C11.5722 13.6174 11.1941 14.2768 10.6162 14.6816C10.7364 15.7788 10.9812 16.3545 11.2188 16.6777C11.5308 17.1023 11.9142 17.2374 12.668 17.5049C13.1011 17.6586 13.6238 17.8528 14.127 18.2227V7.66406H12.791C12.651 7.66306 12.5221 7.58777 12.4561 7.46777C12.3902 7.34684 12.3967 7.20085 12.4736 7.08691L14.8096 3.66602C14.8806 3.56203 15 3.50001 15.127 3.5Z" fill="currentColor"/>
</svg>
