<svg width="30" height="30" viewBox="0 0 30 30" fill="currentColor" xmlns="http://www.w3.org/2000/svg">
<path d="M14.0281 5.36619C14.3942 5.00007 14.9732 4.97748 15.366 5.29783L15.4421 5.36619L16.8562 6.78025C17.0435 6.96776 17.1492 7.22223 17.1492 7.48728C17.149 7.75231 17.0436 8.0069 16.8562 8.19432L15.4421 9.60838C15.0517 9.99854 14.4185 9.99847 14.0281 9.60838C13.7597 9.33998 13.6746 8.95624 13.7751 8.61619C10.773 9.19001 8.49976 11.832 8.49976 15C8.49988 18.5865 11.4132 21.4998 14.9998 21.5C18.5864 21.5 21.4996 18.5866 21.4998 15C21.4998 14.326 21.3971 13.6771 21.2078 13.0683C21.0437 12.5411 21.3388 11.9806 21.866 11.8164C22.3932 11.6525 22.9538 11.9464 23.1179 12.4736C23.3665 13.2727 23.4998 14.1222 23.4998 15C23.4996 19.6912 19.691 23.5 14.9998 23.5C10.3087 23.4998 6.49988 19.6911 6.49976 15C6.49976 10.6912 9.71316 7.12878 13.8718 6.57615C13.6481 6.19333 13.6999 5.69451 14.0281 5.36619Z" fill="currentColor"/>
</svg>
