<svg width="30" height="30" viewBox="0 0 30 30" fill="currentColor" xmlns="http://www.w3.org/2000/svg">
<path d="M23 7.5C23.5523 7.5 24 7.94772 24 8.5C24 9.05228 23.5523 9.5 23 9.5H7C6.44772 9.5 6 9.05228 6 8.5C6 7.94772 6.44772 7.5 7 7.5H23Z" fill="currentColor"/>
<path d="M23 16.493C23.5523 16.493 24 16.9407 24 17.493C24 18.0453 23.5523 18.493 23 18.493H7C6.44772 18.493 6 18.0453 6 17.493C6 16.9407 6.44772 16.493 7 16.493H23Z" fill="currentColor"/>
<path d="M17 11.996C17.5523 11.996 18 12.4437 18 12.996C18 13.5483 17.5523 13.996 17 13.996H7C6.44772 13.996 6 13.5483 6 12.996C6 12.4437 6.44772 11.996 7 11.996H17Z" fill="currentColor"/>
<path d="M17 20.99C17.5523 20.99 18 21.4377 18 21.99C18 22.5423 17.5523 22.99 17 22.99H7C6.44772 22.99 6 22.5423 6 21.99C6 21.4377 6.44772 20.99 7 20.99H17Z" fill="currentColor"/>
</svg>
