<svg width="30" height="30" viewBox="0 0 30 30" fill="currentColor" xmlns="http://www.w3.org/2000/svg">
<path d="M25 18C25.5523 18 26 18.4477 26 19V23C26 24.1043 25.1043 25 24 25H6C4.89572 25 4 24.1043 4 23V19C4 18.4477 4.44772 18 5 18C5.55228 18 6 18.4477 6 19V23H24V19C24 18.4477 24.4477 18 25 18ZM15 5C15.5523 5 16 5.44772 16 6V15.0732L18.8555 12.2852C19.2505 11.8992 19.8836 11.9058 20.2695 12.3008C20.6554 12.6957 20.6477 13.3289 20.2529 13.7148L15.4756 18.3818C15.087 18.7614 14.4667 18.7614 14.0781 18.3818L9.30078 13.7148L9.23145 13.6406C8.90639 13.2516 8.92327 12.6712 9.28516 12.3008C9.64699 11.9309 10.2257 11.9012 10.6221 12.2168L10.6992 12.2852L14 15.5098V6C14 5.44772 14.4477 5 15 5Z" fill="currentColor"/>
</svg>
