<svg width="32" height="32" viewBox="0 0 32 32" fill="currentColor" xmlns="http://www.w3.org/2000/svg">
<path d="M18.9667 13.6V10.1C18.9667 9.54772 19.4144 9.10001 19.9667 9.10001C20.519 9.10001 20.9667 9.54772 20.9667 10.1V13.6C20.9667 14.1523 20.519 14.6 19.9667 14.6C19.4144 14.6 18.9667 14.1523 18.9667 13.6Z" fill="currentColor"/>
<path d="M15.9667 13.6V10.1C15.9667 9.54772 16.4144 9.10001 16.9667 9.10001C17.519 9.10001 17.9667 9.54772 17.9667 10.1V13.6C17.9667 14.1523 17.519 14.6 16.9667 14.6C16.4144 14.6 15.9667 14.1523 15.9667 13.6Z" fill="currentColor"/>
<path d="M12.9667 13.6V10.1C12.9667 9.54772 13.4144 9.10001 13.9667 9.10001C14.519 9.10001 14.9667 9.54772 14.9667 10.1V13.6C14.9667 14.1523 14.519 14.6 13.9667 14.6C13.4144 14.6 12.9667 14.1523 12.9667 13.6Z" fill="currentColor"/>
<path d="M23 8.13379C23 7.50817 22.4918 7 21.8662 7H12.7725L9 10.7725V24.1338C9.00025 24.7592 9.50832 25.2666 10.1338 25.2666H21.8662C22.4917 25.2666 22.9998 24.7592 23 24.1338V8.13379ZM25 24.1338C24.9998 25.8638 23.5962 27.2666 21.8662 27.2666H10.1338C8.40375 27.2666 7.00025 25.8638 7 24.1338V9.94434L11.9443 5H21.8662C23.5964 5 25 6.4036 25 8.13379V24.1338Z" fill="currentColor"/>
</svg>
