<svg width="30" height="30" viewBox="0 0 30 30" fill="currentColor" xmlns="http://www.w3.org/2000/svg">
<path d="M14.8941 6.50708C16.7994 6.43839 18.7498 6.90589 20.2545 7.92017C21.5491 8.79292 22.516 10.0828 22.7838 11.7366C24.2177 11.937 25.3694 12.6043 26.1783 13.5637C27.1374 14.7013 27.5655 16.1866 27.4918 17.637C27.4177 19.091 26.8369 20.5634 25.7115 21.676C24.5745 22.7999 22.9393 23.5002 20.8717 23.5002H7.99862C6.20319 23.5001 4.78611 22.8929 3.82967 21.8831C2.88443 20.885 2.46355 19.5717 2.50154 18.2932C2.571 15.9696 4.17214 13.638 7.04647 13.2141C7.26181 11.1656 8.18813 9.56943 9.52108 8.44946C11.0244 7.18674 12.9862 6.57599 14.8941 6.50708ZM14.9664 8.50513C13.409 8.56139 11.9039 9.06046 10.8082 9.98071C9.73849 10.8794 8.99862 12.2266 8.99862 14.1467V15.1467H7.99862C5.7243 15.147 4.54969 16.7451 4.50154 18.3528C4.47752 19.1623 4.74399 19.939 5.28182 20.5071C5.80867 21.0634 6.67212 21.5001 7.99862 21.5002H20.8717C22.4654 21.5002 23.5786 20.9722 24.3053 20.2542C25.0434 19.5243 25.4426 18.538 25.4937 17.5354C25.5449 16.529 25.2434 15.5578 24.649 14.8528C24.071 14.1673 23.1672 13.6722 21.8619 13.6721H20.8619V12.6721C20.8618 11.3321 20.2058 10.2993 19.1363 9.57837C18.0418 8.84065 16.5265 8.44892 14.9664 8.50513ZM17.2926 12.2932C17.6831 11.9027 18.3161 11.9028 18.7066 12.2932C19.0971 12.6837 19.0971 13.3168 18.7066 13.7073L16.4137 16.0002L18.7066 18.2932L18.775 18.3694C19.0953 18.7622 19.0727 19.3412 18.7066 19.7073C18.3405 20.0731 17.7614 20.0959 17.3687 19.7756L17.2926 19.7073L14.9996 17.4143L12.7066 19.7073C12.3161 20.0975 11.683 20.0977 11.2926 19.7073C10.9022 19.3169 10.9024 18.6837 11.2926 18.2932L13.5855 16.0002L11.2926 13.7073L11.2242 13.6311C10.904 13.2384 10.9268 12.6593 11.2926 12.2932C11.6586 11.9271 12.2377 11.9046 12.6305 12.2249L12.7066 12.2932L14.9996 14.5862L17.2926 12.2932Z" fill="currentColor"/>
</svg>
