<svg width="30" height="30" viewBox="0 0 30 30" fill="none" xmlns="http://www.w3.org/2000/svg">
<path d="M21.25 8.74994L15.8875 3.38744C15.1 2.59994 13.75 3.14994 13.75 4.26244V11.9874L8.88754 7.12494C8.77181 7.00921 8.63442 6.91741 8.48321 6.85478C8.33201 6.79215 8.16995 6.75992 8.00629 6.75992C7.84262 6.75992 7.68056 6.79215 7.52936 6.85478C7.37815 6.91741 7.24076 7.00921 7.12504 7.12494C7.00931 7.24067 6.91751 7.37806 6.85488 7.52926C6.79225 7.68047 6.76001 7.84253 6.76001 8.00619C6.76001 8.16986 6.79225 8.33192 6.85488 8.48312C6.91751 8.63433 7.00931 8.77172 7.12504 8.88744L13.2375 14.9999L7.12504 21.1124C7.00931 21.2282 6.91751 21.3656 6.85488 21.5168C6.79225 21.668 6.76001 21.83 6.76001 21.9937C6.76001 22.1574 6.79225 22.3194 6.85488 22.4706C6.91751 22.6218 7.00931 22.7592 7.12504 22.8749C7.24076 22.9907 7.37815 23.0825 7.52936 23.1451C7.68056 23.2077 7.84262 23.24 8.00629 23.24C8.16995 23.24 8.33201 23.2077 8.48321 23.1451C8.63442 23.0825 8.77181 22.9907 8.88754 22.8749L13.75 18.0124V25.7374C13.75 26.8499 15.1 27.4124 15.8875 26.6249L21.25 21.2499C21.3659 21.1343 21.4578 20.9969 21.5206 20.8457C21.5833 20.6945 21.6156 20.5324 21.6156 20.3687C21.6156 20.205 21.5833 20.0429 21.5206 19.8917C21.4578 19.7404 21.3659 19.6031 21.25 19.4874L16.7625 14.9999L21.25 10.5249C21.7375 10.0374 21.7375 9.23744 21.25 8.74994ZM16.25 7.28744L18.6 9.63744L16.25 11.9874V7.28744ZM18.6 20.3624L16.25 22.7124V18.0124L18.6 20.3624Z" fill="currentColor"/>
</svg>
