<svg width="30" height="30" viewBox="0 0 30 30" fill="currentColor" xmlns="http://www.w3.org/2000/svg">
<path d="M20.9141 5L23.9141 8H26C26.5752 8 27.0667 8.27762 27.3945 8.60547C27.7224 8.93331 28 9.42477 28 10V23C28 23.5752 27.7224 24.0667 27.3945 24.3945C27.0667 24.7224 26.5752 25 26 25H4C3.42477 25 2.93331 24.7224 2.60547 24.3945C2.27762 24.0667 2 23.5752 2 23V10C2 9.42477 2.27762 8.93331 2.60547 8.60547C2.93331 8.27762 3.42477 8 4 8H4.5V7H8V8H9.08594L12.0859 5H20.9141ZM9.91406 10H4.04199L4.01953 10.0195C4.01175 10.0273 4.005 10.035 4 10.042V22.958L4.01953 22.9805C4.02731 22.9882 4.03495 22.995 4.04199 23H25.958C25.965 22.995 25.9727 22.9882 25.9805 22.9805L26 22.958V10.042C25.995 10.035 25.9882 10.0273 25.9805 10.0195L25.958 10H23.0859L20.0859 7H12.9141L9.91406 10Z" fill="currentColor"/>
<path d="M17.5 15.25C17.5 14.8358 17.1642 14.5 16.75 14.5C16.3358 14.5 16 14.8358 16 15.25C16 15.6642 16.3358 16 16.75 16C17.1642 16 17.5 15.6642 17.5 15.25ZM19.5 15.25C19.5 16.7688 18.2688 18 16.75 18C15.2312 18 14 16.7688 14 15.25C14 13.7312 15.2312 12.5 16.75 12.5C18.2688 12.5 19.5 13.7312 19.5 15.25Z" fill="currentColor"/>
<path d="M6.75 12.5C6.61193 12.5 6.5 12.6119 6.5 12.75C6.5 12.8881 6.61193 13 6.75 13C6.88807 13 7 12.8881 7 12.75C7 12.6119 6.88807 12.5 6.75 12.5ZM8.5 12.75C8.5 13.7165 7.7165 14.5 6.75 14.5C5.7835 14.5 5 13.7165 5 12.75C5 11.7835 5.7835 11 6.75 11C7.7165 11 8.5 11.7835 8.5 12.75Z" fill="currentColor"/>
<path d="M21 15.25C21 12.9028 19.0972 11 16.75 11C14.4028 11 12.5 12.9028 12.5 15.25C12.5 17.5972 14.4028 19.5 16.75 19.5C19.0972 19.5 21 17.5972 21 15.25ZM23 15.25C23 18.7018 20.2018 21.5 16.75 21.5C13.2982 21.5 10.5 18.7018 10.5 15.25C10.5 11.7982 13.2982 9 16.75 9C20.2018 9 23 11.7982 23 15.25Z" fill="currentColor"/>
</svg>
