<svg width="30" height="30" viewBox="0 0 30 30" fill="currentColor" xmlns="http://www.w3.org/2000/svg">
<path d="M20.7973 4.00912C22.1628 4.08861 23.4164 4.71801 24.3413 5.63022C25.2657 6.5422 25.9095 7.78373 25.9917 9.14194C26.0752 10.5257 25.5693 11.9459 24.3471 13.1527C23.0252 14.4576 21.1103 16.3486 19.5258 17.9124C18.7336 18.6944 18.0238 19.3948 17.5122 19.8997C17.2564 20.1522 17.05 20.356 16.9077 20.4964C16.8366 20.5666 16.781 20.6207 16.7436 20.6576L16.687 20.7142C16.294 21.102 15.6609 21.0971 15.2729 20.7044C14.8851 20.3114 14.8887 19.6783 15.2817 19.2904L15.2827 19.2894L15.2856 19.2874C15.288 19.2851 15.2917 19.2813 15.2964 19.2767C15.3059 19.2673 15.3207 19.2531 15.3393 19.2347C15.3767 19.1978 15.4313 19.1428 15.5024 19.0726C15.6447 18.9321 15.8511 18.7284 16.1069 18.4759C16.6185 17.971 17.3284 17.2705 18.1206 16.4886C19.705 14.9247 21.62 13.0347 22.9419 11.7298L23.0923 11.5746C23.8092 10.7971 24.0395 9.98965 23.9956 9.26205C23.947 8.46056 23.5586 7.66737 22.937 7.05405C22.3153 6.44095 21.5055 6.05326 20.6811 6.00522C19.8805 5.95877 18.9949 6.2276 18.1577 7.05405C14.3302 10.8314 9.32493 15.7715 6.67526 18.3871C6.13272 18.9226 5.97604 19.4647 6.00339 19.9349C6.03236 20.4302 6.27272 20.9346 6.67233 21.3304C7.07168 21.7256 7.58521 21.968 8.09616 21.9974C8.58356 22.0252 9.14151 21.8648 9.68893 21.3246C12.6469 18.4039 16.4594 14.6407 18.226 12.8968C18.4738 12.6522 18.5187 12.4379 18.5092 12.2787C18.4982 12.094 18.4047 11.8819 18.2251 11.7044C18.0455 11.5272 17.8249 11.43 17.6264 11.4183C17.4517 11.4082 17.2281 11.4585 16.9799 11.7035C16.8201 11.8612 16.8042 11.8774 16.6362 12.0433C16.5222 12.1559 16.3912 12.285 16.271 12.4037C16.2612 12.4133 16.1865 12.4873 16.1762 12.4974C16.1725 12.5011 16.1683 12.5044 16.1645 12.5081L16.1176 12.555C16.1137 12.5589 16.1089 12.5628 16.1049 12.5667C16.0746 12.5967 16.1115 12.5605 16.0815 12.5902C15.9938 12.6768 15.9777 12.6932 15.8891 12.7806C15.7295 12.9382 15.6604 13.0056 15.4985 13.1654C15.4586 13.2048 15.3424 13.321 15.3022 13.3607C15.293 13.3698 15.2142 13.4469 15.2036 13.4574C15.1355 13.5246 15.2218 13.4391 15.1538 13.5062C15.1058 13.5535 15.153 13.5076 15.1049 13.555C15.063 13.5964 14.9507 13.7069 14.9087 13.7484L14.8842 13.7728C14.8802 13.7768 14.8756 13.7806 14.8716 13.7845C14.8675 13.7885 14.8639 13.7932 14.8598 13.7972C14.8573 13.7997 14.8157 13.8405 14.811 13.8451C14.807 13.849 14.8023 13.8528 14.7983 13.8568C14.7943 13.8608 14.7906 13.8655 14.7866 13.8695C14.7825 13.8735 14.7779 13.8772 14.7739 13.8812C14.77 13.8851 14.7661 13.8891 14.7622 13.8929C14.7445 13.9104 14.731 13.9234 14.7133 13.9408C14.7093 13.9447 14.7056 13.9495 14.7016 13.9535C14.6976 13.9574 14.693 13.9612 14.6889 13.9652C14.6572 13.9965 14.6962 13.9573 14.6645 13.9886C14.6605 13.9926 14.6568 13.9973 14.6528 14.0013C14.6489 14.0052 14.645 14.0092 14.6411 14.013C14.6387 14.0153 14.6198 14.0333 14.6167 14.0365C14.6081 14.0449 14.5317 14.1206 14.521 14.1312C14.521 14.1312 14.4762 14.176 14.4731 14.179C14.4257 14.2258 14.496 14.1558 14.4487 14.2025L14.4018 14.2494C14.3804 14.2705 14.3988 14.2517 14.3774 14.2728L14.354 14.2962C14.3299 14.32 14.3546 14.295 14.3305 14.3187C14.2518 14.3965 14.3152 14.3341 14.2368 14.4115L14.1792 14.4691C14.1754 14.4728 14.1712 14.4761 14.1674 14.4798C14.139 14.5079 14.1723 14.4753 14.144 14.5033C14.0465 14.5995 14.0585 14.5881 13.9624 14.683C13.8908 14.7536 13.9448 14.7005 13.8735 14.7708C13.8393 14.8046 13.8194 14.8234 13.7856 14.8568L13.7426 14.8997C13.692 14.9497 13.7498 14.8923 13.6997 14.9417L13.6674 14.974C13.664 14.9773 13.6601 14.9804 13.6567 14.9837C13.6047 15.0351 13.6882 14.9538 13.6362 15.0052C13.6328 15.0086 13.6289 15.0116 13.6255 15.015L13.5737 15.0667C13.5664 15.074 13.539 15.1006 13.5317 15.1078C13.4972 15.1419 13.5263 15.1136 13.4917 15.1478C13.4807 15.1586 13.4819 15.1567 13.4712 15.1673C13.467 15.1714 13.4549 15.1837 13.4507 15.1878C13.4439 15.1945 13.3759 15.2617 13.3716 15.266C13.3684 15.2691 13.365 15.2726 13.3618 15.2757C13.3587 15.2788 13.3551 15.2815 13.352 15.2845L13.2944 15.3421C13.2584 15.3777 13.2544 15.3816 13.2192 15.4164C13.2162 15.4194 13.2125 15.4221 13.2094 15.4251C13.2064 15.4282 13.2037 15.4319 13.2007 15.4349C13.1976 15.4379 13.1939 15.4407 13.1909 15.4437C13.188 15.4466 13.185 15.4496 13.1821 15.4525C13.1791 15.4555 13.1763 15.4593 13.1733 15.4622C13.1703 15.4652 13.1665 15.4681 13.1635 15.471L13.1372 15.4974C13.1342 15.5003 13.1304 15.5033 13.1274 15.5062L13.0747 15.5589C13.0244 15.6086 13.0561 15.5772 13.0063 15.6263C12.9794 15.6528 12.966 15.666 12.9399 15.6917C12.9334 15.6982 12.9138 15.717 12.9077 15.723L12.8159 15.8148C12.7757 15.8544 12.7965 15.8337 12.7573 15.8724C12.6991 15.9299 12.7033 15.9252 12.6489 15.9789C12.5863 16.0407 12.6115 16.016 12.5532 16.0736C12.5283 16.0981 12.4898 16.1363 12.4692 16.1566C12.4276 16.1976 12.4369 16.1884 12.3999 16.2249C12.3643 16.2601 12.3189 16.3051 12.3032 16.3206L12.2954 16.3285C12.2896 16.3342 12.294 16.3289 12.2885 16.3343L12.2827 16.3402C12.2827 16.3402 12.2824 16.3414 12.2807 16.3431C12.2787 16.3451 12.2797 16.3432 12.2778 16.3451C12.2752 16.3476 12.2771 16.3467 12.2749 16.349L12.2719 16.3509L12.27 16.3529L12.1928 16.4212C11.7982 16.7388 11.2197 16.7121 10.8559 16.3441C10.4679 15.951 10.4717 15.318 10.8647 14.93L10.8667 14.9281C10.8726 14.9222 10.8662 14.9294 10.8735 14.9222C10.8661 14.9295 10.8622 14.9322 10.8833 14.9115C10.922 14.8732 10.8577 14.9365 10.8979 14.8968C10.9344 14.8608 10.8972 14.8979 10.9389 14.8568C10.9702 14.826 10.9585 14.8378 10.9946 14.8021L11.0454 14.7513C11.0547 14.7421 11.0553 14.7422 11.0649 14.7328C11.1289 14.6696 11.0794 14.7183 11.1479 14.6507C11.19 14.6092 11.2941 14.5058 11.352 14.4486C11.3902 14.4109 11.3714 14.4297 11.4106 14.391C11.4245 14.3772 11.4564 14.346 11.4712 14.3314C11.5205 14.2827 11.4538 14.3491 11.5034 14.3001L11.601 14.2025C11.6238 14.1801 11.5956 14.2086 11.6186 14.1859L11.687 14.1175C11.6944 14.1102 11.698 14.1083 11.7055 14.1009L11.7319 14.0746C11.7349 14.0716 11.7377 14.0677 11.7407 14.0648C11.7565 14.0492 11.7432 14.0631 11.7592 14.0472L11.7768 14.0296C11.7798 14.0267 11.7836 14.0238 11.7866 14.0208C11.7896 14.0178 11.7923 14.0141 11.7954 14.0111C11.8337 13.9732 11.7757 14.0312 11.8139 13.9935L11.8608 13.9466C11.8639 13.9436 11.8675 13.9409 11.8706 13.9378C11.8862 13.9224 11.8734 13.9338 11.8891 13.9183C11.9347 13.8734 11.9199 13.8879 11.9663 13.8421C11.9746 13.8339 12.0359 13.7733 12.0454 13.764C12.0638 13.7459 12.0476 13.7625 12.0659 13.7445C12.0804 13.7301 12.0717 13.7384 12.0864 13.724C12.0961 13.7144 12.1178 13.6934 12.1274 13.6839C12.1792 13.6328 12.1569 13.6538 12.2094 13.6019C12.2532 13.5587 12.2502 13.5625 12.2944 13.5189C12.3216 13.4921 12.31 13.5029 12.3374 13.4759C12.3475 13.4659 12.37 13.4441 12.3803 13.4339C12.4174 13.3974 12.4307 13.3841 12.4682 13.347C12.4764 13.339 12.5483 13.2678 12.5571 13.2591C12.6753 13.1424 12.8011 13.0184 12.9253 12.8958C12.9459 12.8755 12.9992 12.8227 13.02 12.8021L13.1157 12.7083L13.1635 12.6605C13.1783 12.6459 13.1966 12.6282 13.2114 12.6136C13.2154 12.6097 13.2201 12.6059 13.2241 12.6019C13.2281 12.5979 13.2318 12.5932 13.2358 12.5892C13.2477 12.5775 13.2481 12.5777 13.2602 12.5658C13.283 12.5433 13.2606 12.5641 13.2837 12.5414C13.2925 12.5327 13.2993 12.5266 13.3081 12.5179C13.314 12.5121 13.3992 12.4287 13.4057 12.4222L13.4663 12.3617C13.4703 12.3577 13.475 12.3539 13.479 12.3499C13.483 12.346 13.4867 12.3412 13.4907 12.3372C13.4947 12.3333 13.4993 12.3295 13.5034 12.3255C13.5474 12.282 13.6553 12.175 13.6997 12.1312C13.7198 12.1114 13.7293 12.1033 13.7495 12.0833C13.7664 12.0667 13.7814 12.0512 13.7983 12.0345L13.8969 11.9369C13.9102 11.9238 14.0825 11.7541 14.0942 11.7425C14.2561 11.5827 14.325 11.5146 14.4848 11.3568C14.5857 11.2572 14.5761 11.2662 14.6762 11.1673C14.7891 11.056 14.754 11.0911 14.8657 10.9808L14.8891 10.9574C14.8928 10.9538 14.9098 10.9376 14.9126 10.9349C14.9184 10.9291 14.9526 10.8948 14.9585 10.889C15.0144 10.8338 14.9949 10.8529 15.0503 10.7982C15.0607 10.7879 15.0857 10.7636 15.0962 10.7533L15.186 10.6634C15.208 10.6417 15.209 10.6411 15.2309 10.6195C15.2441 10.6065 15.2629 10.5893 15.2758 10.5765C15.2795 10.5729 15.2829 10.5684 15.2866 10.5648L15.3081 10.5433C15.3117 10.5397 15.3162 10.5361 15.3198 10.5326C15.3948 10.4585 15.3309 10.5205 15.4057 10.4466C15.5069 10.3467 15.4766 10.3784 15.5757 10.2806C16.2102 9.65425 16.98 9.37763 17.7436 9.42221C18.4832 9.46556 19.1475 9.80403 19.6303 10.2806C20.1128 10.7571 20.4609 11.4182 20.5053 12.1595C20.5511 12.9263 20.265 13.6932 19.6303 14.3197L11.0932 22.7484C10.1617 23.6676 9.05891 24.0553 7.98093 23.9935C6.9268 23.9329 5.96823 23.4474 5.26511 22.7513C4.56224 22.0552 4.06863 21.1019 4.00729 20.0511C3.94468 18.9751 4.34086 17.8804 5.26999 16.9632C7.91974 14.3476 12.9248 9.40773 16.7524 5.63022L16.9839 5.41245C18.1544 4.36325 19.4948 3.93345 20.7973 4.00912Z" fill="currentColor"/>
</svg>
