<svg width="30" height="30" viewBox="0 0 30 30" fill="currentColor" xmlns="http://www.w3.org/2000/svg">
<path d="M8.1726 21.0633C8.35226 20.9023 8.61666 20.8949 8.80346 21.033L8.87865 21.1014L9.10814 21.3465C10.2007 22.4679 11.583 23.2656 13.1003 23.6521L13.4275 23.7283L13.5242 23.7596C13.7371 23.8526 13.8624 24.0859 13.8122 24.3221C13.7618 24.5581 13.5524 24.7193 13.3201 24.7176L13.2195 24.7068L12.8542 24.6209C11.1583 24.189 9.61291 23.2978 8.39135 22.0437L8.13451 21.7693L8.07494 21.6883C7.9572 21.4877 7.99298 21.2249 8.1726 21.0633ZM5.91967 12.0516C6.005 11.7893 6.28719 11.6454 6.54955 11.7303C6.81204 11.8155 6.95587 12.0976 6.87084 12.3602C6.35096 13.9604 6.31844 15.6779 6.77318 17.2928L6.87084 17.615L6.89232 17.7137C6.91833 17.9447 6.77932 18.1703 6.54955 18.2449C6.31996 18.3192 6.07537 18.2184 5.96068 18.0164L5.91967 17.9236L5.81029 17.5643C5.30198 15.7594 5.33866 13.8401 5.91967 12.0516ZM13.3201 5.47343C13.5525 5.47167 13.7629 5.63372 13.8132 5.86992C13.8703 6.13975 13.6972 6.40517 13.4275 6.46269L13.1003 6.53886C11.4751 6.95199 10.0042 7.83917 8.87865 9.08965C8.69407 9.29477 8.37788 9.31202 8.1726 9.12773C7.96749 8.94315 7.95023 8.62696 8.13451 8.42168C9.47637 6.9306 11.2578 5.90095 13.2195 5.48418L13.3201 5.47343Z" fill="#00B800"/>
<path fill-rule="evenodd" clip-rule="evenodd" d="M22.7713 14.986C22.7713 14.2572 22.667 13.552 22.4708 12.8853C22.3852 12.5948 22.4981 12.277 22.7601 12.1255L24.9588 10.8555C25.2791 10.6705 25.6913 10.8058 25.8179 11.1534C26.2786 12.4148 26.5095 13.7532 26.4946 15.1064C26.4809 16.379 26.25 17.6341 25.8179 18.8185C25.6913 19.1662 25.2791 19.3015 24.9588 19.1165L22.7601 17.8464C22.4981 17.695 22.3852 17.3771 22.4708 17.0866C22.667 16.4199 22.7713 15.716 22.7713 14.986Z" fill="#00B800"/>
<path fill-rule="evenodd" clip-rule="evenodd" d="M19.1349 21.5089C19.7668 21.1439 20.3242 20.7007 20.8035 20.1991C21.0133 19.9794 21.3448 19.9173 21.6067 20.0688L23.8054 21.3376C24.1258 21.5226 24.2151 21.9472 23.978 22.2302C23.1164 23.2607 22.0723 24.1298 20.8928 24.794C19.7842 25.4185 18.5811 25.8455 17.3384 26.064C16.9746 26.1274 16.6518 25.8381 16.6518 25.4681V22.9292C16.6518 22.6263 16.8716 22.3705 17.1658 22.2985C17.84 22.1346 18.5029 21.8739 19.1349 21.5089Z" fill="#00B800"/>
<path fill-rule="evenodd" clip-rule="evenodd" d="M19.1349 8.68281C19.7668 9.04782 20.3242 9.49104 20.8035 9.99261C21.0133 10.2124 21.3448 10.2744 21.6067 10.123L23.8054 8.8529C24.1258 8.66792 24.2151 8.24456 23.978 7.96025C23.1164 6.93104 22.0723 6.06197 20.8928 5.39776C19.7842 4.77328 18.5811 4.3462 17.3384 4.12769C16.9746 4.06438 16.6518 4.35365 16.6518 4.72362V7.26252C16.6518 7.56545 16.8716 7.8212 17.1658 7.89197C17.84 8.05585 18.5029 8.31781 19.1349 8.68281Z" fill="#00B800"/>
<path d="M15.08 14.0138C15.2449 14.0138 15.3985 13.996 15.5407 13.9605C15.683 13.9249 15.8058 13.8699 15.9093 13.7956C16.016 13.718 16.1001 13.6226 16.1615 13.5094C16.2229 13.3931 16.2536 13.2573 16.2536 13.1021C16.2536 12.9631 16.2245 12.8418 16.1663 12.7384C16.1081 12.6317 16.0289 12.5427 15.9287 12.4716C15.8285 12.4005 15.7105 12.3488 15.5747 12.3164C15.4421 12.2809 15.3015 12.2631 15.1528 12.2631C15.0267 12.2631 14.8941 12.2728 14.7551 12.2922C14.6161 12.3083 14.4819 12.3294 14.3526 12.3552L14.0713 12.4086C13.9969 12.4247 13.9387 12.4377 13.8967 12.4474C13.8579 12.4538 13.8175 12.4571 13.7754 12.4571C13.5944 12.4571 13.4457 12.4037 13.3293 12.297C13.2161 12.1903 13.1595 12.0545 13.1595 11.8897C13.1595 11.6148 13.3357 11.395 13.6882 11.2301C14.0406 11.062 14.5821 10.9779 15.3128 10.9779C15.7331 10.9779 16.1065 11.0248 16.4331 11.1186C16.7596 11.2091 17.0344 11.3384 17.2575 11.5065C17.4838 11.6747 17.6552 11.8767 17.7716 12.1127C17.888 12.3488 17.9462 12.609 17.9462 12.8935C17.9462 13.094 17.9122 13.2831 17.8443 13.461C17.7797 13.6355 17.6907 13.7923 17.5776 13.9314C17.4677 14.0704 17.3367 14.1868 17.1848 14.2805C17.036 14.3743 16.8776 14.4374 16.7095 14.4697V14.4891C16.9326 14.5246 17.1298 14.5925 17.3012 14.6928C17.4757 14.7898 17.6212 14.9126 17.7376 15.0613C17.8573 15.2068 17.9462 15.3766 18.0044 15.5706C18.0658 15.7645 18.0965 15.9731 18.0965 16.1962C18.0965 16.5486 18.0254 16.8525 17.8831 17.1079C17.7409 17.3633 17.5469 17.5735 17.3012 17.7384C17.0554 17.9032 16.7661 18.0245 16.4331 18.1021C16.1033 18.1797 15.7476 18.2185 15.3661 18.2185C15.2433 18.2185 15.114 18.2104 14.9782 18.1942C14.8424 18.1813 14.7017 18.1619 14.5562 18.136C14.414 18.1102 14.2717 18.0778 14.1295 18.039C13.9872 17.997 13.8514 17.9517 13.7221 17.9032C13.5443 17.8386 13.4036 17.7529 13.3002 17.6462C13.1967 17.5395 13.145 17.4086 13.145 17.2534C13.145 17.1758 13.1595 17.1014 13.1886 17.0303C13.221 16.9592 13.2646 16.8978 13.3196 16.846C13.3745 16.7943 13.4424 16.7539 13.5233 16.7248C13.6041 16.6924 13.693 16.6763 13.79 16.6763H13.8336C13.9048 16.6957 13.9888 16.7199 14.0858 16.749C14.1861 16.7781 14.2944 16.8072 14.4108 16.8363C14.5304 16.8654 14.6549 16.8913 14.7842 16.9139C14.9167 16.9333 15.0493 16.943 15.1819 16.943C15.3467 16.943 15.4987 16.9285 15.6377 16.8994C15.78 16.867 15.9028 16.8169 16.0063 16.749C16.113 16.6811 16.1954 16.5922 16.2536 16.4823C16.3151 16.3724 16.3458 16.2382 16.3458 16.0798C16.3458 15.7662 16.2342 15.5237 16.0111 15.3523C15.7881 15.181 15.4728 15.0953 15.0655 15.0953H14.7211C14.553 15.0953 14.4237 15.0436 14.3332 14.9401C14.2426 14.8334 14.1974 14.7073 14.1974 14.5618C14.1974 14.4939 14.2087 14.4277 14.2313 14.363C14.2539 14.2951 14.2863 14.2369 14.3283 14.1884C14.3736 14.1367 14.4285 14.0946 14.4932 14.0623C14.5579 14.03 14.6338 14.0138 14.7211 14.0138H15.08Z" fill="#00B800"/>
</svg>
