<svg width="30" height="30" viewBox="0 0 30 30" fill="currentColor" xmlns="http://www.w3.org/2000/svg">
<path d="M5.91967 12.0516C6.00501 11.7893 6.28719 11.6454 6.54955 11.7303C6.81204 11.8155 6.95587 12.0976 6.87084 12.3602C6.35097 13.9604 6.31844 15.6779 6.77319 17.2928L6.87084 17.615L6.89233 17.7137C6.91833 17.9447 6.77932 18.1703 6.54955 18.2449C6.31997 18.3192 6.07538 18.2184 5.96069 18.0164L5.91967 17.9236L5.8103 17.5643C5.30199 15.7594 5.33867 13.8401 5.91967 12.0516ZM13.3201 5.47343C13.5525 5.47167 13.7629 5.63372 13.8132 5.86992C13.8703 6.13975 13.6972 6.40517 13.4275 6.46269L13.1003 6.53886C11.4751 6.952 10.0042 7.83917 8.87865 9.08965C8.69408 9.29477 8.37788 9.31202 8.1726 9.12773C7.96749 8.94315 7.95023 8.62695 8.13451 8.42168C9.47637 6.9306 11.2578 5.90095 13.2195 5.48418L13.3201 5.47343Z" fill="#00B800"/>
<path fill-rule="evenodd" clip-rule="evenodd" d="M22.7713 14.986C22.7713 14.2572 22.667 13.552 22.4708 12.8853C22.3852 12.5948 22.4981 12.277 22.7601 12.1255L24.9588 10.8555C25.2791 10.6705 25.6913 10.8058 25.818 11.1534C26.2786 12.4148 26.5095 13.7532 26.4946 15.1064C26.4809 16.379 26.25 17.6341 25.818 18.8185C25.6913 19.1662 25.2791 19.3015 24.9588 19.1165L22.7601 17.8464C22.4981 17.695 22.3852 17.3771 22.4708 17.0866C22.667 16.4199 22.7713 15.716 22.7713 14.986Z" fill="#00B800"/>
<path fill-rule="evenodd" clip-rule="evenodd" d="M19.1349 21.509C19.7668 21.1439 20.3242 20.7007 20.8035 20.1992C21.0133 19.9794 21.3448 19.9173 21.6067 20.0688L23.8055 21.3376C24.1258 21.5226 24.2152 21.9472 23.978 22.2303C23.1164 23.2607 22.0723 24.1298 20.8929 24.794C19.7842 25.4185 18.5812 25.8456 17.3384 26.0641C16.9746 26.1274 16.6518 25.8381 16.6518 25.4681V22.9292C16.6518 22.6263 16.8716 22.3706 17.1658 22.2986C17.84 22.1347 18.5029 21.874 19.1349 21.509Z" fill="#00B800"/>
<path fill-rule="evenodd" clip-rule="evenodd" d="M11.5219 21.509C12.1538 21.874 12.8168 22.1347 13.4909 22.2986C13.7852 22.3706 14.0049 22.6263 14.0049 22.9292V25.4681C14.0049 25.8381 13.6821 26.1274 13.3184 26.0641C11.9949 25.8319 10.7199 25.3626 9.55534 24.6736C8.46032 24.0255 7.48946 23.1987 6.67875 22.2303C6.44162 21.9472 6.53101 21.5226 6.85132 21.3376L9.05004 20.0688C9.312 19.9173 9.64349 19.9794 9.8533 20.1992C10.3325 20.7007 10.89 21.1439 11.5219 21.509Z" fill="#00B800"/>
<path fill-rule="evenodd" clip-rule="evenodd" d="M19.1349 8.68282C19.7668 9.04782 20.3242 9.49104 20.8035 9.99262C21.0133 10.2124 21.3448 10.2744 21.6067 10.123L23.8055 8.8529C24.1258 8.66792 24.2152 8.24456 23.978 7.96025C23.1164 6.93104 22.0723 6.06198 20.8929 5.39776C19.7842 4.77328 18.5812 4.3462 17.3384 4.12769C16.9746 4.06438 16.6518 4.35365 16.6518 4.72362V7.26252C16.6518 7.56545 16.8716 7.8212 17.1658 7.89197C17.84 8.05585 18.5029 8.31781 19.1349 8.68282Z" fill="#00B800"/>
<path d="M14.7842 11.9188C14.8747 11.7442 14.9717 11.5987 15.0752 11.4823C15.1819 11.3659 15.2966 11.2738 15.4195 11.2059C15.5423 11.1347 15.6733 11.0862 15.8123 11.0604C15.9513 11.0313 16.1001 11.0167 16.2585 11.0167C16.4654 11.0167 16.6432 11.0458 16.7919 11.104C16.9407 11.1622 17.0635 11.2544 17.1605 11.3804C17.2575 11.5033 17.3286 11.6633 17.3739 11.8606C17.4192 12.0578 17.4418 12.2954 17.4418 12.5735V15.4493H17.6649C17.7651 15.4493 17.8605 15.459 17.951 15.4784C18.0415 15.4978 18.1224 15.5318 18.1935 15.5803C18.2646 15.6255 18.3212 15.687 18.3632 15.7646C18.4053 15.8389 18.4263 15.9327 18.4263 16.0458C18.4263 16.2431 18.3616 16.3918 18.2323 16.492C18.103 16.5922 17.9138 16.6423 17.6649 16.6423H17.4369V17.2243C17.4337 17.3407 17.4175 17.4555 17.3885 17.5686C17.3626 17.6818 17.3189 17.782 17.2575 17.8693C17.1961 17.9566 17.1136 18.0277 17.0102 18.0827C16.9067 18.1344 16.7774 18.1603 16.6222 18.1603C16.3377 18.1603 16.1292 18.0665 15.9966 17.879C15.8673 17.6883 15.7994 17.4118 15.7929 17.0497V16.6423H13.3487C13.2193 16.6423 13.1013 16.631 12.9946 16.6084C12.888 16.5825 12.7958 16.5454 12.7182 16.4969C12.6439 16.4451 12.5857 16.3788 12.5436 16.298C12.5016 16.2172 12.4806 16.1202 12.4806 16.007C12.4806 15.9424 12.4887 15.8745 12.5048 15.8034C12.5242 15.729 12.5566 15.6546 12.6018 15.5803L14.7842 11.9188ZM13.9743 15.4493H15.7929V12.3213L13.9743 15.4493Z" fill="#00B800"/>
</svg>
