<svg width="30" height="30" viewBox="0 0 30 30" fill="currentColor" xmlns="http://www.w3.org/2000/svg">
<path d="M21.8796 21.1004C22.0644 20.8957 22.3806 20.8799 22.5857 21.0643C22.7905 21.2491 22.8065 21.5653 22.6218 21.7703C21.2787 23.2613 19.4995 24.2888 17.5368 24.7068C17.267 24.7641 17.0007 24.5919 16.9431 24.3221C16.8859 24.0523 17.0583 23.7861 17.3279 23.7283C19.0845 23.3542 20.6777 22.4348 21.8796 21.1004ZM8.17259 21.0633C8.35225 20.9023 8.61666 20.8949 8.80345 21.033L8.87865 21.1014L9.10814 21.3465C10.2007 22.4679 11.583 23.2656 13.1003 23.6521L13.4275 23.7283L13.5242 23.7596C13.7371 23.8526 13.8624 24.0859 13.8122 24.3221C13.7618 24.5581 13.5524 24.7193 13.3201 24.7176L13.2195 24.7068L12.8542 24.6209C11.1583 24.189 9.6129 23.2978 8.39134 22.0437L8.13451 21.7693L8.07494 21.6883C7.9572 21.4877 7.99298 21.2249 8.17259 21.0633ZM5.91966 12.0516C6.005 11.7893 6.28719 11.6454 6.54955 11.7303C6.81204 11.8155 6.95586 12.0976 6.87083 12.3602C6.35096 13.9604 6.31843 15.6779 6.77318 17.2928L6.87083 17.615L6.89232 17.7137C6.91832 17.9447 6.77932 18.1703 6.54955 18.2449C6.31996 18.3192 6.07537 18.2184 5.96068 18.0164L5.91966 17.9236L5.81029 17.5643C5.30198 15.7594 5.33866 13.8401 5.91966 12.0516ZM13.3201 5.47343C13.5525 5.47167 13.7629 5.63372 13.8132 5.86992C13.8703 6.13975 13.6972 6.40517 13.4275 6.46269L13.1003 6.53886C11.4751 6.952 10.0042 7.83917 8.87865 9.08965C8.69407 9.29477 8.37788 9.31202 8.17259 9.12773C7.96749 8.94315 7.95023 8.62695 8.13451 8.42168C9.47636 6.9306 11.2578 5.90095 13.2195 5.48418L13.3201 5.47343Z" fill="#00B800"/>
<path fill-rule="evenodd" clip-rule="evenodd" d="M22.7713 14.986C22.7713 14.2572 22.667 13.552 22.4708 12.8853C22.3852 12.5948 22.4981 12.277 22.7601 12.1255L24.9588 10.8555C25.2791 10.6705 25.6913 10.8058 25.8179 11.1534C26.2785 12.4148 26.5095 13.7532 26.4946 15.1064C26.4809 16.379 26.25 17.6341 25.8179 18.8185C25.6913 19.1662 25.2791 19.3015 24.9588 19.1165L22.7601 17.8464C22.4981 17.695 22.3852 17.3771 22.4708 17.0866C22.667 16.4199 22.7713 15.716 22.7713 14.986Z" fill="#00B800"/>
<path fill-rule="evenodd" clip-rule="evenodd" d="M19.1349 8.68281C19.7668 9.04782 20.3242 9.49104 20.8035 9.99261C21.0133 10.2124 21.3448 10.2744 21.6067 10.123L23.8054 8.8529C24.1258 8.66792 24.2151 8.24456 23.978 7.96025C23.1164 6.93104 22.0723 6.06197 20.8928 5.39776C19.7842 4.77328 18.5811 4.3462 17.3384 4.12769C16.9746 4.06438 16.6518 4.35365 16.6518 4.72362V7.26252C16.6518 7.56545 16.8716 7.8212 17.1658 7.89197C17.84 8.05585 18.5029 8.31781 19.1349 8.68281Z" fill="#00B800"/>
<path d="M15.2497 12.3213C15.1301 12.3213 15.0089 12.3326 14.886 12.3552C14.7632 12.3746 14.6419 12.4005 14.5223 12.4328C14.4059 12.4651 14.2911 12.5023 14.178 12.5443C14.0648 12.5864 13.9581 12.6268 13.8579 12.6656C13.7738 12.6979 13.6946 12.7141 13.6202 12.7141C13.5362 12.7141 13.4586 12.6979 13.3875 12.6656C13.3196 12.6333 13.2598 12.5896 13.208 12.5346C13.1595 12.4765 13.1207 12.4102 13.0916 12.3358C13.0625 12.2614 13.048 12.1822 13.048 12.0982C13.048 11.9818 13.0819 11.8686 13.1498 11.7587C13.2177 11.6488 13.3309 11.5599 13.4893 11.492C13.651 11.4241 13.8175 11.3626 13.9888 11.3077C14.1634 11.2495 14.338 11.201 14.5126 11.1622C14.6872 11.1202 14.8585 11.0878 15.0267 11.0652C15.198 11.0426 15.3613 11.0312 15.5165 11.0312C15.8656 11.0312 16.1873 11.0733 16.4816 11.1573C16.7758 11.2382 17.0296 11.3578 17.243 11.5162C17.4563 11.6714 17.6228 11.8654 17.7425 12.0982C17.8653 12.3277 17.9268 12.5928 17.9268 12.8935C17.9268 13.233 17.8427 13.5789 17.6746 13.9314C17.5065 14.2838 17.2817 14.6313 17.0005 14.974C16.7224 15.3135 16.4023 15.6433 16.0402 15.9634C15.6781 16.2834 15.3031 16.5841 14.9151 16.8654H17.0247C17.1508 16.8654 17.2704 16.8767 17.3836 16.8994C17.5 16.9187 17.6018 16.9527 17.6891 17.0012C17.7764 17.0497 17.8459 17.1144 17.8977 17.1952C17.9526 17.2728 17.9801 17.3698 17.9801 17.4862C17.9801 17.6963 17.9203 17.8547 17.8007 17.9614C17.681 18.0681 17.5097 18.1215 17.2866 18.1215H13.6784C13.5621 18.1215 13.4521 18.1102 13.3487 18.0875C13.2452 18.0649 13.1547 18.0277 13.0771 17.976C13.0027 17.921 12.9429 17.8499 12.8976 17.7626C12.8556 17.6721 12.8346 17.5621 12.8346 17.4328C12.8346 17.1063 12.9817 16.8185 13.2759 16.5696L13.984 15.9682C14.081 15.8842 14.1763 15.8033 14.2701 15.7257C14.3639 15.6449 14.4447 15.5722 14.5126 15.5075L14.7066 15.3232C14.9394 15.1098 15.1511 14.8997 15.3419 14.6928C15.5326 14.4826 15.6959 14.2805 15.8317 14.0865C15.9675 13.8926 16.0726 13.7099 16.1469 13.5385C16.2213 13.3672 16.2585 13.2104 16.2585 13.0681C16.2585 12.942 16.231 12.8337 16.176 12.7432C16.1211 12.6494 16.0467 12.5718 15.9529 12.5104C15.8624 12.4457 15.7557 12.3989 15.6329 12.3698C15.51 12.3374 15.3823 12.3213 15.2497 12.3213Z" fill="#00B800"/>
</svg>
