<svg width="30" height="30" viewBox="0 0 30 30" fill="currentColor" xmlns="http://www.w3.org/2000/svg">
<path fill-rule="evenodd" clip-rule="evenodd" d="M22.8342 14.8176C22.8342 14.1002 22.7315 13.4059 22.5384 12.7495C22.454 12.4635 22.5653 12.1506 22.8232 12.0015L24.9878 10.7511C25.3032 10.569 25.709 10.7022 25.8336 11.0444C26.2871 12.2863 26.5145 13.6039 26.4998 14.9362C26.4863 16.189 26.259 17.4248 25.8336 18.5908C25.709 18.9331 25.3032 19.0663 24.9878 18.8842L22.8232 17.6338C22.5653 17.4847 22.454 17.1718 22.5384 16.8857C22.7315 16.2294 22.8342 15.5363 22.8342 14.8176Z" fill="#00B800"/>
<path fill-rule="evenodd" clip-rule="evenodd" d="M8.16676 14.9741C8.16676 14.2554 8.26943 13.5624 8.46255 12.906C8.54689 12.62 8.43566 12.3071 8.17776 12.158L6.01309 10.9076C5.69774 10.7255 5.29194 10.8587 5.16727 11.2009C4.7138 12.4415 4.48646 13.7604 4.50112 15.0927C4.51457 16.3455 4.74192 17.5813 5.16727 18.7473C5.29194 19.0896 5.69774 19.2228 6.01309 19.0407L8.17776 17.7903C8.43566 17.6411 8.54689 17.3282 8.46255 17.0422C8.26943 16.3859 8.16676 15.6916 8.16676 14.9741Z" fill="#00B800"/>
<path fill-rule="evenodd" clip-rule="evenodd" d="M19.2541 21.2396C19.8762 20.8802 20.425 20.4438 20.8968 19.95C21.1034 19.7337 21.4298 19.6726 21.6877 19.8217L23.8523 21.0709C24.1677 21.253 24.2557 21.671 24.0222 21.9497C23.174 22.9642 22.146 23.8198 20.9848 24.4737C19.8933 25.0885 18.709 25.509 17.4854 25.7241C17.1273 25.7864 16.8095 25.5017 16.8095 25.1374V22.6378C16.8095 22.3396 17.0259 22.0878 17.3156 22.0169C17.9793 21.8556 18.632 21.5989 19.2541 21.2396Z" fill="#00B800"/>
<path fill-rule="evenodd" clip-rule="evenodd" d="M11.759 8.61212C12.3812 8.25277 13.0339 7.99487 13.6976 7.83352C13.9872 7.76385 14.2036 7.51206 14.2036 7.21383V4.71425C14.2036 4.35001 13.8858 4.06522 13.5277 4.12756C12.2247 4.35612 10.9694 4.81815 9.82293 5.49652C8.74487 6.13455 7.78904 6.94859 6.99089 7.90075C6.75744 8.18065 6.84544 8.59745 7.16079 8.77957L9.32546 10.03C9.58336 10.1791 9.90971 10.118 10.1163 9.90163C10.5881 9.40783 11.1369 8.97147 11.759 8.61212Z" fill="#00B800"/>
<path fill-rule="evenodd" clip-rule="evenodd" d="M11.759 21.2396C12.3812 21.5989 13.0339 21.8556 13.6976 22.0169C13.9872 22.0878 14.2036 22.3396 14.2036 22.6378V25.1374C14.2036 25.5017 13.8858 25.7864 13.5277 25.7241C12.2247 25.4955 10.9694 25.0335 9.82293 24.3552C8.74487 23.7171 7.78904 22.9031 6.99089 21.9497C6.75744 21.671 6.84544 21.253 7.16079 21.0709L9.32546 19.8217C9.58336 19.6726 9.90971 19.7337 10.1163 19.95C10.5881 20.4438 11.1369 20.8802 11.759 21.2396Z" fill="#00B800"/>
<path fill-rule="evenodd" clip-rule="evenodd" d="M19.2541 8.61212C19.8762 8.97147 20.425 9.40783 20.8968 9.90163C21.1034 10.118 21.4298 10.1791 21.6877 10.03L23.8523 8.77957C24.1677 8.59745 24.2557 8.18065 24.0222 7.90075C23.174 6.88748 22.146 6.03188 20.9848 5.37796C19.8933 4.76315 18.709 4.34268 17.4854 4.12756C17.1273 4.06522 16.8095 4.35001 16.8095 4.71425V7.21383C16.8095 7.51206 17.0259 7.76385 17.3156 7.83352C17.9793 7.99487 18.632 8.25277 19.2541 8.61212Z" fill="#00B800"/>
<path d="M17.3581 11.2095C17.4695 11.2604 17.5506 11.3321 17.6016 11.4244C17.6557 11.5135 17.6827 11.609 17.6827 11.7108C17.6827 11.7872 17.6684 11.8636 17.6398 11.94C17.6143 12.0132 17.5761 12.0801 17.5252 12.1405C17.4774 12.1978 17.4185 12.244 17.3485 12.279C17.2817 12.314 17.2085 12.3315 17.1289 12.3315C17.1002 12.3315 17.078 12.3299 17.062 12.3268C16.9602 12.3045 16.8583 12.279 16.7565 12.2504C16.6578 12.2217 16.5575 12.1963 16.4557 12.174C16.357 12.1485 16.2583 12.1278 16.1597 12.1119C16.0642 12.096 15.9719 12.088 15.8827 12.088C15.5803 12.088 15.3241 12.1405 15.114 12.2456C14.9071 12.3506 14.74 12.497 14.6127 12.6848C14.4854 12.8726 14.3931 13.097 14.3358 13.3581C14.2817 13.6159 14.2546 13.9008 14.2546 14.2127L14.2642 14.2223C14.3501 14.079 14.452 13.9581 14.5697 13.8594C14.6907 13.7607 14.8212 13.6811 14.9612 13.6207C15.1045 13.557 15.2557 13.5124 15.4148 13.487C15.574 13.4583 15.7379 13.444 15.9066 13.444C16.2122 13.444 16.4986 13.4933 16.766 13.592C17.0334 13.6875 17.2658 13.8276 17.4631 14.0122C17.6605 14.1968 17.8164 14.4244 17.931 14.6949C18.0456 14.9623 18.1029 15.2695 18.1029 15.6164C18.1029 15.9697 18.0408 16.2944 17.9167 16.5904C17.7926 16.8833 17.6159 17.1347 17.3867 17.3448C17.1575 17.5549 16.879 17.7188 16.5512 17.8366C16.2265 17.9512 15.8605 18.0085 15.453 18.0085C14.9533 18.0085 14.5236 17.9289 14.1639 17.7697C13.8074 17.6074 13.513 17.3814 13.2806 17.0918C13.0514 16.7989 12.8811 16.4504 12.7697 16.0461C12.6615 15.6419 12.6074 15.1963 12.6074 14.7093C12.6074 14.3559 12.6297 14.0169 12.6742 13.6923C12.722 13.3644 12.7952 13.0589 12.8939 12.7756C12.9957 12.4923 13.1278 12.2344 13.2902 12.0021C13.4557 11.7697 13.6562 11.5708 13.8917 11.4053C14.1273 11.2398 14.401 11.1124 14.713 11.0233C15.0281 10.931 15.3878 10.8848 15.792 10.8848C16.0371 10.8848 16.2965 10.9119 16.5703 10.966C16.8472 11.0169 17.1098 11.0981 17.3581 11.2095ZM15.453 16.8912C15.8 16.8912 16.0658 16.7862 16.2504 16.5761C16.4382 16.366 16.5321 16.062 16.5321 15.6642C16.5321 15.4796 16.5114 15.3108 16.47 15.1581C16.4286 15.0021 16.365 14.8684 16.279 14.757C16.1963 14.6456 16.0912 14.5597 15.9639 14.4992C15.8366 14.4387 15.6854 14.4085 15.5103 14.4085C15.1411 14.4085 14.8594 14.523 14.6652 14.7522C14.4742 14.9782 14.3787 15.2886 14.3787 15.6833C14.3787 15.8711 14.4042 16.0398 14.4551 16.1894C14.5061 16.339 14.5777 16.4663 14.67 16.5713C14.7655 16.6732 14.8785 16.7528 15.009 16.8101C15.1427 16.8642 15.2907 16.8912 15.453 16.8912Z" fill="#00B800"/>
</svg>
