<svg width="30" height="30" viewBox="0 0 30 30" fill="currentColor" xmlns="http://www.w3.org/2000/svg">
<path d="M13.5297 5.44511C13.7621 5.44356 13.9717 5.60538 14.0219 5.8416C14.079 6.11135 13.9068 6.37674 13.6372 6.43437L13.3149 6.50957C11.7163 6.91597 10.2696 7.78829 9.16255 9.01836L9.08736 9.08672C8.90037 9.22495 8.63615 9.21692 8.4565 9.05547C8.25122 8.87076 8.2337 8.55468 8.41841 8.34941L8.67134 8.07988C9.96073 6.75615 11.6167 5.84086 13.4292 5.45586L13.5297 5.44511Z" fill="#00B800"/>
<path fill-rule="evenodd" clip-rule="evenodd" d="M22.8342 14.8176C22.8342 14.1002 22.7315 13.4059 22.5384 12.7495C22.454 12.4635 22.5653 12.1506 22.8232 12.0015L24.9878 10.7511C25.3032 10.569 25.709 10.7022 25.8336 11.0444C26.2871 12.2863 26.5145 13.6039 26.4998 14.9362C26.4863 16.189 26.259 17.4248 25.8336 18.5908C25.709 18.9331 25.3032 19.0663 24.9878 18.8842L22.8232 17.6338C22.5653 17.4847 22.454 17.1718 22.5384 16.8857C22.7315 16.2294 22.8342 15.5363 22.8342 14.8176Z" fill="#00B800"/>
<path fill-rule="evenodd" clip-rule="evenodd" d="M8.16676 14.9741C8.16676 14.2554 8.26943 13.5624 8.46255 12.906C8.54689 12.62 8.43566 12.3071 8.17776 12.158L6.01309 10.9076C5.69774 10.7255 5.29194 10.8587 5.16727 11.2009C4.7138 12.4415 4.48646 13.7604 4.50112 15.0927C4.51457 16.3455 4.74192 17.5813 5.16727 18.7473C5.29194 19.0896 5.69774 19.2228 6.01309 19.0407L8.17776 17.7903C8.43566 17.6411 8.54689 17.3282 8.46255 17.0422C8.26943 16.3859 8.16676 15.6916 8.16676 14.9741Z" fill="#00B800"/>
<path fill-rule="evenodd" clip-rule="evenodd" d="M19.2541 21.2396C19.8762 20.8802 20.425 20.4438 20.8968 19.95C21.1034 19.7337 21.4298 19.6726 21.6877 19.8217L23.8523 21.0709C24.1677 21.253 24.2557 21.671 24.0222 21.9497C23.174 22.9642 22.146 23.8198 20.9848 24.4737C19.8933 25.0885 18.709 25.509 17.4854 25.7241C17.1273 25.7864 16.8095 25.5017 16.8095 25.1374V22.6378C16.8095 22.3396 17.0259 22.0878 17.3156 22.0169C17.9793 21.8556 18.632 21.5989 19.2541 21.2396Z" fill="#00B800"/>
<path fill-rule="evenodd" clip-rule="evenodd" d="M11.759 21.2396C12.3812 21.5989 13.0339 21.8556 13.6976 22.0169C13.9872 22.0878 14.2036 22.3396 14.2036 22.6378V25.1374C14.2036 25.5017 13.8858 25.7864 13.5277 25.7241C12.2247 25.4955 10.9694 25.0335 9.82293 24.3552C8.74487 23.7171 7.78904 22.9031 6.99089 21.9497C6.75744 21.671 6.84544 21.253 7.16079 21.0709L9.32546 19.8217C9.58336 19.6726 9.90971 19.7337 10.1163 19.95C10.5881 20.4438 11.1369 20.8802 11.759 21.2396Z" fill="#00B800"/>
<path fill-rule="evenodd" clip-rule="evenodd" d="M19.2541 8.61212C19.8762 8.97147 20.425 9.40783 20.8968 9.90163C21.1034 10.118 21.4298 10.1791 21.6877 10.03L23.8523 8.77957C24.1677 8.59745 24.2557 8.18065 24.0222 7.90075C23.174 6.88748 22.146 6.03188 20.9848 5.37796C19.8933 4.76315 18.709 4.34268 17.4854 4.12756C17.1273 4.06522 16.8095 4.35001 16.8095 4.71425V7.21383C16.8095 7.51206 17.0259 7.76385 17.3156 7.83352C17.9793 7.99487 18.632 8.25277 19.2541 8.61212Z" fill="#00B800"/>
<path d="M13.3236 11.7395C13.3236 11.574 13.3443 11.4403 13.3856 11.3384C13.427 11.2366 13.4907 11.157 13.5766 11.0997C13.6626 11.0424 13.7724 11.0042 13.9061 10.9851C14.0397 10.9628 14.1989 10.9517 14.3835 10.9517H17.4535C17.5363 10.9517 17.6143 10.9628 17.6875 10.9851C17.7607 11.0074 17.8244 11.0424 17.8785 11.0901C17.9358 11.1347 17.9803 11.1936 18.0122 11.2668C18.044 11.3368 18.0599 11.4228 18.0599 11.5246C18.0599 11.722 17.9994 11.8668 17.8785 11.9591C17.7575 12.0514 17.5856 12.0976 17.3628 12.0976H14.7464L14.6986 13.9549C15.1124 13.5634 15.6281 13.3676 16.2456 13.3676C16.548 13.3676 16.8265 13.4217 17.0811 13.5299C17.339 13.6382 17.5602 13.7941 17.7448 13.9978C17.9326 14.1984 18.079 14.4435 18.1841 14.7331C18.2891 15.0196 18.3416 15.3443 18.3416 15.7071C18.3416 16.07 18.2684 16.3947 18.122 16.6811C17.9787 16.9644 17.7814 17.2047 17.5299 17.4021C17.2817 17.5994 16.9888 17.7506 16.6514 17.8557C16.314 17.9607 15.9543 18.0132 15.5724 18.0132C15.3432 18.0132 15.1077 17.9925 14.8657 17.9512C14.627 17.9098 14.4042 17.8477 14.1973 17.765C13.9936 17.679 13.8169 17.5724 13.6673 17.4451C13.5177 17.3177 13.4206 17.1665 13.3761 16.9915C13.3379 16.9119 13.3188 16.8339 13.3188 16.7575C13.3188 16.697 13.3299 16.6366 13.3522 16.5761C13.3745 16.5156 13.4047 16.4631 13.4429 16.4185C13.4843 16.374 13.532 16.3374 13.5862 16.3087C13.6435 16.2801 13.7055 16.2657 13.7724 16.2657C13.8328 16.2657 13.8965 16.2848 13.9634 16.323C14.0334 16.3612 14.1082 16.4074 14.1878 16.4615C14.2705 16.5124 14.3565 16.5665 14.4456 16.6238C14.5379 16.6811 14.635 16.7273 14.7368 16.7623C14.8482 16.8037 14.9644 16.8339 15.0854 16.853C15.2063 16.8721 15.3289 16.8817 15.453 16.8817C15.6217 16.8817 15.7777 16.8578 15.9209 16.81C16.0673 16.7591 16.1931 16.6827 16.2981 16.5809C16.4031 16.4758 16.4859 16.3453 16.5464 16.1894C16.6069 16.0334 16.6371 15.8488 16.6371 15.6355C16.6371 15.435 16.6132 15.2567 16.5655 15.1008C16.5209 14.9448 16.4557 14.8127 16.3697 14.7045C16.2838 14.5962 16.1819 14.5151 16.0642 14.461C15.9464 14.4037 15.8159 14.375 15.6726 14.375C15.5103 14.375 15.3734 14.3973 15.262 14.4419C15.1538 14.4864 15.0599 14.5421 14.9803 14.609C14.9008 14.6758 14.8291 14.749 14.7655 14.8286C14.7018 14.9082 14.6334 14.9814 14.5602 15.0482C14.4901 15.1151 14.409 15.1708 14.3167 15.2153C14.2275 15.2599 14.1145 15.2822 13.9777 15.2822C13.7771 15.2822 13.618 15.2185 13.5002 15.0912C13.3824 14.9607 13.3236 14.7602 13.3236 14.4896V11.7395Z" fill="#00B800"/>
</svg>
