<svg width="30" height="30" viewBox="0 0 30 30" fill="currentColor" xmlns="http://www.w3.org/2000/svg">
<path d="M8.22108 21.3931C8.40075 21.2319 8.66503 21.2247 8.85194 21.3629L8.92714 21.4312L9.16054 21.6812C10.3547 22.9069 11.889 23.7531 13.5678 24.1109C13.8376 24.1686 14.0101 24.4347 13.9525 24.7047C13.8948 24.9743 13.6295 25.1466 13.3598 25.0894C11.4878 24.6905 9.77695 23.7459 8.44472 22.3785L8.183 22.0992L8.12343 22.0181C8.00562 21.8176 8.04145 21.5548 8.22108 21.3931ZM22.2641 21.3629C22.4512 21.2246 22.7153 21.2324 22.8949 21.3941C23.1 21.5789 23.1168 21.895 22.932 22.1002L22.6703 22.3785C21.3374 23.7456 19.6284 24.6905 17.7553 25.0894C17.4854 25.1468 17.2192 24.9744 17.1615 24.7047C17.104 24.4347 17.2765 24.1687 17.5463 24.1109C19.3382 23.7293 20.9628 22.7914 22.1889 21.4303L22.2641 21.3629ZM5.92909 12.2056C6.01446 11.9431 6.29638 11.799 6.55898 11.8844C6.82124 11.9698 6.96525 12.2518 6.88026 12.5142C6.34983 14.147 6.31649 15.8988 6.78065 17.5465L6.88026 17.8746L6.90175 17.9732C6.92786 18.2042 6.78858 18.4297 6.55898 18.5045C6.32908 18.5792 6.08381 18.4784 5.96913 18.276L5.92909 18.1832L5.81776 17.8179C5.30003 15.9803 5.33749 14.0268 5.92909 12.2056ZM24.4418 11.8844C24.6715 11.8098 24.9159 11.9108 25.0307 12.1129L25.0717 12.2056L25.183 12.5709C25.7007 14.4085 25.6632 16.3621 25.0717 18.1832C24.9864 18.4457 24.7044 18.5897 24.4418 18.5045C24.1794 18.419 24.0353 18.1371 24.1205 17.8746C24.6509 16.2418 24.6843 14.49 24.2201 12.8424L24.1205 12.5142L24.099 12.4156C24.073 12.1846 24.2122 11.9591 24.4418 11.8844ZM8.92714 9.17928C8.74263 9.38433 8.42637 9.40046 8.22108 9.21638C8.01593 9.03178 7.99863 8.71561 8.183 8.51033L8.92714 9.17928ZM13.3598 5.5201C13.6298 5.46288 13.8952 5.63581 13.9525 5.90584C14.0095 6.17563 13.8375 6.44112 13.5678 6.49861C11.7773 6.87895 10.152 7.81809 8.92714 9.17928L8.55507 8.84431L8.183 8.51033C9.54911 6.99214 11.3625 5.94437 13.3598 5.5201Z" fill="#00B800"/>
<path fill-rule="evenodd" clip-rule="evenodd" d="M19.3854 8.76958C20.0294 9.14152 20.5974 9.59317 21.0857 10.1043C21.2995 10.3282 21.6373 10.3915 21.9043 10.2371L24.1448 8.9429C24.4712 8.7544 24.5623 8.32299 24.3207 8.03328C23.4427 6.9845 22.3787 6.09891 21.1768 5.42208C20.0471 4.78572 18.8212 4.35052 17.5548 4.12786C17.1841 4.06334 16.8552 4.35811 16.8552 4.73512V7.32228C16.8552 7.63097 17.0791 7.89159 17.3789 7.9637C18.0659 8.13069 18.7415 8.39763 19.3854 8.76958Z" fill="#00B800"/>
<path d="M14.2005 13.47C14.0951 13.526 13.993 13.554 13.8941 13.554C13.8085 13.554 13.7294 13.5375 13.6569 13.5045C13.5845 13.4683 13.5219 13.4222 13.4691 13.3662C13.4164 13.3102 13.3753 13.2459 13.3456 13.1734C13.316 13.0977 13.3011 13.0202 13.3011 12.9412C13.3011 12.8226 13.3324 12.7204 13.395 12.6348C13.4609 12.5491 13.563 12.4635 13.7014 12.3778L15.3421 11.4438C15.4377 11.3878 15.5381 11.3367 15.6436 11.2906C15.749 11.2445 15.8594 11.2214 15.9747 11.2214C16.2679 11.2214 16.482 11.3268 16.6171 11.5377C16.7555 11.7452 16.8247 12.045 16.8247 12.4371V17.2159C16.8247 17.3773 16.8115 17.5305 16.7851 17.6755C16.7588 17.8172 16.711 17.9423 16.6418 18.0511C16.5759 18.1598 16.4853 18.2454 16.37 18.308C16.2547 18.3706 16.1081 18.4019 15.9302 18.4019C15.6205 18.4019 15.3965 18.2932 15.2581 18.0758C15.1197 17.8583 15.0505 17.5338 15.0505 17.1022V12.9511L14.2005 13.47Z" fill="#00B800"/>
</svg>
