<svg width="30" height="30" viewBox="0 0 30 30" fill="currentColor" xmlns="http://www.w3.org/2000/svg">
<path d="M20.631 8.16219C21.0215 7.77166 21.6545 7.77166 22.045 8.16219C22.4354 8.55272 22.4355 9.18576 22.045 9.57625L16.7521 14.8692L22.045 20.1622L22.1134 20.2384C22.4336 20.6311 22.4111 21.2102 22.045 21.5762C21.679 21.9422 21.0999 21.9648 20.7072 21.6446L20.631 21.5762L15.338 16.2833L10.045 21.5762C9.65455 21.9666 9.02148 21.9666 8.63098 21.5762C8.24049 21.1858 8.24055 20.5527 8.63098 20.1622L13.924 14.8692L8.63098 9.57625L8.56262 9.50008C8.2423 9.10734 8.26495 8.52831 8.63098 8.16219C8.9971 7.79607 9.5761 7.77348 9.96887 8.09383L10.045 8.16219L15.338 13.4552L20.631 8.16219Z" fill="#FE1D01"/>
</svg>
