<?xml version="1.0" encoding="UTF-8" standalone="no"?>
<svg
   version="1.1"
   id="Layer_1"
   x="0px"
   y="0px"
   viewBox="0 0 98.616374 79.121633"
   xml:space="preserve"
   sodipodi:docname="cloud-sync.svg"
   inkscape:version="1.1.2 (0a00cf5339, 2022-02-04)"
   width="98.616371"
   height="79.121635"
   xmlns:inkscape="http://www.inkscape.org/namespaces/inkscape"
   xmlns:sodipodi="http://sodipodi.sourceforge.net/DTD/sodipodi-0.dtd"
   xmlns="http://www.w3.org/2000/svg"
   xmlns:svg="http://www.w3.org/2000/svg"><defs
     id="defs9" /><sodipodi:namedview
     id="namedview7"
     pagecolor="#ffffff"
     bordercolor="#999999"
     borderopacity="1"
     inkscape:pageshadow="0"
     inkscape:pageopacity="0"
     inkscape:pagecheckerboard="0"
     showgrid="false"
     inkscape:zoom="2.8777601"
     inkscape:cx="23.803235"
     inkscape:cy="79.228287"
     inkscape:window-width="1920"
     inkscape:window-height="1007"
     inkscape:window-x="0"
     inkscape:window-y="0"
     inkscape:window-maximized="1"
     inkscape:current-layer="Layer_1"
     fit-margin-top="0"
     fit-margin-left="0"
     fit-margin-right="0"
     fit-margin-bottom="0" /><path
     d="M 57.549508,10.391632 C 53.376384,7.9016318 48.705697,6.9416318 44.155387,7.4916318 c -4.518208,0.54 -8.908012,2.5900002 -12.53542,6.1000002 -4.197198,4.05 -7.383218,10.11 -8.611079,18.14 l -0.385211,2.51 -2.006309,0.44 c -1.966183,0.43 -3.723711,1.02 -5.264556,1.77 -1.492694,0.72 -2.824884,1.61 -3.988541,2.66 -0.93093,0.84 -1.7334531,1.78 -2.4155973,2.8 -2.1106374,3.15 -3.0897156,7.1 -3.0656407,11.1 0.024076,4.06 1.0834082,8.16 3.0415646,11.53 0.7302964,1.25 1.5729464,2.4 2.5359734,3.4 0.979081,1.01 2.078538,1.85 3.314425,2.48 1.22786,0.63 2.584126,1.08 4.084846,1.34 h 58.223092 c 2.832909,-0.85 5.336784,-2 7.463471,-3.48 2.110637,-1.47 3.836067,-3.26 5.128125,-5.41 2.00631,-3.33 2.993415,-8.04 3.033546,-12.87 0.04812,-5.07 -0.946982,-10.16 -2.88107,-13.86 -0.553734,-1.07 -1.163651,-2.03 -1.80567,-2.89 -2.897114,-3.89 -6.572673,-5.59 -10.392685,-5.62 -1.998284,-0.02 -4.060771,0.41 -6.075105,1.22 -4.165098,-7.23 -7.174562,-14.37 -14.004038,-18.46 z m 16.27518,10.26 c 1.284038,-0.25 2.568076,-0.38 3.844088,-0.36 5.392959,0.05 10.593311,2.45 14.686185,7.95 0.858697,1.15 1.669254,2.45 2.431648,3.9 2.568075,4.92 3.884215,11.49 3.828032,17.92 -0.05624,6.31 -1.420453,12.59 -4.213238,17.21 -1.821733,3.01 -4.157077,5.47 -6.957887,7.42 -2.696481,1.88 -5.842373,3.31 -9.373478,4.33 l -0.658069,0.1 H 18.763538 l -0.369161,-0.04 c -2.142738,-0.34 -4.084846,-0.97 -5.850397,-1.88 -1.821729,-0.94 -3.4348019,-2.15 -4.8552682,-3.63 -1.3482404,-1.4 -2.5279494,-2.99 -3.5311048,-4.72 -2.6804291,-4.6 -4.1249718,-10.22 -4.15707222039,-15.82 -0.0321017996,-5.66 1.38034082039,-11.29 4.42993012039,-15.85 0.9871051,-1.48 2.1507638,-2.84 3.4829539,-4.04 1.5488701,-1.4 3.3224472,-2.58 5.3287562,-3.55 1.38034,-0.67 2.856984,-1.23 4.41388,-1.68 1.765553,-8.74 5.529389,-15.47 10.368606,-20.1400002 4.526234,-4.37 9.97537,-6.92000002 15.585011,-7.59000002 5.585564,-0.67 11.331634,0.51 16.491861,3.60000002 5.625692,3.37 10.537136,8.9800002 13.723155,16.8700002 z"
     id="path2"
     sodipodi:nodetypes="ccccccccscccccccccccccccsccccccccccccccccccccc"
     style="fill:#000000;fill-opacity:1;stroke-width:0.895837" /><path
     d="m 46.260748,66.321627 3.852367,-19.59016 3.907088,5.898937 C 62.43631,49.248639 67.164215,43.67803 67.864645,35.108703 74.781394,47.191125 70.589757,58.03685 61.812489,64.373556 l 3.983698,5.997434 z M 52.214405,23.639157 48.362039,43.229316 44.454951,37.33038 C 36.038844,40.712145 31.310939,46.282754 30.610509,54.852081 23.693759,42.769659 27.885397,31.923934 36.662664,25.587228 l -3.983696,-5.997434 z"
     id="path1674"
     style="fill:#ffffff;fill-opacity:0;stroke-width:1.09443" /></svg>
