<?xml version="1.0" encoding="UTF-8" standalone="no"?>
<svg
   id="Layer_1"
   data-name="Layer 1"
   viewBox="0 0 283.16138 466.49316"
   version="1.1"
   sodipodi:docname="coldcard-sticker.svg"
   inkscape:version="1.2.2 (b0a8486541, 2022-12-01)"
   width="283.16138"
   height="466.49316"
   xmlns:inkscape="http://www.inkscape.org/namespaces/inkscape"
   xmlns:sodipodi="http://sodipodi.sourceforge.net/DTD/sodipodi-0.dtd"
   xmlns="http://www.w3.org/2000/svg"
   xmlns:svg="http://www.w3.org/2000/svg">
  <sodipodi:namedview
     id="namedview41"
     pagecolor="#ffffff"
     bordercolor="#999999"
     borderopacity="1"
     inkscape:pageshadow="0"
     inkscape:pageopacity="0"
     inkscape:pagecheckerboard="0"
     showgrid="false"
     inkscape:zoom="1.4230524"
     inkscape:cx="-62.190261"
     inkscape:cy="235.0581"
     inkscape:window-width="1920"
     inkscape:window-height="1008"
     inkscape:window-x="0"
     inkscape:window-y="0"
     inkscape:window-maximized="1"
     inkscape:current-layer="Layer_1"
     fit-margin-top="0"
     fit-margin-left="0"
     fit-margin-right="0"
     fit-margin-bottom="0"
     inkscape:showpageshadow="2"
     inkscape:deskcolor="#d1d1d1" />
  <defs
     id="defs4">
    <style
       id="style2">.cls-1,.cls-2{fill:#fff;}.cls-2,.cls-3{fill-rule:evenodd;}.cls-4{fill:#ff0032;}.cls-5{fill:#00d30d;}</style>
  </defs>
  <path
     d="M 32.712832,458.91264 A 24.957384,24.957384 0 0 1 7.7554487,433.95526 V 32.887767 A 24.957384,24.957384 0 0 1 32.712832,7.9303836 H 250.44851 a 25.015695,25.015695 0 0 1 25.0157,24.9573834 V 433.95526 a 25.015695,25.015695 0 0 1 -25.0157,24.95738 z"
     id="path6"
     style="stroke-width:5.83116" />
  <path
     class="cls-1"
     d="m 250.44851,7.9303836 a 25.015695,25.015695 0 0 1 25.0157,24.9573834 V 433.95526 a 25.015695,25.015695 0 0 1 -25.0157,24.95738 H 32.712832 A 24.957384,24.957384 0 0 1 7.7554487,433.95526 V 32.887767 A 24.957384,24.957384 0 0 1 32.712832,7.9303836 H 250.44851 m 0,-5.1897363 H 32.712832 A 30.205432,30.205432 0 0 0 2.5657123,32.887767 V 433.95526 A 30.205432,30.205432 0 0 0 32.712832,464.16069 H 250.44851 a 30.205432,30.205432 0 0 0 30.20543,-30.20543 V 32.887767 A 30.205432,30.205432 0 0 0 250.44851,2.7406473 Z"
     id="path8"
     style="stroke-width:5.83116" />
  <path
     class="cls-1"
     d="M 250.44851,0 H 32.712832 A 32.771144,32.771144 0 0 0 0,32.712832 V 433.78032 a 32.712832,32.712832 0 0 0 32.712832,32.71283 H 250.44851 a 32.712832,32.712832 0 0 0 32.71283,-32.71283 V 32.887767 A 32.829456,32.829456 0 0 0 250.44851,0 Z M 32.712832,15.860767 H 250.44851 v 0 a 17.085312,17.085312 0 0 1 17.08531,17.027 V 433.78032 a 17.085312,17.085312 0 0 1 -17.08531,17.027 H 32.712832 a 17.027,17.027 0 0 1 -17.027,-17.027 V 32.887767 a 17.027,17.027 0 0 1 17.027,-17.027 z"
     id="path10"
     style="stroke-width:5.83116" />
  <rect
     class="cls-1"
     x="34.053997"
     y="46.124508"
     width="214.8201"
     height="387.83075"
     rx="10.496096"
     id="rect12"
     style="stroke-width:5.83116" />
  <circle
     id="Oval"
     cx="75.51358"
     cy="214.99503"
     r="27.348162"
     style="stroke-width:5.83116" />
  <circle
     id="Oval-2"
     data-name="Oval"
     cx="75.51358"
     cy="276.28058"
     r="27.348162"
     style="stroke-width:5.83116" />
  <circle
     id="Oval-3"
     data-name="Oval"
     cx="75.51358"
     cy="337.44949"
     r="27.348162"
     style="stroke-width:5.83116" />
  <circle
     id="Oval-4"
     data-name="Oval"
     cx="75.51358"
     cy="398.56009"
     r="27.348162"
     style="stroke-width:5.83116" />
  <circle
     id="Oval-5"
     data-name="Oval"
     cx="140.47275"
     cy="214.99503"
     r="27.348162"
     style="stroke-width:5.83116" />
  <circle
     id="Oval-6"
     data-name="Oval"
     cx="140.47275"
     cy="276.28058"
     r="27.348162"
     style="stroke-width:5.83116" />
  <circle
     id="Oval-7"
     data-name="Oval"
     cx="140.47275"
     cy="337.44949"
     r="27.348162"
     style="stroke-width:5.83116" />
  <circle
     id="Oval-8"
     data-name="Oval"
     cx="140.47275"
     cy="398.56009"
     r="27.348162"
     style="stroke-width:5.83116" />
  <circle
     id="Oval-9"
     data-name="Oval"
     cx="205.60687"
     cy="214.99503"
     r="27.348162"
     style="stroke-width:5.83116" />
  <circle
     id="Oval-10"
     data-name="Oval"
     cx="205.60687"
     cy="276.28058"
     r="27.348162"
     style="stroke-width:5.83116" />
  <circle
     id="Oval-11"
     data-name="Oval"
     cx="205.60687"
     cy="337.44949"
     r="27.348162"
     style="stroke-width:5.83116" />
  <circle
     id="Oval-12"
     data-name="Oval"
     cx="205.60687"
     cy="398.56009"
     r="27.348162"
     style="stroke-width:5.83116" />
  <path
     class="cls-2"
     d="M 250.44851,181.58246 H 32.712832 A 19.651024,19.651024 0 0 1 13.061808,161.93144 V 36.036596 A 19.651024,19.651024 0 0 1 32.712832,16.385572 H 250.44851 a 19.651024,19.651024 0 0 1 19.65103,19.651024 V 161.7565 a 19.592712,19.592712 0 0 1 -19.65103,19.82596 z"
     id="path26"
     style="stroke-width:5.83116" />
  <path
     class="cls-3"
     d="M 250.44851,178.2587 H 32.712832 A 19.651024,19.651024 0 0 1 13.061808,158.60767 V 32.887767 A 19.651024,19.651024 0 0 1 32.712832,13.236743 H 250.44851 a 19.651024,19.651024 0 0 1 19.65103,19.651024 V 158.60767 a 19.534401,19.534401 0 0 1 -19.65103,19.65103 z"
     id="path28"
     style="stroke-width:5.83116" />
  <path
     class="cls-2"
     d="M 172.42753,141.58067 H 55.454374 a 5.8311644,5.8311644 0 0 1 -5.831165,-5.83116 V 73.997476 a 5.8311644,5.8311644 0 0 1 5.831165,-5.831164 H 172.07766 a 5.8311644,5.8311644 0 0 1 5.83117,5.831164 V 135.6912 a 5.8311644,5.8311644 0 0 1 -5.4813,5.88947 z"
     id="path30"
     style="stroke-width:5.83116" />
  <rect
     style="fill:#ffff00;stroke-width:15.3392"
     id="rect304"
     width="233.24655"
     height="34.76968"
     x="25.352888"
     y="22.455416"
     rx="9.7943039" />
  <text
     xml:space="preserve"
     style="font-size:23.6111px;font-family:'Accanthis ADF Std No3';-inkscape-font-specification:'Accanthis ADF Std No3';fill:#ffff00;stroke-width:4.65827"
     x="34.911953"
     y="47.880032"
     id="text464"><tspan
       sodipodi:role="line"
       id="tspan462"
       x="34.911953"
       y="47.880032"
       style="font-style:normal;font-variant:normal;font-weight:normal;font-stretch:normal;font-size:23.6111px;font-family:sans-serif;-inkscape-font-specification:sans-serif;fill:#000000;stroke-width:4.65827">Label</tspan></text>
</svg>
