<?xml version="1.0" encoding="UTF-8" standalone="no"?>
<!-- Created with Inkscape (http://www.inkscape.org/) -->

<svg
   width="43.638405mm"
   height="51.350456mm"
   viewBox="0 0 43.638405 51.350457"
   version="1.1"
   id="svg5"
   sodipodi:docname="coldcard-dice.svg"
   inkscape:version="1.1.2 (0a00cf5339, 2022-02-04)"
   xmlns:inkscape="http://www.inkscape.org/namespaces/inkscape"
   xmlns:sodipodi="http://sodipodi.sourceforge.net/DTD/sodipodi-0.dtd"
   xmlns="http://www.w3.org/2000/svg"
   xmlns:svg="http://www.w3.org/2000/svg">
  <sodipodi:namedview
     id="namedview7"
     pagecolor="#ffffff"
     bordercolor="#999999"
     borderopacity="1"
     inkscape:pageshadow="0"
     inkscape:pageopacity="0"
     inkscape:pagecheckerboard="0"
     inkscape:document-units="mm"
     showgrid="false"
     inkscape:zoom="2.0230255"
     inkscape:cx="161.63909"
     inkscape:cy="117.15127"
     inkscape:window-width="1419"
     inkscape:window-height="849"
     inkscape:window-x="706"
     inkscape:window-y="227"
     inkscape:window-maximized="0"
     inkscape:current-layer="layer1"
     fit-margin-top="0"
     fit-margin-left="0"
     fit-margin-right="0"
     fit-margin-bottom="0" />
  <defs
     id="defs2">
    <style
       id="style2">.cls-1,.cls-2{fill:#fff;}.cls-2,.cls-3{fill-rule:evenodd;}.cls-4{fill:#ff0032;}.cls-5{fill:#00d30d;}</style>
  </defs>
  <g
     inkscape:label="Layer 1"
     inkscape:groupmode="layer"
     id="layer1"
     transform="translate(-114.65745,-79.247099)">
    <g
       id="g881"
       transform="matrix(0.62890841,0,0,0.62890841,114.65745,80.284883)">
      <path
         d="M 5.61,78.7 A 4.28,4.28 0 0 1 1.33,74.42 V 5.64 A 4.28,4.28 0 0 1 5.61,1.36 h 37.34 a 4.29,4.29 0 0 1 4.29,4.28 v 68.78 a 4.29,4.29 0 0 1 -4.29,4.28 z"
         id="path6" />
      <path
         class="cls-1"
         d="m 42.95,1.36 a 4.29,4.29 0 0 1 4.29,4.28 V 74.42 A 4.29,4.29 0 0 1 42.95,78.7 H 5.61 A 4.28,4.28 0 0 1 1.33,74.42 V 5.64 A 4.28,4.28 0 0 1 5.61,1.36 h 37.34 m 0,-0.89 H 5.61 A 5.18,5.18 0 0 0 0.44,5.64 v 68.78 a 5.18,5.18 0 0 0 5.17,5.18 h 37.34 a 5.18,5.18 0 0 0 5.18,-5.18 V 5.64 A 5.18,5.18 0 0 0 42.95,0.47 Z"
         id="path8" />
      <path
         class="cls-1"
         d="M 42.95,0 H 5.61 A 5.62,5.62 0 0 0 0,5.61 V 74.39 A 5.61,5.61 0 0 0 5.61,80 h 37.34 a 5.61,5.61 0 0 0 5.61,-5.61 V 5.64 A 5.63,5.63 0 0 0 42.95,0 Z M 5.61,2.72 h 37.34 v 0 a 2.93,2.93 0 0 1 2.93,2.92 v 68.75 a 2.93,2.93 0 0 1 -2.93,2.92 H 5.61 A 2.92,2.92 0 0 1 2.69,74.39 V 5.64 A 2.92,2.92 0 0 1 5.61,2.72 Z"
         id="path10" />
      <rect
         class="cls-1"
         x="5.8399992"
         y="7.9099998"
         width="36.84"
         height="66.510002"
         rx="1.8"
         id="rect12" />
      <circle
         id="Oval"
         cx="12.95"
         cy="36.869999"
         r="4.6900001" />
      <circle
         id="Oval-2"
         data-name="Oval"
         cx="12.95"
         cy="47.380001"
         r="4.6900001" />
      <circle
         id="Oval-3"
         data-name="Oval"
         cx="12.95"
         cy="57.869999"
         r="4.6900001" />
      <circle
         id="Oval-4"
         data-name="Oval"
         cx="12.95"
         cy="68.349998"
         r="4.6900001" />
      <circle
         id="Oval-5"
         data-name="Oval"
         cx="24.09"
         cy="36.869999"
         r="4.6900001" />
      <circle
         id="Oval-6"
         data-name="Oval"
         cx="24.09"
         cy="47.380001"
         r="4.6900001" />
      <circle
         id="Oval-7"
         data-name="Oval"
         cx="24.09"
         cy="57.869999"
         r="4.6900001" />
      <circle
         id="Oval-8"
         data-name="Oval"
         cx="24.09"
         cy="68.349998"
         r="4.6900001" />
      <circle
         id="Oval-9"
         data-name="Oval"
         cx="35.260002"
         cy="36.869999"
         r="4.6900001" />
      <circle
         id="Oval-10"
         data-name="Oval"
         cx="35.260002"
         cy="47.380001"
         r="4.6900001" />
      <circle
         id="Oval-11"
         data-name="Oval"
         cx="35.260002"
         cy="57.869999"
         r="4.6900001" />
      <circle
         id="Oval-12"
         data-name="Oval"
         cx="35.260002"
         cy="68.349998"
         r="4.6900001" />
      <path
         class="cls-2"
         d="M 42.95,31.14 H 5.61 A 3.37,3.37 0 0 1 2.24,27.77 V 6.18 A 3.37,3.37 0 0 1 5.61,2.81 h 37.34 a 3.37,3.37 0 0 1 3.37,3.37 v 21.56 a 3.36,3.36 0 0 1 -3.37,3.4 z"
         id="path26" />
      <path
         class="cls-3"
         d="M 42.95,30.57 H 5.61 A 3.37,3.37 0 0 1 2.24,27.2 V 5.64 A 3.37,3.37 0 0 1 5.61,2.27 h 37.34 a 3.37,3.37 0 0 1 3.37,3.37 V 27.2 a 3.35,3.35 0 0 1 -3.37,3.37 z"
         id="path28" />
      <path
         class="cls-2"
         d="M 29.57,24.28 H 9.51 a 1,1 0 0 1 -1,-1 V 12.69 a 1,1 0 0 1 1,-1 h 20 a 1,1 0 0 1 1,1 v 10.58 a 1,1 0 0 1 -0.94,1.01 z"
         id="path30" />
    </g>
    <circle
       style="fill:#ffffff;fill-opacity:1;stroke:none;stroke-width:0.30192;stroke-opacity:1;paint-order:markers stroke fill"
       id="path2322"
       cx="144.782"
       cy="92.760956"
       r="13.513855" />
    <g
       id="g2478"
       transform="matrix(0.65422896,0,0,0.65422896,28.446338,24.204339)"
       style="fill:#000000;fill-opacity:1">
      <path
         class="st0"
         d="m 162.54792,114.29807 13.80368,7.47276 c 0.40121,0.21823 0.95865,0.18558 0.95865,-0.27213 l 0.003,-17.61681 c 0,-0.45776 -0.0363,-0.90481 -0.45771,-1.08523 L 163.0627,96.883101 c -0.41987,-0.18044 -1.00178,-0.0187 -1.00178,0.43894 l 0.0311,15.893389 c 0,0.45512 0.0565,0.86442 0.45771,1.08249 z m 1.37334,-4.88755 c 0.86441,-0.54935 2.1516,0.0783 2.87062,1.4003 0.71901,1.32218 0.60321,2.84366 -0.26126,3.39302 -0.86441,0.54935 -2.1516,-0.0783 -2.87061,-1.4003 -0.71897,-1.32487 -0.60322,-2.84366 0.26125,-3.39302 z m 4.07974,-3.0618 c 0.91558,-0.55474 2.27544,0.0781 3.03753,1.41645 0.76209,1.33838 0.6409,2.87329 -0.27473,3.42804 -0.91558,0.55475 -2.27549,-0.0783 -3.03753,-1.41647 -0.76479,-1.33565 -0.64095,-2.8706 0.27473,-3.42802 z m 4.32477,-3.23146 c 0.92091,-0.55742 2.29161,0.0781 3.05909,1.41645 0.76748,1.33837 0.64359,2.876 -0.27732,3.43073 -0.92097,0.55741 -2.29166,-0.0781 -3.05909,-1.41645 -0.76749,-1.33836 -0.64365,-2.8733 0.27732,-3.43073 z"
         id="path826"
         style="stroke-width:0.269288;fill:#000000;fill-opacity:1"
         sodipodi:nodetypes="cccccccccccccccccccccsccc" />
      <path
         class="st0"
         d="m 192.24521,95.60012 -13.33783,5.42615 c -0.42308,0.17212 -1.12303,0.28035 -1.54569,0.10772 l -14.1161,-5.76546 c -0.42298,-0.17235 0.005,-0.93982 0.43646,-1.09062 l 14.23459,-4.987206 c 0.10782,-0.03784 2.78172,0.937119 3.15603,1.069073 l 11.609,4.149723 c 0.44993,0.15888 0.14254,0.85364 -0.43646,1.09062 z m 1.23872,18.97399 -13.80368,7.47276 c -0.40121,0.21823 -0.95865,0.18558 -0.95865,-0.27213 l -0.003,-17.61681 c 0,-0.45776 0.0363,-0.90481 0.45771,-1.08523 l 13.79284,-5.91356 c 0.41987,-0.18044 1.00178,-0.0187 1.00178,0.43894 l -0.0311,15.89339 c 0,0.45512 -0.0565,0.86442 -0.45771,1.08249 z m -2.26697,-5.60412 c -0.91558,-0.55474 -2.27544,0.0781 -3.03753,1.41645 -0.76209,1.33838 -0.6409,2.87329 0.27473,3.42804 0.91558,0.55475 2.27549,-0.0783 3.03753,-1.41647 0.76479,-1.33565 0.64095,-2.8706 -0.27473,-3.42802 z m -5.35365,-4.09808 c -0.92091,-0.55742 -2.29161,0.0781 -3.05909,1.41645 -0.76748,1.33837 -0.64359,2.876 0.27732,3.43073 0.92097,0.55741 2.29166,-0.0781 3.05909,-1.41645 0.76749,-1.33836 0.64365,-2.8733 -0.27732,-3.43073 z m -7.82304,-11.41263 c -1.62646,0 -2.94329,0.63013 -2.94329,1.40568 0,0.77555 1.31683,1.40568 2.94329,1.40568 1.62381,0 2.94334,-0.63013 2.94334,-1.40568 0,-0.77555 -1.31953,-1.40568 -2.94334,-1.40568 z"
         id="path1231"
         style="stroke-width:0.269288;fill:#000000;fill-opacity:1"
         sodipodi:nodetypes="cssccccccccccccccccccccccscccsssss" />
    </g>
  </g>
  <style
     type="text/css"
     id="style824">.st0{fill-rule:evenodd;clip-rule:evenodd;}</style>
</svg>
