<svg width="30" height="30" viewBox="0 0 30 30" fill="none" xmlns="http://www.w3.org/2000/svg">
<path d="M19.7145 11.2856C19.7145 10.7334 19.2667 10.2857 18.7145 10.2856H11.2858C10.7335 10.2856 10.2858 10.7334 10.2858 11.2856V18.7144C10.2858 19.2666 10.7335 19.7144 11.2858 19.7144H18.7145C19.2667 19.7143 19.7144 19.2665 19.7145 18.7144V11.2856ZM21.7145 18.7144C21.7144 20.3711 20.3712 21.7143 18.7145 21.7144H11.2858C9.62896 21.7144 8.28584 20.3711 8.28577 18.7144V11.2856C8.28577 9.62879 9.62891 8.28564 11.2858 8.28564H18.7145C20.3713 8.28572 21.7145 9.62884 21.7145 11.2856V18.7144Z" fill="currentColor"/>
<path d="M3 24.5713V16C3 14.6593 4.08797 13.5713 5.42871 13.5713H6.5V15.5713H5.42871C5.19254 15.5713 5 15.7638 5 16V24.5713C5 24.8074 5.19257 25 5.42871 25H14C14.2361 25 14.4287 24.8074 14.4287 24.5713V23.5859H16.4287V24.5713C16.4287 25.912 15.3407 27 14 27H5.42871C4.08795 27 3 25.9119 3 24.5713Z" fill="currentColor"/>
<path d="M25.0001 14V5.42871C25.0001 5.19263 24.8076 5 24.5714 5H16.0001C15.7639 5 15.5714 5.19263 15.5714 5.42871V6.41406H13.5714V5.42871C13.5714 4.08801 14.6594 3 16.0001 3H24.5714C25.9121 3 27.0001 4.08801 27.0001 5.42871V14C27.0001 15.3408 25.9121 16.4287 24.5714 16.4287H23.5001V14.4287H24.5714C24.8076 14.4287 25.0001 14.2361 25.0001 14Z" fill="currentColor"/>
</svg>
