<?xml version="1.0" encoding="UTF-8" standalone="no"?>
<svg
   version="1.1"
   id="Layer_1"
   x="0px"
   y="0px"
   viewBox="0 0 240.17 122.89"
   xml:space="preserve"
   sodipodi:docname="descriptor.svg"
   inkscape:version="1.1.2 (0a00cf5339, 2022-02-04)"
   width="240.17"
   height="122.89"
   xmlns:inkscape="http://www.inkscape.org/namespaces/inkscape"
   xmlns:sodipodi="http://sodipodi.sourceforge.net/DTD/sodipodi-0.dtd"
   xmlns="http://www.w3.org/2000/svg"
   xmlns:svg="http://www.w3.org/2000/svg"><defs
     id="defs9"><rect
       x="14.722408"
       y="103.64743"
       width="172.8858"
       height="41.132877"
       id="rect4988" /><rect
       x="14.722408"
       y="103.64743"
       width="172.8858"
       height="41.132877"
       id="rect7549" /></defs><sodipodi:namedview
     id="namedview7"
     pagecolor="#ffffff"
     bordercolor="#999999"
     borderopacity="1"
     inkscape:pageshadow="0"
     inkscape:pageopacity="0"
     inkscape:pagecheckerboard="0"
     showgrid="false"
     inkscape:zoom="3.7058657"
     inkscape:cx="65.436802"
     inkscape:cy="66.651093"
     inkscape:window-width="1920"
     inkscape:window-height="1007"
     inkscape:window-x="0"
     inkscape:window-y="0"
     inkscape:window-maximized="1"
     inkscape:current-layer="Layer_1"
     fit-margin-top="0"
     fit-margin-left="0"
     fit-margin-right="0"
     fit-margin-bottom="0" /><path
     d="m 206.74,110.31 21.48,-22.58 h -21.48 z m 33.43,-25.46 c 0,1.63 -1.1,3.04 -2.6,3.45 l -31.64,33.27 c -0.66,0.81 -1.66,1.32 -2.76,1.32 H 6.43 c -1.79,0 -3.39,-0.72 -4.55,-1.88 C 0.72,119.84 0,118.24 0,116.45 V 6.43 C 0,4.64 0.72,3.04 1.88,1.88 3.04,0.72 4.67,0 6.43,0 h 227.31 c 1.76,0 3.39,0.72 4.55,1.88 1.16,1.16 1.88,2.76 1.88,4.55 z m -7.18,-4.3 V 7.18 H 7.18 V 115.73 H 199.56 V 84.16 c 0,-1.98 1.6,-3.61 3.61,-3.61 z"
     id="path2"
     sodipodi:nodetypes="ccccsccsscsssssssscccccssc" /><style
     type="text/css"
     id="style976">.st0{fill-rule:evenodd;clip-rule:evenodd;}</style><path
     class="st0"
     d="M 18.97993,17.96037 H 31.35858 V 30.289098 H 18.97993 Z m 30.875901,30.925831 h 3.156376 v 3.106451 h -3.156376 z m -6.065901,-0.0055 h 3.156376 v 2.959449 h -3.156376 -0.003 -3.15361 v -6.052032 h 3.05653 v -3.067621 h 3.109225 v -6.115826 h 3.156376 v 3.006601 h 3.006601 v 3.106451 h -3.006601 v 3.106452 H 46.846226 46.799076 43.7897 Z M 34.41788,42.670572 H 37.4744 V 39.564121 H 34.51773 V 36.45767 h 2.95667 v -3.106452 h -3.0066 v 3.106452 h -3.15915 v -3.106452 h 3.10645 v -9.22505 h 3.15638 v 9.222277 h 3.05653 v 3.106451 h 3.0066 v -3.106451 h 3.156374 v 3.106451 H 43.78993 v 3.106451 h -3.15638 v 6.115826 h -3.0593 v 6.165751 h -3.15637 z m 15.385252,-9.322127 h 3.156376 v 3.106451 h -3.156376 z m -24.657452,0 h 3.15637 v 3.106451 h -3.15637 z m -6.16575,0 h 3.15637 v 3.106451 H 18.97993 Z M 34.41788,17.960417 h 3.15637 v 3.106451 H 34.41788 Z M 18.93,39.611272 H 31.30865 V 51.94 H 18.93 Z m 3.0066,2.995507 h 6.36545 v 6.340488 H 21.9366 Z M 40.58085,17.960417 H 52.959508 V 30.289145 H 40.58085 Z m 3.00938,2.995506 h 6.365451 v 6.340489 H 43.59023 Z m -21.6037,0 h 6.36545 v 6.340489 h -6.36545 z"
     id="path978"
     style="stroke-width:0.277362" /><g
     aria-label="Descriptor"
     transform="matrix(2.829877,0,0,2.829877,14.739767,-280.94617)"
     id="text4986"
     style="font-size:13.3333px;line-height:1.25;white-space:pre;shape-inside:url(#rect4988)"><path
       d="m 23.713519,110.97554 q 0,1.41926 -0.553384,2.48697 -0.553384,1.06119 -1.569007,1.6276 -1.015622,0.5664 -2.343744,0.5664 h -3.430981 v -9.17315 h 3.033847 q 2.330723,0 3.593741,1.17187 1.269528,1.16536 1.269528,3.32031 z m -1.249997,0 q 0,-1.70573 -0.937498,-2.59765 -0.930987,-0.89844 -2.701816,-0.89844 H 17.05989 v 7.18097 h 2.044266 q 1.009112,0 1.770828,-0.44271 0.768228,-0.4427 1.178383,-1.27603 0.410155,-0.83334 0.410155,-1.96614 z"
       id="path12524" /><path
       d="m 26.148408,112.38178 q 0,1.21094 0.501301,1.86849 0.501301,0.65755 1.46484,0.65755 0.761717,0 1.217445,-0.30599 0.462238,-0.30599 0.624998,-0.77474 l 1.028644,0.29297 q -0.631509,1.66666 -2.871087,1.66666 -1.562496,0 -2.382806,-0.93099 -0.8138,-0.93098 -0.8138,-2.76692 0,-1.74478 0.8138,-2.67577 0.82031,-0.93099 2.337233,-0.93099 3.105461,0 3.105461,3.74348 v 0.15625 z m 3.815095,-0.89843 q -0.09766,-1.11328 -0.566405,-1.62109 -0.468749,-0.51432 -1.347653,-0.51432 -0.852862,0 -1.354163,0.57291 -0.494791,0.56641 -0.533853,1.5625 z"
       id="path12526" /><path
       d="m 37.951764,113.7099 q 0,0.99609 -0.755206,1.53646 -0.748696,0.54036 -2.10286,0.54036 -1.3151,0 -2.031245,-0.42969 -0.709633,-0.43619 -0.924476,-1.35416 l 1.035153,-0.20182 q 0.14974,0.5664 0.618488,0.83333 0.468749,0.26042 1.30208,0.26042 0.891925,0 1.30208,-0.27344 0.416666,-0.27344 0.416666,-0.82031 0,-0.41667 -0.286458,-0.67708 -0.286457,-0.26042 -0.924476,-0.42969 l -0.839842,-0.22135 q -1.009112,-0.26042 -1.438798,-0.50781 -0.423177,-0.25391 -0.664061,-0.61198 -0.240885,-0.35807 -0.240885,-0.87891 0,-0.96353 0.683592,-1.46484 0.690102,-0.50781 2.005203,-0.50781 1.165362,0 1.848954,0.41016 0.690102,0.41015 0.872393,1.3151 l -1.054684,0.13021 q -0.09766,-0.46875 -0.527343,-0.71615 -0.423176,-0.2539 -1.13932,-0.2539 -0.794269,0 -1.171872,0.24088 -0.377603,0.24089 -0.377603,0.72917 0,0.29948 0.15625,0.49479 0.156249,0.19531 0.462238,0.33203 0.305989,0.13672 1.289059,0.3776 0.930987,0.23438 1.341143,0.4362 0.410155,0.19531 0.644529,0.43619 0.240885,0.24089 0.371093,0.5599 0.130208,0.3125 0.130208,0.71614 z"
       id="path12528" /><path
       d="m 40.223893,112.10183 q 0,1.40625 0.442707,2.08333 0.442707,0.67708 1.334632,0.67708 0.624998,0 1.041664,-0.33854 0.423176,-0.33854 0.520832,-1.04166 l 1.184893,0.0781 q -0.136718,1.01563 -0.865883,1.62109 -0.729165,0.60547 -1.848954,0.60547 -1.477861,0 -2.259109,-0.93099 -0.774737,-0.93749 -0.774737,-2.72785 0,-1.77734 0.781248,-2.70833 0.781248,-0.9375 2.239577,-0.9375 1.080727,0 1.79036,0.5599 0.716144,0.55989 0.898436,1.54296 l -1.204425,0.0912 q -0.09114,-0.58594 -0.462238,-0.93099 -0.371093,-0.34505 -1.054685,-0.34505 -0.930987,0 -1.347653,0.61849 -0.416665,0.61848 -0.416665,2.08332 z"
       id="path12530" /><path
       d="m 46.02466,115.65651 v -5.40363 q 0,-0.74218 -0.03906,-1.64062 h 1.106768 q 0.05208,1.19791 0.05208,1.4388 h 0.02604 q 0.279947,-0.90495 0.644529,-1.23698 0.364583,-0.33203 1.028644,-0.33203 0.234374,0 0.475259,0.0651 v 1.07421 q -0.234375,-0.0651 -0.624999,-0.0651 -0.729164,0 -1.113278,0.63151 -0.384114,0.625 -0.384114,1.79687 v 3.67186 z"
       id="path12532" /><path
       d="m 50.4322,115.65651 v -7.04425 h 1.171872 v 7.04425 z m 0,-8.54164 v -1.11979 h 1.171872 v 1.11979 z"
       id="path12534" /><path
       d="m 59.357961,112.10183 q 0,3.68489 -2.591139,3.68489 -1.6276,0 -2.187494,-1.22395 h -0.03255 q 0.02604,0.0521 0.02604,1.10676 v 2.7539 h -1.171872 v -8.37237 q 0,-1.08724 -0.03906,-1.4388 h 1.13281 q 0.0065,0.026 0.01953,0.1888 0.01302,0.15625 0.02604,0.48828 0.01953,0.33203 0.01953,0.45573 h 0.02604 q 0.312499,-0.65104 0.826821,-0.95052 0.514322,-0.30599 1.354163,-0.30599 1.30208,0 1.94661,0.8724 0.644529,0.87239 0.644529,2.74087 z m -1.230465,0.026 q 0,-1.47135 -0.397135,-2.10286 -0.397134,-0.63151 -1.263017,-0.63151 -0.696613,0 -1.093747,0.29297 -0.390624,0.29296 -0.598957,0.91796 -0.201823,0.61849 -0.201823,1.61458 0,1.38672 0.442708,2.04427 0.442707,0.65755 1.438798,0.65755 0.872394,0 1.269528,-0.63802 0.403645,-0.64453 0.403645,-2.15494 z"
       id="path12536" /><path
       d="m 63.524616,115.60443 q -0.579426,0.15625 -1.184893,0.15625 -1.406246,0 -1.406246,-1.59505 v -4.70051 h -0.8138 v -0.85286 h 0.859373 l 0.345051,-1.57552 h 0.781248 v 1.57552 h 1.30208 v 0.85286 h -1.30208 v 4.44661 q 0,0.50781 0.16276,0.71614 0.16927,0.20182 0.579425,0.20182 0.234375,0 0.677082,-0.0911 z"
       id="path12538" /><path
       d="m 70.477724,112.12788 q 0,1.84895 -0.8138,2.7539 -0.8138,0.90494 -2.363275,0.90494 -1.542965,0 -2.330724,-0.9375 -0.787758,-0.944 -0.787758,-2.72134 0,-3.64583 3.157544,-3.64583 1.614579,0 2.376296,0.89193 0.761717,0.88541 0.761717,2.7539 z m -1.230466,0 q 0,-1.45833 -0.436197,-2.11588 -0.429686,-0.66406 -1.451819,-0.66406 -1.028643,0 -1.490881,0.67708 -0.455728,0.67057 -0.455728,2.10286 0,1.39322 0.449217,2.09634 0.455728,0.69662 1.425778,0.69662 1.054685,0 1.503902,-0.67708 0.455728,-0.67709 0.455728,-2.11588 z"
       id="path12540" /><path
       d="m 71.962094,115.65651 v -5.40363 q 0,-0.74218 -0.03906,-1.64062 h 1.106768 q 0.05208,1.19791 0.05208,1.4388 h 0.02604 q 0.279947,-0.90495 0.64453,-1.23698 0.364582,-0.33203 1.028643,-0.33203 0.234374,0 0.475259,0.0651 v 1.07421 q -0.234374,-0.0651 -0.624998,-0.0651 -0.729165,0 -1.113279,0.63151 -0.384113,0.625 -0.384113,1.79687 v 3.67186 z"
       id="path12542" /></g><g
     aria-label="wsh(sortedmulti(...))"
     transform="matrix(1.5170869,0,0,1.5170869,-3.5852915,-86.734442)"
     id="text7547"
     style="font-size:13.3333px;line-height:1.25;white-space:pre;shape-inside:url(#rect7549)"><path
       d="m 22.365866,115.65651 h -1.360674 l -1.230465,-4.98045 -0.234375,-1.10026 q -0.05859,0.29297 -0.182291,0.84635 -0.123697,0.54687 -1.328121,5.23436 h -1.354164 l -1.972651,-7.04425 h 1.158851 l 1.191404,4.78514 q 0.04557,0.15625 0.279947,1.28906 l 0.110677,-0.48177 1.47135,-5.59243 h 1.256507 l 1.230466,4.83723 0.299478,1.23697 0.201823,-0.90494 1.334632,-5.16926 h 1.14583 z"
       id="path12481" /><path
       d="m 30.536418,113.7099 q 0,0.99609 -0.755207,1.53646 -0.748696,0.54036 -2.102859,0.54036 -1.315101,0 -2.031245,-0.42969 -0.709633,-0.43619 -0.924476,-1.35416 l 1.035153,-0.20182 q 0.149739,0.5664 0.618488,0.83333 0.468749,0.26042 1.30208,0.26042 0.891925,0 1.30208,-0.27344 0.416666,-0.27344 0.416666,-0.82031 0,-0.41667 -0.286458,-0.67708 -0.286457,-0.26042 -0.924477,-0.42969 l -0.839841,-0.22135 q -1.009112,-0.26042 -1.438799,-0.50781 -0.423176,-0.25391 -0.66406,-0.61198 -0.240885,-0.35807 -0.240885,-0.87891 0,-0.96353 0.683592,-1.46484 0.690102,-0.50781 2.005203,-0.50781 1.165362,0 1.848954,0.41016 0.690102,0.41015 0.872393,1.3151 l -1.054685,0.13021 q -0.09766,-0.46875 -0.527342,-0.71615 -0.423176,-0.2539 -1.13932,-0.2539 -0.794269,0 -1.171872,0.24088 -0.377603,0.24089 -0.377603,0.72917 0,0.29948 0.156249,0.49479 0.15625,0.19531 0.462239,0.33203 0.305989,0.13672 1.289059,0.3776 0.930987,0.23438 1.341142,0.4362 0.410156,0.19531 0.64453,0.43619 0.240885,0.24089 0.371093,0.5599 0.130208,0.3125 0.130208,0.71614 z"
       id="path12483" /><path
       d="m 33.081985,109.81668 q 0.377604,-0.6901 0.904946,-1.00911 0.533853,-0.32552 1.347653,-0.32552 1.14583,0 1.686193,0.57292 0.546874,0.5664 0.546874,1.90754 v 4.694 h -1.178382 v -4.46613 q 0,-0.74219 -0.136719,-1.10026 -0.136718,-0.36458 -0.449217,-0.53385 -0.3125,-0.16927 -0.865884,-0.16927 -0.82682,0 -1.328121,0.57291 -0.494791,0.57292 -0.494791,1.54297 v 4.15363 h -1.171872 v -9.66143 h 1.171872 v 2.51301 q 0,0.39714 -0.02604,0.82031 -0.01953,0.42318 -0.02604,0.48828 z"
       id="path12485" /><path
       d="m 39.260354,112.19298 q 0,-1.88151 0.585936,-3.3789 0.592446,-1.49739 1.816401,-2.819 h 1.13281 q -1.217445,1.35416 -1.79036,2.8776 -0.566405,1.52343 -0.566405,3.33332 0,1.80338 0.559894,3.3203 0.566405,1.51693 1.796871,2.89062 h -1.13281 q -1.230465,-1.32812 -1.816401,-2.82551 -0.585936,-1.5039 -0.585936,-3.37239 z"
       id="path12487" /><path
       d="m 49.058507,113.7099 q 0,0.99609 -0.755207,1.53646 -0.748696,0.54036 -2.102859,0.54036 -1.315101,0 -2.031245,-0.42969 -0.709633,-0.43619 -0.924476,-1.35416 l 1.035153,-0.20182 q 0.149739,0.5664 0.618488,0.83333 0.468749,0.26042 1.30208,0.26042 0.891925,0 1.30208,-0.27344 0.416666,-0.27344 0.416666,-0.82031 0,-0.41667 -0.286458,-0.67708 -0.286457,-0.26042 -0.924477,-0.42969 l -0.839841,-0.22135 q -1.009112,-0.26042 -1.438799,-0.50781 -0.423176,-0.25391 -0.66406,-0.61198 -0.240885,-0.35807 -0.240885,-0.87891 0,-0.96353 0.683592,-1.46484 0.690102,-0.50781 2.005203,-0.50781 1.165362,0 1.848954,0.41016 0.690102,0.41015 0.872393,1.3151 l -1.054685,0.13021 q -0.09766,-0.46875 -0.527342,-0.71615 -0.423176,-0.2539 -1.13932,-0.2539 -0.794269,0 -1.171872,0.24088 -0.377603,0.24089 -0.377603,0.72917 0,0.29948 0.156249,0.49479 0.15625,0.19531 0.462239,0.33203 0.305989,0.13672 1.289059,0.3776 0.930987,0.23438 1.341142,0.4362 0.410156,0.19531 0.64453,0.43619 0.240885,0.24089 0.371093,0.5599 0.130208,0.3125 0.130208,0.71614 z"
       id="path12489" /><path
       d="m 56.395727,112.12788 q 0,1.84895 -0.8138,2.7539 -0.8138,0.90494 -2.363275,0.90494 -1.542965,0 -2.330724,-0.9375 -0.787758,-0.944 -0.787758,-2.72134 0,-3.64583 3.157544,-3.64583 1.614579,0 2.376296,0.89193 0.761717,0.88541 0.761717,2.7539 z m -1.230466,0 q 0,-1.45833 -0.436196,-2.11588 -0.429687,-0.66406 -1.45182,-0.66406 -1.028643,0 -1.490881,0.67708 -0.455728,0.67057 -0.455728,2.10286 0,1.39322 0.449217,2.09634 0.455728,0.69662 1.425778,0.69662 1.054685,0 1.503902,-0.67708 0.455728,-0.67709 0.455728,-2.11588 z"
       id="path12491" /><path
       d="m 57.880097,115.65651 v -5.40363 q 0,-0.74218 -0.03906,-1.64062 h 1.106768 q 0.05208,1.19791 0.05208,1.4388 h 0.02604 q 0.279947,-0.90495 0.64453,-1.23698 0.364582,-0.33203 1.028643,-0.33203 0.234374,0 0.475259,0.0651 v 1.07421 q -0.234374,-0.0651 -0.624998,-0.0651 -0.729165,0 -1.113279,0.63151 -0.384113,0.625 -0.384113,1.79687 v 3.67186 z"
       id="path12493" /><path
       d="m 65.002476,115.60443 q -0.579426,0.15625 -1.184893,0.15625 -1.406247,0 -1.406247,-1.59505 v -4.70051 h -0.8138 v -0.85286 h 0.859373 l 0.345051,-1.57552 h 0.781248 v 1.57552 h 1.30208 v 0.85286 h -1.30208 v 4.44661 q 0,0.50781 0.16276,0.71614 0.169271,0.20182 0.579426,0.20182 0.234374,0 0.677082,-0.0911 z"
       id="path12495" /><path
       d="m 66.897002,112.38178 q 0,1.21094 0.501301,1.86849 0.501301,0.65755 1.46484,0.65755 0.761717,0 1.217445,-0.30599 0.462239,-0.30599 0.624999,-0.77474 l 1.028643,0.29297 q -0.631509,1.66666 -2.871087,1.66666 -1.562496,0 -2.382806,-0.93099 -0.8138,-0.93098 -0.8138,-2.76692 0,-1.74478 0.8138,-2.67577 0.82031,-0.93099 2.337234,-0.93099 3.10546,0 3.10546,3.74348 v 0.15625 z m 3.815095,-0.89843 q -0.09766,-1.11328 -0.566405,-1.62109 -0.468749,-0.51432 -1.347653,-0.51432 -0.852862,0 -1.354163,0.57291 -0.49479,0.56641 -0.533853,1.5625 z"
       id="path12497" /><path
       d="m 77.860519,114.5237 q -0.32552,0.67708 -0.865884,0.97005 -0.533852,0.29297 -1.328121,0.29297 -1.334632,0 -1.966141,-0.89843 -0.624999,-0.89844 -0.624999,-2.72135 0,-3.68489 2.59114,-3.68489 0.800779,0 1.334632,0.29297 0.533853,0.29297 0.859373,0.93099 h 0.01302 l -0.01302,-0.78776 v -2.92317 h 1.171872 v 8.20961 q 0,1.10026 0.03906,1.45182 h -1.119789 q -0.01953,-0.10416 -0.04557,-0.48177 -0.01953,-0.3776 -0.01953,-0.65104 z m -3.554679,-2.39582 q 0,1.47786 0.390624,2.11588 0.390624,0.63802 1.269528,0.63802 0.996091,0 1.445309,-0.69011 0.449218,-0.6901 0.449218,-2.14192 0,-1.39973 -0.449218,-2.05077 -0.449218,-0.65104 -1.432288,-0.65104 -0.885414,0 -1.282549,0.65755 -0.390624,0.65104 -0.390624,2.12239 z"
       id="path12499" /><path
       d="m 84.930812,115.65651 v -4.46613 q 0,-1.02213 -0.279948,-1.41276 -0.279947,-0.39062 -1.009112,-0.39062 -0.748696,0 -1.184892,0.57291 -0.436197,0.57292 -0.436197,1.61458 v 4.08202 h -1.165362 v -5.54035 q 0,-1.23046 -0.03906,-1.5039 h 1.106768 q 0.0065,0.0326 0.01302,0.17578 0.0065,0.14323 0.01302,0.33203 0.01302,0.18229 0.02604,0.69661 h 0.01953 q 0.377603,-0.74869 0.865883,-1.04166 0.48828,-0.29297 1.191404,-0.29297 0.800779,0 1.263017,0.31901 0.468749,0.31901 0.65104,1.01562 h 0.01953 q 0.364583,-0.70963 0.878905,-1.02213 0.520832,-0.3125 1.256507,-0.3125 1.067705,0 1.549475,0.57943 0.48828,0.57942 0.48828,1.90103 v 4.694 h -1.158851 v -4.46613 q 0,-1.02213 -0.279947,-1.41276 -0.279948,-0.39062 -1.009112,-0.39062 -0.768228,0 -1.197914,0.57291 -0.423176,0.56641 -0.423176,1.61458 v 4.08202 z"
       id="path12501" /><path
       d="m 93.081833,108.61226 v 4.46613 q 0,0.69662 0.136718,1.08073 0.136719,0.38411 0.436197,0.55338 0.299478,0.16928 0.878904,0.16928 0.846352,0 1.334632,-0.57943 0.48828,-0.57943 0.48828,-1.60807 v -4.08202 h 1.171872 v 5.54035 q 0,1.23047 0.03906,1.5039 h -1.106768 q -0.0065,-0.0326 -0.01302,-0.17578 -0.0065,-0.14323 -0.01953,-0.32552 -0.0065,-0.1888 -0.01953,-0.70312 h -0.01953 q -0.403645,0.72916 -0.937498,1.03515 -0.527342,0.29948 -1.3151,0.29948 -1.158852,0 -1.699215,-0.57291 -0.533853,-0.57943 -0.533853,-1.90755 v -4.694 z"
       id="path12503" /><path
       d="m 99.351347,115.65651 v -9.66143 h 1.171873 v 9.66143 z"
       id="path12505" /><path
       d="m 105.02191,115.60443 q -0.57943,0.15625 -1.1849,0.15625 -1.40624,0 -1.40624,-1.59505 v -4.70051 h -0.8138 v -0.85286 h 0.85937 l 0.34505,-1.57552 h 0.78125 v 1.57552 h 1.30208 v 0.85286 h -1.30208 v 4.44661 q 0,0.50781 0.16276,0.71614 0.16927,0.20182 0.57943,0.20182 0.23437,0 0.67708,-0.0911 z"
       id="path12507" /><path
       d="m 106.01149,115.65651 v -7.04425 h 1.17187 v 7.04425 z m 0,-8.54164 v -1.11979 h 1.17187 v 1.11979 z"
       id="path12509" /><path
       d="m 108.90862,112.19298 q 0,-1.88151 0.58593,-3.3789 0.59245,-1.49739 1.8164,-2.819 h 1.13281 q -1.21744,1.35416 -1.79036,2.8776 -0.5664,1.52343 -0.5664,3.33332 0,1.80338 0.55989,3.3203 0.56641,1.51693 1.79687,2.89062 h -1.13281 q -1.23046,-1.32812 -1.8164,-2.82551 -0.58593,-1.5039 -0.58593,-3.37239 z"
       id="path12511" /><path
       d="m 113.73933,115.65651 v -1.42577 h 1.26953 v 1.42577 z"
       id="path12513" /><path
       d="m 117.44375,115.65651 v -1.42577 h 1.26953 v 1.42577 z"
       id="path12515" /><path
       d="m 121.14817,115.65651 v -1.42577 h 1.26953 v 1.42577 z"
       id="path12517" /><path
       d="m 127.24841,112.21902 q 0,1.88151 -0.59244,3.3789 -0.58594,1.49739 -1.8099,2.819 h -1.13281 q 1.22396,-1.36718 1.79036,-2.87759 0.56641,-1.51693 0.56641,-3.33333 0,-1.8164 -0.57292,-3.33332 -0.5664,-1.51693 -1.78385,-2.8776 h 1.13281 q 1.23047,1.32812 1.81641,2.83202 0.58593,1.4974 0.58593,3.36588 z"
       id="path12519" /><path
       d="m 131.68851,112.21902 q 0,1.88151 -0.59245,3.3789 -0.58594,1.49739 -1.80989,2.819 h -1.13281 q 1.22395,-1.36718 1.79036,-2.87759 0.5664,-1.51693 0.5664,-3.33333 0,-1.8164 -0.57291,-3.33332 -0.56641,-1.51693 -1.78385,-2.8776 h 1.13281 q 1.23046,1.32812 1.8164,2.83202 0.58594,1.4974 0.58594,3.36588 z"
       id="path12521" /></g></svg>
