<svg width="30" height="30" viewBox="0 0 30 30" fill="currentColor" xmlns="http://www.w3.org/2000/svg">
<path d="M15 20.25C15.6904 20.25 16.25 19.6904 16.25 19C16.25 18.3096 15.6904 17.75 15 17.75C14.3096 17.75 13.75 18.3096 13.75 19C13.75 19.6904 14.3096 20.25 15 20.25Z" fill="currentColor"/>
<path d="M14 15.75V9.75C14 9.19772 14.4477 8.75 15 8.75C15.5523 8.75 16 9.19772 16 9.75V15.75C16 16.3023 15.5523 16.75 15 16.75C14.4477 16.75 14 16.3023 14 15.75Z" fill="currentColor"/>
<path d="M24 15C24 10.0294 19.9706 6 15 6C10.0294 6 6 10.0294 6 15C6 19.9706 10.0294 24 15 24C19.9706 24 24 19.9706 24 15ZM26 15C26 21.0751 21.0751 26 15 26C8.92487 26 4 21.0751 4 15C4 8.92487 8.92487 4 15 4C21.0751 4 26 8.92487 26 15Z" fill="currentColor"/>
</svg>
