<?xml version="1.0" encoding="UTF-8" standalone="no"?>
<!-- Created with Inkscape (http://www.inkscape.org/) -->

<svg
   width="96.55648mm"
   height="49.759655mm"
   viewBox="0 0 96.55648 49.759655"
   version="1.1"
   id="svg5"
   xml:space="preserve"
   inkscape:version="1.2.2 (b0a8486541, 2022-12-01)"
   sodipodi:docname="exchange.svg"
   xmlns:inkscape="http://www.inkscape.org/namespaces/inkscape"
   xmlns:sodipodi="http://sodipodi.sourceforge.net/DTD/sodipodi-0.dtd"
   xmlns="http://www.w3.org/2000/svg"
   xmlns:svg="http://www.w3.org/2000/svg"><sodipodi:namedview
     id="namedview7"
     pagecolor="#ffffff"
     bordercolor="#000000"
     borderopacity="0.25"
     inkscape:showpageshadow="2"
     inkscape:pageopacity="0.0"
     inkscape:pagecheckerboard="0"
     inkscape:deskcolor="#d1d1d1"
     inkscape:document-units="mm"
     showgrid="false"
     showguides="true"
     inkscape:zoom="1.0419012"
     inkscape:cx="136.28931"
     inkscape:cy="270.17917"
     inkscape:window-width="1920"
     inkscape:window-height="1008"
     inkscape:window-x="0"
     inkscape:window-y="0"
     inkscape:window-maximized="1"
     inkscape:current-layer="layer1"><sodipodi:guide
       position="82.242765,53.774497"
       orientation="1,0"
       id="guide656"
       inkscape:locked="false" /><sodipodi:guide
       position="78.179685,24.317127"
       orientation="0,-1"
       id="guide658"
       inkscape:locked="false" /></sodipodi:namedview><defs
     id="defs2" /><g
     inkscape:label="Layer 1"
     inkscape:groupmode="layer"
     id="layer1"
     transform="translate(-28.730245,-71.563623)"><text
       xml:space="preserve"
       style="font-size:28.11px;fill:#008000;stroke-width:6.16206"
       x="110.05132"
       y="92.426514"
       id="text236"><tspan
         sodipodi:role="line"
         id="tspan234"
         style="font-weight:bold;fill:#008000;stroke-width:6.16206"
         x="110.05132"
         y="92.426514">$</tspan></text><text
       xml:space="preserve"
       style="font-size:28.11px;fill:#0000ff;stroke-width:6.16206"
       x="110.07004"
       y="121.04877"
       id="text236-3"><tspan
         sodipodi:role="line"
         id="tspan234-6"
         style="font-weight:bold;fill:#0000ff;stroke-width:6.16206"
         x="110.07004"
         y="121.04877">€</tspan></text><style
       type="text/css"
       id="style448">.st0{fill-rule:evenodd;clip-rule:evenodd;}</style><g
       id="g464"
       transform="matrix(0.26458333,0,0,0.26458333,70.121789,80.552702)"><path
         fill-rule="evenodd"
         clip-rule="evenodd"
         d="m 38.884,13.221 c -0.041,1.756 0.255,2.601 1.781,2.603 h 36.71 c 6.647,0.521 12.596,2.272 17.625,5.684 3.492,2.369 6.04,5.183 7.963,8.302 3.412,5.537 5.34,13.521 6.384,19.967 0.45,2.787 0.661,5.392 0.18,6.6 -0.228,0.569 -0.565,0.953 -1.023,1.135 -2.524,1.011 -5.192,-2.464 -6.614,-4.127 C 95.12,45.467 85.28,42.191 73.678,41.576 h -33.56 c -1.201,0.208 -1.627,1.096 -1.507,2.466 v 9.451 c -0.07,3.141 -1.654,4.21 -4.794,3.15 L 4.92,33.966 2.078,31.735 1.351,31.165 C -0.972,29.076 -0.017,27.174 2.068,25.532 L 4.274,23.796 31.964,1.999 c 3.379,-2.661 6.92,-3.373 6.92,2.362 z m 32.158,96.439 c 0.041,-1.757 -0.254,-2.602 -1.78,-2.604 H 32.552 C 25.905,106.535 19.956,104.785 14.927,101.372 11.413,98.988 8.855,96.155 6.929,93.014 3.444,87.328 1.172,78.073 0.338,71.431 0.072,69.312 0.017,67.465 0.401,66.504 c 0.227,-0.569 0.565,-0.953 1.022,-1.136 2.524,-1.011 5.192,2.464 6.614,4.127 6.771,7.918 16.611,11.194 28.213,11.809 h 33.56 c 1.2,-0.207 1.627,-1.096 1.507,-2.466 v -9.451 c 0.07,-3.141 1.654,-4.21 4.794,-3.15 l 28.896,22.677 2.843,2.231 0.727,0.57 c 2.323,2.089 1.367,3.991 -0.718,5.633 l -2.205,1.736 -27.689,21.797 c -3.38,2.661 -6.921,3.373 -6.921,-2.362 v -8.859 z"
         id="path462" /></g><g
       style="clip-rule:evenodd;fill-rule:evenodd;image-rendering:optimizeQuality;shape-rendering:geometricPrecision;text-rendering:geometricPrecision"
       id="g502"
       transform="matrix(0.00795445,0,0,0.00795445,28.73025,80.637435)"><g
         id="Layer_x0020_1"
         inkscape:label="Layer 1"
         inkscape:groupmode="layer">
  <metadata
   id="CorelCorpID_0Corel-Layer" />
  <g
   id="_1421344023328">
   <path
   fill="#f7931a"
   fill-rule="nonzero"
   d="M 4030.06,2540.77 C 3756.82,3636.78 2646.74,4303.79 1550.6,4030.48 454.92,3757.24 -212.09,2647.09 61.27,1551.17 334.39,455.04 1444.47,-212.02 2540.27,61.22 3636.33,334.46 4303.3,1444.73 4030.03,2540.79 l 0.02,-0.02 z"
   id="path485" />
   <path
   fill="#ffffff"
   fill-rule="nonzero"
   d="m 2947.77,1754.38 c 40.72,-272.26 -166.56,-418.61 -450,-516.24 l 91.95,-368.8 -224.5,-55.94 -89.51,359.09 c -59.02,-14.72 -119.63,-28.59 -179.87,-42.34 l 90.16,-361.46 -224.36,-55.94 -92,368.68 c -48.84,-11.12 -96.81,-22.11 -143.35,-33.69 l 0.26,-1.16 -309.59,-77.31 -59.72,239.78 c 0,0 166.56,38.18 163.05,40.53 90.91,22.69 107.35,82.87 104.62,130.57 l -104.74,420.15 c 6.26,1.59 14.38,3.89 23.34,7.49 -7.49,-1.86 -15.46,-3.89 -23.73,-5.87 l -146.81,588.57 c -11.11,27.62 -39.31,69.07 -102.87,53.33 2.25,3.26 -163.17,-40.72 -163.17,-40.72 l -111.46,256.98 292.15,72.83 c 54.35,13.63 107.61,27.89 160.06,41.3 l -92.9,373.03 224.24,55.94 92,-369.07 c 61.26,16.63 120.71,31.97 178.91,46.43 l -91.69,367.33 224.51,55.94 92.89,-372.33 c 382.82,72.45 670.67,43.24 791.83,-303.02 97.63,-278.78 -4.86,-439.58 -206.26,-544.44 146.69,-33.83 257.18,-130.31 286.64,-329.61 l -0.07,-0.05 z m -512.93,719.26 c -69.38,278.78 -538.76,128.08 -690.94,90.29 l 123.28,-494.2 c 152.17,37.99 640.17,113.17 567.67,403.91 z m 69.43,-723.3 c -63.29,253.58 -453.96,124.75 -580.69,93.16 l 111.77,-448.21 c 126.73,31.59 534.85,90.55 468.94,355.05 z"
   id="path487" />
  </g>
 </g></g><title
       id="title504">dollar</title><title
       id="title515">euro</title></g></svg>
