<svg width="30" height="30" viewBox="0 0 30 30" fill="currentColor" xmlns="http://www.w3.org/2000/svg">
<path d="M28.7109 10.5L25.8262 25.5H7C6.57588 25.5 5.80779 25.5221 5.17773 25.207C4.81686 25.0266 4.4986 24.7407 4.28418 24.3271C4.0791 23.9315 4 23.4791 4 23C4 22.2892 3.75358 17.9618 3.50195 13.7471C3.377 11.6542 3.25193 9.60802 3.1582 8.08496C3.11134 7.32345 3.07226 6.69223 3.04492 6.25195C3.03127 6.03203 3.02001 5.85959 3.0127 5.74219C3.00904 5.6836 3.00677 5.63867 3.00488 5.6084C3.00395 5.59345 3.00341 5.5819 3.00293 5.57422C3.0027 5.57048 3.00207 5.56736 3.00195 5.56543V5.5625L2.93555 4.5H11.4141L13.9141 7H25C25.5523 7 26 7.44772 26 8C26 8.55228 25.5523 9 25 9H13.0859L10.5859 6.5H5.06348C5.08814 6.89798 5.11932 7.39351 5.1543 7.96191C5.24807 9.48571 5.373 11.5334 5.49805 13.6279C5.74642 17.7882 6 22.2108 6 23C6 23.2708 6.046 23.3811 6.05957 23.4072C6.06365 23.4152 6.05829 23.411 6.07227 23.418C6.07445 23.4191 6.07749 23.4187 6.08008 23.4199L8.14746 10.5H28.7109ZM8.09277 23.5H24.1738L26.2891 12.5H9.85254L8.09277 23.5Z" fill="currentColor"/>
</svg>
