<svg width="32" height="32" viewBox="0 0 32 32" fill="currentColor" xmlns="http://www.w3.org/2000/svg">
<path d="M2 8C4.11114 8 5.79308 8.33068 7.24089 8.87305C8.65798 9.40392 9.75772 10.1076 10.6325 10.6699C12.2943 11.7382 13.4352 12.5 16 12.5V17.5C11.8241 17.5 9.59458 16.0118 7.75637 14.8301C6.88118 14.2675 6.19847 13.8461 5.36328 13.5332C4.55878 13.2318 3.51846 13 2 13V8Z" fill="currentColor"/>
<path d="M2 24.5C3.96298 24.5 5.48501 24.194 6.77199 23.7119C8.04341 23.2356 9.03868 22.6024 9.91348 22.04C11.6194 20.9434 13.0324 20 16 20V17.5C12.2269 17.5 10.2695 18.8066 8.4754 19.96C7.60031 20.5225 6.81285 21.0145 5.83218 21.3818C4.86692 21.7434 3.66638 22 2 22V24.5Z" fill="currentColor"/>
<path d="M30 8C28.0075 8 26.4539 8.31058 25.1348 8.80469C23.8341 9.29196 22.8176 9.93953 21.9427 10.502C20.2456 11.5929 18.8871 12.5 16 12.5V15.5C19.8537 15.5 21.8655 14.1571 23.6684 12.998C24.5434 12.4355 25.3095 11.958 26.261 11.6016C27.1942 11.252 28.363 11 30 11V8Z" fill="currentColor"/>
<path d="M30 24.5C28.1261 24.5 26.701 24.2086 25.5106 23.7627C24.3262 23.319 23.3929 22.7285 22.5179 22.166C20.7856 21.0524 19.2093 20 16 20V19C19.5315 19 21.3255 20.1976 23.0932 21.334C23.9681 21.8965 24.8174 22.431 25.8853 22.8311C26.9471 23.2288 28.2444 23.5 30 23.5V24.5Z" fill="currentColor"/>
<path d="M16 19V15.5H30V19H16Z" fill="currentColor"/>
</svg>
