<svg width="30" height="30" viewBox="0 0 30 30" fill="currentColor" xmlns="http://www.w3.org/2000/svg">
<path d="M3.98535 11.1426C4.42917 10.8762 4.99633 10.9946 5.2998 11.4004L5.35742 11.4853L6 12.5547L6.64258 11.4853C6.92689 11.012 7.54123 10.8584 8.01465 11.1426C8.48802 11.4269 8.64159 12.0412 8.35742 12.5146L7.7666 13.498H9L9.10254 13.5029C9.60667 13.5543 10 13.9804 10 14.498C9.99998 15.0157 9.60666 15.4418 9.10254 15.4932L9 15.498H7.76758L8.35742 16.4805L8.40527 16.5703C8.62113 17.029 8.45857 17.5859 8.01465 17.8525C7.57086 18.1189 7.00368 18.0005 6.7002 17.5947L6.64258 17.5098L6 16.4394L5.35742 17.5098C5.07312 17.9831 4.45877 18.1367 3.98535 17.8525C3.512 17.5682 3.35848 16.9539 3.64258 16.4805L4.23242 15.498H3C2.44773 15.498 2.00003 15.0503 2 14.498C2 13.9458 2.44772 13.498 3 13.498H4.2334L3.64258 12.5146L3.59473 12.4248C3.3788 11.9661 3.5414 11.4092 3.98535 11.1426Z" fill="currentColor"/>
<path d="M21.9854 11.1426C22.4292 10.8762 22.9963 10.9946 23.2998 11.4004L23.3574 11.4853L24 12.5547L24.6426 11.4853C24.9269 11.012 25.5412 10.8584 26.0146 11.1426C26.488 11.4269 26.6416 12.0412 26.3574 12.5146L25.7666 13.498H27L27.1025 13.5029C27.6067 13.5543 28 13.9804 28 14.498C28 15.0157 27.6067 15.4418 27.1025 15.4932L27 15.498H25.7676L26.3574 16.4805L26.4053 16.5703C26.6211 17.029 26.4586 17.5859 26.0146 17.8525C25.5709 18.1189 25.0037 18.0005 24.7002 17.5947L24.6426 17.5098L24 16.4394L23.3574 17.5098C23.0731 17.9831 22.4588 18.1367 21.9854 17.8525C21.512 17.5682 21.3585 16.9539 21.6426 16.4805L22.2324 15.498H21C20.4477 15.498 20 15.0503 20 14.498C20 13.9458 20.4477 13.498 21 13.498H22.2334L21.6426 12.5146L21.5947 12.4248C21.3788 11.9661 21.5414 11.4092 21.9854 11.1426Z" fill="currentColor"/>
<path d="M12.9854 11.1426C13.4292 10.8762 13.9963 10.9946 14.2998 11.4004L14.3574 11.4853L15 12.5547L15.6426 11.4853C15.9269 11.012 16.5412 10.8584 17.0146 11.1426C17.488 11.4269 17.6416 12.0412 17.3574 12.5146L16.7666 13.498H18L18.1025 13.5029C18.6067 13.5543 19 13.9804 19 14.498C19 15.0157 18.6067 15.4418 18.1025 15.4932L18 15.498H16.7676L17.3574 16.4805L17.4053 16.5703C17.6211 17.029 17.4586 17.5859 17.0146 17.8525C16.5709 18.1189 16.0037 18.0005 15.7002 17.5947L15.6426 17.5098L15 16.4394L14.3574 17.5098C14.0731 17.9831 13.4588 18.1367 12.9854 17.8525C12.512 17.5682 12.3585 16.9539 12.6426 16.4805L13.2324 15.498H12C11.4477 15.498 11 15.0503 11 14.498C11 13.9458 11.4477 13.498 12 13.498H13.2334L12.6426 12.5146L12.5947 12.4248C12.3788 11.9661 12.5414 11.4092 12.9854 11.1426Z" fill="currentColor"/>
<path d="M25 21.49C25.5523 21.49 26 21.9377 26 22.49C26 23.0423 25.5523 23.49 25 23.49H5C4.44772 23.49 4 23.0423 4 22.49C4 21.9377 4.44772 21.49 5 21.49H25Z" fill="currentColor"/>
</svg>
