<svg width="30" height="30" viewBox="0 0 30 30" fill="currentColor" xmlns="http://www.w3.org/2000/svg">
<path d="M23.293 10.293C23.6836 9.90248 24.3166 9.90246 24.7071 10.293C25.0976 10.6835 25.0976 11.3165 24.7071 11.707L19.9298 16.4834C19.9738 16.6484 20.0001 16.8211 20.0001 17C20.0001 18.1045 19.1046 19 18.0001 19C16.8955 19 16.0001 18.1046 16.0001 17C16.0001 16.8212 16.0254 16.6483 16.0694 16.4834L13.5157 13.9297C13.351 13.9736 13.1786 14 13.0001 14C12.8212 14 12.6485 13.9737 12.4835 13.9297L6.70711 19.707C6.3166 20.0975 5.68357 20.0975 5.29305 19.707C4.90252 19.3165 4.90252 18.6835 5.29305 18.293L11.0694 12.5156C11.0255 12.351 11.0001 12.1785 11.0001 12C11.0001 10.8954 11.8955 10 13.0001 10C14.1046 10 15.0001 10.8955 15.0001 12C15.0001 12.1786 14.9737 12.3509 14.9298 12.5156L17.4835 15.0693C17.6484 15.0253 17.8213 15 18.0001 15C18.1786 15 18.351 15.0255 18.5157 15.0693L23.293 10.293Z" fill="currentColor"/>
</svg>
