<svg id="Layer_1" data-name="Layer 1" xmlns="http://www.w3.org/2000/svg" viewBox="0 0 122.88 122.88"><defs><style>.cls-1{fill:#262626;fill-rule:evenodd;}.cls-2{fill:#d8453e;}</style></defs><title>keep-quiet</title><path class="cls-1" d="M58.2,82.31a16.67,16.67,0,0,1,1.86-.41c3.72-.53,4.55-4,2-7.12,3.42-4.22.86-6.11-2.94-8.72-2.41-1.66-1.69-3.25.47-4.17,4.58-1.52,6.18-3.16,6.16-5.54,0-6.46-11.45-11.3-14-18.23a14.11,14.11,0,0,1-.51-1.78,10.08,10.08,0,0,1,0-4.67c.42-2.07-1.34-5.1.63-5.89,6.43-2.6,7.54-9.25,6.24-14.73A50.51,50.51,0,0,0,23,94.21a51.08,51.08,0,0,0,10.12,9.06,7,7,0,0,1,1.35-2.88c4.65-5.2,19.74,2.43,23.12-6.55.94-2.51.07-5.75-.4-8.28-.29-1.53-.32-2.61,1-3.25Z"/><path class="cls-1" d="M65.16,91.26,72,55.74c1-4.5,8.08-4,6.53,2.84L76.9,73.71c3.24-4.36,9.72-2.1,7.06,4.88,3.64-3.84,9.57-1.39,6.85,5.91,3.84-4.83,8.34-1.81,7.29,4.13l-1.63,9.19c-.73.71-1.49,1.39-2.26,2.05a50.37,50.37,0,0,1-28.82,11.92c-.88-8.05-1.36-12-.23-20.53Zm22.26,25.86c-.24.35-.54.4-1.08.49l1.08-.49Z"/><path class="cls-2" d="M66.3.2a61.43,61.43,0,0,1-9.47,122.5,4.73,4.73,0,0,1-.53,0A61.45,61.45,0,0,1,.18,56.83a4.73,4.73,0,0,1,0-.53A61.45,61.45,0,0,1,66.3.2ZM99.87,28.67a50.52,50.52,0,1,0,11.91,36.77A50.36,50.36,0,0,0,99.87,28.67Z"/></svg>