<svg xmlns="http://www.w3.org/2000/svg" shape-rendering="geometricPrecision" text-rendering="geometricPrecision" image-rendering="optimizeQuality" fill-rule="evenodd" clip-rule="evenodd" viewBox="0 0 512 512"><path fill-rule="nonzero" d="M256 0c70.69 0 134.69 28.66 181.02 74.98C483.34 121.31 512 185.31 512 256c0 70.69-28.66 134.69-74.98 181.02C390.69 483.34 326.69 512 256 512c-70.69 0-134.69-28.66-181.02-74.98C28.66 390.69 0 326.69 0 256c0-70.69 28.66-134.69 74.98-181.02C121.31 28.66 185.31 0 256 0zm-24.36 259.76-32.03 103.96h112.74L282.7 258.6c18.83-9.68 31.7-29.3 31.7-51.93 0-32.27-26.15-58.39-58.42-58.39-32.25 0-58.38 26.12-58.38 58.39-.02 23.55 13.94 43.84 34.04 53.09zm177.67-157.07C370.08 63.45 315.87 39.18 256 39.18c-59.87 0-114.08 24.27-153.31 63.51C63.45 141.92 39.18 196.13 39.18 256c0 59.87 24.27 114.08 63.51 153.31 39.23 39.24 93.44 63.51 153.31 63.51 59.87 0 114.08-24.27 153.31-63.51 39.24-39.23 63.51-93.44 63.51-153.31 0-59.87-24.27-114.08-63.51-153.31z"/></svg>