<svg xmlns="http://www.w3.org/2000/svg" shape-rendering="geometricPrecision" text-rendering="geometricPrecision" image-rendering="optimizeQuality" fill-rule="evenodd" clip-rule="evenodd" viewBox="0 0 493.94 493.94"><path fill-rule="nonzero" d="M169.592 169.708a118.076 118.076 0 0110.743-21.13 118.87 118.87 0 0115.931-19.778l93.956-93.957C313.45 11.616 344.059 0 374.66 0c66.109 0 119.28 53.171 119.28 119.281 0 30.6-11.615 61.209-34.843 84.437l-93.957 93.957a118.264 118.264 0 01-40.919 26.689 118.694 118.694 0 01-10.348 20.472 118.814 118.814 0 01-16.368 20.474l-93.956 93.956c-46.228 46.228-122.647 46.23-168.873 0-46.23-46.226-46.228-122.647 0-168.875l93.956-93.956c12.018-12.019 26.012-20.927 40.96-26.727zm75.14 157.28l-84.346 84.346c-11.15 11.15-25.842 16.728-40.524 16.728-31.72 0-57.254-25.533-57.254-57.253 0-14.683 5.579-29.374 16.729-40.525l92.039-92.039c8.705-8.705 19.723-14.325 31.886-16.233 24.722-3.881 36.288 5.7 47.933 15.352 6.202 5.141 12.439 10.311 20.875 12.017 6.803 1.378 13.982.974 20.71-1.018 5.445-1.615 10.563-4.276 14.909-7.879-28.304-67.06-116.542-83.226-167.385-32.377l-93.957 93.956c-39.812 39.812-39.813 105.721 0 145.532 39.81 39.813 105.719 39.811 145.53 0l93.957-93.957c5.489-5.489 10.194-11.39 14.108-17.573a100.46 100.46 0 003.352-5.701 120.623 120.623 0 01-58.562-3.376zm75.451-98.792l82.163-82.165c7.924-7.925 11.89-18.387 11.89-28.853a40.603 40.603 0 00-40.743-40.743c-10.466 0-20.929 3.966-28.854 11.89l-83.345 83.346c25.743 11.292 46.54 31.355 58.889 56.525zm-76.184-62.573l88.969-88.97c11.15-11.15 25.842-16.729 40.525-16.729 31.72 0 57.253 25.535 57.253 57.254 0 14.683-5.578 29.374-16.729 40.525l-83.199 83.2c-10.659 10.659-17.446 18.534-33.395 23.259-9.199 2.724-19.102 3.259-28.576 1.34-12.626-2.555-20.415-9.012-28.163-15.434-8.797-7.291-17.537-14.531-34.907-11.804-8.353 1.312-16.112 5.257-22.186 11.119 4.251 12.325 12.406 24.34 22.554 34.609 11.027 11.164 24.271 20.147 37.331 25.167 18.72 7.196 39.19 8.741 58.7 4.636 18.81-3.959 36.726-13.225 51.293-27.792l93.956-93.956c20.002-20.002 30.005-46.382 30.005-72.766 0-57.001-45.77-102.77-102.77-102.77-26.384 0-52.765 10.002-72.767 30.004l-93.956 93.956a102.379 102.379 0 00-13.737 17.005 103.555 103.555 0 00-3.711 6.245c17.69-3.37 36.104-2.722 53.51 1.902zm-73.086 96.429l-79.904 79.904c-7.925 7.924-11.89 18.387-11.89 28.853a40.605 40.605 0 0040.743 40.743c10.466 0 20.928-3.966 28.853-11.89l79.381-79.38c-12.016-6.051-23.704-14.639-33.688-24.746-9.814-9.932-18.071-21.41-23.495-33.484z"/></svg>