<svg width="30" height="30" viewBox="0 0 30 30" fill="currentColor" xmlns="http://www.w3.org/2000/svg">
<path d="M16.3919 7.77182C17.9613 6.355 20.3868 6.40184 21.8988 7.91342C23.4601 9.47476 23.4597 12.0081 21.8988 13.5697L21.8998 13.5706L20.1966 15.2748L18.7816 13.8607L20.4847 12.1576C21.2651 11.3771 21.2651 10.1089 20.4847 9.32846C19.7055 8.54927 18.4373 8.54779 17.6566 9.32749L17.6576 9.32846L14.8285 12.1576L14.8275 12.1566C14.0478 12.9373 14.0493 14.2055 14.8285 14.9847L13.4134 16.3988C11.8532 14.8381 11.8538 12.3047 13.4134 10.7435L16.2425 7.91342L16.3919 7.77182Z" fill="currentColor"/>
<path d="M16.8988 13.914C18.4603 15.4755 18.4603 18.0097 16.8988 19.5712L14.0706 22.3993C12.5091 23.9605 9.97483 23.9607 8.41342 22.3993C6.85287 20.8386 6.85353 18.3043 8.41342 16.7431L10.1175 15.039L11.5326 16.453L9.82846 18.1571C9.04855 18.9379 9.0492 20.206 9.82846 20.9853C10.6089 21.7653 11.8762 21.7653 12.6566 20.9853L15.4847 18.1571C16.2652 17.3767 16.2652 16.1085 15.4847 15.328L16.8988 13.914Z" fill="currentColor"/>
</svg>
