<svg width="30" height="30" viewBox="0 0 30 30" fill="currentColor" xmlns="http://www.w3.org/2000/svg">
<path d="M13.249 4.646C14.057 4.526 14.813 5.075 14.949 5.881C15.084 6.687 14.549 7.453 13.746 7.604C10.139 8.216 7.499 11.341 7.5 15C7.5 19.142 10.858 22.5 15 22.5V25.5C9.201 25.5 4.5 20.8 4.5 15C4.5 9.855 8.226 5.49 13.249 4.646Z" fill="url(#paint0_linear_3_2087)"/>
<path d="M19.892 7.29801C20.158 7.00201 20.53 6.82301 20.928 6.80101C21.325 6.78001 21.715 6.91701 22.011 7.18301C24.234 9.17301 25.503 12.016 25.5 15C25.5 20.8 20.799 25.5 15 25.5V22.5C18.108 22.5 20.894 20.583 22.005 17.681C23.116 14.778 22.321 11.491 20.007 9.41601C19.39 8.86301 19.339 7.91501 19.892 7.29801Z" fill="url(#paint1_linear_3_2087)"/>
<defs>
<linearGradient id="paint0_linear_3_2087" x1="9.75" y1="5.73568" x2="9.75" y2="23.7886" gradientUnits="userSpaceOnUse">
<stop stop-color="#818181"/>
<stop offset="1" stop-color="#818181" stop-opacity="0.55"/>
</linearGradient>
<linearGradient id="paint1_linear_3_2087" x1="20.25" y1="9.64147" x2="20.25" y2="23.1063" gradientUnits="userSpaceOnUse">
<stop stop-color="#818181" stop-opacity="0"/>
<stop offset="1" stop-color="#818181" stop-opacity="0.55"/>
</linearGradient>
</defs>
</svg>
