<?xml version="1.0" encoding="utf-8"?><svg version="1.1" id="Layer_1" xmlns="http://www.w3.org/2000/svg" xmlns:xlink="http://www.w3.org/1999/xlink" x="0px" y="0px" width="122.315px" height="122.88px" viewBox="0 0 122.315 122.88" enable-background="new 0 0 122.315 122.88" xml:space="preserve"><g><path fill-rule="evenodd" clip-rule="evenodd" d="M94.754,14.534c8.844,0,16.014,7.17,16.014,16.012 c0,8.844-7.17,16.015-16.014,16.015c-8.843,0-16.013-7.17-16.013-16.015C78.741,21.704,85.911,14.534,94.754,14.534L94.754,14.534z M109.265,52.121c-7.205,0-13.049,5.844-13.049,13.048c0,7.207,5.844,13.049,13.049,13.051c7.207,0,13.051-5.844,13.051-13.051 C122.315,57.965,116.472,52.121,109.265,52.121L109.265,52.121z M94.135,89.903c-5.032,0-9.114,4.082-9.114,9.113 c0,5.032,4.082,9.114,9.114,9.114c5.031,0,9.113-4.082,9.113-9.114C103.248,93.985,99.166,89.903,94.135,89.903L94.135,89.903z M59.275,104.65c-5.032,0-9.114,4.081-9.114,9.113c0,5.034,4.082,9.116,9.114,9.116s9.113-4.082,9.113-9.116 C68.389,108.731,64.308,104.65,59.275,104.65L59.275,104.65z M23.652,90.86c-4.717,0-8.54,3.823-8.54,8.54 c0,4.715,3.823,8.54,8.54,8.54c4.714,0,8.538-3.825,8.538-8.54C32.19,94.684,28.366,90.86,23.652,90.86L23.652,90.86z M9.096,54.872C4.072,54.872,0,58.944,0,63.968c0,5.021,4.072,9.093,9.096,9.093c5.021,0,9.093-4.072,9.093-9.093 C18.189,58.944,14.116,54.872,9.096,54.872L9.096,54.872z M23.652,17.026c-6.354,0-11.508,5.155-11.508,11.509 s5.154,11.506,11.508,11.506s11.506-5.152,11.506-11.506S30.006,17.026,23.652,17.026L23.652,17.026z M59.341,0 c-7.651,0-13.858,6.205-13.858,13.855c0,7.651,6.207,13.856,13.858,13.856s13.856-6.205,13.856-13.856 C73.197,6.205,66.992,0,59.341,0L59.341,0z"/></g></svg>