<svg width="30" xmlns="http://www.w3.org/2000/svg" height="30" id="screenshot-8e87877b-2b53-8047-8006-947acf5b8a13" viewBox="0 0 30 30" xmlns:xlink="http://www.w3.org/1999/xlink" fill="none" version="1.1"><g id="shape-8e87877b-2b53-8047-8006-947acf5b8a13"><defs><clipPath id="frame-clip-8e87877b-2b53-8047-8006-947acf5b8a13-render-1" class="frame-clip frame-clip-def"><rect rx="0" ry="0" x="0" y="0" width="30" height="30" transform="matrix(1.000000, 0.000000, 0.000000, 1.000000, 0.000000, 0.000000)"/></clipPath></defs><g class="frame-container-wrapper"><g class="frame-container-blur"><g class="frame-container-shadows"><g clip-path="url(#frame-clip-8e87877b-2b53-8047-8006-947acf5b8a13-render-1)" fill="none"><g class="fills" id="fills-8e87877b-2b53-8047-8006-947acf5b8a13"><rect rx="0" ry="0" x="0" y="0" width="30" height="30" transform="matrix(1.000000, 0.000000, 0.000000, 1.000000, 0.000000, 0.000000)" class="frame-background"/></g><g class="frame-children"><g id="shape-8e87877b-2b53-8047-8006-947ad9d47125"><g class="fills" id="fills-8e87877b-2b53-8047-8006-947ad9d47125"><path d="M7.355494976043701,3.8609619140625L24.25515365600586,4.15594482421875C24.71010971069336,4.16387939453125,25.12258529663086,4.3572998046875,25.41830062866211,4.663330078125L25.42007064819336,4.6651611328125C25.71578598022461,4.97119140625,25.89486312866211,5.3897705078125,25.88692855834961,5.84454345703125L25.58755111694336,22.99322509765625C25.57961654663086,23.4478759765625,25.38607406616211,23.85992431640625,25.07986068725586,24.155517578125L25.07802963256836,24.1572265625C24.77181625366211,24.45269775390625,24.35287094116211,24.63165283203125,23.89791488647461,24.62371826171875L22.28365707397461,24.59552001953125L21.59048080444336,26.11279296875L19.72372055053711,26.0802001953125L19.05172348022461,24.53912353515625L12.29409408569336,24.421142578125L11.60091781616211,25.93841552734375L9.73415756225586,25.90582275390625L9.06216049194336,24.36474609375L6.998256206512451,24.3287353515625C6.543239116668701,24.32080078125,6.130824565887451,24.1273193359375,5.835109233856201,23.82135009765625L5.833339214324951,23.81951904296875C5.537623882293701,23.51348876953125,5.358546733856201,23.09490966796875,5.366481304168701,22.6402587890625L5.392543315887451,21.1453857421875L5.028895854949951,21.1390380859375C4.803187847137451,21.13507080078125,4.620082378387451,20.94744873046875,4.624049663543701,20.7200927734375L4.716151714324951,15.44244384765625C4.720118999481201,15.2169189453125,4.907924175262451,15.03387451171875,5.135402202606201,15.037841796875L5.499049663543701,15.044189453125L5.540675640106201,12.661376953125L5.176967144012451,12.655029296875C4.951259136199951,12.65106201171875,4.768153667449951,12.4635009765625,4.772120952606201,12.236083984375L4.864284038543701,6.9566650390625C4.868251323699951,6.73114013671875,5.055995464324951,6.54815673828125,5.283534526824951,6.5521240234375L5.647181987762451,6.5584716796875L5.665797710418701,5.4915771484375C5.673732280731201,5.03680419921875,5.867335796356201,4.62469482421875,6.173549175262451,4.3292236328125L6.175380229949951,4.32745361328125C6.481593608856201,4.03192138671875,6.900538921356201,3.85302734375,7.355494976043701,3.8609619140625ZM6.285548686981201,15.05792236328125L6.681483745574951,15.0648193359375C6.907313823699951,15.06878662109375,7.090358257293701,15.25640869140625,7.086390972137451,15.48382568359375L6.994288921356201,20.76324462890625C6.990321636199951,20.98883056640625,6.802516460418701,21.1717529296875,6.574977397918701,21.16778564453125L6.179042339324951,21.160888671875L6.152919292449951,22.65576171875C6.148768901824951,22.8956298828125,6.243434429168701,23.11572265625,6.396632671356201,23.2760009765625L6.398341655731201,23.27783203125C6.553309917449951,23.43804931640625,6.770106792449951,23.53857421875,7.010219097137451,23.542724609375L23.90981674194336,23.83770751953125C24.14986801147461,23.8419189453125,24.37014389038086,23.747314453125,24.53048324584961,23.59429931640625L24.53231430053711,23.59259033203125C24.69271469116211,23.437744140625,24.79330062866211,23.2210693359375,24.79751205444336,22.981201171875L25.09682846069336,5.83074951171875C25.10103988647461,5.5908203125,25.00631332397461,5.37066650390625,24.85317611694336,5.21044921875L24.85140609741211,5.2086181640625C24.69649887084961,5.04827880859375,24.47964096069336,4.94781494140625,24.23958969116211,4.943603515625L7.341762065887451,4.648681640625C7.101710796356201,4.64447021484375,6.881434917449951,4.73907470703125,6.721095561981201,4.89215087890625L6.719264507293701,4.8939208984375C6.558803081512451,5.04864501953125,6.458339214324951,5.26544189453125,6.454127788543701,5.50531005859375L6.435512065887451,6.572265625L6.831447124481201,6.57916259765625C7.057155132293701,6.58306884765625,7.240199565887451,6.770751953125,7.236232280731201,6.99810791015625L7.144069194793701,12.2774658203125C7.140162944793701,12.50311279296875,6.952357769012451,12.68603515625,6.724940776824951,12.68206787109375L6.327174663543701,12.67510986328125Z" fill="currentColor"/></g></g><g id="shape-8e87877b-2b53-8047-8006-947ad9d47126"><g class="fills" id="fills-8e87877b-2b53-8047-8006-947ad9d47126"><path d="M22.19973373413086,12.64007568359375C22.50735092163086,10.80487060546875,21.12258529663086,9.791259765625,19.21718978881836,9.0980224609375L19.88247299194336,6.61627197265625L18.37075424194336,6.211669921875L17.72298812866211,8.6279296875C17.32564926147461,8.5216064453125,16.91732406616211,8.420654296875,16.51156234741211,8.3206787109375L17.16390609741211,5.88848876953125L15.65310287475586,5.48388671875L14.98733139038086,7.96466064453125C14.65822982788086,7.88372802734375,14.33517074584961,7.8037109375,14.02175521850586,7.719970703125L14.02364730834961,7.7122802734375L11.93880844116211,7.1533203125L11.50667953491211,8.7667236328125C11.50667953491211,8.7667236328125,12.62862777709961,9.04443359375,12.60464096069336,9.0599365234375C13.21688461303711,9.22406005859375,13.32088851928711,9.6326904296875,13.29671859741211,9.95465087890625L12.53878402709961,12.78179931640625C12.58095932006836,12.7933349609375,12.63558578491211,12.80987548828125,12.69576644897461,12.8350830078125C12.64535140991211,12.82171630859375,12.59157943725586,12.806884765625,12.53597640991211,12.79254150390625L11.47365951538086,16.75299072265625C11.39516830444336,16.93841552734375,11.19961166381836,17.21502685546875,10.77157211303711,17.10125732421875C10.78640365600586,17.12353515625,9.67287826538086,16.8067626953125,9.67287826538086,16.8067626953125L8.88875961303711,18.5302734375L10.85598373413086,19.05694580078125C11.22195053100586,19.1553955078125,11.58047103881836,19.258056640625,11.93355941772461,19.35504150390625L11.26119613647461,21.8651123046875L12.77114486694336,22.2696533203125L13.43697738647461,19.78631591796875C13.84926986694336,19.90582275390625,14.24966049194336,20.0166015625,14.64150619506836,20.12109375L13.97799301147461,22.59283447265625L15.48971176147461,22.99749755859375L16.16195297241211,20.49212646484375C18.74239730834961,21.0269775390625,20.69271469116211,20.86346435546875,21.55306625366211,18.53778076171875C22.24630355834961,16.665283203125,21.57204818725586,15.56634521484375,20.22219467163086,14.8338623046875C21.21822738647461,14.6226806640625,21.97683334350586,13.98358154296875,22.19973373413086,12.64007568359375ZM18.64590072631836,17.4405517578125C18.14376449584961,19.31646728515625,14.98702621459961,18.24249267578125,13.96224594116211,17.9691162109375L14.85427474975586,14.64373779296875C15.87905502319336,14.91845703125,19.17049789428711,15.48419189453125,18.64590072631836,17.4405517578125ZM19.20077133178711,12.56048583984375C18.74276351928711,14.266845703125,16.11574935913086,13.3499755859375,15.26235580444336,13.12158203125L16.07119369506836,10.10552978515625C16.92446517944336,10.33392333984375,19.67788314819336,10.78057861328125,19.20077133178711,12.56048583984375Z" fill="currentColor"/></g></g></g></g></g></g></g></g></svg>