<svg id="Layer_1" data-name="Layer 1" xmlns="http://www.w3.org/2000/svg" viewBox="0 0 122.88 122.88"><defs><style>.cls-1{fill:#fff;}.cls-2{fill-rule:evenodd;}.cls-3{fill:#d92d27;}</style></defs><title>no-photography</title><path class="cls-1" d="M21.2,32.93,90,101.68A49.29,49.29,0,0,1,12.13,61.44h0A49.12,49.12,0,0,1,21.2,32.93ZM98.92,93.5,29.39,24A49.31,49.31,0,0,1,98.92,93.5Z"/><path class="cls-2" d="M52.82,34.64H78.61L84.48,45.1H96.59a1.18,1.18,0,0,1,1.17,1.17V87.1a1.19,1.19,0,0,1-1.17,1.17H26.29a1.18,1.18,0,0,1-1.17-1.17V46.27a1.18,1.18,0,0,1,1.17-1.17h5.44V41.35h6.73V45.1h7.31q2.28-4.5,4.55-9c.93-1.83.42-1.46,2.5-1.46ZM90.18,50.27a3.49,3.49,0,1,1-3.49,3.49,3.49,3.49,0,0,1,3.49-3.49ZM64.51,54.33A10.57,10.57,0,1,1,53.94,64.9,10.58,10.58,0,0,1,64.51,54.33Zm0-6.88A17.46,17.46,0,1,1,47.06,64.91,17.46,17.46,0,0,1,64.51,47.45Z"/><path class="cls-3" d="M61.44,0A61.31,61.31,0,1,0,84.93,4.66,61.29,61.29,0,0,0,61.44,0ZM21.2,32.93,90,101.68A49.44,49.44,0,0,1,42.57,107,49.53,49.53,0,0,1,15.86,80.3a49,49,0,0,1-3.73-18.86h0A48.93,48.93,0,0,1,21.2,32.93ZM98.92,93.5,29.38,24A49.32,49.32,0,0,1,98.92,93.5Z"/></svg>