<?xml version="1.0" encoding="UTF-8" standalone="no"?>
<svg
   version="1.1"
   id="Layer_1"
   x="0px"
   y="0px"
   viewBox="0 0 122.62001 122.62001"
   xml:space="preserve"
   sodipodi:docname="no-typing-icon.svg"
   width="122.62"
   height="122.62"
   inkscape:version="1.1.2 (0a00cf5339, 2022-02-04)"
   xmlns:inkscape="http://www.inkscape.org/namespaces/inkscape"
   xmlns:sodipodi="http://sodipodi.sourceforge.net/DTD/sodipodi-0.dtd"
   xmlns="http://www.w3.org/2000/svg"
   xmlns:svg="http://www.w3.org/2000/svg"><defs
     id="defs9"><style
       id="style826">.cls-1{fill:#fff;}.cls-2{fill-rule:evenodd;}.cls-3{fill:#d92d27;}</style></defs><sodipodi:namedview
     id="namedview7"
     pagecolor="#ffffff"
     bordercolor="#999999"
     borderopacity="1"
     inkscape:pageshadow="0"
     inkscape:pageopacity="0"
     inkscape:pagecheckerboard="0"
     showgrid="false"
     fit-margin-top="0"
     fit-margin-left="0"
     fit-margin-right="0"
     fit-margin-bottom="0"
     inkscape:zoom="2.3553159"
     inkscape:cx="160.27574"
     inkscape:cy="43.730864"
     inkscape:window-width="1920"
     inkscape:window-height="1007"
     inkscape:window-x="0"
     inkscape:window-y="0"
     inkscape:window-maximized="1"
     inkscape:current-layer="Layer_1" /><g
     id="g4"
     transform="matrix(0.88637436,0,0,0.88637436,8.6304843,24.961112)"><path
       d="m 19.05,50.25 c 0.83,-0.01 1.62,0.23 2.28,0.65 l -0.02,-1.12 c -0.02,-1.15 0.44,-2.19 1.19,-2.95 0.75,-0.76 1.78,-1.24 2.93,-1.26 0,0 0,0 0.01,0 0.85,-0.01 1.68,0.24 2.39,0.72 l -0.01,-0.9 c -0.02,-1.15 0.44,-2.19 1.19,-2.95 0.75,-0.76 1.78,-1.24 2.93,-1.26 1.15,-0.02 2.19,0.44 2.95,1.19 0.76,0.75 1.24,1.78 1.26,2.93 v 0.91 c 0.66,-0.46 1.46,-0.74 2.32,-0.75 1.15,-0.02 2.19,0.44 2.95,1.19 0.76,0.75 1.24,1.78 1.26,2.93 l 0.24,15.2 c 0.06,0.35 0.09,0.69 0.09,1.04 v 0 l 0.02,1.16 0.1,-0.1 c 0.71,-0.68 1.4,-1.39 1.66,-1.66 1.75,-1.8 3.66,-2.2 5.18,-1.73 0.68,0.21 1.29,0.59 1.76,1.1 0.47,0.5 0.82,1.14 1,1.84 0.42,1.68 -0.09,3.8 -2.16,5.69 -3.38,3.38 -5.56,7.27 -9.64,10.28 l 0.13,1.13 h 0.09 l 1.01,7.89 H 17.08 l 1.14,-7.89 h 0.12 l 0.17,-1.22 c -1.3,-2.79 -3.24,-5.3 -3.28,-8.36 -0.1,-8.02 -0.19,-11.46 -0.29,-19.48 -0.02,-1.15 0.44,-2.19 1.19,-2.95 0.74,-0.77 1.77,-1.25 2.92,-1.27 z m 75.98,5.25 c -0.83,-0.01 -1.62,0.23 -2.28,0.65 l 0.02,-1.12 c 0.02,-1.15 -0.44,-2.19 -1.19,-2.95 -0.75,-0.76 -1.78,-1.24 -2.93,-1.26 0,0 0,0 -0.01,0 -0.85,-0.01 -1.68,0.24 -2.39,0.72 l 0.01,-0.9 c 0.02,-1.15 -0.44,-2.19 -1.19,-2.95 -0.75,-0.76 -1.78,-1.24 -2.93,-1.26 -1.15,-0.02 -2.19,0.44 -2.95,1.19 -0.76,0.74 -1.24,1.78 -1.26,2.93 v 0.91 C 77.27,51 76.47,50.72 75.61,50.71 c -1.15,-0.02 -2.19,0.44 -2.95,1.19 -0.76,0.75 -1.24,1.78 -1.26,2.93 l -0.24,15.2 c -0.05,0.34 -0.09,0.69 -0.09,1.04 v 0 l -0.02,1.16 -0.1,-0.1 c -0.71,-0.68 -1.4,-1.39 -1.66,-1.66 -1.75,-1.8 -3.66,-2.2 -5.18,-1.74 -0.68,0.21 -1.29,0.59 -1.76,1.1 -0.47,0.5 -0.82,1.14 -1,1.84 -0.42,1.68 0.09,3.8 2.16,5.69 3.38,3.38 5.56,7.27 9.64,10.28 l -0.13,1.13 h -0.09 l -1.01,7.89 h 25.05 l -1.13,-7.89 h -0.12 l -0.17,-1.23 c 1.3,-2.79 3.24,-5.3 3.28,-8.36 0.1,-8.02 0.2,-11.46 0.29,-19.48 0.02,-1.15 -0.44,-2.19 -1.19,-2.95 -0.72,-0.76 -1.75,-1.24 -2.9,-1.25 z m 0.03,-43.26 c 0.08,-1.55 0.32,-3.09 0.55,-4.66 0.5,-3.3 1.01,-1.88 -0.11,-5.02 -0.36,-0.99 0.16,-2.09 1.15,-2.44 0.99,-0.36 2.09,0.16 2.44,1.15 1.46,4.07 0.88,3.12 0.31,6.88 -0.21,1.39 -0.42,2.76 -0.5,4.09 v 0 c 0.99,0 1.89,0.4 2.54,1.05 0.05,0.05 0.1,0.1 0.14,0.16 0.57,0.64 0.91,1.47 0.91,2.38 v 0.19 h 11.33 c 2.49,0 4.76,1.02 6.4,2.66 1.64,1.64 2.66,3.91 2.66,6.4 v 41.35 c 0,2.49 -1.02,4.76 -2.66,6.4 -1.64,1.64 -3.91,2.66 -6.4,2.66 h -11.64 c 0.02,-1.37 0.04,-2.62 0.06,-3.82 h 11.58 c 1.44,0 2.74,-0.59 3.69,-1.54 0.95,-0.95 1.54,-2.25 1.54,-3.69 V 25.09 c 0,-1.44 -0.59,-2.74 -1.54,-3.69 -0.95,-0.95 -2.25,-1.54 -3.69,-1.54 h -13.24 c -1.06,0 -1.92,-0.86 -1.92,-1.92 v -1.87 h -4.49 v 1.87 c 0,1.06 -0.86,1.92 -1.92,1.92 v 0 H 9.06 c -1.44,0 -2.74,0.59 -3.69,1.54 -0.95,0.95 -1.54,2.25 -1.54,3.69 v 41.35 c 0,1.44 0.59,2.74 1.54,3.69 0.95,0.95 2.25,1.54 3.69,1.54 h 2.85 l 0.03,2.3 c 0.01,0.53 0.05,1.03 0.12,1.52 h -3 C 6.57,75.49 4.3,74.47 2.66,72.83 1.02,71.2 0,68.93 0,66.44 V 25.09 c 0,-2.49 1.02,-4.76 2.66,-6.4 1.64,-1.64 3.91,-2.66 6.4,-2.66 h 81.27 v -0.19 c 0,-0.98 0.4,-1.88 1.05,-2.53 v 0 0 0 c 0.65,-0.65 1.55,-1.05 2.53,-1.05 h 1.15 z M 58.41,75.49 h -6.52 c 0.31,-0.34 0.64,-0.68 0.98,-1.02 l -0.01,-0.01 c 0.95,-0.89 1.67,-1.83 2.19,-2.79 h 2.98 c -0.18,1.21 -0.07,2.51 0.38,3.82 z M 12.26,25.75 h 7.75 c 1.06,0 1.92,0.86 1.92,1.92 v 6.54 c 0,1.06 -0.86,1.92 -1.92,1.92 h -7.75 c -1.06,0 -1.92,-0.86 -1.92,-1.92 v -6.54 c 0,-1.06 0.86,-1.92 1.92,-1.92 z m 15.35,0 h 7.75 c 1.06,0 1.92,0.86 1.92,1.92 v 6.54 c 0,1.06 -0.86,1.92 -1.92,1.92 h -7.75 c -1.06,0 -1.92,-0.86 -1.92,-1.92 v -6.54 c 0,-1.06 0.86,-1.92 1.92,-1.92 z m 15.36,0 h 7.75 c 1.06,0 1.92,0.86 1.92,1.92 v 6.54 c 0,1.06 -0.86,1.92 -1.92,1.92 h -7.75 c -1.06,0 -1.92,-0.86 -1.92,-1.92 v -6.54 c 0,-1.06 0.86,-1.92 1.92,-1.92 z m 15.36,0 h 7.75 c 1.06,0 1.92,0.86 1.92,1.92 v 6.54 c 0,1.06 -0.86,1.92 -1.92,1.92 h -7.75 c -1.06,0 -1.92,-0.86 -1.92,-1.92 v -6.54 c 0,-1.06 0.85,-1.92 1.92,-1.92 z m 15.36,0 h 7.75 c 1.06,0 1.92,0.86 1.92,1.92 v 6.54 c 0,1.06 -0.86,1.92 -1.92,1.92 h -7.75 c -1.06,0 -1.92,-0.86 -1.92,-1.92 v -6.54 c 0,-1.06 0.86,-1.92 1.92,-1.92 z m 15.35,0 h 7.75 c 1.06,0 1.92,0.86 1.92,1.92 v 6.54 c 0,1.06 -0.86,1.92 -1.92,1.92 h -7.75 c -1.06,0 -1.92,-0.86 -1.92,-1.92 v -6.54 c 0.01,-1.06 0.87,-1.92 1.92,-1.92 z m 15.36,0 h 7.75 c 1.06,0 1.92,0.86 1.92,1.92 v 6.54 c 0,1.06 -0.86,1.92 -1.92,1.92 h -7.75 c -1.06,0 -1.92,-0.86 -1.92,-1.92 v -6.54 c 0,-1.06 0.86,-1.92 1.92,-1.92 z m 0,14.12 h 7.75 c 1.06,0 1.92,0.87 1.92,1.94 v 20.68 c 0,1.07 -0.86,1.94 -1.92,1.94 h -7.75 c -1.06,0 -1.92,-0.87 -1.92,-1.94 V 41.81 c 0,-1.07 0.86,-1.94 1.92,-1.94 z m -92.14,0.17 h 7.75 c 1.06,0 1.92,0.86 1.92,1.92 v 1.24 c -0.66,0.36 -1.26,0.81 -1.78,1.35 -0.68,0.7 -1.23,1.53 -1.6,2.45 -1.87,0.15 -3.54,0.98 -4.77,2.24 -0.35,0.36 -0.67,0.76 -0.95,1.19 h -0.57 c -1.06,0 -1.92,-0.86 -1.92,-1.92 v -6.54 c 0,-1.07 0.86,-1.93 1.92,-1.93 z m 30.71,0 h 7.75 c 1.06,0 1.92,0.86 1.92,1.92 v 6.54 c 0,1.06 -0.86,1.92 -1.92,1.92 H 45.98 L 45.97,49.58 C 45.96,48.56 45.74,47.6 45.37,46.73 44.98,45.82 44.41,45 43.72,44.32 43.02,43.63 42.19,43.08 41.27,42.71 41.2,42.68 41.13,42.65 41.05,42.63 v -0.68 c 0,-1.05 0.86,-1.91 1.92,-1.91 z m 15.36,0 h 7.75 c 1.06,0 1.92,0.86 1.92,1.92 v 6.54 c 0,1.06 -0.86,1.92 -1.92,1.92 h -7.75 c -1.06,0 -1.92,-0.86 -1.92,-1.92 v -6.54 c 0,-1.06 0.85,-1.92 1.92,-1.92 z m 15.36,0 h 7.75 c 1.06,0 1.92,0.86 1.92,1.92 v 1.31 c -0.38,-0.06 -0.77,-0.1 -1.17,-0.1 -1.02,-0.01 -1.98,0.18 -2.86,0.53 -0.92,0.37 -1.75,0.92 -2.46,1.61 -0.62,0.61 -1.14,1.33 -1.52,2.14 -0.9,0.03 -1.75,0.21 -2.54,0.53 -0.36,0.15 -0.71,0.32 -1.04,0.52 v -6.52 c 0,-1.08 0.86,-1.94 1.92,-1.94 z m 15.35,0 h 7.75 c 1.06,0 1.92,0.86 1.92,1.92 v 6.54 c 0,1.06 -0.86,1.92 -1.92,1.92 h -2.3 C 94.32,50.2 94.13,49.99 93.94,49.79 93.26,49.1 92.44,48.53 91.53,48.14 90.73,47.8 89.85,47.59 88.92,47.55 88.56,46.75 88.06,46.03 87.45,45.41 87.34,45.3 87.24,45.2 87.12,45.1 v -3.13 c 0.01,-1.07 0.87,-1.93 1.92,-1.93 z M 11.8,64.5 C 10.96,64.29 10.34,63.54 10.34,62.63 V 56.1 c 0,-0.85 0.55,-1.57 1.31,-1.82 0,0.09 0,0.17 0,0.26 0.05,4.08 0.1,6.94 0.15,9.81 z M 46.04,54.18 h 20.05 c 1.05,0 1.9,0.86 1.9,1.92 v 6.54 c 0,1.06 -0.85,1.92 -1.9,1.92 H 55.54 c -0.1,-0.24 -0.21,-0.48 -0.34,-0.7 -0.28,-0.52 -0.63,-1.01 -1.02,-1.45 L 54.11,62.33 C 53.67,61.85 53.17,61.44 52.62,61.1 52.1,60.77 51.51,60.51 50.88,60.31 v 0 H 50.87 C 49.43,59.87 47.83,59.86 46.2,60.4 l -0.07,0.02 z m 29.04,34.6 0.21,-1.59 v 0 C 71.65,84.11 66.3,77.5 64.93,76.09 64.9,76.06 64.87,76.03 64.84,76 c -1.05,-0.95 -2,-2.4 -1.63,-3.88 0.1,-0.39 0.29,-0.74 0.54,-1.01 0.25,-0.27 0.56,-0.47 0.93,-0.58 0.9,-0.27 2.09,0.03 3.28,1.25 0.28,0.28 1,1.02 1.7,1.7 0.67,0.64 1.35,1.26 1.8,1.51 0.15,0.1 0.33,0.17 0.52,0.17 v 0 L 72.73,74.81 73,71.09 c 0.09,-6.97 0.22,-9.25 0.3,-16.24 0.01,-0.62 0.27,-1.18 0.69,-1.59 0.42,-0.41 0.99,-0.65 1.61,-0.64 0.62,0.01 1.19,0.27 1.59,0.68 0.4,0.41 0.66,0.99 0.65,1.61 l -0.16,13.57 1.96,0.02 0.22,-17.93 c 0.01,-0.62 0.27,-1.18 0.68,-1.59 0.42,-0.41 0.99,-0.66 1.61,-0.65 0.62,0.01 1.19,0.27 1.59,0.69 0.41,0.42 0.66,0.99 0.65,1.61 l -0.21,17.92 2,0.02 0.16,-13.61 c 0.01,-0.62 0.27,-1.19 0.69,-1.59 0.41,-0.41 0.98,-0.65 1.6,-0.64 0.62,0.01 1.19,0.27 1.59,0.69 0.41,0.42 0.66,0.99 0.65,1.61 l -0.17,13.61 1.89,0.02 0.11,-9 c 0.01,-0.62 0.27,-1.19 0.68,-1.59 0.41,-0.4 0.99,-0.66 1.61,-0.65 0.62,0.01 1.19,0.27 1.59,0.69 0.41,0.42 0.65,0.99 0.64,1.61 l -0.11,9 c -0.06,5.02 -0.12,5.46 -0.18,10.48 -0.02,2.1 -2.22,5.83 -3.17,7.86 -0.08,0.16 -0.1,0.34 -0.08,0.51 v 0 l 0.18,1.24 H 75.08 Z M 39,83.54 38.79,81.95 v 0 c 3.64,-3.08 8.99,-9.69 10.35,-11.1 0.03,-0.03 0.06,-0.06 0.09,-0.09 1.05,-0.95 2,-2.4 1.63,-3.88 -0.1,-0.39 -0.29,-0.74 -0.54,-1.01 -0.25,-0.28 -0.56,-0.47 -0.93,-0.58 -0.9,-0.28 -2.09,0.03 -3.28,1.25 -0.27,0.28 -1,1.02 -1.7,1.7 -0.67,0.64 -1.35,1.26 -1.8,1.52 -0.15,0.1 -0.33,0.16 -0.52,0.16 v 0 l -0.75,-0.35 -0.27,-3.72 c -0.09,-6.97 -0.22,-9.24 -0.3,-16.24 -0.01,-0.62 -0.27,-1.19 -0.69,-1.59 -0.42,-0.41 -0.99,-0.65 -1.61,-0.64 -0.62,0.01 -1.19,0.27 -1.59,0.68 -0.41,0.42 -0.66,0.99 -0.65,1.61 l 0.17,13.56 -1.95,0.02 -0.22,-17.93 c -0.01,-0.62 -0.27,-1.19 -0.68,-1.59 -0.42,-0.41 -0.99,-0.66 -1.61,-0.65 -0.62,0.01 -1.19,0.27 -1.59,0.69 -0.41,0.42 -0.66,0.99 -0.65,1.61 l 0.21,17.92 -2,0.02 -0.17,-13.62 c -0.01,-0.62 -0.27,-1.18 -0.69,-1.59 -0.41,-0.41 -0.98,-0.65 -1.6,-0.64 -0.62,0.01 -1.19,0.27 -1.59,0.69 -0.41,0.42 -0.66,0.99 -0.65,1.61 l 0.17,13.61 -1.89,0.02 -0.11,-9 c -0.01,-0.62 -0.27,-1.19 -0.68,-1.59 -0.42,-0.41 -0.99,-0.66 -1.61,-0.65 -0.62,0.01 -1.19,0.27 -1.59,0.69 -0.41,0.42 -0.65,0.99 -0.64,1.61 l 0.11,9 c 0.06,5.02 0.12,5.46 0.18,10.48 0.02,2.1 2.22,5.83 3.17,7.86 0.08,0.17 0.1,0.35 0.08,0.51 v 0 l -0.18,1.24 H 39 Z"
       id="path2" /></g><path
     class="cls-3"
     d="M 61.265584,1.9097789e-5 A 61.31,61.31 0 1 0 84.755584,4.6600191 61.29,61.29 0 0 0 61.265584,1.9097789e-5 Z M 21.025584,32.930019 l 68.8,68.750001 a 49.44,49.44 0 0 1 -47.43,5.32 49.53,49.53 0 0 1 -26.71,-26.700001 49,49 0 0 1 -3.73,-18.86 v 0 a 48.93,48.93 0 0 1 9.07,-28.51 z m 77.72,60.57 -69.54,-69.5 a 49.32,49.32 0 0 1 69.54,69.5 z"
     id="path836" /></svg>
