<svg width="30" height="30" viewBox="0 0 30 30" fill="currentColor" xmlns="http://www.w3.org/2000/svg">
<path d="M15.5998 21.1004H14.3996V23.2996H15.6379C15.6154 23.171 15.5998 23.0382 15.5998 22.9002V21.1004ZM23.8 19.1004L23.9025 19.1053C24.4066 19.1566 24.8 19.5827 24.8 20.1004C24.7998 20.6179 24.4065 21.0432 23.9025 21.0945L23.8 21.1004H19.0002C18.448 21.1004 18.0004 20.6525 18.0002 20.1004C18.0002 19.5481 18.4479 19.1004 19.0002 19.1004H23.8ZM17.5998 22.9002C17.5998 22.9638 17.627 23.0501 17.7267 23.1375C17.8286 23.2267 17.9935 23.2996 18.2004 23.2996H24.5998C24.8064 23.2996 24.9705 23.2266 25.0724 23.1375C25.1723 23.0501 25.2003 22.9638 25.2004 22.9002V12.7H17.5998V22.9002ZM25.2004 6.10039C25.2004 6.03675 25.1724 5.95057 25.0724 5.86308C24.9705 5.7739 24.8066 5.7 24.5998 5.7H18.2004C17.9935 5.7 17.8287 5.77389 17.7267 5.86308C17.6271 5.95044 17.5998 6.03684 17.5998 6.10039V10.7H25.2004V6.10039ZM4.79999 18.7C4.79999 18.7636 4.82708 18.8499 4.92694 18.9373C5.02878 19.0264 5.19292 19.1003 5.3996 19.1004H15.5998V9.90019H5.3996C5.19297 9.90028 5.02879 9.9732 4.92694 10.0623C4.82719 10.1496 4.8001 10.236 4.79999 10.2996V18.7ZM27.2004 22.9002C27.2003 24.3464 25.9067 25.2996 24.5998 25.2996H9.3996C8.84749 25.2994 8.3996 24.8518 8.3996 24.2996C8.39981 23.7476 8.84762 23.2998 9.3996 23.2996H12.3996V21.1004H5.3996C4.09281 21.1002 2.79999 20.1462 2.79999 18.7V10.2996C2.80022 8.85365 4.09292 7.90038 5.3996 7.90019H15.5998V6.10039C15.5998 4.65406 16.8935 3.7 18.2004 3.7H24.5998C25.9067 3.7 27.2004 4.65406 27.2004 6.10039V22.9002Z" fill="currentColor"/>
</svg>
