<?xml version="1.0" encoding="UTF-8" standalone="no"?>
<svg
   shape-rendering="geometricPrecision"
   text-rendering="geometricPrecision"
   image-rendering="optimizeQuality"
   fill-rule="evenodd"
   clip-rule="evenodd"
   viewBox="0 0 213.25549 106.20636"
   version="1.1"
   id="svg4"
   sodipodi:docname="account-number-icon.svg"
   inkscape:version="1.2.2 (b0a8486541, 2022-12-01)"
   width="213.25549"
   height="106.20636"
   xmlns:inkscape="http://www.inkscape.org/namespaces/inkscape"
   xmlns:sodipodi="http://sodipodi.sourceforge.net/DTD/sodipodi-0.dtd"
   xmlns="http://www.w3.org/2000/svg"
   xmlns:svg="http://www.w3.org/2000/svg">
  <defs
     id="defs8" />
  <sodipodi:namedview
     id="namedview6"
     pagecolor="#ffffff"
     bordercolor="#000000"
     borderopacity="0.25"
     inkscape:showpageshadow="2"
     inkscape:pageopacity="0.0"
     inkscape:pagecheckerboard="0"
     inkscape:deskcolor="#d1d1d1"
     showgrid="false"
     showguides="true"
     inkscape:zoom="1.4852996"
     inkscape:cx="140.37572"
     inkscape:cy="64.970056"
     inkscape:window-width="1920"
     inkscape:window-height="1008"
     inkscape:window-x="0"
     inkscape:window-y="0"
     inkscape:window-maximized="1"
     inkscape:current-layer="svg4" />
  <path
     d="m 37.563896,32.949588 c 0,-3.94 3.19,-7.12 7.12,-7.12 3.93,0 7.13,3.18 7.13,7.12 v 9.21 l 7.63,-5.11 c 3.25846,-2.18163 7.66853,-1.30857 9.85,1.95 2.19,3.25 1.31,7.66 -1.95,9.85 l -9.85,6.59 9.86,6.55 c 3.27,2.17 4.17,6.58 2.01,9.85 -2.17,3.27 -6.59,4.17 -9.86,2.01 l -7.69,-5.13 v 9.24 c 0,3.94 -3.2,7.13 -7.13,7.13 -3.93,0 -7.12,-3.19 -7.12,-7.13 v -9.2 l -7.639995,5.11 c -3.26078,2.16996 -7.66194,1.29866 -9.85,-1.95 -2.18163,-3.25846 -1.30857,-7.66854 1.95,-9.85 l 9.859995,-6.59 -9.869995,-6.56 c -3.27,-2.16 -4.16,-6.57 -2,-9.85 2.17101,-3.26741 6.57659,-4.16194 9.85,-2 l 7.699995,5.12 z"
     id="path292" />
  <rect
     style="fill:none;stroke:#090909;stroke-width:10.2873;stroke-opacity:1"
     id="rect374"
     width="202.96819"
     height="95.91906"
     x="5.1436501"
     y="5.1436501"
     rx="8.2653961" />
  <path
     d="m 97.563896,32.949588 c 0,-3.94 3.190004,-7.12 7.120004,-7.12 3.93,0 7.13,3.18 7.13,7.12 v 9.21 l 7.63,-5.11 c 3.25846,-2.18163 7.66853,-1.30857 9.85,1.95 2.19,3.25 1.31,7.66 -1.95,9.85 l -9.85,6.59 9.86,6.55 c 3.27,2.17 4.17,6.58 2.01,9.85 -2.17,3.27 -6.59,4.17 -9.86,2.01 l -7.69,-5.13 v 9.24 c 0,3.94 -3.2,7.13 -7.13,7.13 -3.93,0 -7.120004,-3.19 -7.120004,-7.13 v -9.2 l -7.63999,5.11 c -3.26078,2.16996 -7.66194,1.29866 -9.85,-1.95 -2.18163,-3.25846 -1.30857,-7.66854 1.95,-9.85 l 9.85999,-6.59 -9.86999,-6.56 c -3.27,-2.16 -4.16,-6.57 -2,-9.85 2.17101,-3.26741 6.57659,-4.16194 9.85,-2 l 7.69999,5.12 z"
     id="path1127" />
  <path
     d="m 157.5639,32.949588 c 0,-3.94 3.19,-7.12 7.12,-7.12 3.93,0 7.13,3.18 7.13,7.12 v 9.21 l 7.63,-5.11 c 3.25846,-2.18163 7.66853,-1.30857 9.85,1.95 2.19,3.25 1.31,7.66 -1.95,9.85 l -9.85,6.59 9.86,6.55 c 3.27,2.17 4.17,6.58 2.01,9.85 -2.17,3.27 -6.59,4.17 -9.86,2.01 l -7.69,-5.13 v 9.24 c 0,3.94 -3.2,7.13 -7.13,7.13 -3.93,0 -7.12,-3.19 -7.12,-7.13 v -9.2 l -7.63999,5.11 c -3.26078,2.16996 -7.66194,1.29866 -9.85,-1.95 -2.18163,-3.25846 -1.30857,-7.66854 1.95,-9.85 l 9.85999,-6.59 -9.86999,-6.56 c -3.27,-2.16 -4.16,-6.57 -2,-9.85 2.17101,-3.26741 6.57659,-4.16194 9.85,-2 l 7.69999,5.12 z"
     id="path1129" />
</svg>
