<?xml version="1.0" encoding="UTF-8" standalone="no"?>
<svg
   width="30"
   height="30"
   viewBox="0 0 30 30"
   fill="currentColor"
   version="1.1"
   id="svg134"
   sodipodi:docname="pen.svg"
   xml:space="preserve"
   inkscape:version="1.2.2 (b0a8486541, 2022-12-01)"
   xmlns:inkscape="http://www.inkscape.org/namespaces/inkscape"
   xmlns:sodipodi="http://sodipodi.sourceforge.net/DTD/sodipodi-0.dtd"
   xmlns="http://www.w3.org/2000/svg"
   xmlns:svg="http://www.w3.org/2000/svg"><defs
     id="defs138" /><sodipodi:namedview
     id="namedview136"
     pagecolor="#ffffff"
     bordercolor="#000000"
     borderopacity="0.25"
     inkscape:showpageshadow="2"
     inkscape:pageopacity="0.0"
     inkscape:pagecheckerboard="0"
     inkscape:deskcolor="#d1d1d1"
     showgrid="false"
     inkscape:zoom="20.105403"
     inkscape:cx="12.782634"
     inkscape:cy="19.372902"
     inkscape:window-width="1920"
     inkscape:window-height="1008"
     inkscape:window-x="0"
     inkscape:window-y="0"
     inkscape:window-maximized="1"
     inkscape:current-layer="svg134" /><path
     fill="currentColor"
     d="m 20.440673,4.6927893 a 0.6562213,0.65622133 0 0 1 0.929209,0 l 3.937328,3.9373275 a 0.6562213,0.65622133 0 0 1 0,0.9292094 L 12.182784,22.683753 a 0.6562213,0.65622133 0 0 1 -0.22049,0.144368 L 5.4000811,25.453007 A 0.6562213,0.65622133 0 0 1 4.5469934,24.599919 l 2.6248849,-6.562213 a 0.6562213,0.65622133 0 0 1 0.144369,-0.220491 z M 19.20829,7.7822789 22.21772,10.79171 23.914709,9.0947215 20.905278,6.0852905 Z m 2.081533,3.9373281 -3.00943,-3.0094312 -8.5308767,8.5308772 v 0.384546 h 0.6562207 a 0.6562213,0.65622133 0 0 1 0.656221,0.656221 v 0.656221 h 0.656222 a 0.6562213,0.65622133 0 0 1 0.656221,0.656222 v 0.656221 h 0.384546 z M 8.4790713,18.511498 8.3399523,18.650616 6.3345402,23.66546 11.349383,21.660047 11.488502,21.520929 A 0.6562213,0.65622133 0 0 1 11.061958,20.906705 V 20.250484 H 10.405737 A 0.6562213,0.65622133 0 0 1 9.7495163,19.594263 v -0.656222 h -0.656222 a 0.6562213,0.65622133 0 0 1 -0.614223,-0.426543"
     id="path1019"
     style="stroke-width:1.31244" /></svg>
