<svg width="30" height="30" viewBox="0 0 30 30" fill="currentColor" xmlns="http://www.w3.org/2000/svg">
<path d="M20.251 3.29104C24.1469 -0.604274 29.8021 5.75883 26.2607 9.3008L11.0303 24.5313L2.18164 27.7246L5.02051 18.5215L20.251 3.29104ZM6.92969 19.4405C6.87775 19.4924 6.82845 19.5407 6.78418 19.585L5.27441 24.4815L9.93164 22.8008C9.98885 22.7436 10.0546 22.6788 10.126 22.6074L23.1592 9.57327L22.2246 8.63869L10.4297 20.4346L10.3535 20.503C9.96085 20.8228 9.38161 20.8003 9.01562 20.4346C8.62532 20.0441 8.62534 19.41 9.01562 19.0196L20.8105 7.22463L19.9775 6.39162L6.92969 19.4405ZM23.1289 4.07815C22.7368 4.03833 22.2374 4.13287 21.665 4.7051L21.3916 4.97756L24.5732 8.1592L24.8467 7.88674C25.5932 7.13988 25.5861 5.93571 24.5898 4.87893C24.126 4.38698 23.5876 4.12483 23.1289 4.07815Z" fill="currentColor"/>
</svg>
