<svg width="30" height="30" viewBox="0 0 30 30" fill="currentColor" xmlns="http://www.w3.org/2000/svg">
<path d="M23 7C23.8284 7 24.5 7.67157 24.5 8.5C24.5 9.32843 23.8284 10 23 10H7C6.17157 10 5.5 9.32843 5.5 8.5C5.5 7.67157 6.17157 7 7 7H23Z" fill="currentColor"/>
<path d="M23 20C23.8284 20 24.5 20.6716 24.5 21.5C24.5 22.3284 23.8284 23 23 23H7C6.17157 23 5.5 22.3284 5.5 21.5C5.5 20.6716 6.17157 20 7 20H23Z" fill="currentColor"/>
<path d="M23 13.5C23.8284 13.5 24.5 14.1716 24.5 15C24.5 15.8284 23.8284 16.5 23 16.5H7C6.17157 16.5 5.5 15.8284 5.5 15C5.5 14.1716 6.17157 13.5 7 13.5H23Z" fill="currentColor"/>
</svg>
