<svg width="30" height="30" viewBox="0 0 30 30" fill="currentColor" xmlns="http://www.w3.org/2000/svg">
<path d="M25 12.5C26.6563 12.5 28 13.8437 28 15.5V21C28 22.6563 26.6563 24 25 24H24V25C24 26.6569 22.6569 28 21 28H9C7.34315 28 6 26.6569 6 25V24H5C3.34372 24 2 22.6563 2 21V15.5C2 13.8437 3.34372 12.5 5 12.5H25ZM9 19.5C8.44772 19.5 8 19.9477 8 20.5V25C8 25.5523 8.44772 26 9 26H21C21.5523 26 22 25.5523 22 25V20.5C22 19.9477 21.5523 19.5 21 19.5H9ZM5 14.5C4.44828 14.5 4 14.9483 4 15.5V21C4 21.5517 4.44828 22 5 22H6V20.5C6 18.8431 7.34315 17.5 9 17.5H21C22.6569 17.5 24 18.8431 24 20.5V22H25C25.5517 22 26 21.5517 26 21V15.5C26 14.9483 25.5517 14.5 25 14.5H5ZM18.4424 2.29102L23.7051 7.52344L24 7.81738V12.0244H22V8.64844L21.8506 8.5H19.0713C18.2043 8.5 17.5 7.79571 17.5 6.92871V4.17285L17.3252 4H9C8.44828 4 8 4.44828 8 5V12.04H6V5C6 3.34372 7.34372 2 9 2H18.1494L18.4424 2.29102Z" fill="currentColor"/>
</svg>
