<?xml version="1.0" encoding="utf-8"?><svg version="1.1" id="Layer_1" xmlns="http://www.w3.org/2000/svg" xmlns:xlink="http://www.w3.org/1999/xlink" x="0px" y="0px" viewBox="0 0 122.88 122.7" style="enable-background:new 0 0 122.88 122.7" xml:space="preserve"><style type="text/css">.st0{fill-rule:evenodd;clip-rule:evenodd;}</style><g><path class="st0" d="M0.18,0h44.63v44.45H0.18V0L0.18,0z M111.5,111.5h11.38v11.2H111.5V111.5L111.5,111.5z M89.63,111.48h11.38 v10.67H89.63h-0.01H78.25v-21.82h11.02V89.27h11.21V67.22h11.38v10.84h10.84v11.2h-10.84v11.2h-11.21h-0.17H89.63V111.48 L89.63,111.48z M55.84,89.09h11.02v-11.2H56.2v-11.2h10.66v-11.2H56.02v11.2H44.63v-11.2h11.2V22.23h11.38v33.25h11.02v11.2h10.84 v-11.2h11.38v11.2H89.63v11.2H78.25v22.05H67.22v22.23H55.84V89.09L55.84,89.09z M111.31,55.48h11.38v11.2h-11.38V55.48 L111.31,55.48z M22.41,55.48h11.38v11.2H22.41V55.48L22.41,55.48z M0.18,55.48h11.38v11.2H0.18V55.48L0.18,55.48z M55.84,0h11.38 v11.2H55.84V0L55.84,0z M0,78.06h44.63v44.45H0V78.06L0,78.06z M10.84,88.86h22.95v22.86H10.84V88.86L10.84,88.86z M78.06,0h44.63 v44.45H78.06V0L78.06,0z M88.91,10.8h22.95v22.86H88.91V10.8L88.91,10.8z M11.02,10.8h22.95v22.86H11.02V10.8L11.02,10.8z"/></g></svg>