<svg width="30" height="30" viewBox="0 0 30 30" fill="none" xmlns="http://www.w3.org/2000/svg">
<path d="M25 6C25 5.44772 24.5523 5 24 5H12C11.4477 5 11 5.44772 11 6V18C11 18.5523 11.4477 19 12 19H24C24.5523 19 25 18.5523 25 18V6ZM27 18C27 19.6569 25.6569 21 24 21H12C10.3431 21 9 19.6569 9 18V6C9 4.34315 10.3431 3 12 3H24C25.6569 3 27 4.34315 27 6V18Z" fill="currentColor"/>
<path d="M18 6.75684C18.5523 6.75684 19 7.20553 19 7.75781V11H22.2432C22.7952 11.0003 23.2432 11.4479 23.2432 12C23.2432 12.5521 22.7952 12.9997 22.2432 13H19V16.2432C18.9997 16.7952 18.5521 17.2432 18 17.2432C17.4479 17.2432 17.0003 16.7952 17 16.2432V13H13.7578C13.2055 13 12.7568 12.5523 12.7568 12C12.7568 11.4477 13.2055 11 13.7578 11H17V7.75781C17 7.20553 17.4477 6.75684 18 6.75684Z" fill="currentColor"/>
<path d="M3 24V12C3 10.3439 4.34389 9 6 9H7.5V11H6C5.44846 11 5 11.4485 5 12V24C5 24.5515 5.44846 25 6 25H18C18.5515 25 19 24.5515 19 24V22.6201H21V24C21 25.6561 19.6561 27 18 27H6C4.34389 27 3 25.6561 3 24Z" fill="currentColor"/>
</svg>
