<?xml version="1.0" encoding="UTF-8" standalone="no"?>
<svg
   version="1.1"
   id="Layer_1"
   x="0px"
   y="0px"
   viewBox="0 0 122.88001 122.39"
   xml:space="preserve"
   sodipodi:docname="receive.svg"
   width="122.88"
   height="122.39"
   inkscape:version="1.1.2 (0a00cf5339, 2022-02-04)"
   xmlns:inkscape="http://www.inkscape.org/namespaces/inkscape"
   xmlns:sodipodi="http://sodipodi.sourceforge.net/DTD/sodipodi-0.dtd"
   xmlns="http://www.w3.org/2000/svg"
   xmlns:svg="http://www.w3.org/2000/svg"><defs
     id="defs11" /><sodipodi:namedview
     id="namedview9"
     pagecolor="#ffffff"
     bordercolor="#999999"
     borderopacity="1"
     inkscape:pageshadow="0"
     inkscape:pageopacity="0"
     inkscape:pagecheckerboard="0"
     showgrid="false"
     fit-margin-top="0"
     fit-margin-left="0"
     fit-margin-right="0"
     fit-margin-bottom="0"
     inkscape:zoom="2.4575109"
     inkscape:cx="191.45389"
     inkscape:cy="37.029338"
     inkscape:window-width="1920"
     inkscape:window-height="1007"
     inkscape:window-x="0"
     inkscape:window-y="0"
     inkscape:window-maximized="1"
     inkscape:current-layer="Layer_1" /><style
     type="text/css"
     id="style2">.st0{fill-rule:evenodd;clip-rule:evenodd;}</style><style
     type="text/css"
     id="style825"><![CDATA[
	.st0{fill-rule:evenodd;clip-rule:evenodd;}
]]></style><path
     class="st0"
     d="m 4.59,122.39 h 113.70001 c 2.52,0 4.59,-2.08 4.59,-4.63 l -0.11,-36.56 c -0.01,-2.49 -0.36,-3.78 -1.26,-6.11 l -17.93,-61.16 c -0.81,-2.12 -1.86,-4.12 -4.120004,-4.12 H 85.710002 v 14.66 h 6.5 l 16.190008,53.89 v 0 H 84.500002 l -10.91,14.7 h -24.21 L 38.38,78.36 H 14.3 L 31.17,24.47 h 6 V 9.8 H 24.22 c -2.27,0 -3.28,2.02 -4.12,4.12 L 1.15,75.86 c -0.91,2.28 -1,3.58 -1.01,6.06 L 0,117.76 c 0,2.55 2.07,4.63 4.59,4.63 z M 52.740002,0 h 17.41 v 37.46 h 14 l -22.69,26.01 L 38.73,37.46 H 52.730002 V 0 Z"
     id="path827" /></svg>
