<svg width="30" height="30" viewBox="0 0 30 30" fill="currentColor" xmlns="http://www.w3.org/2000/svg">
<path d="M21.6592 12.7979C22.1486 12.3085 23.035 12.4317 23.2832 13.125L23.3232 13.2705L23.4004 13.6934C23.4663 14.1196 23.5 14.5559 23.5 15C23.5 19.6941 19.6941 23.5 15 23.5C13.0595 23.5 11.2718 22.8471 9.84082 21.7529C9.72863 22.1825 9.33974 22.5 8.875 22.5C8.32272 22.5 7.875 22.0523 7.875 21.5V19.5L7.87988 19.3975C7.93121 18.8933 8.35732 18.5 8.875 18.5H10.875C11.4273 18.5 11.875 18.9477 11.875 19.5C11.875 19.88 11.6627 20.2097 11.3506 20.3789C12.3912 21.0864 13.6471 21.5 15 21.5C18.5899 21.5 21.5 18.5899 21.5 15C21.5 14.6761 21.4762 14.3578 21.4307 14.0469L21.3779 13.7393C21.3132 13.4097 21.4055 13.0518 21.6592 12.7979ZM15 6.5C16.9405 6.5 18.7278 7.15211 20.1582 8.24609C20.2706 7.81686 20.6605 7.5 21.125 7.5C21.6773 7.5 22.125 7.94772 22.125 8.5V10.5C22.125 11.0523 21.6773 11.5 21.125 11.5H19.125C18.5727 11.5 18.125 11.0523 18.125 10.5C18.125 10.1206 18.3362 9.79057 18.6475 9.62109C17.607 8.91434 16.3522 8.5 15 8.5C11.4101 8.5 8.5 11.4101 8.5 15C8.5 15.3509 8.52765 15.6947 8.58105 16.0293L8.64258 16.3604L8.64355 16.3623L8.66211 16.4883C8.68841 16.7851 8.59162 17.0937 8.36328 17.3203L8.3623 17.3193C7.84512 17.8343 6.88459 17.6683 6.7041 16.8604L6.61523 16.4062C6.53899 15.9482 6.5 15.4783 6.5 15C6.5 10.3059 10.3059 6.5 15 6.5Z" fill="currentColor"/>
</svg>
