<svg xmlns="http://www.w3.org/2000/svg" shape-rendering="geometricPrecision" text-rendering="geometricPrecision" image-rendering="optimizeQuality" fill-rule="evenodd" clip-rule="evenodd" viewBox="0 0 393 512.11"><path d="M68.91 0h300.55C382.41 0 393 10.61 393 23.54v465.03c0 12.93-10.61 23.54-23.54 23.54H45.37C8.5 511.57.01 502.21.01 469.4V348.76l21.06-25.28v-45.29H0v-65.3l45.37-43.18V23.54C45.37 10.59 55.97 0 68.91 0z"/><path fill="#F4CF16" d="M83.32 39.85h25.52c1.27 0 2.31 1.04 2.31 2.3v86.41c0 1.27-1.04 2.3-2.31 2.3H83.32a2.3 2.3 0 0 1-2.3-2.3V42.15c0-1.26 1.03-2.3 2.3-2.3zm246.83 0h25.52c1.27 0 2.31 1.04 2.31 2.3v86.41c0 1.27-1.04 2.3-2.31 2.3h-25.52c-1.27 0-2.31-1.03-2.31-2.3V42.15c0-1.26 1.04-2.3 2.31-2.3zm-49.37 0h25.53c1.26 0 2.3 1.04 2.3 2.3v86.41c0 1.27-1.04 2.3-2.3 2.3h-25.53a2.3 2.3 0 0 1-2.3-2.3V42.15c0-1.26 1.03-2.3 2.3-2.3zm-49.36 0h25.52c1.27 0 2.31 1.04 2.31 2.3v86.41c0 1.27-1.04 2.3-2.31 2.3h-25.52c-1.27 0-2.31-1.03-2.31-2.3V42.15c0-1.26 1.04-2.3 2.31-2.3zm-49.37 0h25.53c1.26 0 2.3 1.04 2.3 2.3v86.41c0 1.27-1.04 2.3-2.3 2.3h-25.53c-1.26 0-2.3-1.03-2.3-2.3V42.15c0-1.26 1.04-2.3 2.3-2.3zm-49.36 0h25.52c1.27 0 2.3 1.04 2.3 2.3v86.41a2.3 2.3 0 0 1-2.3 2.3h-25.52c-1.27 0-2.31-1.03-2.31-2.3V42.15c0-1.26 1.04-2.3 2.31-2.3z"/></svg>