<svg width="30" height="30" viewBox="0 0 30 30" fill="none" xmlns="http://www.w3.org/2000/svg">
<path d="M14 9.75C14 9.33579 14.3358 9 14.75 9C15.1642 9 15.5 9.33579 15.5 9.75V12.25C15.5 12.6642 15.1642 13 14.75 13C14.3358 13 14 12.6642 14 12.25V9.75Z" fill="currentColor"/>
<path d="M16 9.75C16 9.33579 16.3358 9 16.75 9C17.1642 9 17.5 9.33579 17.5 9.75V12.25C17.5 12.6642 17.1642 13 16.75 13C16.3358 13 16 12.6642 16 12.25V9.75Z" fill="currentColor"/>
<path d="M18 9.75C18 9.33579 18.3358 9 18.75 9C19.1642 9 19.5 9.33579 19.5 9.75V12.25C19.5 12.6642 19.1642 13 18.75 13C18.3358 13 18 12.6642 18 12.25V9.75Z" fill="currentColor"/>
<path fill-rule="evenodd" clip-rule="evenodd" d="M19.5 7C20.3284 7 21 7.67157 21 8.5V21.5C21 22.3284 20.3284 23 19.5 23H10.5C9.67157 23 9 22.3284 9 21.5V12L14 7H19.5ZM10 12.4141V21.5C10 21.7761 10.2239 22 10.5 22H19.5C19.7761 22 20 21.7761 20 21.5V8.5C20 8.22386 19.7761 8 19.5 8H14.4141L10 12.4141Z" fill="currentColor"/>
</svg>
