<?xml version="1.0" encoding="utf-8"?><svg version="1.1" id="Layer_1" xmlns="http://www.w3.org/2000/svg" xmlns:xlink="http://www.w3.org/1999/xlink" x="0px" y="0px" viewBox="0 0 121.7 122.88" style="enable-background:new 0 0 121.7 122.88" xml:space="preserve"><style type="text/css"><![CDATA[
	.st0{fill:#263036;}
	.st1{fill-rule:evenodd;clip-rule:evenodd;fill:#90CAF8;}
]]></style><g><path class="st0" d="M53.62,0c14.81,0,28.21,6,37.91,15.71c9.7,9.7,15.7,23.11,15.7,37.91c0,10.83-3.21,20.91-8.74,29.34 l23.2,25.29l-7.62,6.96l-8.38,7.66L83.32,98.26c-8.5,5.67-18.72,8.98-29.7,8.98c-14.81,0-28.21-6-37.91-15.71 C6,81.82,0,68.42,0,53.62C0,38.81,6,25.41,15.7,15.7C25.41,6,38.81,0,53.62,0L53.62,0L53.62,0z M87.3,19.93 C78.68,11.31,66.77,5.98,53.62,5.98c-13.15,0-25.06,5.33-33.68,13.95C11.31,28.55,5.98,40.46,5.98,53.62 c0,13.15,5.33,25.06,13.95,33.68c8.62,8.62,20.53,13.95,33.68,13.95c13.15,0,25.06-5.33,33.68-13.95 c8.62-8.62,13.95-20.53,13.95-33.68S95.92,28.55,87.3,19.93L87.3,19.93L87.3,19.93z"/><path class="st1" d="M53.67,5.96c26.31,0,47.63,21.33,47.63,47.63c0,26.31-21.33,47.63-47.63,47.63S6.03,79.9,6.03,53.59 C6.03,27.28,27.36,5.96,53.67,5.96L53.67,5.96z M29.13,45.74c-0.99,2.1-3.49,3-5.59,2.01c-2.1-0.99-3-3.49-2.01-5.59 c1.53-3.22,3.36-6.25,5.5-9.08c2.13-2.81,4.59-5.45,7.39-7.92c1.73-1.53,4.39-1.37,5.92,0.36c1.53,1.73,1.37,4.39-0.36,5.92 c-2.33,2.06-4.41,4.3-6.23,6.7C31.94,40.53,30.4,43.06,29.13,45.74L29.13,45.74z"/></g></svg>