<svg width="30" height="30" viewBox="0 0 30 30" fill="currentColor" xmlns="http://www.w3.org/2000/svg">
<path d="M7.5 6V24H22.5V6H7.5ZM24.5 24C24.5 25.1046 23.6046 26 22.5 26H7.5C6.39543 26 5.5 25.1046 5.5 24V6C5.5 4.89543 6.39543 4 7.5 4H22.5C23.6046 4 24.5 4.89543 24.5 6V24Z" fill="currentColor"/>
<path d="M12.621 7.171C12.807 7.089 13.025 7.161 13.11 7.331C13.194 7.502 13.112 7.705 12.927 7.788C12.386 8.026 12.052 8.387 11.968 8.694C11.946 8.776 11.944 8.849 11.965 8.905C11.981 8.948 12.016 8.984 12.068 9.01C12.293 9.12 12.74 9.094 13.46 8.823C13.886 8.662 14.339 8.462 14.74 8.285C15.149 8.104 15.507 7.945 15.759 7.864C16.225 7.716 16.693 7.593 17.08 7.558C17.588 7.51 17.988 7.607 18.168 7.948C18.284 8.168 18.289 8.373 18.293 8.556C18.295 8.622 18.296 8.683 18.305 8.722C18.305 8.724 18.381 8.708 18.746 8.629C19.169 8.539 19.59 8.321 20.005 8.106C20.218 7.995 20.43 7.886 20.672 7.779C20.858 7.698 21.076 7.771 21.159 7.941C21.242 8.112 21.159 8.316 20.974 8.396C20.786 8.479 20.571 8.591 20.354 8.702C19.892 8.942 19.424 9.184 18.898 9.297C17.935 9.504 17.673 9.281 17.582 8.876C17.56 8.781 17.558 8.687 17.555 8.585C17.552 8.472 17.549 8.344 17.504 8.259C17.484 8.22 17.343 8.219 17.14 8.238C16.816 8.268 16.402 8.377 15.983 8.511C15.775 8.577 15.434 8.728 15.044 8.901C14.637 9.082 14.176 9.285 13.723 9.456C12.775 9.812 12.112 9.81 11.713 9.615C11.489 9.505 11.342 9.342 11.267 9.145C11.197 8.961 11.194 8.754 11.253 8.539C11.387 8.053 11.867 7.503 12.621 7.171Z" fill="currentColor"/>
<path d="M12.621 13.046C12.807 12.964 13.025 13.036 13.11 13.206C13.194 13.377 13.112 13.58 12.927 13.663C12.386 13.901 12.052 14.262 11.968 14.569C11.946 14.651 11.944 14.724 11.965 14.78C11.981 14.823 12.016 14.859 12.068 14.885C12.293 14.995 12.74 14.969 13.46 14.698C13.886 14.537 14.339 14.337 14.74 14.16C15.149 13.979 15.507 13.82 15.759 13.739C16.225 13.591 16.693 13.468 17.08 13.433C17.588 13.385 17.988 13.482 18.168 13.823C18.284 14.043 18.289 14.248 18.293 14.431C18.295 14.497 18.296 14.558 18.305 14.597C18.305 14.599 18.381 14.583 18.746 14.504C19.169 14.414 19.59 14.196 20.005 13.981C20.218 13.87 20.43 13.761 20.672 13.654C20.858 13.573 21.076 13.646 21.159 13.816C21.242 13.987 21.159 14.191 20.974 14.271C20.786 14.354 20.571 14.466 20.354 14.577C19.892 14.817 19.424 15.059 18.898 15.172C17.935 15.379 17.673 15.156 17.582 14.751C17.56 14.656 17.558 14.562 17.555 14.46C17.552 14.347 17.549 14.219 17.504 14.134C17.484 14.095 17.343 14.094 17.14 14.113C16.816 14.143 16.402 14.252 15.983 14.386C15.775 14.452 15.434 14.603 15.044 14.776C14.637 14.957 14.176 15.16 13.723 15.331C12.775 15.687 12.112 15.685 11.713 15.49C11.489 15.38 11.342 15.217 11.267 15.02C11.197 14.836 11.194 14.629 11.253 14.414C11.387 13.928 11.867 13.378 12.621 13.046Z" fill="currentColor"/>
<path d="M12.621 18.921C12.807 18.839 13.025 18.911 13.11 19.081C13.194 19.252 13.112 19.455 12.927 19.538C12.386 19.776 12.052 20.137 11.968 20.444C11.946 20.526 11.944 20.599 11.965 20.655C11.981 20.698 12.016 20.734 12.068 20.76C12.293 20.87 12.74 20.844 13.46 20.573C13.886 20.412 14.339 20.212 14.74 20.035C15.149 19.854 15.507 19.695 15.759 19.614C16.225 19.466 16.693 19.343 17.08 19.308C17.588 19.26 17.988 19.357 18.168 19.698C18.284 19.918 18.289 20.123 18.293 20.306C18.295 20.372 18.296 20.433 18.305 20.472C18.305 20.474 18.381 20.458 18.746 20.379C19.169 20.289 19.59 20.071 20.005 19.856C20.218 19.745 20.43 19.636 20.672 19.529C20.858 19.448 21.076 19.521 21.159 19.691C21.242 19.862 21.159 20.066 20.974 20.146C20.786 20.229 20.571 20.341 20.354 20.452C19.892 20.692 19.424 20.934 18.898 21.047C17.935 21.254 17.673 21.031 17.582 20.626C17.56 20.531 17.558 20.437 17.555 20.335C17.552 20.222 17.549 20.094 17.504 20.009C17.484 19.97 17.343 19.969 17.14 19.988C16.816 20.018 16.402 20.127 15.983 20.261C15.775 20.327 15.434 20.478 15.044 20.651C14.637 20.832 14.176 21.035 13.723 21.206C12.775 21.562 12.112 21.56 11.713 21.365C11.489 21.255 11.342 21.092 11.267 20.895C11.197 20.711 11.194 20.504 11.253 20.289C11.387 19.803 11.867 19.253 12.621 18.921Z" fill="currentColor"/>
<path d="M9.18945 9.04883C9.14779 9.07096 9.10742 9.08203 9.06836 9.08203C9.03451 9.08203 9.00326 9.07552 8.97461 9.0625C8.94596 9.04818 8.92122 9.02995 8.90039 9.00781C8.87956 8.98568 8.86328 8.96029 8.85156 8.93164C8.83984 8.90169 8.83398 8.87109 8.83398 8.83984C8.83398 8.79297 8.84635 8.7526 8.87109 8.71875C8.89714 8.6849 8.9375 8.65104 8.99219 8.61719L9.64062 8.24805C9.67839 8.22591 9.7181 8.20573 9.75977 8.1875C9.80143 8.16927 9.84505 8.16016 9.89062 8.16016C10.0065 8.16016 10.0911 8.20182 10.1445 8.28516C10.1992 8.36719 10.2266 8.48568 10.2266 8.64062V10.5293C10.2266 10.5931 10.2214 10.6536 10.2109 10.7109C10.2005 10.7669 10.1816 10.8164 10.1543 10.8594C10.1283 10.9023 10.0924 10.9362 10.0469 10.9609C10.0013 10.9857 9.94336 10.998 9.87305 10.998C9.75065 10.998 9.66211 10.9551 9.60742 10.8691C9.55273 10.7832 9.52539 10.6549 9.52539 10.4844V8.84375L9.18945 9.04883Z" fill="currentColor"/>
<path d="M9.67383 14.2581C9.62565 14.2581 9.57682 14.2626 9.52734 14.2717C9.47786 14.2795 9.42904 14.29 9.38086 14.303C9.33398 14.316 9.28776 14.331 9.24219 14.3479C9.19661 14.3648 9.15365 14.3811 9.11328 14.3967C9.07943 14.4098 9.04753 14.4163 9.01758 14.4163C8.98372 14.4163 8.95247 14.4098 8.92383 14.3967C8.89648 14.3837 8.8724 14.3661 8.85156 14.344C8.83203 14.3206 8.81641 14.2939 8.80469 14.2639C8.79297 14.234 8.78711 14.2021 8.78711 14.1682C8.78711 14.1213 8.80078 14.0758 8.82812 14.0315C8.85547 13.9872 8.90104 13.9514 8.96484 13.9241C9.02995 13.8967 9.09701 13.872 9.16602 13.8499C9.23633 13.8264 9.30664 13.8069 9.37695 13.7913C9.44727 13.7743 9.51628 13.7613 9.58398 13.7522C9.65299 13.7431 9.71875 13.7385 9.78125 13.7385C9.92188 13.7385 10.0514 13.7555 10.1699 13.7893C10.2884 13.8219 10.3906 13.87 10.4766 13.9338C10.5625 13.9963 10.6296 14.0745 10.6777 14.1682C10.7272 14.2607 10.752 14.3674 10.752 14.4885C10.752 14.6253 10.7181 14.7646 10.6504 14.9065C10.5827 15.0484 10.4922 15.1884 10.3789 15.3264C10.2669 15.4631 10.138 15.596 9.99219 15.7249C9.84635 15.8538 9.69531 15.9749 9.53906 16.0881H10.3887C10.4395 16.0881 10.4876 16.0927 10.5332 16.1018C10.5801 16.1096 10.6211 16.1233 10.6562 16.1428C10.6914 16.1624 10.7194 16.1884 10.7402 16.221C10.7624 16.2522 10.7734 16.2913 10.7734 16.3381C10.7734 16.4228 10.7493 16.4866 10.7012 16.5295C10.653 16.5725 10.584 16.594 10.4941 16.594H9.04102C8.99414 16.594 8.94987 16.5894 8.9082 16.5803C8.86654 16.5712 8.83008 16.5562 8.79883 16.5354C8.76888 16.5133 8.74479 16.4846 8.72656 16.4495C8.70964 16.413 8.70117 16.3687 8.70117 16.3167C8.70117 16.1851 8.76042 16.0693 8.87891 15.969L9.16406 15.7268C9.20312 15.693 9.24154 15.6604 9.2793 15.6292C9.31706 15.5966 9.34961 15.5673 9.37695 15.5413L9.45508 15.467C9.54883 15.3811 9.63411 15.2965 9.71094 15.2131C9.78776 15.1285 9.85352 15.0471 9.9082 14.969C9.96289 14.8909 10.0052 14.8173 10.0352 14.7483C10.0651 14.6793 10.0801 14.6161 10.0801 14.5588C10.0801 14.5081 10.069 14.4644 10.0469 14.428C10.0247 14.3902 9.99479 14.359 9.95703 14.3342C9.92057 14.3082 9.8776 14.2893 9.82812 14.2776C9.77865 14.2646 9.72721 14.2581 9.67383 14.2581Z" fill="currentColor"/>
<path d="M9.60547 20.5337C9.67188 20.5337 9.73372 20.5265 9.79102 20.5122C9.84831 20.4979 9.89779 20.4758 9.93945 20.4458C9.98242 20.4146 10.0163 20.3762 10.041 20.3306C10.0658 20.2837 10.0781 20.229 10.0781 20.1665C10.0781 20.1105 10.0664 20.0617 10.043 20.02C10.0195 19.9771 9.98763 19.9413 9.94727 19.9126C9.9069 19.884 9.85938 19.8631 9.80469 19.8501C9.7513 19.8358 9.69466 19.8286 9.63477 19.8286C9.58398 19.8286 9.5306 19.8325 9.47461 19.8403C9.41862 19.8469 9.36458 19.8553 9.3125 19.8657L9.19922 19.8872C9.16927 19.8937 9.14583 19.8989 9.12891 19.9028C9.11328 19.9054 9.09701 19.9067 9.08008 19.9067C9.00716 19.9067 8.94727 19.8853 8.90039 19.8423C8.85482 19.7993 8.83203 19.7446 8.83203 19.6782C8.83203 19.5676 8.90299 19.479 9.04492 19.4126C9.18685 19.3449 9.40495 19.311 9.69922 19.311C9.86849 19.311 10.0189 19.3299 10.1504 19.3677C10.2819 19.4041 10.3926 19.4562 10.4824 19.5239C10.5736 19.5916 10.6426 19.673 10.6895 19.7681C10.7363 19.8631 10.7598 19.9679 10.7598 20.0825C10.7598 20.1633 10.7461 20.2394 10.7188 20.311C10.6927 20.3814 10.6569 20.4445 10.6113 20.5005C10.5671 20.5565 10.5143 20.6034 10.4531 20.6411C10.3932 20.6789 10.3294 20.7043 10.2617 20.7173V20.7251C10.3516 20.7394 10.431 20.7668 10.5 20.8071C10.5703 20.8462 10.6289 20.8957 10.6758 20.9556C10.724 21.0142 10.7598 21.0825 10.7832 21.1607C10.8079 21.2388 10.8203 21.3228 10.8203 21.4126C10.8203 21.5545 10.7917 21.6769 10.7344 21.7798C10.6771 21.8827 10.599 21.9673 10.5 22.0337C10.401 22.1001 10.2845 22.1489 10.1504 22.1802C10.0176 22.2114 9.87435 22.2271 9.7207 22.2271C9.67122 22.2271 9.61914 22.2238 9.56445 22.2173C9.50977 22.2121 9.45312 22.2043 9.39453 22.1939C9.33724 22.1834 9.27995 22.1704 9.22266 22.1548C9.16536 22.1379 9.11068 22.1196 9.05859 22.1001C8.98698 22.0741 8.93034 22.0396 8.88867 21.9966C8.84701 21.9536 8.82617 21.9009 8.82617 21.8384C8.82617 21.8071 8.83203 21.7772 8.84375 21.7485C8.85677 21.7199 8.87435 21.6952 8.89648 21.6743C8.91862 21.6535 8.94596 21.6372 8.97852 21.6255C9.01107 21.6125 9.04688 21.606 9.08594 21.606H9.10352C9.13216 21.6138 9.16602 21.6235 9.20508 21.6353C9.24544 21.647 9.28906 21.6587 9.33594 21.6704C9.38411 21.6821 9.43424 21.6926 9.48633 21.7017C9.53971 21.7095 9.5931 21.7134 9.64648 21.7134C9.71289 21.7134 9.77409 21.7075 9.83008 21.6958C9.88737 21.6828 9.93685 21.6626 9.97852 21.6353C10.0215 21.6079 10.0547 21.5721 10.0781 21.5278C10.1029 21.4836 10.1152 21.4295 10.1152 21.3657C10.1152 21.2394 10.0703 21.1418 9.98047 21.0728C9.89062 21.0038 9.76367 20.9692 9.59961 20.9692H9.46094C9.39323 20.9692 9.34115 20.9484 9.30469 20.9067C9.26823 20.8638 9.25 20.813 9.25 20.7544C9.25 20.7271 9.25456 20.7004 9.26367 20.6743C9.27279 20.647 9.28581 20.6235 9.30273 20.604C9.32096 20.5832 9.3431 20.5663 9.36914 20.5532C9.39518 20.5402 9.42578 20.5337 9.46094 20.5337H9.60547Z" fill="currentColor"/>
<path d="M11.542 10.25H20.67" stroke="black" stroke-width="0.5" stroke-linecap="round"/>
<path d="M11.542 22H20.67" stroke="black" stroke-width="0.5" stroke-linecap="round"/>
<path d="M11.542 16.125H20.67" stroke="black" stroke-width="0.5" stroke-linecap="round"/>
</svg>
