<svg xmlns="http://www.w3.org/2000/svg" viewBox="0 0 3791 3729" shape-rendering="geometricPrecision" text-rendering="geometricPrecision" image-rendering="optimizeQuality" fill-rule="evenodd" clip-rule="evenodd"><path d="M713 1152c197 0 375 80 504 209 29 29 56 61 80 95l1125-468c-36-85-55-178-55-275 0-197 80-375 209-504S2883 0 3080 0s375 80 504 209 209 307 209 504-80 375-209 504-307 209-504 209-375-80-504-209c-22-22-43-46-62-71l-1132 471c29 77 45 161 45 248 0 54-6 106-17 157l1131 530c11-13 23-26 36-39 129-129 307-209 504-209s375 80 504 209 209 307 209 504-80 375-209 504-307 209-504 209-375-80-504-209-209-307-209-504c0-112 26-219 73-313l-1092-512c-34 66-78 126-130 177-129 129-307 209-504 209s-375-80-504-209S2 2062 2 1865s80-375 209-504 307-209 504-209zm2742-815c-96-96-229-156-376-156s-280 60-376 156-156 229-156 376 60 280 156 376 229 156 376 156 280-60 376-156 156-229 156-376-60-280-156-376zm0 2303c-96-96-229-156-376-156s-280 60-376 156-156 229-156 376 60 280 156 376 229 156 376 156 280-60 376-156 156-229 156-376-60-280-156-376zM1089 1488c-96-96-229-156-376-156s-280 60-376 156-156 229-156 376 60 280 156 376 229 156 376 156 280-60 376-156 156-229 156-376-60-280-156-376z" fill-rule="nonzero"/></svg>