<svg width="30" height="30" viewBox="0 0 30 30" fill="none" xmlns="http://www.w3.org/2000/svg">
<path d="M24.286 18.8356H9.27959C9.51699 18.3321 9.75529 17.8142 9.99358 17.2877C11.327 17.4462 12.9013 16.4441 14.6935 14.2958C15.1397 15.589 15.9831 17.2675 17.4227 17.2983C18.234 17.3156 19.039 16.7987 19.8699 15.7254C20.4759 16.5056 21.7245 17.2983 24.286 17.2983C24.4754 17.2983 24.657 17.2173 24.7909 17.0731C24.9248 16.929 25 16.7335 25 16.5296C25 16.3258 24.9248 16.1303 24.7909 15.9861C24.657 15.842 24.4754 15.761 24.286 15.761C21.5701 15.761 20.7669 14.7569 20.716 14.2131C20.7241 14.0482 20.6804 13.8851 20.592 13.7501C20.5037 13.615 20.3757 13.5159 20.2287 13.4685C20.076 13.4191 19.9124 13.4252 19.7632 13.4858C19.614 13.5464 19.4875 13.6581 19.4032 13.8038C18.3268 15.5852 17.6815 15.7668 17.4477 15.761C16.7105 15.7456 15.9608 13.8855 15.7038 12.55C15.6763 12.4069 15.6116 12.2753 15.5172 12.1704C15.4228 12.0655 15.3025 11.9918 15.1706 11.9578C15.0387 11.9238 14.9004 11.931 14.7722 11.9786C14.6439 12.0261 14.5308 12.112 14.4462 12.2262C12.6425 14.6609 11.4341 15.4804 10.6817 15.6928C11.4394 13.8797 12.0053 12.2877 12.3676 10.9474C12.9763 8.69525 13.0209 7.12049 12.5024 6.13375C12.2346 5.61683 11.6688 5 10.5335 5C9.10019 5 7.9694 6.4585 7.43034 9.00174C7.10993 10.5112 7.05727 12.1926 7.28575 13.6136C7.51423 15.0346 7.98814 16.0684 8.67715 16.6824C8.34425 17.4241 8.0051 18.1486 7.67488 18.8356H5.7221C5.53274 18.8356 5.35113 18.9165 5.21723 19.0607C5.08333 19.2048 5.0081 19.4003 5.0081 19.6042C5.0081 19.8081 5.08333 20.0036 5.21723 20.1477C5.35113 20.2919 5.53274 20.3728 5.7221 20.3728H6.91894C5.90863 22.3905 5.12323 23.7971 5.11074 23.8202C5.05984 23.9067 5.02552 24.0034 5.0098 24.1044C4.99409 24.2055 4.99729 24.3089 5.01923 24.4085C5.04116 24.5082 5.08139 24.6022 5.13754 24.6849C5.19369 24.7676 5.26463 24.8374 5.34619 24.8902C5.42775 24.9429 5.51829 24.9776 5.61248 24.9922C5.70668 25.0068 5.80262 25.0009 5.89469 24.975C5.98675 24.9491 6.07307 24.9036 6.14857 24.8412C6.22408 24.7789 6.28724 24.7009 6.33435 24.6119C6.34774 24.5869 7.34019 22.8065 8.53881 20.3728H24.286C24.4754 20.3728 24.657 20.2919 24.7909 20.1477C24.9248 20.0036 25 19.8081 25 19.6042C25 19.4003 24.9248 19.2048 24.7909 19.0607C24.657 18.9165 24.4754 18.8356 24.286 18.8356ZM8.82263 9.34379C9.17784 7.66527 9.86596 6.53728 10.5335 6.53728C11.0092 6.53728 11.1672 6.71599 11.2591 6.8899C11.5269 7.40201 11.841 9.21408 9.326 15.1903C8.58879 14.1065 8.338 11.6295 8.82263 9.34379Z" fill="currentColor"/>
</svg>
