<svg width="30" height="30" viewBox="0 0 30 30" fill="none" xmlns="http://www.w3.org/2000/svg">
<path d="M8 12V10H6C5.44772 10 5 9.55228 5 9C5 8.44772 5.44772 8 6 8H8V6C8 5.44772 8.44772 5 9 5C9.55228 5 10 5.44772 10 6V8H12C12.5523 8 13 8.44772 13 9C13 9.55228 12.5523 10 12 10H10V12C10 12.5523 9.55228 13 9 13C8.44772 13 8 12.5523 8 12Z" fill="currentColor"/>
<path d="M21.5 8V7.5H21C20.4477 7.5 20 7.05228 20 6.5C20 5.94772 20.4477 5.5 21 5.5H21.5V5C21.5 4.44772 21.9477 4 22.5 4C23.0523 4 23.5 4.44772 23.5 5V5.5H24C24.5523 5.5 25 5.94772 25 6.5C25 7.05228 24.5523 7.5 24 7.5H23.5V8C23.5 8.55228 23.0523 9 22.5 9C21.9477 9 21.5 8.55228 21.5 8Z" fill="currentColor"/>
<path d="M16.9997 13C17.552 13 17.9997 13.4477 17.9997 14V17.2637L20.8327 15.6289C21.3109 15.353 21.9228 15.517 22.1989 15.9951C22.4751 16.4734 22.3109 17.0852 21.8327 17.3613L19.0046 18.9932L21.8376 20.6289C22.3158 20.905 22.4797 21.5169 22.2038 21.9951C21.9277 22.4734 21.3159 22.6375 20.8376 22.3613L17.9997 20.7227V24C17.9997 24.5523 17.552 25 16.9997 25C16.4475 24.9999 15.9997 24.5522 15.9997 24V20.7285L13.1726 22.3613C12.6943 22.6375 12.0825 22.4734 11.8064 21.9951C11.5304 21.5169 11.6944 20.905 12.1726 20.6289L15.0036 18.9932L12.1774 17.3613C11.6992 17.0852 11.5351 16.4734 11.8112 15.9951C12.0874 15.517 12.6992 15.3529 13.1774 15.6289L15.9997 17.2578V14C15.9997 13.4478 16.4475 13.0001 16.9997 13Z" fill="currentColor"/>
</svg>
