<?xml version="1.0" encoding="UTF-8" standalone="no"?>
<svg
   version="1.1"
   id="Layer_1"
   x="0px"
   y="0px"
   viewBox="0 0 152.04215 100.36695"
   xml:space="preserve"
   sodipodi:docname="send.svg"
   width="152.04214"
   height="100.36695"
   inkscape:version="1.1.2 (0a00cf5339, 2022-02-04)"
   xmlns:inkscape="http://www.inkscape.org/namespaces/inkscape"
   xmlns:sodipodi="http://sodipodi.sourceforge.net/DTD/sodipodi-0.dtd"
   xmlns="http://www.w3.org/2000/svg"
   xmlns:svg="http://www.w3.org/2000/svg"><defs
     id="defs9" /><sodipodi:namedview
     id="namedview7"
     pagecolor="#ffffff"
     bordercolor="#999999"
     borderopacity="1"
     inkscape:pageshadow="0"
     inkscape:pageopacity="0"
     inkscape:pagecheckerboard="0"
     showgrid="false"
     fit-margin-top="0"
     fit-margin-left="0"
     fit-margin-right="0"
     fit-margin-bottom="0"
     inkscape:zoom="2.2011638"
     inkscape:cx="48.383497"
     inkscape:cy="84.04645"
     inkscape:window-width="1920"
     inkscape:window-height="1007"
     inkscape:window-x="0"
     inkscape:window-y="0"
     inkscape:window-maximized="1"
     inkscape:current-layer="Layer_1" /><g
     id="g2078"
     transform="matrix(0.78428456,0,0,0.78428456,0.23068,48.308492)"><path
       style="fill:#ffffff;fill-opacity:1;stroke:#000000;stroke-width:1px;stroke-linecap:butt;stroke-linejoin:miter;stroke-opacity:1"
       d="M 74.297759,-25.689016 190.91647,-58.928456 141.56652,39.261805 Z"
       id="path1528" /><path
       style="fill:#ffffff;fill-opacity:1;stroke:#000000;stroke-width:1px;stroke-linecap:butt;stroke-linejoin:miter;stroke-opacity:1"
       d="M 98.443354,-1.2767904 98.378004,38.246661 120.04219,19.193186 Z"
       id="path1695" /><g
       id="g4"
       transform="translate(70.683491,-61.595502)"
       style="fill:#000000;fill-opacity:1"><path
         d="M 69.49,102.77 49.8,84.04 29.57,102.31 c -0.45,0.49 -1.09,0.79 -1.8,0.79 -1.35,0 -2.44,-1.09 -2.44,-2.44 V 60.77 L 0.76,37.41 c -0.98,-0.93 -1.01,-2.47 -0.09,-3.45 0.31,-0.33 0.7,-0.55 1.11,-0.67 v 0 l 118,-33.2 c 1.3,-0.36 2.64,0.39 3.01,1.69 0.19,0.66 0.08,1.34 -0.24,1.89 l -49.2,98.42 c -0.6,1.2 -2.06,1.69 -3.26,1.09 -0.23,-0.11 -0.43,-0.25 -0.6,-0.41 z M 46.26,80.68 30.21,65.42 V 95.18 Z M 28.15,56.73 104.47,9.47 7.22,36.83 Z M 114.43,9.03 31.79,60.19 70.46,96.97 Z"
         id="path2"
         style="fill:#000000;fill-opacity:1" /></g></g><path
     d="m 59.78495,36.774372 c -0.71002,-0.71002 -1.54209,-1.06009 -2.50612,-1.06009 -0.96313,0 -1.80688,0.35007 -2.5052,1.06009 l -3.81932,3.80673 c -1.02416,-0.66243 -2.10757,-1.24139 -3.24035,-1.75931 -1.13188,-0.51792 -2.28889,-0.96222 -3.45758,-1.3482 v -5.85597 c 0,-0.98736 -0.3366,-1.81854 -1.02415,-2.50521 -0.68488,-0.68667 -1.51606,-1.02327 -2.50433,-1.02327 h -7.34868 c -0.9398,0 -1.75752,0.3366 -2.46841,1.02327 -0.69835,0.68667 -1.04841,1.51785 -1.04841,2.50521 v 5.36139 c -1.22792,0.28814 -2.42084,0.64986 -3.56617,1.09597 -1.15523,0.44523 -2.2512,0.95237 -3.28794,1.51787 l -4.22861,-4.16848 c -0.66243,-0.69834 -1.46938,-1.06008 -2.44507,-1.06008 -0.96492,0 -1.79521,0.36174 -2.50612,1.06008 l -5.14326,5.15673 c -0.71002,0.71 -1.06009,1.54209 -1.06009,2.50431 0,0.96403 0.35007,1.80778 1.06009,2.50612 l 3.80763,3.8193 c -0.66243,1.02328 -1.24049,2.10759 -1.75842,3.23856 -0.5188,1.13278 -0.96311,2.29069 -1.34999,3.45847 H 3.53027 c -0.98915,0 -1.82034,0.33661 -2.5061,1.02328 C 0.3375,57.818702 0,58.649882 0,59.638142 v 7.34869 c 0,0.938 0.3375,1.75841 1.02327,2.46931 0.68576,0.69743 1.51785,1.0475 2.50611,1.0475 h 5.3596 c 0.28903,1.22703 0.64986,2.41994 1.09686,3.56439 0.44702,1.15701 0.95237,2.27722 1.51785,3.36063 l -4.16847,4.15591 c -0.69923,0.66334 -1.06007,1.47029 -1.06007,2.44689 0,0.96311 0.36084,1.7952 1.06007,2.5061 l 5.15674,5.21598 c 0.71,0.66244 1.54118,0.98916 2.50612,0.98916 0.96222,0 1.80507,-0.32582 2.50521,-0.98916 l 3.8184,-3.87855 c 1.02328,0.66153 2.10848,1.23959 3.24035,1.7593 1.13278,0.51613 2.2889,0.96314 3.45758,1.34821 v 5.85507 c 0,0.98738 0.3375,1.81766 1.02327,2.50342 0.68667,0.688458 1.51875,1.025958 2.50611,1.025958 h 7.3478 c 0.93978,0 1.75839,-0.3375 2.4693,-1.025958 0.69744,-0.68576 1.0475,-1.51604 1.0475,-2.50342 v -5.36139 c 1.22882,-0.28812 2.42084,-0.64986 3.56529,-1.09687 1.15701,-0.44521 2.27811,-0.95237 3.36063,-1.51784 l 4.15591,4.16937 c 0.66332,0.69832 1.48105,1.06006 2.47111,1.06006 0.99812,0 1.81764,-0.36084 2.48186,-1.06006 l 5.216,-5.15585 c 0.66243,-0.7118 0.98915,-1.54297 0.98915,-2.50611 0,-0.96313 -0.32583,-1.80688 -0.98915,-2.50522 l -3.87855,-3.8193 c 0.66243,-1.02417 1.24049,-2.10759 1.75931,-3.23947 0.51611,-1.13188 0.96222,-2.28978 1.34818,-3.45756 h 5.85508 c 0.98737,0 1.817655,-0.33931 2.503414,-1.02417 0.687566,-0.68757 1.025065,-1.51785 1.025065,-2.50612 v -7.34778 c 0,-0.93979 -0.337499,-1.75752 -1.025065,-2.47021 -0.685759,-0.69834 -1.516044,-1.04751 -2.503414,-1.04751 h -5.36138 c -0.28903,-1.18035 -0.65077,-2.3607 -1.09688,-3.52848 -0.44521,-1.18125 -0.95235,-2.28889 -1.51785,-3.32652 l 4.16937,-4.22683 c 0.69835,-0.66243 1.06007,-1.47027 1.06007,-2.44506 0,-0.96493 -0.36083,-1.79521 -1.06007,-2.50612 z m -23.6456,13.05835 c 1.97563,0 3.84176,0.37429 5.61182,1.1202 1.76021,0.75937 3.29062,1.78264 4.59126,3.07071 1.28806,1.30063 2.31132,2.83284 3.0707,4.58944 0.7477,1.77098 1.12021,3.6389 1.12021,5.61363 0,1.97563 -0.37251,3.84355 -1.12021,5.61361 -0.75938,1.75842 -1.78264,3.29062 -3.0707,4.59126 -1.30064,1.28895 -2.83105,2.31132 -4.59126,3.0707 -1.77006,0.7477 -3.63619,1.12021 -5.61182,1.12021 -1.97563,0 -3.84354,-0.37251 -5.61451,-1.12021 -1.75751,-0.75938 -3.28883,-1.78175 -4.58856,-3.0707 -1.28986,-1.30064 -2.31313,-2.83195 -3.0725,-4.59126 -0.74591,-1.77006 -1.1202,-3.63798 -1.1202,-5.61361 0,-1.97473 0.37429,-3.84265 1.1202,-5.61363 0.75937,-1.7575 1.78264,-3.28881 3.0725,-4.58944 1.29973,-1.28807 2.83105,-2.31224 4.58856,-3.07071 1.77007,-0.74591 3.63888,-1.1202 5.61451,-1.1202 z"
     id="path918"
     style="stroke-width:0.897605"
     sodipodi:nodetypes="csccccscsscsccccsccsccscsssscsccccsccsccccscsscsccccsccsccccscsscsccccsccscccscccscccscccs" /></svg>
