<svg width="30" height="30" viewBox="0 0 30 30" fill="currentColor" xmlns="http://www.w3.org/2000/svg">
<path d="M5.92889 11.8096C6.01421 11.5469 6.29614 11.403 6.55877 11.4883C6.82118 11.5737 6.96515 11.8557 6.88006 12.1182C6.34963 13.751 6.31629 15.5027 6.78045 17.1504L6.88006 17.4785L6.90155 17.5772C6.92767 17.8082 6.7885 18.0337 6.55877 18.1084C6.32886 18.1831 6.0836 18.0824 5.96893 17.8799L5.92889 17.7871L5.81756 17.4219C5.29982 15.5842 5.33729 13.6307 5.92889 11.8096Z" fill="#FE1D01"/>
<path d="M24.4422 11.4883C24.6719 11.4138 24.9164 11.5146 25.0311 11.7168L25.0721 11.8096L25.1834 12.1748C25.7011 14.0124 25.6636 15.9661 25.0721 17.7871C24.9868 18.0497 24.7048 18.1936 24.4422 18.1084C24.1796 18.0231 24.0357 17.7411 24.1209 17.4785C24.6513 15.8458 24.6847 14.0939 24.2205 12.4463L24.1209 12.1182L24.0994 12.0196C24.0733 11.7884 24.2123 11.563 24.4422 11.4883Z" fill="#FE1D01"/>
<path d="M8.22075 20.9967C8.40042 20.8354 8.6647 20.8282 8.85161 20.9665L8.92681 21.0348L9.1602 21.2848C10.3544 22.5107 11.8885 23.3567 13.5674 23.7145C13.8375 23.7721 14.0097 24.0382 13.9522 24.3082C13.8946 24.5782 13.6294 24.7504 13.3594 24.693C11.4873 24.2941 9.77667 23.3497 8.44438 21.9821L8.18267 21.7028L8.1231 21.6217C8.00529 21.4212 8.04111 21.1584 8.22075 20.9967Z" fill="#FE1D01"/>
<path d="M8.92681 8.78293C8.74221 8.98808 8.42604 9.0044 8.22075 8.82004C8.0156 8.63544 7.9983 8.31927 8.18267 8.11399L8.92681 8.78293ZM13.3594 5.12375C13.6295 5.06637 13.8948 5.23938 13.9522 5.5095C14.0094 5.77947 13.8374 6.04487 13.5674 6.10227C11.777 6.48261 10.1516 7.42173 8.92681 8.78293L8.55474 8.44797L8.18267 8.11399C9.54878 6.59579 11.3621 5.54803 13.3594 5.12375Z" fill="#FE1D01"/>
<path d="M22.2643 20.9664C22.4514 20.8282 22.7155 20.8359 22.8951 20.9977C23.1003 21.1825 23.117 21.4986 22.9322 21.7037L22.6705 21.9821C21.3376 23.3494 19.6288 24.294 17.7555 24.693C17.4854 24.7505 17.2193 24.5783 17.1617 24.3082C17.1042 24.0382 17.2766 23.7721 17.5465 23.7145C19.3385 23.3329 20.963 22.3951 22.1891 21.0338L22.2643 20.9664Z" fill="#FE1D01"/>
<path d="M17.7545 5.12376L18.1276 5.21067C19.9784 5.68093 21.6505 6.69095 22.9322 8.114C23.1169 8.31918 23.1003 8.63529 22.8951 8.82005C22.6899 9.00446 22.3738 8.98798 22.1891 8.78294C21.0396 7.50675 19.5404 6.60196 17.8815 6.1804L17.5475 6.10228L17.4508 6.07103C17.2377 5.97815 17.1118 5.74574 17.1617 5.5095C17.2119 5.27322 17.4215 5.11141 17.6539 5.11302L17.7545 5.12376Z" fill="#FE1D01"/>
<path d="M15.6633 12.0212C15.436 12.0212 15.2515 12.0822 15.1098 12.2041C14.9681 12.3227 14.8578 12.4923 14.7787 12.7131C14.7029 12.9305 14.6502 13.1908 14.6206 13.4939C14.5942 13.797 14.581 14.1314 14.581 14.4971C14.581 14.8628 14.5942 15.1972 14.6206 15.5003C14.6502 15.8034 14.7029 16.0637 14.7787 16.2811C14.8578 16.4985 14.9681 16.6666 15.1098 16.7852C15.2515 16.9038 15.436 16.9631 15.6633 16.9631C15.8873 16.9631 16.0702 16.9038 16.2118 16.7852C16.3535 16.6666 16.4639 16.5002 16.5429 16.286C16.622 16.0719 16.6764 15.8133 16.706 15.5102C16.7357 15.2071 16.7505 14.8694 16.7505 14.4971C16.7505 14.1347 16.7357 13.8019 16.706 13.4988C16.6797 13.1957 16.627 12.9355 16.5479 12.718C16.4688 12.4973 16.3584 12.326 16.2168 12.2041C16.0751 12.0822 15.8906 12.0212 15.6633 12.0212ZM15.6633 10.8105C16.1838 10.8105 16.6253 10.9076 16.9877 11.102C17.3501 11.2931 17.6433 11.555 17.8674 11.8878C18.0947 12.2205 18.2594 12.6109 18.3615 13.059C18.4637 13.5071 18.5147 13.9864 18.5147 14.4971C18.5147 14.8331 18.4933 15.1577 18.4505 15.4706C18.4077 15.7803 18.3385 16.0719 18.2429 16.3454C18.1507 16.6188 18.0304 16.8692 17.8822 17.0965C17.7339 17.3205 17.5544 17.5133 17.3435 17.6747C17.1327 17.8361 16.8872 17.9613 16.6072 18.0503C16.3304 18.1392 16.0158 18.1837 15.6633 18.1837C15.1362 18.1837 14.6914 18.0882 14.329 17.8971C13.9666 17.7027 13.6717 17.4392 13.4444 17.1064C13.2204 16.7704 13.0589 16.3799 12.9601 15.9352C12.8612 15.4871 12.8118 15.0078 12.8118 14.4971C12.8118 14.1676 12.8316 13.8481 12.8711 13.5384C12.914 13.2287 12.9815 12.9371 13.0737 12.6637C13.166 12.3902 13.2846 12.1398 13.4296 11.9125C13.5778 11.6852 13.7574 11.4908 13.9682 11.3294C14.1791 11.1646 14.4245 11.0378 14.7046 10.9488C14.9846 10.8566 15.3042 10.8105 15.6633 10.8105Z" fill="#FE1D01"/>
</svg>
