<?xml version="1.0" encoding="UTF-8" standalone="no"?>
<svg
   width="141.44202"
   height="290"
   viewBox="0 0 141.44202 289.99998"
   fill="none"
   version="1.1"
   id="svg6"
   sodipodi:docname="usb-stick-dice.svg"
   inkscape:version="1.1.2 (0a00cf5339, 2022-02-04)"
   xmlns:inkscape="http://www.inkscape.org/namespaces/inkscape"
   xmlns:sodipodi="http://sodipodi.sourceforge.net/DTD/sodipodi-0.dtd"
   xmlns="http://www.w3.org/2000/svg"
   xmlns:svg="http://www.w3.org/2000/svg">
  <defs
     id="defs10" />
  <sodipodi:namedview
     id="namedview8"
     pagecolor="#ffffff"
     bordercolor="#999999"
     borderopacity="1"
     inkscape:pageshadow="0"
     inkscape:pageopacity="0"
     inkscape:pagecheckerboard="0"
     showgrid="false"
     fit-margin-top="0"
     fit-margin-left="0"
     fit-margin-right="0"
     fit-margin-bottom="0"
     inkscape:zoom="0.4743508"
     inkscape:cx="-266.68027"
     inkscape:cy="223.46331"
     inkscape:window-width="1402"
     inkscape:window-height="849"
     inkscape:window-x="0"
     inkscape:window-y="158"
     inkscape:window-maximized="0"
     inkscape:current-layer="svg6" />
  <path
     d="m 0,104.29935 h 88.339263 v 103.06219 c 0,24.3944 -19.775235,44.16963 -44.169632,44.16963 v 0 C 19.775235,251.53117 0,231.75594 0,207.36154 Z"
     fill="#000000"
     id="path2"
     style="stroke-width:9.81547" />
  <rect
     x="19.630951"
     y="69.94519"
     width="49.07737"
     height="39.261894"
     stroke="#000000"
     id="rect4"
     style="stroke-width:9.81547" />
  <circle
     style="fill:#ffffff;fill-opacity:1;stroke:none;stroke-width:1.14111;stroke-opacity:1;paint-order:markers stroke fill"
     id="path2322"
     cx="90.36602"
     cy="93.075989"
     r="51.075989" />
  <g
     id="g2478"
     transform="matrix(2.4726764,0,0,2.4726764,-349.32782,-166.03563)"
     style="fill:#000000;fill-opacity:1">
    <path
       class="st0"
       d="m 162.54792,114.29807 13.80368,7.47276 c 0.40121,0.21823 0.95865,0.18558 0.95865,-0.27213 l 0.003,-17.61681 c 0,-0.45776 -0.0363,-0.90481 -0.45771,-1.08523 L 163.0627,96.883101 c -0.41987,-0.18044 -1.00178,-0.0187 -1.00178,0.43894 l 0.0311,15.893389 c 0,0.45512 0.0565,0.86442 0.45771,1.08249 z m 1.37334,-4.88755 c 0.86441,-0.54935 2.1516,0.0783 2.87062,1.4003 0.71901,1.32218 0.60321,2.84366 -0.26126,3.39302 -0.86441,0.54935 -2.1516,-0.0783 -2.87061,-1.4003 -0.71897,-1.32487 -0.60322,-2.84366 0.26125,-3.39302 z m 4.07974,-3.0618 c 0.91558,-0.55474 2.27544,0.0781 3.03753,1.41645 0.76209,1.33838 0.6409,2.87329 -0.27473,3.42804 -0.91558,0.55475 -2.27549,-0.0783 -3.03753,-1.41647 -0.76479,-1.33565 -0.64095,-2.8706 0.27473,-3.42802 z m 4.32477,-3.23146 c 0.92091,-0.55742 2.29161,0.0781 3.05909,1.41645 0.76748,1.33837 0.64359,2.876 -0.27732,3.43073 -0.92097,0.55741 -2.29166,-0.0781 -3.05909,-1.41645 -0.76749,-1.33836 -0.64365,-2.8733 0.27732,-3.43073 z"
       id="path826"
       style="fill:#000000;fill-opacity:1;stroke-width:0.269288"
       sodipodi:nodetypes="cccccccccccccccccccccsccc" />
    <path
       class="st0"
       d="m 192.24521,95.60012 -13.33783,5.42615 c -0.42308,0.17212 -1.12303,0.28035 -1.54569,0.10772 l -14.1161,-5.76546 c -0.42298,-0.17235 0.005,-0.93982 0.43646,-1.09062 l 14.23459,-4.987206 c 0.10782,-0.03784 2.78172,0.937119 3.15603,1.069073 l 11.609,4.149723 c 0.44993,0.15888 0.14254,0.85364 -0.43646,1.09062 z m 1.23872,18.97399 -13.80368,7.47276 c -0.40121,0.21823 -0.95865,0.18558 -0.95865,-0.27213 l -0.003,-17.61681 c 0,-0.45776 0.0363,-0.90481 0.45771,-1.08523 l 13.79284,-5.91356 c 0.41987,-0.18044 1.00178,-0.0187 1.00178,0.43894 l -0.0311,15.89339 c 0,0.45512 -0.0565,0.86442 -0.45771,1.08249 z m -2.26697,-5.60412 c -0.91558,-0.55474 -2.27544,0.0781 -3.03753,1.41645 -0.76209,1.33838 -0.6409,2.87329 0.27473,3.42804 0.91558,0.55475 2.27549,-0.0783 3.03753,-1.41647 0.76479,-1.33565 0.64095,-2.8706 -0.27473,-3.42802 z m -5.35365,-4.09808 c -0.92091,-0.55742 -2.29161,0.0781 -3.05909,1.41645 -0.76748,1.33837 -0.64359,2.876 0.27732,3.43073 0.92097,0.55741 2.29166,-0.0781 3.05909,-1.41645 0.76749,-1.33836 0.64365,-2.8733 -0.27732,-3.43073 z m -7.82304,-11.41263 c -1.62646,0 -2.94329,0.63013 -2.94329,1.40568 0,0.77555 1.31683,1.40568 2.94329,1.40568 1.62381,0 2.94334,-0.63013 2.94334,-1.40568 0,-0.77555 -1.31953,-1.40568 -2.94334,-1.40568 z"
       id="path1231"
       style="fill:#000000;fill-opacity:1;stroke-width:0.269288"
       sodipodi:nodetypes="cssccccccccccccccccccccccscccsssss" />
  </g>
</svg>
