<?xml version="1.0" encoding="utf-8"?><svg version="1.1" id="Layer_1" xmlns="http://www.w3.org/2000/svg" xmlns:xlink="http://www.w3.org/1999/xlink" x="0px" y="0px" viewBox="0 0 117.2 122.88" style="enable-background:new 0 0 117.2 122.88" xml:space="preserve"><g><path d="M13.6,0h94.33c2.54,0,4.86,1.04,6.54,2.72l0.01,0.01c1.68,1.68,2.72,4,2.72,6.54v95.79c0,2.54-1.04,4.86-2.72,6.54 l-0.01,0.01c-1.68,1.68-4,2.72-6.54,2.72h-9.01l-3.72,8.54H84.78l-3.9-8.54H43.16l-3.72,8.54H29.02l-3.9-8.54H13.6 c-2.54,0-4.86-1.04-6.54-2.72l-0.01-0.01c-1.68-1.68-2.72-4-2.72-6.54v-8.35H2.3c-1.26,0-2.3-1.03-2.3-2.3V64.93 c0-1.26,1.03-2.3,2.3-2.3h2.03V49.32H2.3c-1.26,0-2.3-1.03-2.3-2.3V17.53c0-1.26,1.03-2.3,2.3-2.3h2.03V9.27 c0-2.54,1.04-4.86,2.72-6.54l0.01-0.01C8.74,1.04,11.06,0,13.6,0L13.6,0z M50.71,35.13c0.6,1.05,0.24,2.39-0.81,2.99 c-1.05,0.6-2.39,0.24-2.99-0.81l-2.87-4.97c-1.6,1.08-3.08,2.31-4.44,3.67c-1.36,1.36-2.59,2.84-3.67,4.44l4.98,2.88 c1.05,0.61,1.41,1.95,0.8,3s-1.95,1.41-3,0.8l-4.98-2.87c-1.64,3.39-2.68,7.12-2.96,11.07h5.74c1.21,0,2.2,0.99,2.2,2.2 c0,1.21-0.99,2.2-2.2,2.2h-5.74c0.28,3.95,1.32,7.69,2.96,11.07l4.98-2.88c1.05-0.6,2.39-0.24,2.99,0.81 c0.6,1.05,0.24,2.39-0.81,2.99l-4.97,2.87c1.08,1.6,2.31,3.08,3.67,4.44c1.36,1.36,2.84,2.59,4.44,3.67l2.88-4.98 c0.61-1.05,1.95-1.41,3-0.8c1.05,0.61,1.41,1.95,0.8,3l-2.87,4.98c3.39,1.64,7.12,2.68,11.07,2.96V82.1c0-1.21,0.99-2.2,2.2-2.2 c1.21,0,2.2,0.99,2.2,2.2v5.74c3.95-0.28,7.69-1.32,11.07-2.96L71.5,79.9c-0.6-1.05-0.24-2.39,0.81-2.99 c1.05-0.6,2.39-0.24,2.99,0.81l2.87,4.97c1.6-1.08,3.08-2.31,4.44-3.67c1.36-1.36,2.59-2.85,3.67-4.44l-4.97-2.87 c-1.05-0.6-1.41-1.94-0.81-2.99c0.6-1.05,1.94-1.41,2.99-0.81l4.98,2.88c1.65-3.39,2.68-7.13,2.96-11.07H85.7 c-1.21,0-2.2-0.99-2.2-2.2c0-1.21,0.99-2.2,2.2-2.2h5.74c-0.28-3.95-1.32-7.69-2.96-11.07l-4.98,2.88 c-1.05,0.6-2.39,0.24-2.99-0.81c-0.6-1.05-0.24-2.39,0.81-2.99l4.97-2.87c-1.08-1.6-2.31-3.08-3.67-4.44 c-1.36-1.36-2.85-2.59-4.44-3.67l-2.87,4.97c-0.6,1.05-1.94,1.41-2.99,0.81c-1.05-0.6-1.41-1.94-0.81-2.99l2.88-4.98 c-3.39-1.65-7.13-2.68-11.07-2.96v5.74c0,1.21-0.99,2.2-2.2,2.2c-1.21,0-2.2-0.99-2.2-2.2v-5.74c-3.95,0.28-7.69,1.32-11.07,2.96 L50.71,35.13L50.71,35.13z M8.72,62.63h2.21c1.26,0,2.3,1.03,2.3,2.3v29.49c0,1.26-1.03,2.3-2.3,2.3H8.72v8.35 c0,1.34,0.55,2.56,1.42,3.44l0.01,0.01c0.88,0.88,2.1,1.42,3.44,1.42h94.33c1.34,0,2.56-0.55,3.44-1.42l0.01-0.01 c0.88-0.88,1.42-2.1,1.42-3.44V9.27c0-1.34-0.55-2.56-1.42-3.44l-0.01-0.01c-0.88-0.88-2.1-1.42-3.44-1.42H13.6 c-1.34,0-2.56,0.55-3.44,1.42l-0.01,0.01c-0.88,0.88-1.42,2.1-1.42,3.44v5.96h2.21c1.26,0,2.3,1.03,2.3,2.3v29.49 c0,1.26-1.03,2.3-2.3,2.3H8.72V62.63L8.72,62.63z M61.11,38.52c5.24,0,9.99,2.13,13.43,5.56s5.56,8.18,5.56,13.43 c0,5.24-2.13,9.99-5.56,13.43c-3.44,3.44-8.18,5.56-13.43,5.56c-5.24,0-9.99-2.13-13.43-5.56c-3.44-3.44-5.56-8.18-5.56-13.43 c0-5.24,2.13-9.99,5.56-13.43C51.11,40.65,55.86,38.52,61.11,38.52L61.11,38.52z M61.11,22.7c9.61,0,18.32,3.9,24.62,10.2 c6.3,6.3,10.2,15,10.2,24.62s-3.9,18.32-10.2,24.62c-6.3,6.3-15,10.2-24.62,10.2c-9.61,0-18.32-3.9-24.62-10.2 c-6.3-6.3-10.2-15-10.2-24.62c0-9.61,3.9-18.32,10.2-24.62C42.79,26.6,51.49,22.7,61.11,22.7L61.11,22.7z"/></g></svg>