<svg width="30" height="30" viewBox="0 0 30 30" fill="currentColor" xmlns="http://www.w3.org/2000/svg">
<path d="M15 23.5C15.6904 23.5 16.25 22.9404 16.25 22.25C16.25 21.5596 15.6904 21 15 21C14.3096 21 13.75 21.5596 13.75 22.25C13.75 22.9404 14.3096 23.5 15 23.5Z" fill="currentColor"/>
<path d="M12.1683 7.44531C13.5205 5.41729 16.2578 5.35372 17.6967 7.25488L17.8324 7.44531L17.8549 7.48047L17.8754 7.5166L25.8597 21.9883C26.4323 22.8653 26.7922 23.9821 26.6088 24.9912C26.5111 25.5285 26.2507 26.0592 25.7621 26.4473C25.2777 26.8318 24.6657 26.9999 24.0004 27H6.00037C5.33484 27 4.72215 26.8319 4.23768 26.4473C3.74903 26.0592 3.48868 25.5285 3.391 24.9912C3.20811 23.9849 3.5664 22.8719 4.13611 21.9961L12.1244 7.5166L12.1449 7.48047L12.1683 7.44531ZM16.1508 8.53027C15.5471 7.65515 14.4477 7.65737 13.8461 8.53613L5.87537 22.9834L5.85486 23.0195L5.8324 23.0547C5.42124 23.6714 5.29524 24.2844 5.35877 24.6338C5.38603 24.7835 5.43831 24.847 5.48084 24.8809C5.5276 24.918 5.66597 25 6.00037 25H24.0004C24.3345 24.9999 24.4722 24.918 24.5189 24.8809C24.5615 24.847 24.6137 24.7837 24.641 24.6338C24.7045 24.2844 24.5794 23.6714 24.1683 23.0547L24.1449 23.0195L24.1244 22.9834L16.1508 8.53027Z" fill="currentColor"/>
<path d="M14 19V13C14 12.4477 14.4477 12 15 12C15.5523 12 16 12.4477 16 13V19C16 19.5523 15.5523 20 15 20C14.4477 20 14 19.5523 14 19Z" fill="currentColor"/>
</svg>
