<?xml version="1.0" encoding="UTF-8" standalone="no"?>
<!-- Created with Inkscape (http://www.inkscape.org/) -->

<svg
   width="120.41305mm"
   height="174.03589mm"
   viewBox="0 0 120.41305 174.03589"
   version="1.1"
   id="svg5"
   xml:space="preserve"
   inkscape:version="1.2.2 (b0a8486541, 2022-12-01)"
   sodipodi:docname="write-seed.svg"
   xmlns:inkscape="http://www.inkscape.org/namespaces/inkscape"
   xmlns:sodipodi="http://sodipodi.sourceforge.net/DTD/sodipodi-0.dtd"
   xmlns="http://www.w3.org/2000/svg"
   xmlns:svg="http://www.w3.org/2000/svg"><sodipodi:namedview
     id="namedview7"
     pagecolor="#ffffff"
     bordercolor="#000000"
     borderopacity="0.25"
     inkscape:showpageshadow="2"
     inkscape:pageopacity="0.0"
     inkscape:pagecheckerboard="0"
     inkscape:deskcolor="#d1d1d1"
     inkscape:document-units="mm"
     showgrid="false"
     showguides="true"
     inkscape:zoom="1.4734708"
     inkscape:cx="262.98451"
     inkscape:cy="357.3196"
     inkscape:window-width="1920"
     inkscape:window-height="1008"
     inkscape:window-x="0"
     inkscape:window-y="0"
     inkscape:window-maximized="1"
     inkscape:current-layer="layer1"><sodipodi:guide
       position="49.073513,111.20289"
       orientation="0,-1"
       id="guide2037"
       inkscape:locked="false" /></sodipodi:namedview><defs
     id="defs2"><inkscape:path-effect
       effect="spiro"
       id="path-effect2197"
       is_visible="true"
       lpeversion="1" /><inkscape:path-effect
       effect="spiro"
       id="path-effect2177"
       is_visible="true"
       lpeversion="1" /><inkscape:path-effect
       effect="spiro"
       id="path-effect2157"
       is_visible="true"
       lpeversion="1" /><inkscape:path-effect
       effect="spiro"
       id="path-effect1937"
       is_visible="true"
       lpeversion="1" /><inkscape:path-effect
       effect="spiro"
       id="path-effect1925"
       is_visible="true"
       lpeversion="1" /></defs><g
     inkscape:label="Layer 1"
     inkscape:groupmode="layer"
     id="layer1"
     transform="translate(-35.860585,-103.62347)"><rect
       style="fill:none;stroke:#000000;stroke-width:5.7424;stroke-dasharray:none;stroke-opacity:1"
       id="rect302"
       width="114.67065"
       height="151.66098"
       x="38.731785"
       y="123.12718"
       rx="2.916152" /><text
       xml:space="preserve"
       style="font-size:36.6692px;font-family:sans-serif;-inkscape-font-specification:sans-serif;text-align:center;text-anchor:middle;fill:none;stroke:#000000;stroke-width:17.4626;stroke-dasharray:none;stroke-opacity:1"
       x="55.641453"
       y="166.44588"
       id="text1692"><tspan
         sodipodi:role="line"
         id="tspan1690"
         style="font-size:36.6692px;fill:#000000;fill-opacity:1;stroke:none;stroke-width:17.4626"
         x="55.641453"
         y="166.44588">1</tspan></text><path
       style="fill:#000000;fill-opacity:1;stroke:none;stroke-width:3.69599;stroke-dasharray:none;stroke-opacity:1"
       d="m 52.432889,169.50907 c 0.47884,0 0.957677,0 1.436518,0"
       id="path1810" /><path
       style="fill:#000000;fill-opacity:1;stroke:#000000;stroke-width:3.2803;stroke-dasharray:none;stroke-opacity:1"
       d="M 67.884477,164.77503 H 143.84034"
       id="path1911" /><text
       xml:space="preserve"
       style="font-size:36.6692px;font-family:sans-serif;-inkscape-font-specification:sans-serif;text-align:center;text-anchor:middle;fill:none;stroke:#000000;stroke-width:17.4626;stroke-dasharray:none;stroke-opacity:1"
       x="55.641453"
       y="203.48758"
       id="text2141"><tspan
         sodipodi:role="line"
         id="tspan2139"
         style="font-size:36.6692px;fill:#000000;fill-opacity:1;stroke:none;stroke-width:17.4626"
         x="55.641453"
         y="203.48758">2</tspan></text><path
       style="fill:#000000;fill-opacity:1;stroke:none;stroke-width:3.69599;stroke-dasharray:none;stroke-opacity:1"
       d="m 52.432889,206.55076 c 0.47884,0 0.957677,0 1.436518,0"
       id="path2143" /><path
       style="fill:#000000;fill-opacity:1;stroke:#000000;stroke-width:3.2803;stroke-dasharray:none;stroke-opacity:1"
       d="M 67.884477,201.81672 H 143.84034"
       id="path2147" /><text
       xml:space="preserve"
       style="font-size:36.6692px;font-family:sans-serif;-inkscape-font-specification:sans-serif;text-align:center;text-anchor:middle;fill:none;stroke:#000000;stroke-width:17.4626;stroke-dasharray:none;stroke-opacity:1"
       x="55.641453"
       y="240.52928"
       id="text2161"><tspan
         sodipodi:role="line"
         id="tspan2159"
         style="font-size:36.6692px;fill:#000000;fill-opacity:1;stroke:none;stroke-width:17.4626"
         x="55.641453"
         y="240.52928">3</tspan></text><path
       style="fill:#000000;fill-opacity:1;stroke:none;stroke-width:3.69599;stroke-dasharray:none;stroke-opacity:1"
       d="m 52.432889,243.59245 c 0.47884,0 0.957677,0 1.436518,0"
       id="path2163" /><path
       style="fill:#000000;fill-opacity:1;stroke:#000000;stroke-width:3.2803;stroke-dasharray:none;stroke-opacity:1"
       d="M 67.884477,238.85841 H 143.84034"
       id="path2167" /><path
       style="fill:#000000;fill-opacity:1;stroke:none;stroke-width:3.69599;stroke-dasharray:none;stroke-opacity:1"
       d="m 52.432889,243.59245 c 0.47884,0 0.957677,0 1.436518,0"
       id="path2183" /><path
       class="st0"
       d="m 121.02261,103.62359 c 0.64629,-0.006 1.20253,0.21191 1.68462,0.67281 l 7.0298,6.72782 c 0.45559,0.4344 0.67808,1.01184 0.68867,1.64754 0.0104,0.6463 -0.1802,1.23433 -0.62509,1.6846 l -3.74005,3.89368 -10.38844,-10.0335 3.70297,-3.85658 c 0.45558,-0.47149 1.00651,-0.72577 1.64752,-0.73637 z m -32.902891,36.17676 c 1.271411,-0.39202 2.611666,0.32315 3.003706,1.58926 0.392009,1.2714 -0.323165,2.61168 -1.589256,3.00369 -3.697692,1.13365 -6.176939,3.32683 -6.998042,5.38758 -0.217199,0.55092 -0.291361,1.0542 -0.206608,1.4674 0.06347,0.31257 0.254281,0.59861 0.566848,0.8264 1.350854,0.98536 4.259207,1.23963 9.143507,0.0531 2.892451,-0.70455 5.991505,-1.65811 8.735626,-2.50572 2.80238,-0.8635 5.24984,-1.62104 6.95034,-1.93888 3.13613,-0.58273 6.26696,-0.98005 8.79387,-0.85291 3.31626,0.16418 5.8061,1.22902 6.65898,3.77714 0.55095,1.64751 0.39732,3.07786 0.25959,4.35985 -0.0477,0.46089 -0.0953,0.88998 -0.074,1.17076 0,0.0104 0.50328,-0.0265 2.92955,-0.21721 2.80768,-0.2225 5.71601,-1.32968 8.58727,-2.42626 1.4727,-0.56153 2.93482,-1.11777 4.59295,-1.62633 1.2714,-0.38673 2.61168,0.33373 2.9931,1.59984 0.3867,1.27141 -0.33375,2.61167 -1.59986,2.99309 -1.28729,0.39203 -2.77589,0.96417 -4.2698,1.531 -3.1997,1.21842 -6.43119,2.45274 -9.92755,2.72821 -6.39411,0.50327 -7.8774,-1.30319 -8.10519,-4.21152 -0.0531,-0.68339 0.0159,-1.34558 0.0901,-2.05545 0.0847,-0.79462 0.1802,-1.6846 -0.037,-2.32561 -0.0953,-0.28605 -1.00125,-0.4344 -2.32563,-0.49796 -2.11369,-0.10592 -4.8843,0.25428 -7.70259,0.77874 -1.40383,0.25958 -3.73475,0.98003 -6.4047,1.80644 -2.791778,0.8635 -5.943805,1.83295 -9.016377,2.57989 -6.431187,1.56278 -10.706294,0.90059 -13.10078,-0.84759 -1.345565,-0.98004 -2.145489,-2.26203 -2.452749,-3.70827 -0.286056,-1.34557 -0.121734,-2.79709 0.450298,-4.23801 1.303179,-3.25266 4.889598,-6.62189 10.054696,-8.20056 z m 11.225443,-10.51027 6.372928,6.12924 -7.792655,2.0925 c -0.280767,0.0531 -0.392009,-0.0583 -0.344342,-0.31786 z m 13.031898,-17.66193 10.37785,9.99642 -14.17617,14.96549 -12.703447,3.40631 c -0.455584,0.0901 -0.635698,-0.0901 -0.561541,-0.51917 l 2.87655,-12.87828 z"
       id="path134"
       style="fill:#0000ff;stroke-width:0.529752" /></g><style
     type="text/css"
     id="style132"><![CDATA[
	.st0{fill-rule:evenodd;clip-rule:evenodd;}
]]></style></svg>
