<svg width="30" height="30" viewBox="0 0 30 30" fill="currentColor" xmlns="http://www.w3.org/2000/svg">
<path d="M7.5 6V24H22.5V6H7.5ZM24.5 24C24.5 25.1046 23.6046 26 22.5 26H7.5C6.39543 26 5.5 25.1046 5.5 24V6C5.5 4.89543 6.39543 4 7.5 4H22.5C23.6046 4 24.5 4.89543 24.5 6V24Z" fill="currentColor"/>
<path d="M9.18945 9.04883C9.14779 9.07096 9.10742 9.08203 9.06836 9.08203C9.03451 9.08203 9.00326 9.07552 8.97461 9.0625C8.94596 9.04818 8.92122 9.02995 8.90039 9.00781C8.87956 8.98568 8.86328 8.96029 8.85156 8.93164C8.83984 8.90169 8.83398 8.87109 8.83398 8.83984C8.83398 8.79297 8.84635 8.7526 8.87109 8.71875C8.89714 8.6849 8.9375 8.65104 8.99219 8.61719L9.64062 8.24805C9.67839 8.22591 9.7181 8.20573 9.75977 8.1875C9.80143 8.16927 9.84505 8.16016 9.89062 8.16016C10.0065 8.16016 10.0911 8.20182 10.1445 8.28516C10.1992 8.36719 10.2266 8.48568 10.2266 8.64062V10.5293C10.2266 10.5931 10.2214 10.6536 10.2109 10.7109C10.2005 10.7669 10.1816 10.8164 10.1543 10.8594C10.1283 10.9023 10.0924 10.9362 10.0469 10.9609C10.0013 10.9857 9.94336 10.998 9.87305 10.998C9.75065 10.998 9.66211 10.9551 9.60742 10.8691C9.55273 10.7832 9.52539 10.6549 9.52539 10.4844V8.84375L9.18945 9.04883Z" fill="currentColor"/>
<path d="M9.67383 14.2581C9.62565 14.2581 9.57682 14.2626 9.52734 14.2717C9.47786 14.2795 9.42904 14.29 9.38086 14.303C9.33398 14.316 9.28776 14.331 9.24219 14.3479C9.19661 14.3648 9.15365 14.3811 9.11328 14.3967C9.07943 14.4098 9.04753 14.4163 9.01758 14.4163C8.98372 14.4163 8.95247 14.4098 8.92383 14.3967C8.89648 14.3837 8.8724 14.3661 8.85156 14.344C8.83203 14.3206 8.81641 14.2939 8.80469 14.2639C8.79297 14.234 8.78711 14.2021 8.78711 14.1682C8.78711 14.1213 8.80078 14.0758 8.82812 14.0315C8.85547 13.9872 8.90104 13.9514 8.96484 13.9241C9.02995 13.8967 9.09701 13.872 9.16602 13.8499C9.23633 13.8264 9.30664 13.8069 9.37695 13.7913C9.44727 13.7743 9.51628 13.7613 9.58398 13.7522C9.65299 13.7431 9.71875 13.7385 9.78125 13.7385C9.92188 13.7385 10.0514 13.7555 10.1699 13.7893C10.2884 13.8219 10.3906 13.87 10.4766 13.9338C10.5625 13.9963 10.6296 14.0745 10.6777 14.1682C10.7272 14.2607 10.752 14.3674 10.752 14.4885C10.752 14.6252 10.7181 14.7646 10.6504 14.9065C10.5827 15.0484 10.4922 15.1884 10.3789 15.3264C10.2669 15.4631 10.138 15.596 9.99219 15.7249C9.84635 15.8538 9.69531 15.9749 9.53906 16.0881H10.3887C10.4395 16.0881 10.4876 16.0927 10.5332 16.1018C10.5801 16.1096 10.6211 16.1233 10.6562 16.1428C10.6914 16.1624 10.7194 16.1884 10.7402 16.221C10.7624 16.2522 10.7734 16.2913 10.7734 16.3381C10.7734 16.4228 10.7493 16.4866 10.7012 16.5295C10.653 16.5725 10.584 16.594 10.4941 16.594H9.04102C8.99414 16.594 8.94987 16.5894 8.9082 16.5803C8.86654 16.5712 8.83008 16.5562 8.79883 16.5354C8.76888 16.5133 8.74479 16.4846 8.72656 16.4495C8.70964 16.413 8.70117 16.3687 8.70117 16.3167C8.70117 16.1851 8.76042 16.0693 8.87891 15.969L9.16406 15.7268C9.20312 15.693 9.24154 15.6604 9.2793 15.6292C9.31706 15.5966 9.34961 15.5673 9.37695 15.5413L9.45508 15.467C9.54883 15.3811 9.63411 15.2965 9.71094 15.2131C9.78776 15.1285 9.85352 15.0471 9.9082 14.969C9.96289 14.8909 10.0052 14.8173 10.0352 14.7483C10.0651 14.6793 10.0801 14.6161 10.0801 14.5588C10.0801 14.5081 10.069 14.4644 10.0469 14.428C10.0247 14.3902 9.99479 14.359 9.95703 14.3342C9.92057 14.3082 9.8776 14.2893 9.82812 14.2776C9.77865 14.2646 9.72721 14.2581 9.67383 14.2581Z" fill="currentColor"/>
<path d="M9.60547 20.5337C9.67188 20.5337 9.73372 20.5265 9.79102 20.5122C9.84831 20.4979 9.89779 20.4758 9.93945 20.4458C9.98242 20.4146 10.0163 20.3762 10.041 20.3306C10.0658 20.2837 10.0781 20.229 10.0781 20.1665C10.0781 20.1105 10.0664 20.0617 10.043 20.02C10.0195 19.9771 9.98763 19.9413 9.94727 19.9126C9.9069 19.884 9.85938 19.8631 9.80469 19.8501C9.7513 19.8358 9.69466 19.8286 9.63477 19.8286C9.58398 19.8286 9.5306 19.8325 9.47461 19.8403C9.41862 19.8469 9.36458 19.8553 9.3125 19.8657L9.19922 19.8872C9.16927 19.8937 9.14583 19.8989 9.12891 19.9028C9.11328 19.9054 9.09701 19.9067 9.08008 19.9067C9.00716 19.9067 8.94727 19.8853 8.90039 19.8423C8.85482 19.7993 8.83203 19.7446 8.83203 19.6782C8.83203 19.5676 8.90299 19.479 9.04492 19.4126C9.18685 19.3449 9.40495 19.311 9.69922 19.311C9.86849 19.311 10.0189 19.3299 10.1504 19.3677C10.2819 19.4041 10.3926 19.4562 10.4824 19.5239C10.5736 19.5916 10.6426 19.673 10.6895 19.7681C10.7363 19.8631 10.7598 19.9679 10.7598 20.0825C10.7598 20.1633 10.7461 20.2394 10.7188 20.311C10.6927 20.3814 10.6569 20.4445 10.6113 20.5005C10.5671 20.5565 10.5143 20.6034 10.4531 20.6411C10.3932 20.6789 10.3294 20.7043 10.2617 20.7173V20.7251C10.3516 20.7394 10.431 20.7668 10.5 20.8071C10.5703 20.8462 10.6289 20.8957 10.6758 20.9556C10.724 21.0142 10.7598 21.0825 10.7832 21.1607C10.8079 21.2388 10.8203 21.3228 10.8203 21.4126C10.8203 21.5545 10.7917 21.6769 10.7344 21.7798C10.6771 21.8827 10.599 21.9673 10.5 22.0337C10.401 22.1001 10.2845 22.1489 10.1504 22.1802C10.0176 22.2114 9.87435 22.2271 9.7207 22.2271C9.67122 22.2271 9.61914 22.2238 9.56445 22.2173C9.50977 22.2121 9.45312 22.2043 9.39453 22.1939C9.33724 22.1834 9.27995 22.1704 9.22266 22.1548C9.16536 22.1379 9.11068 22.1196 9.05859 22.1001C8.98698 22.0741 8.93034 22.0396 8.88867 21.9966C8.84701 21.9536 8.82617 21.9009 8.82617 21.8384C8.82617 21.8071 8.83203 21.7772 8.84375 21.7485C8.85677 21.7199 8.87435 21.6952 8.89648 21.6743C8.91862 21.6535 8.94596 21.6372 8.97852 21.6255C9.01107 21.6125 9.04688 21.606 9.08594 21.606H9.10352C9.13216 21.6138 9.16602 21.6235 9.20508 21.6353C9.24544 21.647 9.28906 21.6587 9.33594 21.6704C9.38411 21.6821 9.43424 21.6926 9.48633 21.7017C9.53971 21.7095 9.5931 21.7134 9.64648 21.7134C9.71289 21.7134 9.77409 21.7075 9.83008 21.6958C9.88737 21.6828 9.93685 21.6626 9.97852 21.6353C10.0215 21.6079 10.0547 21.5721 10.0781 21.5278C10.1029 21.4836 10.1152 21.4295 10.1152 21.3657C10.1152 21.2394 10.0703 21.1418 9.98047 21.0728C9.89062 21.0038 9.76367 20.9692 9.59961 20.9692H9.46094C9.39323 20.9692 9.34115 20.9484 9.30469 20.9067C9.26823 20.8638 9.25 20.813 9.25 20.7544C9.25 20.7271 9.25456 20.7004 9.26367 20.6743C9.27279 20.647 9.28581 20.6235 9.30273 20.604C9.32096 20.5832 9.3431 20.5663 9.36914 20.5532C9.39518 20.5402 9.42578 20.5337 9.46094 20.5337H9.60547Z" fill="currentColor"/>
<path d="M11.542 10.25H20.67" stroke="black" stroke-width="0.5" stroke-linecap="round"/>
<path d="M11.542 22H20.67" stroke="black" stroke-width="0.5" stroke-linecap="round"/>
<path d="M11.542 16.125H20.67" stroke="black" stroke-width="0.5" stroke-linecap="round"/>
</svg>
