<?xml version="1.0" encoding="UTF-8" standalone="no"?>
<svg
   width="300"
   height="121.99999"
   viewBox="0 0 300 121.99999"
   fill="none"
   version="1.1"
   id="svg1391"
   sodipodi:docname="keepkey300.svg"
   inkscape:version="1.2.2 (b0a8486541, 2022-12-01)"
   xmlns:inkscape="http://www.inkscape.org/namespaces/inkscape"
   xmlns:sodipodi="http://sodipodi.sourceforge.net/DTD/sodipodi-0.dtd"
   xmlns="http://www.w3.org/2000/svg"
   xmlns:svg="http://www.w3.org/2000/svg">
  <sodipodi:namedview
     id="namedview1393"
     pagecolor="#ffffff"
     bordercolor="currentColor"
     borderopacity="0.25"
     inkscape:showpageshadow="2"
     inkscape:pageopacity="0.0"
     inkscape:pagecheckerboard="0"
     inkscape:deskcolor="#d1d1d1"
     showgrid="false"
     inkscape:zoom="1.9492577"
     inkscape:cx="122.09776"
     inkscape:cy="53.610151"
     inkscape:window-width="1920"
     inkscape:window-height="1008"
     inkscape:window-x="0"
     inkscape:window-y="0"
     inkscape:window-maximized="1"
     inkscape:current-layer="svg1391" />
  <g
     id="g1515"
     transform="rotate(90,150.12195,149.87805)">
    <g
       clip-path="url(#clip0)"
       id="g1384">
      <rect
         x="1.1813999"
         y="0.9375"
         width="120.125"
         height="298.125"
         stroke="currentColor"
         stroke-width="1.875"
         id="rect1380" />
      <path
         d="m 38.3259,269.034 v -2.521 h 13.664 l -5.74,-5.712 v -3.5 l 6.02,6.188 7.224,-6.72 v 3.584 l -6.888,6.16 h 6.888 v 2.52 z m 15.456,-16.424 c 0.5787,0 1.1107,-0.121 1.596,-0.364 0.4667,-0.261 0.868,-0.597 1.204,-1.008 0.336,-0.411 0.5973,-0.887 0.784,-1.428 0.1867,-0.541 0.28,-1.101 0.28,-1.68 0,-0.784 -0.1773,-1.465 -0.532,-2.044 -0.3733,-0.579 -0.8587,-1.111 -1.456,-1.596 l 1.456,-1.904 c 1.8107,1.4 2.716,3.36 2.716,5.88 0,1.045 -0.1773,1.997 -0.532,2.856 -0.3547,0.84 -0.84,1.559 -1.456,2.156 -0.6347,0.579 -1.372,1.027 -2.212,1.344 -0.8587,0.317 -1.7827,0.476 -2.772,0.476 -0.9893,0 -1.904,-0.168 -2.744,-0.504 -0.8587,-0.355 -1.596,-0.831 -2.212,-1.428 -0.6347,-0.616 -1.1293,-1.344 -1.484,-2.184 -0.3547,-0.84 -0.532,-1.755 -0.532,-2.744 0,-1.176 0.2053,-2.165 0.616,-2.968 0.4107,-0.821 0.952,-1.493 1.624,-2.016 0.6533,-0.523 1.4,-0.896 2.24,-1.12 0.8213,-0.243 1.6613,-0.364 2.52,-0.364 h 0.896 z m -2.016,-7.952 c -0.56,0.019 -1.0733,0.112 -1.54,0.28 -0.4667,0.149 -0.868,0.383 -1.204,0.7 -0.3547,0.317 -0.6253,0.719 -0.812,1.204 -0.2053,0.467 -0.308,1.017 -0.308,1.652 0,0.616 0.1213,1.185 0.364,1.708 0.224,0.504 0.5227,0.933 0.896,1.288 0.3733,0.355 0.7933,0.635 1.26,0.84 0.448,0.187 0.896,0.28 1.344,0.28 z m 2.016,-7.607 c 0.5787,0 1.1107,-0.121 1.596,-0.364 0.4667,-0.261 0.868,-0.597 1.204,-1.008 0.336,-0.41 0.5973,-0.886 0.784,-1.428 0.1867,-0.541 0.28,-1.101 0.28,-1.68 0,-0.784 -0.1773,-1.465 -0.532,-2.044 -0.3733,-0.578 -0.8587,-1.11 -1.456,-1.596 l 1.456,-1.904 c 1.8107,1.4 2.716,3.36 2.716,5.88 0,1.046 -0.1773,1.998 -0.532,2.856 -0.3547,0.84 -0.84,1.559 -1.456,2.156 -0.6347,0.579 -1.372,1.027 -2.212,1.344 -0.8587,0.318 -1.7827,0.476 -2.772,0.476 -0.9893,0 -1.904,-0.168 -2.744,-0.504 -0.8587,-0.354 -1.596,-0.83 -2.212,-1.428 -0.6347,-0.616 -1.1293,-1.344 -1.484,-2.184 -0.3547,-0.84 -0.532,-1.754 -0.532,-2.744 0,-1.176 0.2053,-2.165 0.616,-2.968 0.4107,-0.821 0.952,-1.493 1.624,-2.016 0.6533,-0.522 1.4,-0.896 2.24,-1.12 0.8213,-0.242 1.6613,-0.364 2.52,-0.364 h 0.896 z m -2.016,-7.952 c -0.56,0.019 -1.0733,0.112 -1.54,0.28 -0.4667,0.15 -0.868,0.383 -1.204,0.7 -0.3547,0.318 -0.6253,0.719 -0.812,1.204 -0.2053,0.467 -0.308,1.018 -0.308,1.652 0,0.616 0.1213,1.186 0.364,1.708 0.224,0.504 0.5227,0.934 0.896,1.288 0.3733,0.355 0.7933,0.635 1.26,0.84 0.448,0.187 0.896,0.28 1.344,0.28 z m -5.544,-5.702 v -2.52 h 1.904 v -0.056 c -0.7093,-0.486 -1.26,-1.148 -1.652,-1.988 -0.392,-0.859 -0.588,-1.736 -0.588,-2.632 0,-1.027 0.1773,-1.951 0.532,-2.772 0.3547,-0.84 0.8493,-1.55 1.484,-2.128 0.6347,-0.598 1.3813,-1.055 2.24,-1.372 0.84,-0.318 1.7453,-0.476 2.716,-0.476 0.9893,0 1.9133,0.158 2.772,0.476 0.84,0.317 1.5773,0.774 2.212,1.372 0.616,0.578 1.1013,1.288 1.456,2.128 0.3547,0.821 0.532,1.745 0.532,2.772 0,0.952 -0.196,1.848 -0.588,2.688 -0.4107,0.84 -0.9613,1.484 -1.652,1.932 v 0.056 h 9.8 v 2.52 z m 2.016,-6.888 c 0,0.672 0.1213,1.278 0.364,1.82 0.224,0.541 0.5413,0.998 0.952,1.372 0.392,0.373 0.8773,0.662 1.456,0.868 0.56,0.205 1.176,0.308 1.848,0.308 0.672,0 1.2973,-0.103 1.876,-0.308 0.56,-0.206 1.0453,-0.495 1.456,-0.868 0.392,-0.374 0.7093,-0.831 0.952,-1.372 0.224,-0.542 0.336,-1.148 0.336,-1.82 0,-0.672 -0.112,-1.279 -0.336,-1.82 -0.2427,-0.542 -0.56,-0.999 -0.952,-1.372 -0.4107,-0.374 -0.896,-0.663 -1.456,-0.868 -0.5787,-0.206 -1.204,-0.308 -1.876,-0.308 -0.672,0 -1.288,0.102 -1.848,0.308 -0.5787,0.205 -1.064,0.494 -1.456,0.868 -0.4107,0.373 -0.728,0.83 -0.952,1.372 -0.2427,0.541 -0.364,1.148 -0.364,1.82 z m 8.088,52.524 v -2.52 h 13.664 l -5.74,-5.712 v -3.5 l 6.02,6.188 7.224,-6.72 v 3.584 l -6.888,6.16 h 6.888 v 2.52 z m 15.456,-16.423 c 0.5787,0 1.1107,-0.121 1.596,-0.364 0.4667,-0.261 0.868,-0.597 1.204,-1.008 0.336,-0.411 0.5973,-0.887 0.784,-1.428 0.1867,-0.541 0.28,-1.101 0.28,-1.68 0,-0.784 -0.1773,-1.465 -0.532,-2.044 -0.3733,-0.579 -0.8587,-1.111 -1.456,-1.596 l 1.456,-1.904 c 1.8107,1.4 2.716,3.36 2.716,5.88 0,1.045 -0.1773,1.997 -0.532,2.856 -0.3547,0.84 -0.84,1.559 -1.456,2.156 -0.6347,0.579 -1.372,1.027 -2.212,1.344 -0.8587,0.317 -1.7827,0.476 -2.772,0.476 -0.9893,0 -1.904,-0.168 -2.744,-0.504 -0.8587,-0.355 -1.596,-0.831 -2.212,-1.428 -0.6347,-0.616 -1.1293,-1.344 -1.484,-2.184 -0.3547,-0.84 -0.532,-1.755 -0.532,-2.744 0,-1.176 0.2053,-2.165 0.616,-2.968 0.4107,-0.821 0.952,-1.493 1.624,-2.016 0.6533,-0.523 1.4,-0.896 2.24,-1.12 0.8213,-0.243 1.6613,-0.364 2.52,-0.364 h 0.896 z m -2.016,-7.952 c -0.56,0.019 -1.0733,0.112 -1.54,0.28 -0.4667,0.149 -0.868,0.383 -1.204,0.7 -0.3547,0.317 -0.6253,0.719 -0.812,1.204 -0.2053,0.467 -0.308,1.017 -0.308,1.652 0,0.616 0.1213,1.185 0.364,1.708 0.224,0.504 0.5227,0.933 0.896,1.288 0.3733,0.355 0.7933,0.635 1.26,0.84 0.448,0.187 0.896,0.28 1.344,0.28 z m -5.544,-4.107 v -2.912 l 10.36,-3.948 v -0.056 l -10.36,-3.752 v -2.716 l 16.128,6.3 c 0.5787,0.224 1.1013,0.458 1.568,0.7 0.4853,0.243 0.896,0.532 1.232,0.868 0.336,0.336 0.5973,0.747 0.784,1.232 0.1867,0.467 0.28,1.046 0.28,1.736 0,0.374 -0.028,0.756 -0.084,1.148 -0.0373,0.374 -0.1307,0.738 -0.28,1.092 l -2.296,-0.308 c 0.2053,-0.504 0.308,-1.008 0.308,-1.512 0,-0.392 -0.056,-0.718 -0.168,-0.98 -0.0933,-0.28 -0.2427,-0.513 -0.448,-0.7 -0.1867,-0.205 -0.4107,-0.373 -0.672,-0.504 -0.2613,-0.13 -0.56,-0.261 -0.896,-0.392 l -2.1,-0.812 z"
         fill="currentColor"
         fill-opacity="0.1"
         id="path1382" />
    </g>
  </g>
  <defs
     id="defs1389">
    <clipPath
       id="clip0">
      <rect
         width="122"
         height="300"
         fill="#ffffff"
         transform="translate(0.243896)"
         id="rect1386"
         x="0"
         y="0" />
    </clipPath>
  </defs>
  <g
     id="g358"
     transform="matrix(1.1922203,0,0,1.1922203,85.905414,-2.6604829)">
    <rect
       style="fill:#ffff00;stroke-width:11.0477"
       visibility="hidden" id="rect304"
       width="165.47148"
       height="25.423618"
       x="7.4371142"
       y="5.9912944"
       rx="6.9483471" />
    <text
       xml:space="preserve"
       style="font-size:17.2645px;font-family:'Accanthis ADF Std No3';-inkscape-font-specification:'Accanthis ADF Std No3';fill:#ffff00;stroke-width:3.40613"
       x="14.426712"
       y="24.581799"
       id="text464"><tspan
         sodipodi:role="line"
         id="tspan462"
         x="14.426712"
         y="24.581799"
         style="font-style:normal;font-variant:normal;font-weight:normal;font-stretch:normal;font-size:17.2645px;font-family:sans-serif;-inkscape-font-specification:sans-serif;fill:currentColor;stroke-width:3.40613"></tspan></text>
  </g>
</svg>
