<?xml version="1.0" encoding="UTF-8" standalone="no"?>
<svg
   version="1.1"
   id="Layer_1"
   x="0px"
   y="0px"
   viewBox="0 0 117.2 122.88"
   xml:space="preserve"
   sodipodi:docname="logo.svg"
   inkscape:version="1.1.2 (0a00cf5339, 2022-02-04)"
   style="enable-background:new 0 0 117.2 122.88"
   xmlns:inkscape="http://www.inkscape.org/namespaces/inkscape"
   xmlns:sodipodi="http://sodipodi.sourceforge.net/DTD/sodipodi-0.dtd"
   xmlns="http://www.w3.org/2000/svg"
   xmlns:svg="http://www.w3.org/2000/svg"><defs
     id="defs9" /><sodipodi:namedview
     id="namedview7"
     pagecolor="#ffffff"
     bordercolor="#999999"
     borderopacity="1"
     inkscape:pageshadow="0"
     inkscape:pageopacity="0"
     inkscape:pagecheckerboard="0"
     showgrid="false"
     inkscape:zoom="3.7058657"
     inkscape:cx="58.420897"
     inkscape:cy="57.476449"
     inkscape:window-width="1920"
     inkscape:window-height="1007"
     inkscape:window-x="0"
     inkscape:window-y="0"
     inkscape:window-maximized="1"
     inkscape:current-layer="Layer_1" /><rect
     style="fill:#f7931a;fill-opacity:1;stroke:#00410e;stroke-width:1.00157;paint-order:markers stroke fill"
     id="rect4782"
     width="108.72044"
     height="107.34122"
     x="6.9030776"
     y="4.151875"
     ry="6.0450797" /><path
     d="m 13.6,0 h 94.33 c 2.54,0 4.86,1.04 6.54,2.72 l 0.01,0.01 c 1.68,1.68 2.72,4 2.72,6.54 v 95.79 c 0,2.54 -1.04,4.86 -2.72,6.54 l -0.01,0.01 c -1.68,1.68 -4,2.72 -6.54,2.72 h -9.01 l -3.72,8.54 H 84.78 l -3.9,-8.54 H 43.16 l -3.72,8.54 H 29.02 l -3.9,-8.54 H 13.6 c -2.54,0 -4.86,-1.04 -6.54,-2.72 L 7.05,111.6 c -1.68,-1.68 -2.72,-4 -2.72,-6.54 V 96.71 H 2.3 C 1.04,96.71 0,95.68 0,94.41 V 64.93 c 0,-1.26 1.03,-2.3 2.3,-2.3 H 4.33 V 49.32 H 2.3 C 1.04,49.32 0,48.29 0,47.02 V 17.53 c 0,-1.26 1.03,-2.3 2.3,-2.3 H 4.33 V 9.27 C 4.33,6.73 5.37,4.41 7.05,2.73 L 7.06,2.72 C 8.74,1.04 11.06,0 13.6,0 Z M 8.72,62.63 h 2.21 c 1.26,0 2.3,1.03 2.3,2.3 v 29.49 c 0,1.26 -1.03,2.3 -2.3,2.3 H 8.72 v 8.35 c 0,1.34 0.55,2.56 1.42,3.44 l 0.01,0.01 c 0.88,0.88 2.1,1.42 3.44,1.42 h 94.33 c 1.34,0 2.56,-0.55 3.44,-1.42 l 0.01,-0.01 c 0.88,-0.88 1.42,-2.1 1.42,-3.44 V 9.27 c 0,-1.34 -0.55,-2.56 -1.42,-3.44 L 111.36,5.82 C 110.48,4.94 109.26,4.4 107.92,4.4 H 13.6 c -1.34,0 -2.56,0.55 -3.44,1.42 L 10.15,5.83 C 9.27,6.71 8.73,7.93 8.73,9.27 v 5.96 h 2.21 c 1.26,0 2.3,1.03 2.3,2.3 v 29.49 c 0,1.26 -1.03,2.3 -2.3,2.3 H 8.72 Z"
     id="path2"
     sodipodi:nodetypes="sssssssssccccccccsssscssssccsssscsssscsssscscssscssscssscsscsssscc"
     style="fill:#000000;fill-opacity:1" /><path
     d="M 97.287226,47.577101 C 98.824809,37.299143 90.999279,31.773959 80.298901,28.088087 l 3.471047,-13.922795 -8.474859,-2.112079 -3.379313,13.555901 c -2.22794,-0.55517 -4.51622,-1.078967 -6.79002,-1.597938 L 68.529214,10.365968 60.05919,8.2538869 56.585736,22.171861 c -1.844144,-0.419999 -3.654495,-0.835174 -5.411738,-1.272075 l 0.0096,-0.04341 -11.687609,-2.918284 -2.254497,9.051747 c 0,0 6.287953,1.441038 6.155185,1.530351 3.43243,0.856903 4.052773,3.128283 3.948977,4.928977 l -3.953805,15.861075 c 0.236564,0.06038 0.543116,0.147248 0.881036,0.282417 -0.282408,-0.07001 -0.584131,-0.147234 -0.895509,-0.222067 l -5.542047,22.219031 c -0.42,1.042758 -1.484483,2.6069 -3.883801,2.013107 0.08449,0.123104 -6.160012,-1.537584 -6.160012,-1.537584 l -4.207255,9.701049 11.028652,2.749324 c 2.051725,0.514133 4.06242,1.052403 6.041743,1.559305 l -3.507261,14.082116 8.465198,2.11208 3.473461,-13.932456 c 2.312418,0.627583 4.557252,1.206902 6.753807,1.752415 l -3.461385,13.867291 8.474843,2.11207 3.507254,-14.05556 C 78.81198,94.747613 89.678902,93.644504 94.253049,80.573778 97.93893,70.049613 94.069595,63.978905 86.466129,60.020274 92.003386,58.743373 96.174437,55.100956 97.287206,47.577133 Z M 77.923728,74.72993 c -2.618977,10.524172 -20.33868,4.834847 -26.083519,3.408292 l 4.653799,-18.65626 c 5.744848,1.433795 24.166959,4.272425 21.42972,15.247968 z M 80.54511,47.425035 c -2.389661,9.573123 -17.137978,4.709328 -21.922123,3.516898 l 4.219317,-16.920728 c 4.784143,1.192415 20.19143,3.417938 17.702806,13.40383 z"
     id="path4-2"
     inkscape:connector-curvature="0"
     style="fill:#ffffff;fill-opacity:1;stroke-width:2.41379"
     inkscape:export-filename="C:\Users\suitedoalex\sites\bitcoin-logo-7.png"
     inkscape:export-xdpi="600.64294"
     inkscape:export-ydpi="600.64294" /></svg>
