<svg width="30" height="30" viewBox="0 0 30 30" fill="none" xmlns="http://www.w3.org/2000/svg">
<path fill-rule="evenodd" clip-rule="evenodd" d="M21 2.5C21.8284 2.5 22.5 3.17157 22.5 4V25C22.5 25.8284 21.8284 26.5 21 26.5H9C8.17157 26.5 7.5 25.8284 7.5 25V4C7.5 3.17157 8.17157 2.5 9 2.5H21ZM8.5 10.5V25C8.5 25.2761 8.72386 25.5 9 25.5H21C21.2761 25.5 21.5 25.2761 21.5 25V10.5H8.5ZM9 3.5C8.72386 3.5 8.5 3.72386 8.5 4V9.5H21.5V4C21.5 3.72386 21.2761 3.5 21 3.5H9Z" fill="currentColor"/>
<path d="M17 4.75H10V8.75H17V4.75Z" fill="currentColor"/>
<path d="M11.25 24C11.9404 24 12.5 23.4404 12.5 22.75C12.5 22.0596 11.9404 21.5 11.25 21.5C10.5596 21.5 10 22.0596 10 22.75C10 23.4404 10.5596 24 11.25 24Z" fill="currentColor"/>
<path d="M15 24C15.6904 24 16.25 23.4404 16.25 22.75C16.25 22.0596 15.6904 21.5 15 21.5C14.3096 21.5 13.75 22.0596 13.75 22.75C13.75 23.4404 14.3096 24 15 24Z" fill="currentColor"/>
<path d="M18.75 24C19.4404 24 20 23.4404 20 22.75C20 22.0596 19.4404 21.5 18.75 21.5C18.0596 21.5 17.5 22.0596 17.5 22.75C17.5 23.4404 18.0596 24 18.75 24Z" fill="currentColor"/>
<path d="M11.25 20.8334C11.9404 20.8334 12.5 20.2737 12.5 19.5834C12.5 18.893 11.9404 18.3334 11.25 18.3334C10.5596 18.3334 10 18.893 10 19.5834C10 20.2737 10.5596 20.8334 11.25 20.8334Z" fill="currentColor"/>
<path d="M15 20.8334C15.6904 20.8334 16.25 20.2737 16.25 19.5834C16.25 18.893 15.6904 18.3334 15 18.3334C14.3096 18.3334 13.75 18.893 13.75 19.5834C13.75 20.2737 14.3096 20.8334 15 20.8334Z" fill="currentColor"/>
<path d="M18.75 20.8334C19.4404 20.8334 20 20.2737 20 19.5834C20 18.893 19.4404 18.3334 18.75 18.3334C18.0596 18.3334 17.5 18.893 17.5 19.5834C17.5 20.2737 18.0596 20.8334 18.75 20.8334Z" fill="currentColor"/>
<path d="M11.25 17.6666C11.9404 17.6666 12.5 17.107 12.5 16.4166C12.5 15.7263 11.9404 15.1666 11.25 15.1666C10.5596 15.1666 10 15.7263 10 16.4166C10 17.107 10.5596 17.6666 11.25 17.6666Z" fill="currentColor"/>
<path d="M15 17.6666C15.6904 17.6666 16.25 17.107 16.25 16.4166C16.25 15.7263 15.6904 15.1666 15 15.1666C14.3096 15.1666 13.75 15.7263 13.75 16.4166C13.75 17.107 14.3096 17.6666 15 17.6666Z" fill="currentColor"/>
<path d="M18.75 17.6666C19.4404 17.6666 20 17.107 20 16.4166C20 15.7263 19.4404 15.1666 18.75 15.1666C18.0596 15.1666 17.5 15.7263 17.5 16.4166C17.5 17.107 18.0596 17.6666 18.75 17.6666Z" fill="currentColor"/>
<path d="M11.25 14.5C11.9404 14.5 12.5 13.9404 12.5 13.25C12.5 12.5596 11.9404 12 11.25 12C10.5596 12 10 12.5596 10 13.25C10 13.9404 10.5596 14.5 11.25 14.5Z" fill="currentColor"/>
<path d="M15 14.5C15.6904 14.5 16.25 13.9404 16.25 13.25C16.25 12.5596 15.6904 12 15 12C14.3096 12 13.75 12.5596 13.75 13.25C13.75 13.9404 14.3096 14.5 15 14.5Z" fill="currentColor"/>
<path d="M18.75 14.5C19.4404 14.5 20 13.9404 20 13.25C20 12.5596 19.4404 12 18.75 12C18.0596 12 17.5 12.5596 17.5 13.25C17.5 13.9404 18.0596 14.5 18.75 14.5Z" fill="currentColor"/>
</svg>
