<svg width="30" height="30" viewBox="0 0 30 30" fill="none" xmlns="http://www.w3.org/2000/svg">
<path d="M20.4 18V21.2H17.2V18H20.4ZM18.2666 20.1333H19.3333V19.0667H18.2666V20.1333Z" fill="currentColor"/>
<path d="M26.8 18V21.2H23.6V18H26.8ZM24.6666 20.1333H25.7333V19.0667H24.6666V20.1333Z" fill="currentColor"/>
<path d="M20.4 24.3999V27.5999H17.2V24.3999H20.4ZM18.2666 26.5332H19.3333V25.4666H18.2666V26.5332Z" fill="currentColor"/>
<path d="M18.2666 22.2666V23.3333H17.2V22.2666H18.2666Z" fill="currentColor"/>
<path d="M20.4 22.2666V23.3333H19.3334V22.2666H20.4Z" fill="currentColor"/>
<path d="M22.5333 22.2666V23.3333H21.4667V22.2666H22.5333Z" fill="currentColor"/>
<path d="M22.5333 24.3999V25.4666H21.4667V24.3999H22.5333Z" fill="currentColor"/>
<path d="M22.5333 26.5332V27.5999H21.4667V26.5332H22.5333Z" fill="currentColor"/>
<path d="M22.5333 20.1333V21.2H21.4667V20.1333H22.5333Z" fill="currentColor"/>
<path d="M22.5333 18V19.0667H21.4667V18H22.5333Z" fill="currentColor"/>
<path d="M24.6666 22.2666V23.3333H23.6V22.2666H24.6666Z" fill="currentColor"/>
<path d="M26.7999 22.2666V23.3333H25.7333V22.2666H26.7999Z" fill="currentColor"/>
<path d="M24.6666 24.3999V25.4666H23.6V24.3999H24.6666Z" fill="currentColor"/>
<path d="M26.7999 24.3999V25.4666H25.7333V24.3999H26.7999Z" fill="currentColor"/>
<path d="M24.6666 26.5332V27.5999H23.6V26.5332H24.6666Z" fill="currentColor"/>
<path d="M26.7999 26.5332V27.5999H25.7333V26.5332H26.7999Z" fill="currentColor"/>
<path d="M21.5635 2.86621C21.6269 2.86621 21.6862 2.89975 21.7217 2.95508L22.8896 4.77832C22.9286 4.83912 22.9329 4.91789 22.8994 4.98242C22.8664 5.04693 22.8019 5.08789 22.7314 5.08789H22.0635V9.76758C22.2815 9.53694 22.5153 9.38668 22.7412 9.26953C22.8385 9.21909 22.9364 9.17353 23.0186 9.13477C23.1042 9.09436 23.1762 9.05931 23.2432 9.02246C23.3734 8.9508 23.4658 8.88052 23.54 8.78809C23.6173 8.69179 23.7005 8.53661 23.7627 8.26074H23.7148C23.4387 8.26074 23.2148 8.02111 23.2148 7.72656V6.41406C23.2148 6.11951 23.4387 5.88086 23.7148 5.88086H25C25.2761 5.88086 25.5 6.11951 25.5 6.41406V7.72656C25.5 8.02111 25.2761 8.26074 25 8.26074H24.7832C24.6986 8.78984 24.5398 9.18237 24.2998 9.48145C24.1123 9.71505 23.8991 9.86231 23.7021 9.9707C23.6058 10.0237 23.5087 10.0699 23.4229 10.1104C23.3333 10.1526 23.2559 10.1885 23.1787 10.2285C22.9042 10.3708 22.6575 10.5469 22.4561 11.0264C22.3315 11.3229 22.2231 11.7431 22.1514 12.3496C22.7011 12.5892 23.0879 13.1542 23.0879 13.8135C23.0878 14.6897 22.4051 15.4004 21.5635 15.4004C20.7219 15.4004 20.0391 14.6897 20.0391 13.8135C20.0391 13.1833 20.393 12.6398 20.9043 12.3838C20.8448 12.1445 20.7761 11.9729 20.7031 11.8486C20.5373 11.5662 20.3318 11.4668 19.999 11.3408C19.6776 11.2192 19.1712 11.0597 18.8037 10.5264C18.5557 10.1663 18.3984 9.67798 18.3232 9.00488C17.8479 8.86075 17.5001 8.40556 17.5 7.86426C17.5 7.20726 18.0115 6.67407 18.6426 6.67383C19.2738 6.67383 19.7861 7.20711 19.7861 7.86426C19.7861 8.26229 19.597 8.61315 19.3086 8.8291C19.3686 9.41478 19.4906 9.722 19.6094 9.89453C19.7654 10.121 19.9571 10.1932 20.334 10.3359C20.5506 10.4179 20.8119 10.5215 21.0635 10.7188V5.08789H20.3955C20.3256 5.08736 20.2606 5.04729 20.2275 4.9834C20.1945 4.91887 20.1988 4.8401 20.2373 4.7793L21.4053 2.95508C21.4408 2.89975 21.5001 2.86622 21.5635 2.86621Z" fill="currentColor"/>
<path d="M11.625 13.8665L8.94377 11.1853C8.55002 10.7915 7.87502 11.0665 7.87502 11.6228V15.4853L5.44377 13.054C5.3859 12.9962 5.31721 12.9503 5.24161 12.919C5.166 12.8877 5.08497 12.8715 5.00314 12.8715C4.92131 12.8715 4.84028 12.8877 4.76468 12.919C4.68908 12.9503 4.62038 12.9962 4.56252 13.054C4.50465 13.1119 4.45875 13.1806 4.42744 13.2562C4.39612 13.3318 4.38 13.4128 4.38 13.4947C4.38 13.5765 4.39612 13.6575 4.42744 13.7331C4.45875 13.8087 4.50465 13.8774 4.56252 13.9353L7.61877 16.9915L4.56252 20.0478C4.50465 20.1057 4.45875 20.1744 4.42744 20.25C4.39612 20.3256 4.38 20.4066 4.38 20.4884C4.38 20.5703 4.39612 20.6513 4.42744 20.7269C4.45875 20.8025 4.50465 20.8712 4.56252 20.929C4.62038 20.9869 4.68908 21.0328 4.76468 21.0641C4.84028 21.0954 4.92131 21.1116 5.00314 21.1116C5.08497 21.1116 5.166 21.0954 5.24161 21.0641C5.31721 21.0328 5.3859 20.9869 5.44377 20.929L7.87502 18.4978V22.3603C7.87502 22.9165 8.55002 23.1978 8.94377 22.804L11.625 20.1165C11.683 20.0587 11.7289 19.99 11.7603 19.9144C11.7917 19.8388 11.8078 19.7578 11.8078 19.6759C11.8078 19.5941 11.7917 19.513 11.7603 19.4374C11.7289 19.3618 11.683 19.2931 11.625 19.2353L9.38127 16.9915L11.625 14.754C11.8688 14.5103 11.8688 14.1103 11.625 13.8665ZM9.12502 13.1353L10.3 14.3103L9.12502 15.4853V13.1353ZM10.3 19.6728L9.12502 20.8478V18.4978L10.3 19.6728Z" fill="currentColor"/>
</svg>
