<?xml version="1.0" encoding="UTF-8" standalone="no"?>
<svg
   width="304"
   height="124"
   viewBox="0 0 304 124"
   fill="none"
   version="1.1"
   id="svg13864"
   sodipodi:docname="jade-icon.svg"
   inkscape:version="1.2.2 (b0a8486541, 2022-12-01)"
   xmlns:inkscape="http://www.inkscape.org/namespaces/inkscape"
   xmlns:sodipodi="http://sodipodi.sourceforge.net/DTD/sodipodi-0.dtd"
   xmlns="http://www.w3.org/2000/svg"
   xmlns:svg="http://www.w3.org/2000/svg">
  <defs
     id="defs13868" />
  <sodipodi:namedview
     id="namedview13866"
     pagecolor="#ffffff"
     bordercolor="#000000"
     borderopacity="0.25"
     inkscape:showpageshadow="2"
     inkscape:pageopacity="0.0"
     inkscape:pagecheckerboard="0"
     inkscape:deskcolor="#d1d1d1"
     showgrid="false"
     inkscape:zoom="1.9492577"
     inkscape:cx="5.6431738"
     inkscape:cy="52.071104"
     inkscape:window-width="1920"
     inkscape:window-height="1008"
     inkscape:window-x="0"
     inkscape:window-y="0"
     inkscape:window-maximized="1"
     inkscape:current-layer="svg13864" />
  <rect
     x="-121"
     y="3"
     width="118"
     height="298"
     rx="14"
     stroke="#000000"
     stroke-width="2"
     id="rect13856"
     transform="rotate(-90)"
     style="stroke-width:8;stroke-dasharray:none" />
  <rect
     x="-101"
     y="23"
     width="78"
     height="133"
     rx="2"
     stroke="#000000"
     stroke-opacity="0.25"
     stroke-width="2"
     id="rect13858"
     transform="rotate(-90)"
     style="stroke-width:8;stroke-dasharray:none;stroke:#000000;stroke-opacity:0.60967743" />
  <rect
     x="-91"
     y="188"
     width="58"
     height="39"
     rx="7"
     stroke="#000000"
     stroke-opacity="0.25"
     stroke-width="2"
     id="rect13860"
     transform="rotate(-90)"
     style="stroke-width:8;stroke-dasharray:none;stroke:#000000;stroke-opacity:0.60967743" />
  <path
     d="M 252.25,92.7969 V 88.1094 H 268 c 1.448,0 2.729,0.3229 3.844,0.9687 1.104,0.6354 1.958,1.5365 2.562,2.7031 0.604,1.1667 0.906,2.4844 0.906,3.9532 0,2.4062 -0.609,4.2812 -1.828,5.625 -1.229,1.3437 -2.963,2.0156 -5.203,2.0156 v -4.7188 c 1.115,0 1.938,-0.2343 2.469,-0.7031 0.531,-0.4687 0.797,-1.2083 0.797,-2.2187 0,-0.8959 -0.307,-1.6094 -0.922,-2.1406 -0.615,-0.5313 -1.49,-0.7969 -2.625,-0.7969 z m 18.062,-23.4431 v 8.2187 L 275,79.135 v 4.9844 L 252.25,75.6506 V 71.3069 L 275,62.7913 v 4.9843 z m -3.796,6.9531 V 70.6194 L 258,73.4788 Z M 275,58.4263 h -22.75 v -7 c 0,-2 0.453,-3.7865 1.359,-5.3594 0.896,-1.5834 2.177,-2.8177 3.844,-3.7031 1.656,-0.8855 3.542,-1.3282 5.656,-1.3282 h 1.047 c 2.115,0 3.995,0.4375 5.641,1.3125 1.646,0.8646 2.922,2.0886 3.828,3.6719 0.906,1.5833 1.365,3.3698 1.375,5.3594 z m -18.953,-4.6875 h 15.187 v -2.2657 c 0,-1.8333 -0.599,-3.2343 -1.796,-4.2031 -1.198,-0.9687 -2.912,-1.4635 -5.141,-1.4844 h -1.203 c -2.313,0 -4.063,0.4792 -5.25,1.4375 -1.198,0.9584 -1.797,2.3594 -1.797,4.2032 z m 9.094,-32.0528 v 9.0002 h 6.093 V 20.124 H 275 V 35.3737 H 252.25 V 20.155 h 3.797 v 10.5312 h 5.422 V 21.686 Z"
     fill="#000000"
     fill-opacity="0.1"
     id="path13862"
     style="stroke:#000000;stroke-opacity:0.60967743;fill:#000000;fill-opacity:0.52258062" />
</svg>
