<svg width="30" height="30" viewBox="0 0 30 30" fill="none" xmlns="http://www.w3.org/2000/svg">
<path d="M26.5 12.5C26.5 11.6716 25.8284 11 25 11H5C4.17157 11 3.5 11.6716 3.5 12.5V17.5C3.5 18.3284 4.17157 19 5 19H25C25.8284 19 26.5 18.3284 26.5 17.5V12.5ZM27.5 17.5C27.5 18.8807 26.3807 20 25 20H5C3.61929 20 2.5 18.8807 2.5 17.5V12.5C2.5 11.1193 3.61929 10 5 10H25C26.3807 10 27.5 11.1193 27.5 12.5V17.5Z" fill="currentColor"/>
<path d="M14 12H5.5C4.94772 12 4.5 12.4477 4.5 13V17C4.5 17.5523 4.94772 18 5.5 18H14C14.5523 18 15 17.5523 15 17V13C15 12.4477 14.5523 12 14 12Z" fill="currentColor"/>
<path d="M19.5 12.5H18.5C17.9477 12.5 17.5 12.9477 17.5 13.5V16.5C17.5 17.0523 17.9477 17.5 18.5 17.5H19.5C20.0523 17.5 20.5 17.0523 20.5 16.5V13.5C20.5 12.9477 20.0523 12.5 19.5 12.5Z" fill="currentColor"/>
</svg>
