<svg width="30" height="30" viewBox="0 0 30 30" fill="none" xmlns="http://www.w3.org/2000/svg">
<path d="M25.5 12C25.5 11.1716 24.8284 10.5 24 10.5H6C5.17157 10.5 4.5 11.1716 4.5 12V18C4.5 18.8284 5.17157 19.5 6 19.5H24C24.8284 19.5 25.5 18.8284 25.5 18V12ZM26.5 18C26.5 19.3807 25.3807 20.5 24 20.5H6C4.61929 20.5 3.5 19.3807 3.5 18V12C3.5 10.6193 4.61929 9.5 6 9.5H24C25.3807 9.5 26.5 10.6193 26.5 12V18Z" fill="currentColor"/>
<path d="M18.5 11.5H6.5C5.94772 11.5 5.5 11.9477 5.5 12.5V17.5C5.5 18.0523 5.94772 18.5 6.5 18.5H18.5C19.0523 18.5 19.5 18.0523 19.5 17.5V12.5C19.5 11.9477 19.0523 11.5 18.5 11.5Z" fill="currentColor"/>
<path d="M23 12H22C21.4477 12 21 12.4477 21 13V17C21 17.5523 21.4477 18 22 18H23C23.5523 18 24 17.5523 24 17V13C24 12.4477 23.5523 12 23 12Z" fill="currentColor"/>
</svg>
