<svg width="30" height="30" viewBox="0 0 30 30" fill="none" xmlns="http://www.w3.org/2000/svg">
<path d="M25 15C25 14.1716 24.3284 13.5 23.5 13.5C22.6716 13.5 22 14.1716 22 15C22 15.8284 22.6716 16.5 23.5 16.5C24.3284 16.5 25 15.8284 25 15ZM26 15C26 16.3807 24.8807 17.5 23.5 17.5C22.1193 17.5 21 16.3807 21 15C21 13.6193 22.1193 12.5 23.5 12.5C24.8807 12.5 26 13.6193 26 15Z" fill="currentColor"/>
<path d="M23.25 15.5V14.5L24.25 15L23.25 15.5Z" fill="currentColor"/>
<rect x="4" y="14" width="12" height="2" fill="currentColor"/>
<rect x="4" y="12" width="7" height="1" fill="currentColor"/>
<rect x="4" y="17" width="4" height="1" fill="currentColor"/>
<path d="M27.1025 10.0049C27.6067 10.0562 28 10.4823 28 11V19L27.9951 19.1025C27.9472 19.573 27.573 19.9472 27.1025 19.9951L27 20H3C2.48232 20 2.05621 19.6067 2.00488 19.1025L2 19V11C2 10.4477 2.44772 10 3 10H27L27.1025 10.0049ZM3 19H27V11H3V19Z" fill="currentColor"/>
</svg>
