<svg width="30" height="30" viewBox="0 0 30 30" fill="none" xmlns="http://www.w3.org/2000/svg">
<path d="M22.5 8C22.5 7.72386 22.2761 7.5 22 7.5H8C7.72386 7.5 7.5 7.72386 7.5 8V22C7.5 22.2761 7.72386 22.5 8 22.5H22C22.2761 22.5 22.5 22.2761 22.5 22V8ZM23.5 22C23.5 22.8284 22.8284 23.5 22 23.5H8C7.17157 23.5 6.5 22.8284 6.5 22V8C6.5 7.17157 7.17157 6.5 8 6.5H22C22.8284 6.5 23.5 7.17157 23.5 8V22Z" fill="currentColor"/>
<path d="M14.1111 12.0882H15.6667V13.4118H14.1111V16.5H14.9861V15.4412H15.7639V14.3824H17.2222V15.7059H16.4444V16.7647H15.7639V17.7353H16.4444V18.7941H17.2222V19.6765H18V21H16.5417V20.1176H15.7639V19.0588H14.9861V17.8235H14.1111V21H12.6528V13.4118H11V12.0882H12.6528V9H14.1111V12.0882Z" fill="currentColor"/>
</svg>
