<svg width="30" height="30" viewBox="0 0 30 30" fill="none" xmlns="http://www.w3.org/2000/svg">
<path d="M17.2363 7.10107H20.0996V13.1011H21.0996V15.1011H20.0996V20.1011H21.0996V22.1011H20.0996V23.1011H14.0996V17.2993L9.99219 21.4067L5.75 17.1636L14.0996 8.81396V7.10107H16.8916C17.0065 7.0945 17.1214 7.09448 17.2363 7.10107ZM15.0996 16.2993V22.1011H19.0996V12.2993L15.0996 16.2993ZM18.4775 8.67822C17.6965 7.89756 16.4304 7.8974 15.6494 8.67822L7.16406 17.1636L9.99219 19.9927L18.4775 11.5073C19.2586 10.7263 19.2586 9.45927 18.4775 8.67822Z" fill="currentColor"/>
<circle cx="17.0636" cy="10.093" r="1.23826" transform="rotate(45 17.0636 10.093)" fill="currentColor"/>
</svg>
