<svg width="30" height="30" viewBox="0 0 108 108" fill="none" xmlns="http://www.w3.org/2000/svg">
<g transform="translate(26 31) scale(0.043)">
<path d="M265.4 1002.9C265.4 975.2 265.5 952.4 265.8 952.2C266.1 951.8 299.2 951.2 305.4 951.4C306.7 951.5 306.9 961.9 306.6 1002.3L306.2 1053.1L341.7 1053L377.1 1052.9L377.2 1004.9C377.2 978.6 377.3 955.7 377.3 954.2C377.4 951.4 377.9 951.2 387.8 951.2C417.6 951 469.8 937.3 492.4 923.7C505.2 916 514.3 906.4 513 907.9C514.8 906.4 529.9 893 535.2 886.4C554.1 861.4 564.2 826 562.9 789.1C561.4 745.6 547.2 713.8 519 691C509.2 683 494.7 673.8 488.3 671.6C484.8 670.3 483 666.7 485.9 666.7C488.2 666.6 502.2 652.2 508 643.9C515.6 633.1 523 616.4 526.4 602.7C530.1 587.7 530.5 552.6 527.1 538.9C520.9 513.3 510.8 495.7 494.3 481.3C480.4 469.2 471.9 463.9 453 455.8C435.7 448.4 419.5 444.1 395.6 440.6C386.6 439.2 378.6 437.8 377.9 437.4C377.2 436.9 376.7 418.2 376.8 388.4L376.8 340.2L342.6 340.7L308.3 341.1L308.3 389.4L308.2 437.6L287.4 437.7L266.7 437.7L266.4 389.2L266.2 340.6L231.7 340.7C203.1 340.8 197.1 341.2 195.8 342.7C194.6 344.2 194.5 355.3 195.1 390.7C195.8 430.3 195.7 437 194.1 438.3C192.8 439.5 176.8 440 131.4 440.4L70.6 440.9L70.5 479.2L70.5 517.4L98.8 517.8C129 518.2 133.8 519 140.4 524.6C149.3 532.3 148.8 521.1 149 692.9L149.3 847.3L145.5 853.6C143 857.7 139.8 860.9 136.2 862.8C130.9 865.7 129.3 865.9 106.5 865.9L82.4 866L77.1 895.3C68.8 940.8 67.2 951 68.2 951.6C68.7 951.9 97.1 952.2 131.3 952.2L193.4 952.2L193.3 1002.8L193.1 1053.4L229.2 1053.3L265.4 1053.2L265.4 1002.9ZM273.1 645.7L265.8 645.3L265.9 583.6L266 521.8L307.2 522.2C343.9 522.6 349.4 522.9 358.7 525.4C377.5 530.3 391.8 539.3 399 550.8C405.8 561.8 408.3 571.9 407.7 585.9C407 600.7 403.5 609.2 393.9 620C386.1 628.8 372.5 635.9 354.3 640.9C343.2 643.9 338.7 644.4 311.1 645.2C294.2 645.7 277 645.9 273.1 645.7ZM266.2 862.5C265.8 861.7 265.7 830 266 792.1L266.4 723.3L306 722.8C359.2 722.2 376.7 724.7 398.4 736.2C410 742.4 423 755.4 427.4 765.2C434.7 781.5 434.3 804.6 426.5 820.8C421.4 831.5 409.1 843 395.7 849.7C384.1 855.4 364.5 860.7 347.3 862.6C329.1 864.6 266.9 864.6 266.2 862.5Z" fill="currentColor" fill-rule="evenodd" clip-rule="evenodd"/>
<path d="M1151.8 1041.8C1164.1 1035.6 1170.1 1029.1 1174.5 1017.2C1177 1010.4 1179.9 1007.4 1177.2 876.4C1176 816 1176.5 782.1 1176.3 746.3C1176.3 738 1179.4 671.8 1179.5 665.3C1180.6 595.3 966 757.4 966.7 851.5L967 1012.8L970.2 1020C976.1 1033.2 988.2 1042.6 1001.5 1044.4C1005 1044.8 1038.9 1045.1 1076.9 1044.9C1145.5 1044.6 1146.1 1044.6 1151.8 1041.8Z" fill="currentColor"/>
<path d="M1177.9 258.4C1177.5 73.5 1177.5 73.5 1174.5 67.5C1170.4 59.2 1163.6 52.5 1156 48.9C1149.5 45.9 1149.5 45.9 1051 46.5L952.5 47.2L944.6 51C939.3 53.5 934.6 57.1 930.1 62C923.4 69.4 905.1 97.1 880.9 136.2C873.5 148.3 858.7 171.6 848.2 188.1C837.7 204.6 824 226 817.8 235.8C792.2 276 776.6 300.3 756.9 330.9C745.5 348.6 725.7 379.7 712.9 399.9C671.4 465.4 669.4 468.2 663.6 468.2C661.8 468.2 659.5 467.4 658.3 466.6C655.8 464.6 646.9 451.5 636.5 434.3C628.4 420.9 610.2 392.4 583.4 350.9C574.7 337.5 562.5 318.3 556.3 308.3C542.7 286.6 512.4 238.7 492.7 208C484.9 195.8 472.8 176.8 465.9 165.8C435.1 116.7 406 72.1 401.3 66.9C394.5 59.3 386.1 53.8 377.6 51.2C369.4 48.7 366.6 48.6 273 49.3C177.1 50 176.8 50 171.7 52.8C165.5 56.2 157.2 65.2 153.3 72.8C150.4 78.4 150.4 78.4 149.8 232.1C149.5 316.6 149.6 391.2 150 397.8L150.8 409.8L157.3 409.4L163.8 409L164.5 365.9C165.1 328 165.4 322.3 167.4 318.7C168.6 316.4 170.7 314 172 313.2C173.6 312.3 212.2 311.7 284.7 311.5C389.4 311.1 395.2 311.2 398.9 313.4C401.1 314.7 404.1 317.7 405.7 320C408.5 324.2 408.5 324.8 408.5 367.9C408.5 401.7 408.8 411.6 410 411.9C410.9 412.1 418.6 413.9 427.3 415.8C474.3 426.2 506.6 445.2 532.1 477.6C559.3 512.1 567.9 566.9 554.6 620.9L551.5 633.5L560.5 647.9C565.4 655.8 574.1 669.3 579.8 677.7C585.5 686.2 595.1 700.6 601.2 709.8C623.8 743.8 632.1 751.2 653.1 756C661.3 757.9 662.8 757.9 673 755.9C685.9 753.4 696.1 748.3 703.6 740.5C706.4 737.5 716 724.4 724.9 711.3C733.8 698.2 752.2 671 765.9 650.8C779.6 630.6 798.1 603 807.1 589.6C832.6 551.3 852.9 521 872.6 492C882.6 477.3 894.7 459.3 899.6 452C909.5 437.1 947.6 379.4 954.8 368.5C964.2 354.2 966 351.7 967.1 351.7C975.6 351.7 966.3 517.8 965.6 683.9C965.3 752.1 1181.3 393.5 1178.4 258.8Z" fill="currentColor"/>
</g>
</svg>
