<svg width="30" height="30" viewBox="0 0 30 30" fill="none" xmlns="http://www.w3.org/2000/svg">
<path d="M25.5 16C25.5 15.7239 25.2761 15.5 25 15.5H14C13.7239 15.5 13.5 15.7239 13.5 16V23C13.5 23.2761 13.7239 23.5 14 23.5H25C25.2761 23.5 25.5 23.2761 25.5 23V16ZM26.5 23C26.5 23.8284 25.8284 24.5 25 24.5H14C13.1716 24.5 12.5 23.8284 12.5 23V16C12.5 15.1716 13.1716 14.5 14 14.5H25C25.8284 14.5 26.5 15.1716 26.5 16V23Z" fill="currentColor"/>
<path d="M23.5 16.5C24.0523 16.5 24.5 16.9477 24.5 17.5C24.5 18.0523 24.0523 18.5 23.5 18.5H15.5C14.9477 18.5 14.5 18.0523 14.5 17.5C14.5 16.9477 14.9477 16.5 15.5 16.5H23.5Z" fill="currentColor"/>
<path d="M13 13C13 11.8954 12.1046 11 11 11C9.89543 11 9 11.8954 9 13C9 14.1046 9.89543 15 11 15C11.2761 15 11.5 15.2239 11.5 15.5C11.5 15.7761 11.2761 16 11 16C9.34315 16 8 14.6569 8 13C8 11.3431 9.34315 10 11 10C12.6569 10 14 11.3431 14 13C14 13.2761 13.7761 13.5 13.5 13.5C13.2239 13.5 13 13.2761 13 13Z" fill="currentColor"/>
<path d="M15 13C15 10.7909 13.2091 9 11 9C8.79086 9 7 10.7909 7 13C7 15.2091 8.79086 17 11 17C11.2761 17 11.5 17.2239 11.5 17.5C11.5 17.7761 11.2761 18 11 18C8.23858 18 6 15.7614 6 13C6 10.2386 8.23858 8 11 8C13.7614 8 16 10.2386 16 13C16 13.2761 15.7761 13.5 15.5 13.5C15.2239 13.5 15 13.2761 15 13Z" fill="currentColor"/>
<path d="M17 13C17 9.68908 14.3109 7 11 7C7.68908 7 5 9.68908 5 13C5 16.3109 7.68908 19 11 19C11.2761 19 11.5 19.2239 11.5 19.5C11.5 19.7761 11.2761 20 11 20C7.13679 20 4 16.8632 4 13C4 9.13679 7.13679 6 11 6C14.8632 6 18 9.13679 18 13C18 13.2761 17.7761 13.5 17.5 13.5C17.2239 13.5 17 13.2761 17 13Z" fill="currentColor"/>
</svg>
