<?xml version="1.0" encoding="UTF-8" standalone="no"?>
<svg
   width="106"
   height="300"
   viewBox="0 0 106 300"
   fill="none"
   version="1.1"
   id="svg512"
   sodipodi:docname="foundation300.svg"
   inkscape:version="1.2.2 (b0a8486541, 2022-12-01)"
   xmlns:inkscape="http://www.inkscape.org/namespaces/inkscape"
   xmlns:sodipodi="http://sodipodi.sourceforge.net/DTD/sodipodi-0.dtd"
   xmlns="http://www.w3.org/2000/svg"
   xmlns:svg="http://www.w3.org/2000/svg">
  <sodipodi:namedview
     id="namedview514"
     pagecolor="#ffffff"
     bordercolor="currentColor"
     borderopacity="0.25"
     inkscape:showpageshadow="2"
     inkscape:pageopacity="0.0"
     inkscape:pagecheckerboard="0"
     inkscape:deskcolor="#d1d1d1"
     showgrid="false"
     inkscape:zoom="3.8985154"
     inkscape:cx="29.241901"
     inkscape:cy="143.51617"
     inkscape:window-width="1920"
     inkscape:window-height="1008"
     inkscape:window-x="0"
     inkscape:window-y="0"
     inkscape:window-maximized="1"
     inkscape:current-layer="svg512" />
  <g
     clip-path="url(#clip0)"
     id="g505">
    <path
       d="M1.75061 16.5C1.75061 11.754 4.78293 7.90732 9.84783 5.19398C14.9143 2.47978 21.8657 1 29.2506 1H77.2506C84.6355 1 91.5869 2.47978 96.6534 5.19398C101.718 7.90732 104.751 11.754 104.751 16.5V278.5C104.751 285.116 101.461 290.203 96.3745 293.674C91.262 297.163 84.3449 299 77.2506 299H29.2506C22.1563 299 15.2392 297.163 10.1267 293.674C5.04013 290.203 1.75061 285.116 1.75061 278.5V16.5Z"
       stroke="black"
       stroke-width="2"
       id="path469" />
    <rect
       x="11.2506"
       y="201"
       width="22"
       height="13"
       rx="2"
       stroke="black"
       stroke-opacity="0.25"
       stroke-width="2"
       id="rect471" />
    <rect
       x="42.2506"
       y="201"
       width="22"
       height="13"
       rx="2"
       stroke="black"
       stroke-opacity="0.25"
       stroke-width="2"
       id="rect473" />
    <rect
       x="73.2506"
       y="201"
       width="22"
       height="13"
       rx="2"
       stroke="black"
       stroke-opacity="0.25"
       stroke-width="2"
       id="rect475" />
    <rect
       x="11.2506"
       y="221"
       width="22"
       height="13"
       rx="2"
       stroke="black"
       stroke-opacity="0.25"
       stroke-width="2"
       id="rect477" />
    <rect
       x="42.2506"
       y="221"
       width="22"
       height="13"
       rx="2"
       stroke="black"
       stroke-opacity="0.25"
       stroke-width="2"
       id="rect479" />
    <rect
       x="73.2506"
       y="221"
       width="22"
       height="13"
       rx="2"
       stroke="black"
       stroke-opacity="0.25"
       stroke-width="2"
       id="rect481" />
    <rect
       x="11.2506"
       y="241"
       width="22"
       height="13"
       rx="2"
       stroke="black"
       stroke-opacity="0.25"
       stroke-width="2"
       id="rect483" />
    <rect
       x="42.2506"
       y="241"
       width="22"
       height="13"
       rx="2"
       stroke="black"
       stroke-opacity="0.25"
       stroke-width="2"
       id="rect485" />
    <rect
       x="73.2506"
       y="241"
       width="22"
       height="13"
       rx="2"
       stroke="black"
       stroke-opacity="0.25"
       stroke-width="2"
       id="rect487" />
    <rect
       x="11.2506"
       y="261"
       width="22"
       height="13"
       rx="2"
       stroke="black"
       stroke-opacity="0.25"
       stroke-width="2"
       id="rect489" />
    <rect
       x="42.2506"
       y="261"
       width="22"
       height="13"
       rx="2"
       stroke="black"
       stroke-opacity="0.25"
       stroke-width="2"
       id="rect491" />
    <rect
       x="73.2506"
       y="261"
       width="22"
       height="13"
       rx="2"
       stroke="black"
       stroke-opacity="0.25"
       stroke-width="2"
       id="rect493" />
    <rect
       x="82.7506"
       y="151"
       width="13"
       height="22"
       rx="5"
       stroke="black"
       stroke-opacity="0.25"
       stroke-width="2"
       id="rect495" />
    <rect
       x="32.7506"
       y="140"
       width="42"
       height="43"
       rx="15"
       stroke="black"
       stroke-opacity="0.25"
       stroke-width="2"
       id="rect497" />
    <rect
       x="10.7506"
       y="151"
       width="13"
       height="22"
       rx="5"
       stroke="black"
       stroke-opacity="0.25"
       stroke-width="2"
       id="rect499" />
    <rect
       x="14.7506"
       y="22"
       width="77"
       height="102"
       rx="4"
       stroke="black"
       stroke-opacity="0.25"
       stroke-width="2"
       id="rect501" />
    <line
       x1="47.7506"
       y1="11"
       x2="58.7506"
       y2="11"
       stroke="black"
       stroke-opacity="0.25"
       stroke-width="2"
       stroke-linecap="round"
       stroke-linejoin="round"
       id="line503" />
  </g>
  <defs
     id="defs510">
    <clipPath
       id="clip0">
      <rect
         width="105"
         height="300"
         fill="white"
         transform="translate(0.75061)"
         id="rect507" />
    </clipPath>
  </defs>
  <g
     id="g358"
     transform="matrix(0.61660453,0,0,0.61660453,-2.4672049,121.27829)">
    <rect
       style="fill:#ffff00;stroke-width:11.0477"
       id="rect304"
       width="165.47148"
       height="25.423618"
       x="7.4371142"
       y="5.9912944"
       rx="6.9483471" />
    <text
       xml:space="preserve"
       style="font-size:17.2645px;font-family:'Accanthis ADF Std No3';-inkscape-font-specification:'Accanthis ADF Std No3';fill:#ffff00;stroke-width:3.40613"
       x="14.426712"
       y="24.581799"
       id="text464"><tspan
         sodipodi:role="line"
         id="tspan462"
         x="14.426712"
         y="24.581799"
         style="font-style:normal;font-variant:normal;font-weight:normal;font-stretch:normal;font-size:17.2645px;font-family:sans-serif;-inkscape-font-specification:sans-serif;fill:#000000;stroke-width:3.40613">Label</tspan></text>
  </g>
</svg>
