<?xml version="1.0" encoding="UTF-8" standalone="no"?>
<svg
   width="110.00195"
   height="305"
   viewBox="0 0 110.00195 305"
   fill="none"
   version="1.1"
   id="svg512"
   sodipodi:docname="passport-icon.svg"
   inkscape:version="1.2.2 (b0a8486541, 2022-12-01)"
   xmlns:inkscape="http://www.inkscape.org/namespaces/inkscape"
   xmlns:sodipodi="http://sodipodi.sourceforge.net/DTD/sodipodi-0.dtd"
   xmlns="http://www.w3.org/2000/svg"
   xmlns:svg="http://www.w3.org/2000/svg">
  <sodipodi:namedview
     id="namedview514"
     pagecolor="#ffffff"
     bordercolor="currentColor"
     borderopacity="0.25"
     inkscape:showpageshadow="2"
     inkscape:pageopacity="0.0"
     inkscape:pagecheckerboard="0"
     inkscape:deskcolor="#d1d1d1"
     showgrid="false"
     inkscape:zoom="1.9492577"
     inkscape:cx="-15.390474"
     inkscape:cy="156.21331"
     inkscape:window-width="1920"
     inkscape:window-height="1008"
     inkscape:window-x="0"
     inkscape:window-y="0"
     inkscape:window-maximized="1"
     inkscape:current-layer="svg512" />
  <path
     d="m 1.75061,16.5 c 0,-4.746 3.03232,-8.59268 8.09722,-11.30602 C 14.9143,2.47978 21.8657,1 29.2506,1 h 48 C 84.6355,1 91.5869,2.47978 96.6534,5.19398 101.718,7.90732 104.751,11.754 104.751,16.5 v 262 c 0,6.616 -3.29,11.703 -8.3765,15.174 C 91.262,297.163 84.3449,299 77.2506,299 h -48 C 22.1563,299 15.2392,297.163 10.1267,293.674 5.04013,290.203 1.75061,285.116 1.75061,278.5 Z"
     stroke="currentColor"
     stroke-width="2"
     id="path469"
     clip-path="url(#clipPath1747)"
     style="stroke-width:7;stroke-dasharray:none"
     transform="translate(1.75,2.5)" />
  <rect
     x="11.2506"
     y="201"
     width="22"
     height="13"
     rx="2"
     stroke="currentColor"
     stroke-opacity="0.25"
     stroke-width="2"
     id="rect471"
     clip-path="url(#clipPath1741)"
     style="stroke-width:7;stroke-dasharray:none;stroke:currentColor;stroke-opacity:1"
     transform="translate(1.75,2.5)" />
  <rect
     x="42.250599"
     y="201"
     width="22"
     height="13"
     rx="2"
     stroke="currentColor"
     stroke-opacity="0.25"
     stroke-width="2"
     id="rect473"
     clip-path="url(#clipPath1735)"
     style="stroke-width:7;stroke-dasharray:none;stroke:currentColor;stroke-opacity:1"
     transform="translate(1.75,2.5)" />
  <rect
     x="73.250603"
     y="201"
     width="22"
     height="13"
     rx="2"
     stroke="currentColor"
     stroke-opacity="0.25"
     stroke-width="2"
     id="rect475"
     clip-path="url(#clipPath1729)"
     style="stroke-width:7;stroke-dasharray:none;stroke:currentColor;stroke-opacity:1"
     transform="translate(1.75,2.5)" />
  <rect
     x="11.2506"
     y="221"
     width="22"
     height="13"
     rx="2"
     stroke="currentColor"
     stroke-opacity="0.25"
     stroke-width="2"
     id="rect477"
     clip-path="url(#clipPath1723)"
     style="stroke-width:7;stroke-dasharray:none;stroke:currentColor;stroke-opacity:1"
     transform="translate(1.75,2.5)" />
  <rect
     x="42.250599"
     y="221"
     width="22"
     height="13"
     rx="2"
     stroke="currentColor"
     stroke-opacity="0.25"
     stroke-width="2"
     id="rect479"
     clip-path="url(#clipPath1717)"
     style="stroke-width:7;stroke-dasharray:none;stroke:currentColor;stroke-opacity:1"
     transform="translate(1.75,2.5)" />
  <rect
     x="73.250603"
     y="221"
     width="22"
     height="13"
     rx="2"
     stroke="currentColor"
     stroke-opacity="0.25"
     stroke-width="2"
     id="rect481"
     clip-path="url(#clipPath1711)"
     style="stroke-width:7;stroke-dasharray:none;stroke:currentColor;stroke-opacity:1"
     transform="translate(1.75,2.5)" />
  <rect
     x="11.2506"
     y="241"
     width="22"
     height="13"
     rx="2"
     stroke="currentColor"
     stroke-opacity="0.25"
     stroke-width="2"
     id="rect483"
     clip-path="url(#clipPath1705)"
     style="stroke-width:7;stroke-dasharray:none;stroke:currentColor;stroke-opacity:1"
     transform="translate(1.75,2.5)" />
  <rect
     x="42.250599"
     y="241"
     width="22"
     height="13"
     rx="2"
     stroke="currentColor"
     stroke-opacity="0.25"
     stroke-width="2"
     id="rect485"
     clip-path="url(#clipPath1699)"
     style="stroke-width:7;stroke-dasharray:none;stroke:currentColor;stroke-opacity:1"
     transform="translate(1.75,2.5)" />
  <rect
     x="73.250603"
     y="241"
     width="22"
     height="13"
     rx="2"
     stroke="currentColor"
     stroke-opacity="0.25"
     stroke-width="2"
     id="rect487"
     clip-path="url(#clipPath1693)"
     style="stroke-width:7;stroke-dasharray:none;stroke:currentColor;stroke-opacity:1"
     transform="translate(1.75,2.5)" />
  <rect
     x="11.2506"
     y="261"
     width="22"
     height="13"
     rx="2"
     stroke="currentColor"
     stroke-opacity="0.25"
     stroke-width="2"
     id="rect489"
     clip-path="url(#clipPath1687)"
     style="stroke-width:7;stroke-dasharray:none;stroke:currentColor;stroke-opacity:1"
     transform="translate(1.75,2.5)" />
  <rect
     x="42.250599"
     y="261"
     width="22"
     height="13"
     rx="2"
     stroke="currentColor"
     stroke-opacity="0.25"
     stroke-width="2"
     id="rect491"
     clip-path="url(#clipPath1681)"
     style="stroke-width:7;stroke-dasharray:none;stroke:currentColor;stroke-opacity:1"
     transform="translate(1.75,2.5)" />
  <rect
     x="73.250603"
     y="261"
     width="22"
     height="13"
     rx="2"
     stroke="currentColor"
     stroke-opacity="0.25"
     stroke-width="2"
     id="rect493"
     clip-path="url(#clipPath1675)"
     style="stroke-width:7;stroke-dasharray:none;stroke:currentColor;stroke-opacity:1"
     transform="translate(1.75,2.5)" />
  <rect
     x="82.750603"
     y="151"
     width="13"
     height="22"
     rx="5"
     stroke="currentColor"
     stroke-opacity="0.25"
     stroke-width="2"
     id="rect495"
     clip-path="url(#clipPath1669)"
     style="stroke-width:7;stroke-dasharray:none;stroke:currentColor;stroke-opacity:1"
     transform="translate(1.75,2.5)" />
  <rect
     x="32.750599"
     y="140"
     width="42"
     height="43"
     rx="15"
     stroke="currentColor"
     stroke-opacity="0.25"
     stroke-width="2"
     id="rect497"
     clip-path="url(#clipPath1663)"
     style="stroke-width:7;stroke-dasharray:none;stroke:currentColor;stroke-opacity:1"
     transform="translate(1.75,2.5)" />
  <rect
     x="10.7506"
     y="151"
     width="13"
     height="22"
     rx="5"
     stroke="currentColor"
     stroke-opacity="0.25"
     stroke-width="2"
     id="rect499"
     clip-path="url(#clipPath1657)"
     style="stroke-width:7;stroke-dasharray:none;stroke:currentColor;stroke-opacity:1"
     transform="translate(1.75,2.5)" />
  <rect
     x="14.7506"
     y="22"
     width="77"
     height="102"
     rx="4"
     stroke="currentColor"
     stroke-opacity="0.25"
     stroke-width="2"
     id="rect501"
     clip-path="url(#clipPath1651)"
     style="stroke-width:7;stroke-dasharray:none;stroke:currentColor;stroke-opacity:1"
     transform="translate(1.75,2.5)" />
  <line
     x1="47.750599"
     y1="11"
     x2="58.750599"
     y2="11"
     stroke="currentColor"
     stroke-opacity="0.25"
     stroke-width="2"
     stroke-linecap="round"
     stroke-linejoin="round"
     id="line503"
     clip-path="url(#clipPath1645)"
     style="stroke-width:7;stroke-dasharray:none;stroke:currentColor;stroke-opacity:1"
     transform="translate(1.75,2.5)" />
  <defs
     id="defs510">
    <clipPath
       clipPathUnits="userSpaceOnUse"
       id="clipPath1645">
      <g
         id="g1649">
        <rect
           width="105"
           height="300"
           fill="#ffffff"
           id="rect1647"
           x="0.75060999"
           y="0" />
      </g>
    </clipPath>
    <clipPath
       clipPathUnits="userSpaceOnUse"
       id="clipPath1651">
      <g
         id="g1655">
        <rect
           width="105"
           height="300"
           fill="#ffffff"
           id="rect1653"
           x="0.75060999"
           y="0" />
      </g>
    </clipPath>
    <clipPath
       clipPathUnits="userSpaceOnUse"
       id="clipPath1657">
      <g
         id="g1661">
        <rect
           width="105"
           height="300"
           fill="#ffffff"
           id="rect1659"
           x="0.75060999"
           y="0" />
      </g>
    </clipPath>
    <clipPath
       clipPathUnits="userSpaceOnUse"
       id="clipPath1663">
      <g
         id="g1667">
        <rect
           width="105"
           height="300"
           fill="#ffffff"
           id="rect1665"
           x="0.75060999"
           y="0" />
      </g>
    </clipPath>
    <clipPath
       clipPathUnits="userSpaceOnUse"
       id="clipPath1669">
      <g
         id="g1673">
        <rect
           width="105"
           height="300"
           fill="#ffffff"
           id="rect1671"
           x="0.75060999"
           y="0" />
      </g>
    </clipPath>
    <clipPath
       clipPathUnits="userSpaceOnUse"
       id="clipPath1675">
      <g
         id="g1679">
        <rect
           width="105"
           height="300"
           fill="#ffffff"
           id="rect1677"
           x="0.75060999"
           y="0" />
      </g>
    </clipPath>
    <clipPath
       clipPathUnits="userSpaceOnUse"
       id="clipPath1681">
      <g
         id="g1685">
        <rect
           width="105"
           height="300"
           fill="#ffffff"
           id="rect1683"
           x="0.75060999"
           y="0" />
      </g>
    </clipPath>
    <clipPath
       clipPathUnits="userSpaceOnUse"
       id="clipPath1687">
      <g
         id="g1691">
        <rect
           width="105"
           height="300"
           fill="#ffffff"
           id="rect1689"
           x="0.75060999"
           y="0" />
      </g>
    </clipPath>
    <clipPath
       clipPathUnits="userSpaceOnUse"
       id="clipPath1693">
      <g
         id="g1697">
        <rect
           width="105"
           height="300"
           fill="#ffffff"
           id="rect1695"
           x="0.75060999"
           y="0" />
      </g>
    </clipPath>
    <clipPath
       clipPathUnits="userSpaceOnUse"
       id="clipPath1699">
      <g
         id="g1703">
        <rect
           width="105"
           height="300"
           fill="#ffffff"
           id="rect1701"
           x="0.75060999"
           y="0" />
      </g>
    </clipPath>
    <clipPath
       clipPathUnits="userSpaceOnUse"
       id="clipPath1705">
      <g
         id="g1709">
        <rect
           width="105"
           height="300"
           fill="#ffffff"
           id="rect1707"
           x="0.75060999"
           y="0" />
      </g>
    </clipPath>
    <clipPath
       clipPathUnits="userSpaceOnUse"
       id="clipPath1711">
      <g
         id="g1715">
        <rect
           width="105"
           height="300"
           fill="#ffffff"
           id="rect1713"
           x="0.75060999"
           y="0" />
      </g>
    </clipPath>
    <clipPath
       clipPathUnits="userSpaceOnUse"
       id="clipPath1717">
      <g
         id="g1721">
        <rect
           width="105"
           height="300"
           fill="#ffffff"
           id="rect1719"
           x="0.75060999"
           y="0" />
      </g>
    </clipPath>
    <clipPath
       clipPathUnits="userSpaceOnUse"
       id="clipPath1723">
      <g
         id="g1727">
        <rect
           width="105"
           height="300"
           fill="#ffffff"
           id="rect1725"
           x="0.75060999"
           y="0" />
      </g>
    </clipPath>
    <clipPath
       clipPathUnits="userSpaceOnUse"
       id="clipPath1729">
      <g
         id="g1733">
        <rect
           width="105"
           height="300"
           fill="#ffffff"
           id="rect1731"
           x="0.75060999"
           y="0" />
      </g>
    </clipPath>
    <clipPath
       clipPathUnits="userSpaceOnUse"
       id="clipPath1735">
      <g
         id="g1739">
        <rect
           width="105"
           height="300"
           fill="#ffffff"
           id="rect1737"
           x="0.75060999"
           y="0" />
      </g>
    </clipPath>
    <clipPath
       clipPathUnits="userSpaceOnUse"
       id="clipPath1741">
      <g
         id="g1745">
        <rect
           width="105"
           height="300"
           fill="#ffffff"
           id="rect1743"
           x="0.75060999"
           y="0" />
      </g>
    </clipPath>
    <clipPath
       clipPathUnits="userSpaceOnUse"
       id="clipPath1747">
      <g
         id="g1751">
        <rect
           width="105"
           height="300"
           fill="#ffffff"
           id="rect1749"
           x="0.75060999"
           y="0" />
      </g>
    </clipPath>
  </defs>
  <path
     style="color:currentColor;fill:currentColor;-inkscape-stroke:none"
     d="M 31,0 C 23.147556,0 15.719674,1.5159446 9.9453125,4.609375 4.1792364,7.6983452 0,12.76319 0,19 v 262 c 0,7.77614 4.0829254,14.09204 9.9042969,18.06445 C 15.758422,303.05957 23.301514,305 31,305 h 48 c 7.698486,0 15.243531,-1.94043 21.09766,-5.93555 5.82121,-3.97236 9.90429,-10.28814 9.90429,-18.06445 V 19 c 0,-6.237144 -4.17966,-11.3017031 -9.94531,-14.390625 C 94.282257,1.5159513 86.852444,0 79,0 Z m 0,7 h 48 c 6.917342,0 13.391393,1.444326 17.75,3.779297 4.36355,2.337753 6.25195,4.965857 6.25195,8.220703 v 262 c 0,5.45568 -2.49783,9.31357 -6.849606,12.2832 C 91.781479,296.26608 85.4901,298 79,298 H 31 C 24.5099,298 18.220474,296.26608 13.849609,293.2832 9.497851,290.31363 7,286.45585 7,281 V 19 C 7,15.744819 8.8862863,13.117001 13.25,10.779297 17.608568,8.4443327 24.082658,7 31,7 Z"
     id="path2307" />
</svg>
