<svg width="30" height="30" viewBox="0 0 30 30" fill="none" xmlns="http://www.w3.org/2000/svg">
<path d="M18.5 7C18.5 6.72386 18.2761 6.5 18 6.5H12C11.7239 6.5 11.5 6.72386 11.5 7V23C11.5 23.2761 11.7239 23.5 12 23.5H18C18.2761 23.5 18.5 23.2761 18.5 23V7ZM19.5 23C19.5 23.8284 18.8284 24.5 18 24.5H12C11.1716 24.5 10.5 23.8284 10.5 23V7C10.5 6.17157 11.1716 5.5 12 5.5H18C18.8284 5.5 19.5 6.17157 19.5 7V23Z" fill="currentColor"/>
<path d="M17.5 7.5H12.5V14H17.5V7.5Z" fill="currentColor"/>
<path d="M12.5 16.5V15C12.5 14.7239 12.7239 14.5 13 14.5C13.2761 14.5 13.5 14.7239 13.5 15V16.5C13.5 16.7761 13.2761 17 13 17C12.7239 17 12.5 16.7761 12.5 16.5Z" fill="currentColor"/>
<path d="M16.5 16.5V15C16.5 14.7239 16.7239 14.5 17 14.5C17.2761 14.5 17.5 14.7239 17.5 15V16.5C17.5 16.7761 17.2761 17 17 17C16.7239 17 16.5 16.7761 16.5 16.5Z" fill="currentColor"/>
<path d="M15.5 14.5H14.5C14.2239 14.5 14 14.7239 14 15V16.5C14 16.7761 14.2239 17 14.5 17H15.5C15.7761 17 16 16.7761 16 16.5V15C16 14.7239 15.7761 14.5 15.5 14.5Z" fill="currentColor"/>
<path d="M13.5 17.5C13.7761 17.5 14 17.7239 14 18C14 18.2761 13.7761 18.5 13.5 18.5H13C12.7239 18.5 12.5 18.2761 12.5 18C12.5 17.7239 12.7239 17.5 13 17.5H13.5Z" fill="currentColor"/>
<path d="M15.25 17.5C15.5261 17.5 15.75 17.7239 15.75 18C15.75 18.2761 15.5261 18.5 15.25 18.5H14.75C14.4739 18.5 14.25 18.2761 14.25 18C14.25 17.7239 14.4739 17.5 14.75 17.5H15.25Z" fill="currentColor"/>
<path d="M17 17.5C17.2761 17.5 17.5 17.7239 17.5 18C17.5 18.2761 17.2761 18.5 17 18.5H16.5C16.2239 18.5 16 18.2761 16 18C16 17.7239 16.2239 17.5 16.5 17.5H17Z" fill="currentColor"/>
<path d="M15.25 18.8633C15.5261 18.8633 15.75 19.0871 15.75 19.3633C15.75 19.6394 15.5261 19.8633 15.25 19.8633H14.75C14.4739 19.8633 14.25 19.6394 14.25 19.3633C14.25 19.0871 14.4739 18.8633 14.75 18.8633H15.25Z" fill="currentColor"/>
<path d="M17 18.8633C17.2761 18.8633 17.5 19.0871 17.5 19.3633C17.5 19.6394 17.2761 19.8633 17 19.8633H16.5C16.2239 19.8633 16 19.6394 16 19.3633C16 19.0871 16.2239 18.8633 16.5 18.8633H17Z" fill="currentColor"/>
<path d="M13.5 18.8633C13.7761 18.8633 14 19.0871 14 19.3633C14 19.6394 13.7761 19.8633 13.5 19.8633H13C12.7239 19.8633 12.5 19.6394 12.5 19.3633C12.5 19.0871 12.7239 18.8633 13 18.8633H13.5Z" fill="currentColor"/>
<path d="M13.5 20.2266C13.7761 20.2266 14 20.4504 14 20.7266C14 21.0027 13.7761 21.2266 13.5 21.2266H13C12.7239 21.2266 12.5 21.0027 12.5 20.7266C12.5 20.4504 12.7239 20.2266 13 20.2266H13.5Z" fill="currentColor"/>
<path d="M15.25 20.2266C15.5261 20.2266 15.75 20.4504 15.75 20.7266C15.75 21.0027 15.5261 21.2266 15.25 21.2266H14.75C14.4739 21.2266 14.25 21.0027 14.25 20.7266C14.25 20.4504 14.4739 20.2266 14.75 20.2266H15.25Z" fill="currentColor"/>
<path d="M17 20.2266C17.2761 20.2266 17.5 20.4504 17.5 20.7266C17.5 21.0027 17.2761 21.2266 17 21.2266H16.5C16.2239 21.2266 16 21.0027 16 20.7266C16 20.4504 16.2239 20.2266 16.5 20.2266H17Z" fill="currentColor"/>
<path d="M15.25 21.5898C15.5261 21.5898 15.75 21.8137 15.75 22.0898C15.75 22.366 15.5261 22.5898 15.25 22.5898H14.75C14.4739 22.5898 14.25 22.366 14.25 22.0898C14.25 21.8137 14.4739 21.5898 14.75 21.5898H15.25Z" fill="currentColor"/>
<path d="M17 21.5898C17.2761 21.5898 17.5 21.8137 17.5 22.0898C17.5 22.366 17.2761 22.5898 17 22.5898H16.5C16.2239 22.5898 16 22.366 16 22.0898C16 21.8137 16.2239 21.5898 16.5 21.5898H17Z" fill="currentColor"/>
<path d="M13.5 21.5898C13.7761 21.5898 14 21.8137 14 22.0898C14 22.366 13.7761 22.5898 13.5 22.5898H13C12.7239 22.5898 12.5 22.366 12.5 22.0898C12.5 21.8137 12.7239 21.5898 13 21.5898H13.5Z" fill="currentColor"/>
</svg>
