<svg width="30" height="30" viewBox="0 0 30 30" fill="none" xmlns="http://www.w3.org/2000/svg">
<path d="M21.5 5C21.5 4.24191 20.7536 3.50014 19.667 3.5H10.333C9.24645 3.50014 8.5 4.24191 8.5 5V25C8.5 25.7581 9.24645 26.4999 10.333 26.5H19.667C20.7536 26.4999 21.5 25.7581 21.5 25V5ZM22.5 25C22.5 26.4494 21.1557 27.4999 19.667 27.5H10.333C8.84429 27.4999 7.5 26.4494 7.5 25V5C7.5 3.55059 8.84429 2.50014 10.333 2.5H19.667C21.1557 2.50014 22.5 3.55059 22.5 5V25Z" fill="currentColor"/>
<path d="M20 5.5H10V22.5H20V5.5Z" fill="currentColor"/>
<path d="M16 24C16.2761 24 16.5 24.2239 16.5 24.5C16.5 24.7761 16.2761 25 16 25H14C13.7239 25 13.5 24.7761 13.5 24.5C13.5 24.2239 13.7239 24 14 24H16Z" fill="currentColor"/>
</svg>
