<svg width="30" height="30" viewBox="0 0 30 30" fill="none" xmlns="http://www.w3.org/2000/svg">
<path d="M10 9.5C12.331 9.5 14.3235 10.9527 15.124 13H25.5V17H15.124C14.3235 19.0473 12.331 20.5 10 20.5C6.96428 20.5 4.5 18.0357 4.5 15C4.5 11.9643 6.96428 9.5 10 9.5ZM11.5 15C11.5 14.1723 10.8277 13.5 10 13.5C9.17231 13.5 8.5 14.1723 8.5 15C8.5 15.8277 9.17231 16.5 10 16.5C10.8277 16.5 11.5 15.8277 11.5 15ZM5.5 15C5.5 17.4834 7.51656 19.5 10 19.5C12.0123 19.5 13.7198 18.1752 14.2939 16.3496L14.4043 16H24.5V14H14.4043L14.2939 13.6504C13.7198 11.8248 12.0123 10.5 10 10.5C7.51656 10.5 5.5 12.5166 5.5 15ZM12.5 15C12.5 16.38 11.38 17.5 10 17.5C8.62002 17.5 7.5 16.38 7.5 15C7.5 13.62 8.62002 12.5 10 12.5C11.38 12.5 12.5 13.62 12.5 15Z" fill="currentColor"/>
</svg>
