<svg width="30" height="30" viewBox="0 0 30 30" fill="none" xmlns="http://www.w3.org/2000/svg">
<path d="M16 16.25H14.5C14.2239 16.25 14 16.0261 14 15.75C14 15.4739 14.2239 15.25 14.5 15.25H16C16.2761 15.25 16.5 15.4739 16.5 15.75C16.5 16.0261 16.2761 16.25 16 16.25Z" fill="currentColor"/>
<path d="M16 17.75H14.5C14.2239 17.75 14 17.5261 14 17.25C14 16.9739 14.2239 16.75 14.5 16.75H16C16.2761 16.75 16.5 16.9739 16.5 17.25C16.5 17.5261 16.2761 17.75 16 17.75Z" fill="currentColor"/>
<path d="M19 17H17.5C17.2239 17 17 16.7761 17 16.5C17 16.2239 17.2239 16 17.5 16H19C19.2761 16 19.5 16.2239 19.5 16.5C19.5 16.7761 19.2761 17 19 17Z" fill="currentColor"/>
<path d="M13 17H11.5C11.2239 17 11 16.7761 11 16.5C11 16.2239 11.2239 16 11.5 16H13C13.2761 16 13.5 16.2239 13.5 16.5C13.5 16.7761 13.2761 17 13 17Z" fill="currentColor"/>
<path d="M10 4H21V12H10V4Z" fill="currentColor"/>
<path fill-rule="evenodd" clip-rule="evenodd" d="M22 1.5C23.3807 1.5 24.5 2.61929 24.5 4V25.5859C24.5 26.6883 23.7667 27.6858 22.6387 27.8975C21.1979 28.1675 18.7609 28.5 15.5 28.5C12.2391 28.5 9.80206 28.1675 8.36133 27.8975C7.23327 27.6858 6.5 26.6883 6.5 25.5859V4C6.5 2.61929 7.61929 1.5 9 1.5H22ZM7.5 14.5V25.5859C7.5 26.2533 7.93466 26.7994 8.5459 26.9141C9.93227 27.174 12.3071 27.5 15.5 27.5C18.6929 27.5 21.0677 27.174 22.4541 26.9141C23.0653 26.7994 23.5 26.2533 23.5 25.5859V14.5H7.5ZM9 2.5C8.17157 2.5 7.5 3.17157 7.5 4V13.5H23.5V4C23.5 3.17157 22.8284 2.5 22 2.5H9Z" fill="currentColor"/>
<path d="M8.25 19C8.25 18.7239 8.47386 18.5 8.75 18.5C9.02614 18.5 9.25 18.7239 9.25 19V19.5C9.25 19.7761 9.02614 20 8.75 20C8.47386 20 8.25 19.7761 8.25 19.5V19Z" fill="currentColor"/>
<path d="M9.75 19C9.75 18.7239 9.97386 18.5 10.25 18.5C10.5261 18.5 10.75 18.7239 10.75 19V19.5C10.75 19.7761 10.5261 20 10.25 20C9.97386 20 9.75 19.7761 9.75 19.5V19Z" fill="currentColor"/>
<path d="M11.25 19C11.25 18.7239 11.4739 18.5 11.75 18.5C12.0261 18.5 12.25 18.7239 12.25 19V19.5C12.25 19.7761 12.0261 20 11.75 20C11.4739 20 11.25 19.7761 11.25 19.5V19Z" fill="currentColor"/>
<path d="M9.75 21C9.75 20.7239 9.97386 20.5 10.25 20.5C10.5261 20.5 10.75 20.7239 10.75 21V21.5C10.75 21.7761 10.5261 22 10.25 22C9.97386 22 9.75 21.7761 9.75 21.5V21Z" fill="currentColor"/>
<path d="M11.25 21C11.25 20.7239 11.4739 20.5 11.75 20.5C12.0261 20.5 12.25 20.7239 12.25 21V21.5C12.25 21.7761 12.0261 22 11.75 22C11.4739 22 11.25 21.7761 11.25 21.5V21Z" fill="currentColor"/>
<path d="M8.25 21C8.25 20.7239 8.47386 20.5 8.75 20.5C9.02614 20.5 9.25 20.7239 9.25 21V21.5C9.25 21.7761 9.02614 22 8.75 22C8.47386 22 8.25 21.7761 8.25 21.5V21Z" fill="currentColor"/>
<path d="M8.25 23C8.25 22.7239 8.47386 22.5 8.75 22.5C9.02614 22.5 9.25 22.7239 9.25 23V23.5C9.25 23.7761 9.02614 24 8.75 24C8.47386 24 8.25 23.7761 8.25 23.5V23Z" fill="currentColor"/>
<path d="M9.75 23C9.75 22.7239 9.97386 22.5 10.25 22.5C10.5261 22.5 10.75 22.7239 10.75 23V23.5C10.75 23.7761 10.5261 24 10.25 24C9.97386 24 9.75 23.7761 9.75 23.5V23Z" fill="currentColor"/>
<path d="M11.25 23C11.25 22.7239 11.4739 22.5 11.75 22.5C12.0261 22.5 12.25 22.7239 12.25 23V23.5C12.25 23.7761 12.0261 24 11.75 24C11.4739 24 11.25 23.7761 11.25 23.5V23Z" fill="currentColor"/>
<path d="M9.75 25C9.75 24.7239 9.97386 24.5 10.25 24.5C10.5261 24.5 10.75 24.7239 10.75 25V25.5C10.75 25.7761 10.5261 26 10.25 26C9.97386 26 9.75 25.7761 9.75 25.5V25Z" fill="currentColor"/>
<path d="M11.25 25C11.25 24.7239 11.4739 24.5 11.75 24.5C12.0261 24.5 12.25 24.7239 12.25 25V25.5C12.25 25.7761 12.0261 26 11.75 26C11.4739 26 11.25 25.7761 11.25 25.5V25Z" fill="currentColor"/>
<path d="M12.75 19C12.75 18.7239 12.9739 18.5 13.25 18.5C13.5261 18.5 13.75 18.7239 13.75 19V19.5C13.75 19.7761 13.5261 20 13.25 20C12.9739 20 12.75 19.7761 12.75 19.5V19Z" fill="currentColor"/>
<path d="M12.75 21C12.75 20.7239 12.9739 20.5 13.25 20.5C13.5261 20.5 13.75 20.7239 13.75 21V21.5C13.75 21.7761 13.5261 22 13.25 22C12.9739 22 12.75 21.7761 12.75 21.5V21Z" fill="currentColor"/>
<path d="M12.75 23C12.75 22.7239 12.9739 22.5 13.25 22.5C13.5261 22.5 13.75 22.7239 13.75 23V23.5C13.75 23.7761 13.5261 24 13.25 24C12.9739 24 12.75 23.7761 12.75 23.5V23Z" fill="currentColor"/>
<path d="M12.75 25C12.75 24.7239 12.9739 24.5 13.25 24.5C13.5261 24.5 13.75 24.7239 13.75 25V25.5C13.75 25.7761 13.5261 26 13.25 26C12.9739 26 12.75 25.7761 12.75 25.5V25Z" fill="currentColor"/>
<path d="M8.25 25C8.25 24.7239 8.47386 24.5 8.75 24.5C9.02614 24.5 9.25 24.7239 9.25 25V25.5C9.25 25.7761 9.02614 26 8.75 26C8.47386 26 8.25 25.7761 8.25 25.5V25Z" fill="currentColor"/>
<path d="M14.25 19C14.25 18.7239 14.4739 18.5 14.75 18.5C15.0261 18.5 15.25 18.7239 15.25 19V19.5C15.25 19.7761 15.0261 20 14.75 20C14.4739 20 14.25 19.7761 14.25 19.5V19Z" fill="currentColor"/>
<path d="M15.75 19C15.75 18.7239 15.9739 18.5 16.25 18.5C16.5261 18.5 16.75 18.7239 16.75 19V19.5C16.75 19.7761 16.5261 20 16.25 20C15.9739 20 15.75 19.7761 15.75 19.5V19Z" fill="currentColor"/>
<path d="M17.25 19C17.25 18.7239 17.4739 18.5 17.75 18.5C18.0261 18.5 18.25 18.7239 18.25 19V19.5C18.25 19.7761 18.0261 20 17.75 20C17.4739 20 17.25 19.7761 17.25 19.5V19Z" fill="currentColor"/>
<path d="M15.75 21C15.75 20.7239 15.9739 20.5 16.25 20.5C16.5261 20.5 16.75 20.7239 16.75 21V21.5C16.75 21.7761 16.5261 22 16.25 22C15.9739 22 15.75 21.7761 15.75 21.5V21Z" fill="currentColor"/>
<path d="M17.25 21C17.25 20.7239 17.4739 20.5 17.75 20.5C18.0261 20.5 18.25 20.7239 18.25 21V21.5C18.25 21.7761 18.0261 22 17.75 22C17.4739 22 17.25 21.7761 17.25 21.5V21Z" fill="currentColor"/>
<path d="M14.25 21C14.25 20.7239 14.4739 20.5 14.75 20.5C15.0261 20.5 15.25 20.7239 15.25 21V21.5C15.25 21.7761 15.0261 22 14.75 22C14.4739 22 14.25 21.7761 14.25 21.5V21Z" fill="currentColor"/>
<path d="M14.25 23C14.25 22.7239 14.4739 22.5 14.75 22.5C15.0261 22.5 15.25 22.7239 15.25 23V23.5C15.25 23.7761 15.0261 24 14.75 24C14.4739 24 14.25 23.7761 14.25 23.5V23Z" fill="currentColor"/>
<path d="M15.75 23C15.75 22.7239 15.9739 22.5 16.25 22.5C16.5261 22.5 16.75 22.7239 16.75 23V23.5C16.75 23.7761 16.5261 24 16.25 24C15.9739 24 15.75 23.7761 15.75 23.5V23Z" fill="currentColor"/>
<path d="M17.25 23C17.25 22.7239 17.4739 22.5 17.75 22.5C18.0261 22.5 18.25 22.7239 18.25 23V23.5C18.25 23.7761 18.0261 24 17.75 24C17.4739 24 17.25 23.7761 17.25 23.5V23Z" fill="currentColor"/>
<path d="M15.75 25C15.75 24.7239 15.9739 24.5 16.25 24.5C16.5261 24.5 16.75 24.7239 16.75 25V25.5C16.75 25.7761 16.5261 26 16.25 26C15.9739 26 15.75 25.7761 15.75 25.5V25Z" fill="currentColor"/>
<path d="M17.25 25C17.25 24.7239 17.4739 24.5 17.75 24.5C18.0261 24.5 18.25 24.7239 18.25 25V25.5C18.25 25.7761 18.0261 26 17.75 26C17.4739 26 17.25 25.7761 17.25 25.5V25Z" fill="currentColor"/>
<path d="M18.75 19C18.75 18.7239 18.9739 18.5 19.25 18.5C19.5261 18.5 19.75 18.7239 19.75 19V19.5C19.75 19.7761 19.5261 20 19.25 20C18.9739 20 18.75 19.7761 18.75 19.5V19Z" fill="currentColor"/>
<path d="M18.75 21C18.75 20.7239 18.9739 20.5 19.25 20.5C19.5261 20.5 19.75 20.7239 19.75 21V21.5C19.75 21.7761 19.5261 22 19.25 22C18.9739 22 18.75 21.7761 18.75 21.5V21Z" fill="currentColor"/>
<path d="M18.75 23C18.75 22.7239 18.9739 22.5 19.25 22.5C19.5261 22.5 19.75 22.7239 19.75 23V23.5C19.75 23.7761 19.5261 24 19.25 24C18.9739 24 18.75 23.7761 18.75 23.5V23Z" fill="currentColor"/>
<path d="M18.75 25C18.75 24.7239 18.9739 24.5 19.25 24.5C19.5261 24.5 19.75 24.7239 19.75 25V25.5C19.75 25.7761 19.5261 26 19.25 26C18.9739 26 18.75 25.7761 18.75 25.5V25Z" fill="currentColor"/>
<path d="M20.25 19C20.25 18.7239 20.4739 18.5 20.75 18.5C21.0261 18.5 21.25 18.7239 21.25 19V19.5C21.25 19.7761 21.0261 20 20.75 20C20.4739 20 20.25 19.7761 20.25 19.5V19Z" fill="currentColor"/>
<path d="M20.25 21C20.25 20.7239 20.4739 20.5 20.75 20.5C21.0261 20.5 21.25 20.7239 21.25 21V21.5C21.25 21.7761 21.0261 22 20.75 22C20.4739 22 20.25 21.7761 20.25 21.5V21Z" fill="currentColor"/>
<path d="M20.25 23C20.25 22.7239 20.4739 22.5 20.75 22.5C21.0261 22.5 21.25 22.7239 21.25 23V23.5C21.25 23.7761 21.0261 24 20.75 24C20.4739 24 20.25 23.7761 20.25 23.5V23Z" fill="currentColor"/>
<path d="M20.25 25C20.25 24.7239 20.4739 24.5 20.75 24.5C21.0261 24.5 21.25 24.7239 21.25 25V25.5C21.25 25.7761 21.0261 26 20.75 26C20.4739 26 20.25 25.7761 20.25 25.5V25Z" fill="currentColor"/>
<path d="M21.75 19C21.75 18.7239 21.9739 18.5 22.25 18.5C22.5261 18.5 22.75 18.7239 22.75 19V19.5C22.75 19.7761 22.5261 20 22.25 20C21.9739 20 21.75 19.7761 21.75 19.5V19Z" fill="currentColor"/>
<path d="M21.75 21C21.75 20.7239 21.9739 20.5 22.25 20.5C22.5261 20.5 22.75 20.7239 22.75 21V21.5C22.75 21.7761 22.5261 22 22.25 22C21.9739 22 21.75 21.7761 21.75 21.5V21Z" fill="currentColor"/>
<path d="M21.75 23C21.75 22.7239 21.9739 22.5 22.25 22.5C22.5261 22.5 22.75 22.7239 22.75 23V23.5C22.75 23.7761 22.5261 24 22.25 24C21.9739 24 21.75 23.7761 21.75 23.5V23Z" fill="currentColor"/>
<path d="M21.75 25C21.75 24.7239 21.9739 24.5 22.25 24.5C22.5261 24.5 22.75 24.7239 22.75 25V25.5C22.75 25.7761 22.5261 26 22.25 26C21.9739 26 21.75 25.7761 21.75 25.5V25Z" fill="currentColor"/>
<path d="M14.25 25C14.25 24.7239 14.4739 24.5 14.75 24.5C15.0261 24.5 15.25 24.7239 15.25 25V25.5C15.25 25.7761 15.0261 26 14.75 26C14.4739 26 14.25 25.7761 14.25 25.5V25Z" fill="currentColor"/>
</svg>
