<svg width="30" height="30" viewBox="0 0 30 30" fill="none" xmlns="http://www.w3.org/2000/svg">
<path fill-rule="evenodd" clip-rule="evenodd" d="M22.5 13C23.3284 13 24 13.6716 24 14.5V19.5C24 20.2767 23.4097 20.9154 22.6533 20.9922C22.6029 20.9973 22.5518 21 22.5 21H7.5C6.67157 21 6 20.3284 6 19.5V14.5C6 13.6716 6.67157 13 7.5 13C8.32843 13 9 13.6716 9 14.5V17H21V14.5C21 13.6716 21.6716 13 22.5 13ZM22.5 14C22.2239 14 22 14.2239 22 14.5V18H8V14.5C8 14.2239 7.77614 14 7.5 14C7.22386 14 7 14.2239 7 14.5V19.5C7 19.7761 7.22386 20 7.5 20H22.5C22.517 20 22.5349 19.9989 22.5527 19.9971C22.8037 19.9714 23 19.7581 23 19.5V14.5C23 14.2239 22.7761 14 22.5 14Z" fill="white"/>
<path fill-rule="evenodd" clip-rule="evenodd" d="M20 9C20.8284 9 21.5 9.67157 21.5 10.5V12.209C20.6172 12.5948 20 13.475 20 14.5V16H10V14.5C10 13.475 9.38276 12.5948 8.5 12.209V10.5C8.5 9.67157 9.17157 9 10 9H20ZM10 10C9.72386 10 9.5 10.2239 9.5 10.5V11.6309C10.4047 12.2623 11 13.3097 11 14.5V15H19V14.5C19 13.3097 19.5953 12.2623 20.5 11.6309V10.5C20.5 10.2239 20.2761 10 20 10H10Z" fill="white"/>
</svg>
