<svg width="30" height="30" viewBox="0 0 30 30" fill="none" xmlns="http://www.w3.org/2000/svg">
<path d="M21 10.5C21 10.2239 20.7761 10 20.5 10H8.5C8.22386 10 8 10.2239 8 10.5V18.5C8 18.7761 8.22386 19 8.5 19H20.5C20.7761 19 21 18.7761 21 18.5V10.5ZM22 18.5C22 19.3284 21.3284 20 20.5 20H8.5C7.67157 20 7 19.3284 7 18.5V10.5C7 9.67157 7.67157 9 8.5 9H20.5C21.3284 9 22 9.67157 22 10.5V18.5Z" fill="currentColor"/>
<path d="M11.5 11C11.7761 11 12 11.2239 12 11.5C12 11.7761 11.7761 12 11.5 12H9.5C9.22386 12 9 11.7761 9 11.5C9 11.2239 9.22386 11 9.5 11H11.5Z" fill="currentColor"/>
<path d="M11.5 13C11.7761 13 12 13.2239 12 13.5C12 13.7761 11.7761 14 11.5 14H9.5C9.22386 14 9 13.7761 9 13.5C9 13.2239 9.22386 13 9.5 13H11.5Z" fill="currentColor"/>
<path d="M11.5 15C11.7761 15 12 15.2239 12 15.5C12 15.7761 11.7761 16 11.5 16H9.5C9.22386 16 9 15.7761 9 15.5C9 15.2239 9.22386 15 9.5 15H11.5Z" fill="currentColor"/>
<path d="M11.5 17C11.7761 17 12 17.2239 12 17.5C12 17.7761 11.7761 18 11.5 18H9.5C9.22386 18 9 17.7761 9 17.5C9 17.2239 9.22386 17 9.5 17H11.5Z" fill="currentColor"/>
<path d="M15.5 11C15.7761 11 16 11.2239 16 11.5C16 11.7761 15.7761 12 15.5 12H13.5C13.2239 12 13 11.7761 13 11.5C13 11.2239 13.2239 11 13.5 11H15.5Z" fill="currentColor"/>
<path d="M19.5 11C19.7761 11 20 11.2239 20 11.5C20 11.7761 19.7761 12 19.5 12H17.5C17.2239 12 17 11.7761 17 11.5C17 11.2239 17.2239 11 17.5 11H19.5Z" fill="currentColor"/>
<path d="M15.5 13C15.7761 13 16 13.2239 16 13.5C16 13.7761 15.7761 14 15.5 14H13.5C13.2239 14 13 13.7761 13 13.5C13 13.2239 13.2239 13 13.5 13H15.5Z" fill="currentColor"/>
<path d="M19.5 13C19.7761 13 20 13.2239 20 13.5C20 13.7761 19.7761 14 19.5 14H17.5C17.2239 14 17 13.7761 17 13.5C17 13.2239 17.2239 13 17.5 13H19.5Z" fill="currentColor"/>
<path d="M15.5 15C15.7761 15 16 15.2239 16 15.5C16 15.7761 15.7761 16 15.5 16H13.5C13.2239 16 13 15.7761 13 15.5C13 15.2239 13.2239 15 13.5 15H15.5Z" fill="currentColor"/>
<path d="M19.5 15C19.7761 15 20 15.2239 20 15.5C20 15.7761 19.7761 16 19.5 16H17.5C17.2239 16 17 15.7761 17 15.5C17 15.2239 17.2239 15 17.5 15H19.5Z" fill="currentColor"/>
<path d="M15.5 17C15.7761 17 16 17.2239 16 17.5C16 17.7761 15.7761 18 15.5 18H13.5C13.2239 18 13 17.7761 13 17.5C13 17.2239 13.2239 17 13.5 17H15.5Z" fill="currentColor"/>
<path d="M19.5 17C19.7761 17 20 17.2239 20 17.5C20 17.7761 19.7761 18 19.5 18H17.5C17.2239 18 17 17.7761 17 17.5C17 17.2239 17.2239 17 17.5 17H19.5Z" fill="currentColor"/>
</svg>
