<svg width="30" height="30" viewBox="0 0 30 30" fill="none" xmlns="http://www.w3.org/2000/svg">
<path d="M25.5 15C25.5 11.9624 23.0376 9.5 20 9.5H10C6.96243 9.5 4.5 11.9624 4.5 15C4.5 18.0376 6.96243 20.5 10 20.5H20C23.0376 20.5 25.5 18.0376 25.5 15ZM26.5 15C26.5 18.5899 23.5899 21.5 20 21.5H10C6.41015 21.5 3.5 18.5899 3.5 15C3.5 11.4101 6.41015 8.5 10 8.5H20C23.5899 8.5 26.5 11.4101 26.5 15Z" fill="currentColor"/>
<path d="M17 12H13C12.4477 12 12 12.4477 12 13V17C12 17.5523 12.4477 18 13 18H17C17.5523 18 18 17.5523 18 17V13C18 12.4477 17.5523 12 17 12Z" fill="currentColor"/>
<path d="M8.5 17C9.60457 17 10.5 16.1046 10.5 15C10.5 13.8954 9.60457 13 8.5 13C7.39543 13 6.5 13.8954 6.5 15C6.5 16.1046 7.39543 17 8.5 17Z" fill="currentColor"/>
<path d="M23 12.5C23.2761 12.5 23.5 12.7239 23.5 13C23.5 13.2761 23.2761 13.5 23 13.5H20C19.7239 13.5 19.5 13.2761 19.5 13C19.5 12.7239 19.7239 12.5 20 12.5H23Z" fill="currentColor"/>
<path d="M23 16.5C23.2761 16.5 23.5 16.7239 23.5 17C23.5 17.2761 23.2761 17.5 23 17.5H20C19.7239 17.5 19.5 17.2761 19.5 17C19.5 16.7239 19.7239 16.5 20 16.5H23Z" fill="currentColor"/>
<path d="M23 14.5C23.2761 14.5 23.5 14.7239 23.5 15C23.5 15.2761 23.2761 15.5 23 15.5H20C19.7239 15.5 19.5 15.2761 19.5 15C19.5 14.7239 19.7239 14.5 20 14.5H23Z" fill="currentColor"/>
</svg>
